<?xml version="1.0" encoding="utf-8"?>
<!-- Generator: Adobe Illustrator 25.1.0, SVG Export Plug-In . SVG Version: 6.00 Build 0)  -->
<svg version="1.1" xmlns="http://www.w3.org/2000/svg" xmlns:xlink="http://www.w3.org/1999/xlink" x="0px" y="0px"
	 viewBox="0 0 113 103.2" style="enable-background:new 0 0 113 103.2;" xml:space="preserve">
<style type="text/css">
	.st0{fill:#161413;}
	.st1{fill:#F1EADC;}
	.st2{fill:#EF7EB0;}
	.st3{fill:none;stroke:#FFFFFF;stroke-miterlimit:10;}
	.st4{fill:none;stroke:#FFFFFF;stroke-width:2;stroke-linecap:round;stroke-linejoin:round;}
	
		.st5{fill:none;stroke:#FFFFFF;stroke-width:2;stroke-linecap:round;stroke-linejoin:round;stroke-dasharray:5.3004,5.3004,5.3004,5.3004;}
	
		.st6{fill:none;stroke:#FFFFFF;stroke-width:2;stroke-linecap:round;stroke-linejoin:round;stroke-dasharray:5.3004,5.3004,5.3004,5.3004,5.3004,5.3004;}
	.st7{fill:#1C3B2A;}
	.st8{fill:#E84820;}
	
		.st9{fill:none;stroke:#FFFFFF;stroke-width:2;stroke-linecap:round;stroke-linejoin:round;stroke-dasharray:5.4243,5.4243,5.4243,5.4243;}
	
		.st10{fill:none;stroke:#FFFFFF;stroke-width:2;stroke-linecap:round;stroke-linejoin:round;stroke-dasharray:5.4243,5.4243,5.4243,5.4243,5.4243,5.4243;}
	.st11{fill:#F49F2E;}
	.st12{fill:#F1ECDC;}
	.st13{fill:#FFFFFF;}
	.st14{fill:#5577BA;}
	.st15{fill:#FFF5DC;}
	.st16{fill:none;}
	
		.st17{fill:none;stroke:#FFFFFF;stroke-width:2;stroke-linecap:round;stroke-linejoin:round;stroke-dasharray:5.4063,5.4063,5.4063,5.4063;}
	
		.st18{fill:none;stroke:#FFFFFF;stroke-width:2;stroke-linecap:round;stroke-linejoin:round;stroke-dasharray:5.4063,5.4063,5.4063,5.4063,5.4063,5.4063;}
	
		.st19{fill:none;stroke:#FFFFFF;stroke-width:2;stroke-linecap:round;stroke-linejoin:round;stroke-dasharray:4.5833,4.5833,4.5833,4.5833;}
	
		.st20{fill:none;stroke:#FFFFFF;stroke-width:2;stroke-linecap:round;stroke-linejoin:round;stroke-dasharray:4.5833,4.5833,4.5833,4.5833,4.5833,4.5833;}
	.st21{fill:#282521;}
	.st22{fill:#151313;}
	.st23{fill:#FDF4E8;}
	.st24{fill:#020203;}
	.st25{fill:#204232;}
	.st26{fill:#FDF4E8;stroke:#000000;stroke-miterlimit:10;}
	.st27{fill:none;stroke:#000000;stroke-width:0.25;stroke-miterlimit:10;}
	.st28{fill:#FDF4E8;stroke:#000000;stroke-width:0.25;stroke-miterlimit:10;}
	.st29{fill:#204730;}
	.st30{fill:#1F422B;}
	.st31{fill:#F1ECDC;stroke:#000000;stroke-width:2;stroke-miterlimit:10;}
	.st32{opacity:0.7;}
	.st33{opacity:0.6;}
	.st34{clip-path:url(#SVGID_32_);}
	.st35{fill:#B5CCBE;}
	.st36{clip-path:url(#SVGID_34_);}
	.st37{clip-path:url(#SVGID_38_);}
	.st38{clip-path:url(#SVGID_40_);}
</style>
<g id="Calque_1">
	<g>
		<path class="st11" d="M32.3,7.6C3.1,17.8,5.8,31,1.2,45.4c-1.5,4.8-1.4,19-0.5,23.9c1.4,7,7.2,12.9,13.6,17.4
			c16.3,11.7,38.2,17.7,59.4,16.3c3.7-0.2,7.4-0.7,10.6-2.3c2.9-1.4,5.1-3.5,7.2-5.7c15.6-16.1,25.8-37.8,19.7-58
			c-2.5-8.3-7.5-15.8-12.5-23.2c-2-3-4.1-6-7.2-8.2C88.3,3.3,84.1,2.2,80,1.4C63.9-1.7,46.6,0.5,32.3,7.6"/>
	</g>
	<g>
		<g>
			<g>
				<g>
					<g>
						<g>
							<path class="st12" d="M28,49.5C28,49.5,28,49.5,28,49.5C28,49.5,28,49.5,28,49.5z"/>
							<path class="st12" d="M29.7,50.6L29.7,50.6C29.7,50.6,29.7,50.6,29.7,50.6z"/>
							<path class="st12" d="M25.3,50L25.3,50c0,0-0.1,0-0.2,0L25.3,50z"/>
							<path class="st12" d="M30.3,60.1L30.3,60.1C30.3,60.1,30.3,60.1,30.3,60.1z"/>
							<path class="st12" d="M30.1,54.4C30.1,54.5,30.1,54.5,30.1,54.4C30.1,54.5,30.1,54.4,30.1,54.4z"/>
							<path class="st12" d="M23.6,49L23.6,49C23.7,49,23.6,49,23.6,49z"/>
							<path class="st12" d="M21,50.1L21,50.1C21,50.1,21,50.1,21,50.1z"/>
							<path class="st12" d="M22.1,50.2C22.1,50.1,22.2,50.1,22.1,50.2C22.2,50.1,22.1,50.1,22.1,50.2z"/>
							<path class="st12" d="M22.2,50.1L22.2,50.1C22.2,50.1,22.2,50.1,22.2,50.1z"/>
							<path class="st12" d="M20.9,50c0-0.1-0.1-0.1-0.1-0.2L20.9,50z"/>
							<path class="st12" d="M30.3,65.8L30.3,65.8C30.3,65.8,30.3,65.8,30.3,65.8z"/>
							<path class="st12" d="M20,50L20,50C20,49.9,20,49.9,20,50z"/>
							<path class="st12" d="M24.9,48.4c0.1-0.1,0.2,0,0.2-0.1C25.1,48.3,24.9,48.2,24.9,48.4z"/>
							<path class="st12" d="M29.1,69.3L29.1,69.3C29.1,69.3,29.1,69.3,29.1,69.3z"/>
							<path class="st12" d="M20,50L20,50C20,50,20.1,50,20,50C20.1,50,20,50,20,50z"/>
							<polygon class="st12" points="22.8,65.1 22.8,65.1 22.8,65 							"/>
							<path class="st12" d="M22.8,64.9L22.8,64.9C22.8,64.9,22.8,64.9,22.8,64.9z"/>
							<path class="st12" d="M20.7,49.8l-0.1-0.1C20.7,49.7,20.7,49.8,20.7,49.8z"/>
							<path class="st12" d="M22.3,61.6C22.3,61.6,22.3,61.6,22.3,61.6C22.3,61.6,22.3,61.6,22.3,61.6z"/>
							<path class="st12" d="M30.1,54.1C30.1,54.1,30.1,54,30.1,54.1C30.1,54,30.1,54,30.1,54.1z"/>
							<polygon class="st12" points="33,57.4 33,57.4 33,57.4 							"/>
							<path class="st12" d="M32.8,57.2c0,0.1,0.1,0.1,0.1,0.2C32.9,57.3,32.9,57.3,32.8,57.2z"/>
							<path class="st12" d="M32.9,57.8L32.9,57.8C32.9,57.8,32.9,57.8,32.9,57.8z"/>
							<polygon class="st12" points="32.7,53.9 32.7,53.9 32.7,53.9 							"/>
							<path class="st12" d="M32.8,54.7C32.8,54.7,32.8,54.7,32.8,54.7C32.8,54.7,32.8,54.7,32.8,54.7z"/>
							<polygon class="st12" points="33.4,59.7 33.4,59.7 33.4,59.7 							"/>
							<path class="st12" d="M34.3,68.8c0-0.8-0.1-1.6-0.2-2.4c0-0.4,0-0.7-0.1-1.1c0-0.2,0-0.4,0-0.6c-0.2-0.2-0.2-0.4-0.3-0.6
								l0.3,0L34,63.8c0.1-0.1,0.1,0.1,0.1,0L34,63.7c0.1,0,0-0.5,0.2-0.2l0-0.8c0-0.2-0.2-0.1-0.2-0.3c0.1,0,0.1,0.1,0.1,0
								c0.2-0.6-0.5-0.6-0.4-1.1l0,0c-0.1-0.1-0.1-0.3-0.1-0.3c-0.3,0.1,0.1,0.1,0,0.3c-0.2,0-0.1-0.2-0.3-0.2
								c0.1-0.1-0.1-0.2-0.1-0.3c0.1-0.2,0-0.4,0.2-0.6c-0.1-0.1-0.3-0.2-0.3-0.4c0.2-0.1,0.2,0,0.2-0.2l-0.1,0c0-0.2,0-0.1,0.1-0.1
								c0-0.2-0.2-0.1-0.1-0.3l0.1,0.1c-0.1-0.1,0-0.2,0-0.4c0.1,0,0.1,0.1,0.1,0.1c0.2-0.1-0.1-0.2-0.1-0.3c-0.1,0-0.1,0.2-0.2,0.1
								c0-0.1-0.2-0.2,0-0.3l0.1,0.1c-0.1-0.2-0.2-0.1-0.1-0.4c0,0,0,0,0.1,0c-0.2-0.1,0-0.4-0.1-0.6l0,0c-0.1-0.1-0.2-0.1-0.2-0.2
								c-0.1,0.1-0.1,0.1-0.2,0.1c0.2-0.2-0.3-0.2-0.2-0.5c0.1,0,0.2,0.1,0.1,0.1c0.2,0.1,0.4,0.1,0.5,0.2c-0.1-0.1-0.1-0.2,0-0.2
								l-0.2,0c0-0.1,0-0.1,0-0.2c-0.1,0-0.2,0.2-0.3,0c-0.1-0.2,0.2-0.1,0.1-0.1c-0.1-0.2-0.2-0.1-0.2-0.3c0,0,0.1,0.1,0,0.1
								c0.1-0.2-0.1-0.4,0.2-0.5c0.1,0,0.1,0,0.1,0.1l0,0c0.2,0.2-0.1-0.1,0.2-0.1c-0.1,0-0.1-0.2-0.1-0.3l-0.1,0
								c-0.5-0.3,0.3,0,0.2-0.3c-0.1-0.2,0,0.1-0.1,0c0-0.1,0.1-0.2,0-0.4c0.1-0.1,0.1-0.2,0.3-0.2c-0.1-0.1,0-0.4-0.1-0.5
								c-0.1,0.2,0.2,0.2,0,0.5l-0.2-0.1c0-0.2-0.1-0.4-0.1-0.5c0,0-0.1,0-0.1,0c-0.1-0.2-0.3-0.3-0.2-0.6c0.1-0.1,0.1,0.1,0.2,0.2
								c0.1-0.2,0-0.2,0-0.4c0.1,0,0,0.2,0.1,0.2l-0.1-0.3l0,0c-0.2,0,0-0.2-0.1-0.4c-0.1-0.4-0.3-0.4-0.5-0.6
								c0-0.1,0.1-0.1,0.2-0.1c-0.1,0.1,0,0.1,0.1,0.1c0-0.1,0.2-0.3,0.3-0.3c-0.1-0.2-0.1,0.1-0.2,0l0-0.3c-0.1,0-0.1,0.2-0.2,0
								c0-0.1,0-0.2-0.1-0.4c0.1,0,0.2-0.1,0.2,0c0-0.1,0-0.2-0.1-0.2c-0.1,0.2-0.1-0.3-0.3-0.1l0.1-0.2c0,0,0.1,0,0.1,0.1
								c0.2-0.1-0.1-0.1-0.1-0.2c0-0.1,0-0.2,0.1-0.3c-0.1-0.1,0-0.2,0-0.2c0-0.1-0.1,0-0.2,0l0-0.3c0.1,0,0.3-0.1,0.4-0.1
								c-0.1-0.1-0.3,0-0.3-0.2c0.1,0,0.1,0,0.1-0.1c0-0.1,0.1-0.1,0.2-0.1c0.1-0.2,0-0.6-0.1-0.8c-0.2-0.1,0,0.3-0.2,0.3
								c-0.2-0.6-0.5-0.4-0.5-0.8l0,0.1c-0.1-0.2-0.1-0.2-0.3-0.2c0.2,0,0.3-0.6,0-0.9c-0.1,0,0,0.3-0.1,0.4
								c-0.1-0.1-0.1-0.1-0.2-0.2c0,0,0,0,0.1,0c-0.2-0.1-0.2-0.5-0.4-0.3c0-0.1-0.1-0.2-0.1-0.3l0,0.1c-0.1,0.1-0.3,0-0.4,0
								c-0.3,0.1-0.4,0-0.5-0.1c0,0.1,0.1,0.2-0.1,0.3c0.1-0.3-0.4-0.1-0.4-0.2c-0.1,0-0.3,0-0.3,0.1l0-0.2c0,0.3-0.4,0.3-0.6,0.4
								c0-0.2-0.1-0.2-0.2-0.1c-0.1,0-0.1,0.1-0.2-0.1c0,0.2-0.3,0.2-0.3,0.4c-0.1,0-0.2-0.2-0.2-0.2l0,0.1c-0.1-0.1-0.4,0-0.5-0.1
								l-0.1,0.2L26.5,48c0,0.1-0.1,0.1,0,0.2l-0.1,0c0.1,0.2-0.1,0.1-0.2,0.2c0,0,0-0.1,0-0.1c-0.1,0-0.1-0.1-0.1-0.2
								c0.1,0-0.2,0.5,0.1,0.5c0,0.1-0.1,0.2-0.2,0.2l-0.1-0.2l0,0.2c-0.1,0.1-0.2-0.1-0.3,0c0.1,0,0.1-0.4-0.1-0.4
								c0.1-0.1,0.2-0.2,0.2-0.2c-0.1,0-0.1,0,0-0.1c-0.2,0.1,0,0.1-0.2,0.2c0-0.2-0.1-0.2-0.3-0.2l0.2,0.1c0,0,0,0,0,0.1
								c0.1,0,0.1,0,0.1,0.1c0,0-0.2,0.3-0.2,0.2c0.3,0.2-0.3,0.3-0.1,0.4c0,0.1-0.1,0.1-0.2,0c0.1-0.2-0.2-0.2-0.2-0.3
								c0,0.1,0.2,0.1,0.1,0.2c-0.1,0-0.2-0.1-0.3-0.1l0,0l-0.2,0c0,0.1,0.2,0.1,0.1,0.2c0,0-0.2,0.1-0.2,0c0-0.1-0.1-0.3,0.1-0.3
								c-0.1,0-0.4,0.1-0.2,0.3l-0.1,0c0.1,0.1,0.3,0.1,0.1,0.2l0,0l-0.1,0.2l-0.1-0.1c0,0,0,0.1-0.1,0.1c0,0-0.1-0.1-0.1-0.1
								c-0.2,0.1-0.1,0.1-0.2,0.2c-0.1,0-0.1,0-0.1-0.1c-0.1,0-0.4,0.1-0.5,0c-0.2,0.1,0,0,0,0.2c-0.2-0.3-0.6,0-0.9,0.2
								c0.2,0.2-0.1,0.1-0.1,0.3c0-0.1-0.3-0.1-0.1-0.3l-0.2,0.1c-0.1-0.1,0.2-0.2,0-0.3c-0.2,0.1-0.2,0.4-0.5,0.3
								c0-0.2-0.1,0.1-0.1-0.1c0-0.1,0.1-0.1,0.1-0.1l0,0c-0.4,0-0.1,0.3-0.2,0.4c-0.2,0.1-0.2-0.1-0.3-0.2c0,0-0.2,0-0.2,0.1
								c0.1-0.2,0.3,0,0.3,0.2c-0.2-0.2-0.4,0.1-0.4,0.2c0.4,0.1,0.2-0.1,0.6,0.1c0-0.1,0-0.3,0.2-0.2c-0.1,0.1,0,0.1,0.1,0.1
								c-0.1-0.1,0.1-0.1,0.2-0.1c0.1,0.1,0,0.3,0.2,0.3l0-0.3c0.1,0,0,0.2,0.2,0.1c-0.1,0.2,0.1,0.2-0.1,0.3
								c0.3,0.2,0.4-0.2,0.6-0.4c0,0,0,0.1,0,0.1c0-0.1,0.1-0.1,0.2-0.1c0.2,0-0.1,0.1,0,0.2l0.2-0.1c0,0,0,0,0,0
								c0-0.1,0.1-0.1,0.1,0c0,0.1,0,0.2-0.1,0.3l0.2-0.2c0,0.1,0.2,0.1,0.1,0.2l0.3-0.1l0.1,0.2c0.1-0.1,0.1-0.1,0-0.1
								c0.1,0,0.4-0.4,0.5-0.1c0.2-0.2,0.3-0.2,0.6-0.4c-0.2,0.2,0.3,0.1,0.1,0.3c0.2,0,0.2-0.2,0.3-0.2c0.1,0,0.1,0.2,0,0.3
								l0.1-0.1l0,0l0.1-0.1c0.2,0.1,0.1,0.2,0.2,0.2l0-0.2L25,50c-0.1-0.1,0-0.1,0.1-0.2l0,0l0.1-0.1c-0.1,0.1,0.1,0,0.1,0.1
								c0.1,0,0.1,0,0.3-0.1l-0.1-0.1c0.2-0.2,0.1,0.2,0.3,0.1l0-0.1c0.3,0.1,0.5-0.2,0.7-0.2c-0.1,0.1,0,0.2-0.1,0.2
								c0.2-0.1,0.5-0.1,0.6-0.3c0.1,0.2,0.1,0.2,0.4,0.2c0.1,0,0.2-0.1,0.2-0.2c0.2,0,0.4-0.1,0.4,0c0-0.1,0.1,0,0.2-0.1l0,0l0-0.1
								c0.3,0.2,0.3-0.2,0.5,0l0,0l0.1-0.1c0,0.1,0,0.1,0,0.2l0.3,0l0-0.1c0.1,0,0.1-0.2,0.2-0.1c-0.2,0.2,0.1,0,0.1,0.2l-0.1,0.1
								c0.1,0,0.1,0,0.1-0.2c0.1-0.1,0,0.3,0.1,0.1l-0.1,0c0-0.1,0.1-0.2,0.2-0.2c0,0,0,0.1,0,0.1c0.1,0,0.2,0.1,0.3,0.1
								c0,0.1-0.1,0.2-0.1,0.2c0.2,0,0,0.1,0.2,0.1l-0.1,0.1l0.1,0c0,0.1-0.1,0.1-0.1,0.2l0.1-0.1c0,0,0.1,0.1,0.1,0.1l-0.1,0
								c0.1,0.1-0.1,0.3,0,0.4c0,0-0.1,0-0.1,0c0.2,0.1-0.2,0.2,0.1,0.3c0,0-0.1,0-0.1,0l0.1,0.1l-0.1,0c0.1,0,0.1,0,0.2,0l-0.1,0.1
								l0.1,0c-0.3,0.2,0,0.3-0.2,0.5l0.2-0.1c0.4,0.4-0.1,1,0.2,1.5l-0.1,0L30,53c-0.1,0.1-0.1-0.1-0.2,0c0.1,0.2,0.2,0.1,0.3,0.3
								c-0.1,0.1-0.1,0-0.2-0.1c0.1,0.2,0.2,0.6,0.2,0.8c0,0,0,0,0.1,0c0.1,0.2,0,0.4,0.1,0.6c-0.1,0-0.1,0-0.1-0.1
								c0,0.1,0,0.2,0,0.2L30,54.7c0,0.1,0.1,0.4,0,0.5c0.1,0,0.2,0,0.2,0.1c-0.2,0.1,0.1,0.3,0,0.5c-0.1,0-0.1-0.2-0.1-0.1
								c0,0.1,0.1,0.2,0.1,0.3l-0.1,0l0.2,0.4c-0.2,0.1,0.1,0.4-0.1,0.4c0,0.2,0.1-0.1,0.1,0.1c-0.1,0.1,0.1,0.2-0.1,0.2l0,0l0,0.1
								L30.2,57c0,0.1,0.2,0.2,0.3,0.2c-0.1,0.1,0,0.3-0.1,0.4l0,0c0.1,0.3-0.3,0.6-0.1,0.8c0,0-0.1,0-0.1,0l0,0.2l-0.1,0l0.2,0.3
								l-0.1,0c0,0.2,0.1,0.6,0.1,0.9l0,0c0.1,0.3,0,0.3,0,0.5c0,0,0,0,0,0l0,0.2l-0.1,0c0.2,0.1-0.2,0.4,0,0.3
								c0.1,0.1,0.2,0.2,0.3,0.2c0,0.2-0.1,0.1-0.1,0.2c0,0.2,0.1,0.2,0.1,0.4h-0.1c0,0.1,0.1,0.2,0.1,0.3l0,0
								c0.2,0.2-0.2,0.3,0.1,0.5c-0.1,0.1,0,0.3-0.1,0.3c0.1,0.3,0.2,0.5,0.2,0.8c-0.2,0.1,0,0.1-0.1,0.2l0.1,0
								c0,0.4-0.3,0.9-0.2,1.3l-0.1,0l0.1,0.1c0,0.1,0,0.3,0,0.4c0,0.1,0,0.1,0,0.1c0,0,0,0,0,0.1c0.1,0,0.2,0.2,0.2,0.2l0,0
								c0.1,0.1,0.2,0.3,0,0.2c0-0.1-0.1-0.1-0.1-0.1c0.1,0.2,0,0,0,0l0.1,0.1c0.1,0.1-0.1,0-0.1-0.1c0,0,0,0.1,0,0.1c0,0,0,0,0-0.1
								l0,0.1l-0.1-0.2c0,0,0,0.1,0,0.2c0-0.1-0.1-0.1,0-0.1l-0.1-0.1l0,0.1c0,0.1,0,0.2-0.1,0.1c0.1-0.1,0-0.2,0-0.3
								c-0.1,0.1,0.1,0.1,0,0.2c-0.1,0.1-0.4,0.1-0.4,0l0.1,0c-0.2,0-0.2-0.2-0.3-0.2c-0.1,0.1-0.2,0-0.2,0.2
								c-0.2,0-0.1-0.2-0.1-0.2c-0.1,0.1-0.4,0-0.4-0.1c-0.1,0.3-0.5-0.2-0.6,0.1l-0.1-0.2c0,0.1-0.1,0.2-0.2,0.2
								c-0.1-0.1-0.1-0.2-0.1-0.3l-0.1,0.3c-0.7-0.4-1.6-0.2-2.3-0.6c-0.3,0-0.8,0.1-1.2,0l0,0l-0.4-0.1l0.3,0.1
								c-0.1,0-0.2,0.1-0.2,0.1c-0.2-0.1-0.5-0.2-0.7-0.2c-0.2,0-0.1,0-0.2,0c0,0,0,0-0.1,0c-0.2,0.3,0.1-0.3-0.1-0.1
								c0,0,0.1-0.1,0.1-0.1c-0.1,0.1-0.2,0.1-0.4,0.2c0.3-0.2,0,0,0.1-0.1L22.4,65c0.1-0.1,0.1-0.1,0.2-0.1c-0.1,0-0.1,0-0.2,0
								l0.1,0c0,0,0,0,0-0.1c0,0,0,0,0,0c0,0,0-0.1,0-0.1c0-0.1,0.1-0.1,0.1-0.1c-0.2-0.5-0.2-1.3-0.2-1.9c-0.1-0.1-0.1-0.3-0.2-0.4
								l0.1-0.2c-0.1-0.1-0.3-0.3-0.2-0.4c0,0,0,0,0,0c0-0.1,0-0.3-0.1-0.4c0-0.2,0.1-0.3,0.2-0.3c-0.3,0,0-0.4,0-0.4
								s0-8.5-1.6-10.5c-0.1-0.1-0.2-0.2-0.4-0.2c-0.1-0.1,0.2-0.2,0-0.2c-0.1,0.2-0.3,0-0.5,0.2l0-0.1c-0.1,0,0.1,0.2,0,0.1l0.2,0
								c0,0.1-0.1,0.2-0.1,0.2c0.1,0.1,0.4,0.1,0.3,0.4l0-0.1c0,0.2-0.1,0.1-0.2,0.2l0,0l-0.1,0.2c0.1-0.1-0.1-0.3-0.1-0.2
								c0,0.2,0.1-0.1,0.1,0.1c0,0.1-0.1,0.1-0.2,0.1l0,0.2c-0.1,0,0-0.1-0.1,0l0.1,0.2c-0.3,0.1,0.2,0.2-0.1,0.4
								c-0.1-0.2-0.1,0-0.2,0l0,0.4c0,0-0.1-0.1-0.1,0c-0.1,0.1,0.1,0.1,0.1,0.2c-0.1,0,0,0.3-0.2,0.3c-0.1,0.3,0.2,0.1,0.2,0.4
								c-0.1,0,0-0.2-0.1-0.1l0.1,0.3c-0.1,0-0.2,0-0.2-0.1c-0.1,0.7-0.6,1.2-0.4,1.9c-0.1,0.1-0.1-0.1-0.2-0.1
								c0.2,0.5-0.2,0.7-0.2,1.1l0.1,0c-0.3,0.6,0,1.3-0.1,2l0.1-0.1c0.1,0.1,0.1,0.2,0.2,0.3c-0.1,0-0.2-0.1-0.2,0.1
								c0,0,0.1-0.1,0.1-0.1c-0.2,0.6-0.1,1.8-0.1,2.7c0.2,1.2,0.1,2.6,0.2,3.8c0-0.2,0.2-0.1,0.2,0c-0.2,0.2-0.2,0.4-0.1,0.5
								c0,0.1,0.1,0.2,0.1,0.3c0,0.1,0,0.3-0.1,0.5c0.1,0.7,0.2,1.3,0.5,1.8c0.3,0.5,0.8,0.9,1.4,1l0,0.1c0.1,0.1,0.2,0,0.4,0.1l0,0
								c0.4,0.2,1.1,0.1,1.3,0.1l0-0.1c0.1,0,0.1,0.1,0.2,0.1l0,0.1l0.2-0.1c0,0.2,0.4,0.1,0.5,0.2c0.2,0,0.6-0.1,0.8,0
								c0,0.1,0.4,0.2,0.6,0.3c0.4,0,1.1,0,1.6,0.1l0-0.2l0.1,0c0,0,0,0.1,0,0.1c0.1,0.2,0.3,0,0.4,0.1c-0.1-0.2-0.1,0-0.2,0
								c-0.1-0.1,0-0.2,0.2-0.1l0,0l0.1-0.1c0,0.1,0.1,0.2,0.1,0.3c0.5,0,0.8-0.2,1.3-0.1c-0.1,0.1,0.4,0,0.2,0.2
								c0.3-0.1,0-0.2,0.1-0.4c0.1,0,0.2,0,0.2,0c0,0.1,0.1,0.2,0,0.2h0.2c0,0,0,0.1-0.1,0.1c0.1,0,0.2,0,0.3,0
								c0.1,0,0.2,0.1,0.3,0.1c0.3,0.1,0.7,0.1,1,0.1c0-0.1-0.3-0.1-0.2-0.1c0.6-0.1,0.6,0.2,1.2,0.2l-0.1,0.1
								c0.2-0.1,0.2-0.2,0.6,0c0.1,0.2-0.2,0.1-0.4,0.2c0.2,0,0.8,0,0.6-0.1c0.2,0,0.4,0.1,0.6,0.2c0,0-0.3-0.1-0.2-0.2
								c0.2,0.1,0.5,0.1,0.7,0.1l0.4,0c0-0.1,0-0.2,0-0.4c0,0,0.1,0.1,0.1,0.1C34.1,69,34.4,69.4,34.3,68.8z"/>
							<path class="st12" d="M32.7,53.8l0,0.1c0,0,0.1,0,0.1,0L32.7,53.8z"/>
							<path class="st12" d="M33.1,58.6C33.1,58.6,33.2,58.6,33.1,58.6C33.2,58.6,33.1,58.6,33.1,58.6z"/>
							<path class="st12" d="M33.5,59.7c0-0.1-0.1,0-0.1,0C33.4,59.7,33.4,59.7,33.5,59.7z"/>
							<path class="st12" d="M32,51.1C32,51.2,32,51.2,32,51.1C32,51.1,32,51.1,32,51.1z"/>
							<path class="st12" d="M25.7,48.2C25.7,48.2,25.7,48.2,25.7,48.2C25.7,48.2,25.7,48.2,25.7,48.2z"/>
							<path class="st12" d="M26.2,48.3C26.2,48.3,26.2,48.3,26.2,48.3C26.2,48.2,26.2,48.2,26.2,48.3z"/>
							<path class="st12" d="M32.3,52.9C32.3,53,32.3,53,32.3,52.9C32.3,53,32.3,52.9,32.3,52.9z"/>
							<path class="st12" d="M26.3,48.2l0.1,0C26.4,48.2,26.4,48.1,26.3,48.2L26.3,48.2z"/>
							<path class="st12" d="M25.6,48.2c0,0,0.1,0,0.1,0C25.7,48.1,25.6,48.1,25.6,48.2z"/>
							<path class="st12" d="M31,48C31,48,31,48,31,48C31.1,48.1,31,48,31,48z"/>
							<path class="st12" d="M26.7,47.8C26.7,47.8,26.7,47.8,26.7,47.8L26.7,47.8L26.7,47.8z"/>
							<path class="st12" d="M25.1,48.2C25.2,48.2,25.2,48.2,25.1,48.2C25.2,48.2,25.1,48.2,25.1,48.2
								C25.1,48.2,25.1,48.2,25.1,48.2z"/>
							<path class="st12" d="M29.1,47.3c0,0.1-0.1,0.1-0.1,0.1C29.1,47.5,29.2,47.4,29.1,47.3z"/>
						</g>
					</g>
				</g>
			</g>
		</g>
		<g>
			<g>
				<g>
					<g>
						<g>
							<path class="st12" d="M53.4,27.7C53.4,27.7,53.4,27.7,53.4,27.7C53.4,27.7,53.4,27.7,53.4,27.7z"/>
							<path class="st12" d="M51.1,29.4L51.1,29.4C51.1,29.4,51.1,29.4,51.1,29.4z"/>
							<path class="st12" d="M54.7,26.6L54.7,26.6C54.7,26.6,54.7,26.6,54.7,26.6L54.7,26.6z"/>
							<path class="st12" d="M46.5,33.3L46.5,33.3C46.5,33.2,46.5,33.2,46.5,33.3z"/>
							<path class="st12" d="M49.3,31C49.3,31,49.3,31.1,49.3,31C49.3,31.1,49.3,31.1,49.3,31z"/>
							<path class="st12" d="M56.3,26.9l-0.1,0C56.2,26.9,56.3,26.9,56.3,26.9z"/>
							<path class="st12" d="M57.2,25.4L57.2,25.4C57.2,25.4,57.2,25.4,57.2,25.4z"/>
							<path class="st12" d="M56.5,25.6C56.5,25.7,56.5,25.7,56.5,25.6C56.5,25.7,56.5,25.7,56.5,25.6z"/>
							<path class="st12" d="M56.5,25.7L56.5,25.7C56.5,25.7,56.5,25.7,56.5,25.7z"/>
							<path class="st12" d="M30.9,48.6c0,0,0,0.1,0,0.2L30.9,48.6z"/>
							<path class="st12" d="M42.5,36.9L42.5,36.9C42.5,36.9,42.5,36.9,42.5,36.9z"/>
							<path class="st12" d="M31.4,49.2L31.4,49.2C31.4,49.2,31.4,49.2,31.4,49.2z"/>
							<path class="st12" d="M55.9,27.8c0,0.1-0.1,0.1-0.1,0.2C55.9,27.9,56,27.9,55.9,27.8z"/>
							<path class="st12" d="M44.1,40.3L44.1,40.3C44.1,40.3,44.1,40.3,44.1,40.3z"/>
							<path class="st12" d="M31.4,49.2L31.4,49.2C31.4,49.2,31.4,49.2,31.4,49.2C31.4,49.2,31.4,49.2,31.4,49.2z"/>
							<polygon class="st12" points="38.3,40.8 38.3,40.8 38.3,40.7 							"/>
							<path class="st12" d="M38,40.9L38,40.9C38,40.8,38,40.8,38,40.9z"/>
							<path class="st12" d="M30.9,48.8l0,0.1C30.9,48.8,30.9,48.8,30.9,48.8z"/>
							<path class="st12" d="M35.7,43.2L35.7,43.2C35.7,43.2,35.7,43.2,35.7,43.2z"/>
							<path class="st12" d="M49.5,30.9C49.5,30.9,49.5,30.9,49.5,30.9C49.5,30.9,49.5,30.9,49.5,30.9z"/>
							<polygon class="st12" points="49.6,34.2 49.6,34.2 49.6,34.2 							"/>
							<path class="st12" d="M49.6,34.1c0,0,0,0.1,0,0.2C49.6,34.2,49.6,34.2,49.6,34.1z"/>
							<path class="st12" d="M49.4,34.4L49.4,34.4C49.4,34.4,49.4,34.4,49.4,34.4z"/>
							<polygon class="st12" points="51.2,32.8 51.2,32.8 51.2,32.8 							"/>
							<path class="st12" d="M50.9,33.2C50.9,33.2,50.9,33.2,50.9,33.2C50.9,33.2,50.9,33.2,50.9,33.2z"/>
							<polygon class="st12" points="48.7,35.4 48.7,35.4 48.7,35.4 							"/>
							<path class="st12" d="M45.9,39c0.3-0.3,0.6-0.9,1-1.2c-0.1-0.2,0-0.3,0.1-0.4l0.2,0.2l0-0.1c0.1,0,0,0.1,0.1,0.1l-0.1-0.1
								c0.1,0.1,0.3-0.2,0.2,0.1l0.3-0.3c0.1-0.1-0.1-0.2,0-0.2c0.1,0,0,0.1,0.1,0.1c0.4-0.1-0.1-0.6,0.3-0.8l0,0
								c0-0.1,0.1-0.2,0-0.2c-0.2-0.2,0.1,0.1-0.1,0.1c-0.1-0.2,0-0.2-0.1-0.3c0.1,0,0.1-0.1,0.1-0.2c0.2,0,0.2-0.2,0.4-0.1
								c0-0.1-0.1-0.3,0-0.4c0.2,0.1,0.1,0.1,0.2,0.1l-0.1-0.1c0.1-0.1,0.1,0,0.1,0c0.1-0.1-0.1-0.2,0.1-0.2l0,0.1
								c0-0.1,0.1-0.1,0.2-0.2c0,0.1,0,0.1,0,0.1c0.2,0.1,0-0.1,0.1-0.2c0,0-0.1,0-0.2-0.1c0.1,0,0-0.2,0.1-0.1l0,0.1
								c0-0.2-0.1-0.2,0.1-0.2c0,0,0,0,0,0.1c0-0.2,0.2-0.2,0.3-0.3l0,0c0-0.1,0-0.2,0-0.2c-0.1,0-0.1,0-0.2-0.1
								c0.2,0.1,0-0.3,0.2-0.3c0,0.1,0.1,0.1,0,0.1c0.1,0.2,0.2,0.3,0.2,0.5c0-0.1,0-0.2,0.1-0.1l-0.1-0.2c0,0,0.1,0,0.1-0.1
								c-0.1-0.1-0.2-0.1-0.2-0.2c0-0.1,0.2,0.1,0.1,0c0-0.2-0.1-0.2,0-0.2c0,0,0,0.1,0,0.1c0.1,0,0.2-0.2,0.3,0c0,0,0.1,0.1,0,0.1
								l0,0c0,0.2,0-0.1,0.2,0.1c-0.1-0.1,0-0.2,0.1-0.2L50,33.7c-0.2-0.5,0.2,0.2,0.3,0c0-0.2-0.1,0-0.1-0.1c0.1,0,0.2,0,0.2-0.1
								c0.1,0,0.2,0,0.3,0.1c0-0.1,0.2-0.1,0.1-0.3c-0.2,0,0,0.2-0.2,0.2l-0.1-0.1c0.1-0.1,0.1-0.2,0.2-0.2c0,0-0.1,0-0.1-0.1
								c0.1-0.2,0-0.3,0.1-0.4c0.1,0.1,0,0.1,0,0.2c0.2,0,0.1-0.1,0.2-0.1c0.1,0.1-0.1,0.1,0,0.2l0.1-0.1l0,0
								c-0.1-0.2,0.1-0.1,0.1-0.2c0.2-0.2,0-0.4,0-0.6c0.1,0,0.1,0,0.1,0.1c-0.1,0,0,0,0,0.1c0-0.1,0.3,0,0.3,0.1
								c0.1-0.1-0.1,0-0.1-0.2l0.1-0.1c-0.1-0.1-0.2,0-0.1-0.2c0-0.1,0.1-0.1,0.2-0.2c0,0,0.1,0.1,0.1,0.1c0.1,0,0.1-0.1,0.1-0.2
								c-0.1,0,0.1-0.2-0.1-0.3l0.1,0c0,0,0,0.1,0,0.1c0.1,0.1,0-0.1,0-0.1c0.1,0,0.1-0.1,0.2,0c0-0.1,0.1-0.1,0.2,0
								c0-0.1-0.1-0.1-0.1-0.1l0.1-0.1c0.1,0.1,0.3,0.2,0.3,0.3c0-0.1-0.2-0.2-0.1-0.3c0.1,0.2,0.2,0,0.3,0.2
								c0.1,0.1,0.2-0.1,0.3-0.2c-0.1-0.1-0.1,0-0.2-0.1c0.1-0.2-0.1-0.5,0.1-0.6l-0.1,0c0-0.1,0-0.1,0-0.3c0.1,0.1,0.4,0.2,0.5,0.1
								c-0.1-0.1-0.2,0-0.3-0.2l0.1-0.1c0,0,0,0,0,0.1c0-0.1,0.3,0,0.2-0.2l0.3,0.1l-0.1,0c-0.1-0.1,0-0.2,0-0.2
								c0-0.2,0.1-0.1,0.2-0.1c-0.1,0-0.2-0.1-0.2-0.2c0.2,0.2,0.2-0.1,0.3,0c0,0,0.1,0,0.1-0.1l0.1,0.1c-0.2-0.2-0.1-0.3,0-0.4
								c0.2,0.3,0.1-0.1,0.3,0.1c-0.2-0.2,0.1-0.2,0-0.4c0.1-0.1,0.2,0.1,0.3,0.1l0-0.1c0.1,0,0.2-0.1,0.4-0.1L55,28.5l0.1,0
								c0,0,0-0.1-0.1-0.1l0,0c-0.2-0.2,0-0.1,0-0.2c0,0,0.1,0,0.1,0.1c0,0,0.1,0.1,0.2,0.1c-0.1,0-0.2-0.4-0.3-0.4
								c-0.1-0.1-0.1-0.2,0-0.2l0.2,0.1l-0.1-0.2c0-0.1,0.1,0,0.2,0c0,0.1,0.2,0.4,0.3,0.2c0,0.1,0,0.2,0,0.3c0,0,0.1,0,0.1,0.1
								c0-0.1-0.1-0.1,0-0.2c0.1,0.1,0.2,0.1,0.3,0.1l-0.2,0c0,0,0,0,0,0c0,0-0.1,0-0.1,0c0,0-0.1-0.3,0-0.2c-0.3-0.1,0-0.3-0.2-0.4
								c0,0,0-0.1,0.1-0.1c0,0.2,0.2,0.1,0.3,0.2c0-0.1-0.2,0-0.2-0.1c0-0.1,0.1,0,0.2,0l0,0l0.1,0c-0.1-0.1-0.2,0-0.1-0.1
								c0,0,0.1-0.1,0.1,0c0.1,0.1,0.2,0.2,0.2,0.3c0-0.1,0.2-0.2,0-0.3l0.1-0.1c-0.1,0-0.3,0-0.2-0.1l0,0l0-0.2l0.1,0
								c0,0-0.1-0.1,0-0.1c0,0,0.1,0,0.1,0.1c0.1-0.1,0-0.1,0-0.2c0-0.1,0.1,0,0.1,0c0.1,0,0.2-0.2,0.3-0.2c0-0.1,0,0-0.1-0.1
								c0.3,0.1,0.4-0.2,0.5-0.4c-0.2-0.1,0-0.1-0.1-0.3c0,0.1,0.3,0,0.2,0.2l0-0.1c0.2,0,0,0.2,0.2,0.3c0.1-0.1-0.1-0.4,0.1-0.4
								c0.1,0.2,0-0.1,0.2,0c0,0.1,0,0.1,0,0.1l0,0c0.2-0.2-0.1-0.2-0.1-0.4c0.1-0.1,0.2,0,0.3,0.1c0,0,0.1-0.1,0.1-0.1
								c0,0.2-0.2,0-0.3-0.1c0.2,0.1,0.2-0.2,0.1-0.2c-0.3,0-0.1,0.1-0.4,0.1c0,0.1,0.2,0.2,0,0.2c0-0.1-0.1-0.1-0.1-0.1
								c0.1,0.1,0,0.1,0,0.2c-0.1,0-0.1-0.2-0.3-0.2l0.2,0.2c-0.1,0-0.1-0.1-0.2,0c-0.1-0.1-0.2-0.1-0.1-0.3c-0.3,0-0.1,0.3-0.1,0.4
								c0,0,0,0,0-0.1c0,0.1,0,0.1,0,0.1c-0.1,0,0-0.1-0.1-0.2l-0.1,0.1c0,0,0,0,0,0c0,0.1,0,0.1-0.1,0.1c0-0.1-0.1-0.2-0.1-0.2
								l0,0.2c-0.1-0.1-0.2,0-0.2-0.1L56,25.9l-0.1-0.1c0,0.1,0,0.1,0.1,0.1c-0.1,0,0,0.5-0.2,0.2c0,0.2-0.1,0.2-0.2,0.4
								c0-0.2-0.3,0-0.2-0.2c-0.1,0,0,0.2,0,0.2c-0.1,0-0.2-0.1-0.2-0.2l0,0.1l0,0l0,0.1c-0.1,0-0.1-0.1-0.2-0.1l0.1,0.1l-0.1,0
								c0.1,0,0.1,0.1,0,0.1l0,0l0,0.1c0-0.1-0.1,0-0.1-0.1c-0.1,0-0.1,0-0.1,0.2l0.1,0.1c0,0.2-0.1-0.1-0.2,0l0.1,0.1
								c-0.3,0-0.1,0.3-0.3,0.3c0-0.1-0.1-0.2-0.1-0.1c0,0.1-0.2,0.2-0.2,0.4c-0.2-0.1-0.2-0.1-0.4-0.1c-0.1,0.1-0.1,0.1,0,0.2
								c-0.1,0-0.2,0.2-0.3,0.1c0.1,0.1-0.1,0,0,0.1l0,0l0.1,0.1c-0.3-0.1-0.1,0.3-0.4,0.2l0,0l0,0.1c0,0-0.1-0.1-0.1-0.1l-0.2,0.2
								l0.1,0c0,0.1,0,0.2-0.1,0.2c-0.1-0.2-0.1,0.1-0.2,0l0-0.1c-0.1,0.1-0.1,0.1,0,0.2c0,0.1-0.2-0.1-0.2,0.1l0.1-0.1
								c0.1,0,0.1,0.1,0.1,0.2c0,0-0.1,0-0.1-0.1c0,0.1-0.2,0.2-0.2,0.2c-0.1,0-0.1-0.1-0.1-0.1c-0.1,0.2-0.1,0-0.1,0.3l0-0.1l0,0.1
								l-0.2,0l0.1,0c0,0.1,0,0.1-0.1,0.1l-0.1-0.1c-0.1,0.2-0.3,0-0.3,0.2c0,0,0,0,0-0.1c0,0.2-0.2,0-0.2,0.2c0,0-0.1-0.1-0.1-0.1
								l0,0.1L51,29.4l0.1,0.2L51,29.5l0,0.1c-0.3-0.1-0.2,0.1-0.4,0l0.1,0.1c0.1,0.5-0.6,0.3-0.7,0.6L50,30.3l0,0.2
								c-0.1,0-0.1-0.1-0.1-0.2c0,0.2,0.1,0.2,0,0.3c-0.1,0-0.1-0.1-0.1-0.2c-0.1,0.2-0.2,0.4-0.3,0.4c0,0,0,0,0,0
								c0,0.1-0.2,0.2-0.2,0.3c0,0,0-0.1,0-0.1c0,0-0.1,0-0.1,0.1l-0.1-0.1c-0.1,0-0.1,0.2-0.2,0.2c0,0,0.1,0.1,0.1,0.2
								c-0.2-0.1-0.1,0.2-0.3,0.2c0,0,0-0.1,0-0.1c-0.1,0-0.1,0.1,0,0.2l-0.1-0.1l-0.1,0.3c-0.2-0.1-0.2,0.2-0.3,0.1
								c-0.1,0.1,0.1,0,0.1,0.1c-0.1,0-0.1,0.1-0.1,0l0,0l-0.1,0.1L48,32c0,0.1,0,0.2,0.1,0.3c-0.1,0-0.1,0.1-0.3,0l0,0
								c-0.1,0.2-0.5,0-0.5,0.2c0,0,0,0,0,0l-0.1,0.1l-0.1-0.1l0,0.3l0-0.1c-0.1,0.1-0.3,0.3-0.4,0.4l0,0c-0.1,0.2-0.2,0.1-0.2,0.2
								c0,0,0,0,0,0l-0.1,0.1l0-0.1c0,0.2-0.3,0-0.2,0.1c0,0.1,0,0.2,0,0.3c-0.1,0.1-0.1,0-0.2,0c-0.1,0.1,0,0.2-0.2,0.2l0-0.1
								c0,0.1,0,0.1-0.1,0.2l0,0c0,0.2-0.3,0-0.1,0.3c-0.1,0-0.1,0.1-0.2,0c-0.1,0.2-0.1,0.3-0.2,0.5c-0.2-0.2,0,0-0.2,0l0.1,0.1
								c-0.2,0.2-0.6,0.2-0.8,0.4l-0.1-0.1l0.1,0.1c-0.3,0.2-0.6,0.4-0.8,0.6c0,0.1,0,0.3-0.1,0.4l0,0c-0.1,0.2-0.2,0.4-0.5,0.5
								c0,0-0.1-0.1-0.1-0.1c0.1,0.1-0.1,0.1-0.1,0.1l0.1,0c0,0.1-0.1,0.1-0.2,0.1l0,0.2c0,0,0,0-0.1,0l0,0.1l-0.2-0.1
								c0,0-0.1,0.2,0,0.3c0,0-0.1,0-0.1-0.1l-0.3,0.2l0.1,0c0.1,0.1,0.1,0.2,0,0.2c0-0.1-0.1-0.1-0.2-0.2c0,0.1,0.1,0.1,0.1,0.1
								c0,0.1-0.1,0.2-0.1,0.2l0-0.1c0,0.1-0.2,0-0.3,0c0,0.1-0.1,0.1,0.1,0.3c-0.1,0.1-0.1-0.1-0.2-0.1c0,0.1-0.1,0.2-0.2,0.1
								c0.2,0.3-0.3,0.1-0.1,0.3l-0.2,0c0,0.1,0.1,0.2,0.1,0.3c-0.1,0-0.2-0.1-0.2-0.2l0.1,0.2c-0.5,0.1-0.8,0.6-1.3,0.7
								c-0.1,0.2-0.2,0.5-0.4,0.6l0,0l-0.2,0.1l0.2,0c0,0.1,0,0.1-0.1,0.2c-0.3,0.1-0.6,0.2-0.8,0.6c0.1,0.4-0.3-0.1-0.3,0.2
								c0,0,0-0.1,0-0.1c-0.1,0.2-0.1,0.3-0.2,0.6c-0.2-0.2-0.1,0.1-0.2,0l0.1,0.1c-0.1,0-0.2,0-0.2,0l0,0.2l-0.1-0.1
								c-0.1,0.1-0.2,0.3-0.5,0.2c-0.1,0.4-0.5,0.7-0.8,0.9c0,0.1,0,0.2-0.1,0.3l-0.2,0c0,0.1,0,0.3-0.1,0.3c0,0,0,0,0,0
								c0,0.1-0.2,0.1-0.1,0.3c-0.1,0.1-0.2,0.1-0.3-0.1c0.2,0.2-0.2,0.1-0.2,0.1S34,44.3,33,45.3c-1.1,1-2.1,2.3-2.1,3.3
								c0.1,0.1,0,0.3,0.2,0.3c0,0.1-0.2,0-0.1,0.1c0.1,0,0.2,0.3,0.4,0.3l0,0.1c0.1,0.1,0-0.1,0.1,0l-0.1-0.2c0.1,0,0.1,0,0.2,0
								c0-0.1-0.2-0.4,0-0.4l0,0c0.1-0.1,0.2,0.1,0.2,0.1l0,0l0.2,0c-0.1,0-0.1,0.2,0,0.2c0.1,0-0.1,0,0-0.1c0-0.1,0.1,0,0.2,0.1
								l0.1-0.1c0.1,0.1-0.1,0,0.1,0.1l0-0.2c0.2,0.2,0-0.2,0.3-0.1c0,0.1,0.1,0.1,0.1,0.1l0.2-0.2c0,0,0,0.1,0,0.1
								c0.1,0,0-0.1,0-0.1c0.1,0,0.1-0.1,0.3,0c0.2,0-0.1-0.2,0.1-0.3c0.1,0.1-0.1,0.1,0.1,0.1l0.1-0.1c0,0,0.1,0.2,0,0.2
								c0.4-0.2,1,0,1.2-0.4c0.1,0.1,0,0.1,0.1,0.2c0.1-0.3,0.5-0.1,0.7-0.3L35,48.2c0.5,0,0.7-0.4,1.1-0.6l-0.1,0
								c0-0.1,0-0.2,0-0.3c0,0,0.1,0.2,0.2,0.1c0,0-0.1,0-0.1-0.1c0.4,0,0.9-0.6,1.4-0.9c0.5-0.6,1.3-1,1.8-1.6
								c-0.1,0.1-0.2-0.1-0.1-0.2c0.5,0.2,0.3-0.3,0.6-0.3c0.2-0.4,0.8-0.4,0.8-0.9l0.1,0.1c0.1,0,0-0.1,0.1-0.1l0,0
								c0.1-0.1,0.2-0.3,0.3-0.3L41,43.1c0.1-0.1,0.1,0,0.1-0.1l0,0.1l0-0.2c0.2,0.2,0.2-0.2,0.3-0.1c0.1-0.1,0.1-0.3,0.3-0.4
								c0.1,0.1,0.3-0.1,0.4-0.1c0.2-0.2,0.4-0.5,0.7-0.7l-0.1-0.1l0.1-0.1c0,0,0,0,0,0.1c0.2,0.1,0.1-0.2,0.2-0.1
								c-0.1-0.1-0.1,0-0.1,0.1c-0.1,0-0.2-0.2,0-0.2l0,0l0-0.1c0.1,0.1,0.2,0.1,0.3,0.2c0.2-0.2,0.2-0.5,0.5-0.7
								c0.1,0.1,0.1-0.2,0.3,0c0.1-0.2-0.2-0.1-0.2-0.3c0,0,0-0.1,0.1-0.1c0,0.1,0.1,0.1,0.1,0.1l0.1-0.1c0,0,0,0,0,0.1
								c0.1-0.3,0.4-0.2,0.5-0.4c0-0.1-0.1,0-0.1,0c0-0.3,0.3,0,0.3-0.3l0.1,0.1c0-0.1-0.1-0.2,0.1-0.2c0.1,0.1,0,0.2,0,0.2
								c0.1,0,0.2-0.2,0-0.3c0-0.1,0.1,0,0.2,0c0,0-0.1,0-0.1-0.1c0.1,0,0.3-0.2,0.4-0.3c0,0,0.1,0.1,0.1,0.1
								C45.6,38.9,45.8,39.1,45.9,39z"/>
							<path class="st12" d="M51.3,32.8L51.3,32.8c0,0.1,0,0.1,0,0.1L51.3,32.8z"/>
							<path class="st12" d="M49.1,34.8C49.1,34.8,49.1,34.8,49.1,34.8C49.1,34.8,49.1,34.8,49.1,34.8z"/>
							<path class="st12" d="M48.8,35.5C48.8,35.4,48.7,35.4,48.8,35.5C48.7,35.4,48.7,35.5,48.8,35.5z"/>
							<path class="st12" d="M52.2,31.4C52.2,31.4,52.2,31.4,52.2,31.4C52.2,31.4,52.2,31.4,52.2,31.4z"/>
							<path class="st12" d="M55.5,28.1C55.5,28.1,55.5,28.1,55.5,28.1C55.5,28.1,55.5,28.1,55.5,28.1z"/>
							<path class="st12" d="M55.2,28.2C55.2,28.2,55.2,28.2,55.2,28.2C55.2,28.2,55.2,28.2,55.2,28.2z"/>
							<path class="st12" d="M51.5,32.2C51.5,32.2,51.5,32.2,51.5,32.2C51.5,32.2,51.5,32.2,51.5,32.2z"/>
							<polygon class="st12" points="55.2,28.3 55.1,28.3 55.1,28.3 							"/>
							<path class="st12" d="M55.6,28.1C55.6,28.1,55.6,28.1,55.6,28.1C55.6,28.1,55.6,28.1,55.6,28.1z"/>
							<path class="st12" d="M53.3,30L53.3,30C53.3,30.1,53.3,30.1,53.3,30z"/>
							<polygon class="st12" points="55.1,28.7 55.1,28.7 55.1,28.7 							"/>
							<path class="st12" d="M55.8,27.9C55.8,27.9,55.8,28,55.8,27.9C55.8,28,55.8,28,55.8,27.9C55.8,27.9,55.8,27.9,55.8,27.9z"/>
							<path class="st12" d="M54.1,29.5c0-0.1,0-0.1-0.1-0.1C54,29.4,54,29.4,54.1,29.5z"/>
						</g>
					</g>
				</g>
			</g>
		</g>
		<g>
			<g>
				<g>
					<g>
						<g>
							<path class="st12" d="M62.9,71.5C62.9,71.5,62.9,71.5,62.9,71.5C62.9,71.5,62.9,71.5,62.9,71.5z"/>
							<path class="st12" d="M62.9,67.2L62.9,67.2C63,67.3,63,67.2,62.9,67.2z"/>
							<path class="st12" d="M62.9,74.1L62.9,74.1c0,0,0,0.1,0,0.2L62.9,74.1z"/>
							<path class="st12" d="M62.6,58.2L62.6,58.2C62.6,58.2,62.6,58.2,62.6,58.2z"/>
							<path class="st12" d="M62.8,63.5C62.8,63.5,62.7,63.5,62.8,63.5C62.7,63.5,62.7,63.5,62.8,63.5z"/>
							<path class="st12" d="M61.7,75.5L61.7,75.5C61.7,75.5,61.7,75.5,61.7,75.5z"/>
							<path class="st12" d="M62.3,78.1C62.3,78.1,62.3,78.1,62.3,78.1C62.3,78.1,62.3,78.1,62.3,78.1z"/>
							<path class="st12" d="M62.6,77C62.6,77,62.5,77,62.6,77C62.5,77,62.5,77,62.6,77z"/>
							<path class="st12" d="M62.5,76.9L62.5,76.9C62.5,77,62.5,76.9,62.5,76.9z"/>
							<path class="st12" d="M58.5,25.4c0-0.1-0.1-0.1-0.2-0.2L58.5,25.4z"/>
							<path class="st12" d="M61.9,50L61.9,50C62,50,62,49.9,61.9,50z"/>
							<path class="st12" d="M57.7,25.4L57.7,25.4C57.7,25.4,57.7,25.4,57.7,25.4z"/>
							<path class="st12" d="M61.3,74.2c-0.1-0.1,0-0.2-0.1-0.2C61.2,74.1,61.2,74.2,61.3,74.2z"/>
							<path class="st12" d="M58.3,48.6L58.3,48.6C58.3,48.5,58.3,48.5,58.3,48.6z"/>
							<path class="st12" d="M57.7,25.4L57.7,25.4C57.7,25.4,57.7,25.4,57.7,25.4C57.7,25.4,57.7,25.4,57.7,25.4z"/>
							<polygon class="st12" points="61.1,41.4 61.1,41.4 61.1,41.4 							"/>
							<path class="st12" d="M61.2,40.9C61.2,41,61.2,41,61.2,40.9C61.3,41,61.2,41,61.2,40.9z"/>
							<path class="st12" d="M58.3,25.2l-0.1-0.1C58.3,25.1,58.3,25.1,58.3,25.2z"/>
							<path class="st12" d="M60.5,36.1C60.5,36.1,60.5,36.1,60.5,36.1C60.5,36.1,60.5,36.1,60.5,36.1z"/>
							<path class="st12" d="M62.8,63.9C62.7,63.9,62.7,63.9,62.8,63.9C62.8,63.9,62.8,63.9,62.8,63.9z"/>
							<polygon class="st12" points="60,60.7 60,60.7 60,60.7 							"/>
							<path class="st12" d="M60.1,60.9c0-0.1-0.1-0.1-0.1-0.2C60,60.8,60,60.8,60.1,60.9z"/>
							<path class="st12" d="M60,60.3L60,60.3C60,60.4,60,60.4,60,60.3z"/>
							<polygon class="st12" points="60.1,64 60.1,64 60.1,64 							"/>
							<path class="st12" d="M60.1,63.3C60.1,63.3,60.1,63.2,60.1,63.3C60.1,63.2,60.1,63.2,60.1,63.3z"/>
							<polygon class="st12" points="59.6,58.6 59.6,58.6 59.6,58.6 							"/>
							<path class="st12" d="M58.3,51.9c0.1,0.7,0.4,1.5,0.4,2.2c0.2,0.1,0.2,0.3,0.3,0.6l-0.3,0l0.1,0.2c-0.1,0.1-0.1-0.1-0.1,0
								l0.2,0.1c-0.1,0,0,0.5-0.2,0.2l0.1,0.7c0,0.2,0.2,0.1,0.2,0.2c-0.1,0-0.1-0.1-0.1,0c-0.1,0.5,0.5,0.5,0.5,1l0,0
								c0.1,0.1,0.1,0.2,0.1,0.2c0.3-0.1-0.1-0.1,0-0.2c0.2,0,0.1,0.2,0.3,0.1c-0.1,0.1,0.1,0.2,0.1,0.3c-0.1,0.2,0,0.4-0.2,0.5
								c0.1,0.1,0.3,0.1,0.3,0.3c-0.2,0.1-0.2,0-0.2,0.2l0.1,0c0,0.1,0,0.1-0.1,0.1c0,0.1,0.2,0.1,0.1,0.3l-0.1-0.1
								c0.1,0.1,0,0.2,0,0.4c-0.1,0-0.1-0.1-0.1-0.1c-0.2,0.1,0.1,0.2,0.1,0.2c0.1,0,0.1-0.2,0.2-0.1c0,0.1,0.2,0.2,0,0.3l-0.1-0.1
								c0.1,0.2,0.2,0.1,0.1,0.3c0,0,0,0-0.1,0c0.2,0.1,0,0.3,0.1,0.5l0,0c0,0.1,0.2,0.1,0.2,0.2c0.1-0.1,0.1-0.1,0.2-0.1
								c-0.2,0.2,0.3,0.2,0.2,0.5c-0.1,0-0.2-0.1-0.1-0.1c-0.2-0.1-0.4-0.1-0.5-0.2c0.1,0.1,0.1,0.2,0,0.2l0.2,0c0,0.1,0,0.1,0,0.2
								c0.1,0,0.2-0.1,0.3,0c0.1,0.2-0.2,0.1-0.1,0.1c0.1,0.2,0.2,0.1,0.2,0.3c0,0-0.1-0.1,0-0.1c-0.1,0.2,0.1,0.4-0.2,0.4
								c-0.1,0-0.1,0-0.1-0.1l0,0c-0.2-0.1,0.1,0.1-0.2,0.1c0.1,0,0.1,0.2,0.1,0.3l0.1,0c0.5,0.3-0.3,0-0.2,0.3c0.1,0.2,0-0.1,0.1,0
								c0,0.1-0.1,0.2-0.1,0.4c-0.1,0.1-0.1,0.2-0.3,0.2c0.1,0.1,0,0.4,0.1,0.4c0.1-0.2-0.2-0.2,0-0.4l0.2,0.1
								c0,0.2,0.1,0.4,0.1,0.5c0,0,0.1,0,0.1,0c0.1,0.2,0.2,0.3,0.2,0.5c-0.1,0-0.1-0.1-0.2-0.2c-0.1,0.2,0,0.2,0,0.4
								c-0.1,0,0-0.2-0.1-0.2l0.1,0.2l0,0c0.2,0,0,0.2,0.1,0.3c0,0.4,0.3,0.4,0.5,0.6C60.7,65,60.6,65,60.6,65c0.1-0.1,0-0.1,0-0.1
								c0,0.1-0.2,0.3-0.3,0.2c0.1,0.2,0.1-0.1,0.2,0l0,0.3c0.1,0,0.1-0.1,0.2,0c0,0.1,0,0.2,0,0.3c-0.1,0-0.2,0.1-0.2-0.1
								c0,0.1,0,0.2,0.1,0.2c0.1-0.2,0.1,0.3,0.3,0.1l-0.1,0.2c0,0-0.1,0-0.1-0.1c-0.2,0.1,0.1,0.1,0.1,0.2c0,0.1,0,0.2-0.1,0.2
								c0.1,0,0,0.2-0.1,0.2c0,0.1,0.1,0,0.2,0l0,0.3c-0.1,0-0.3,0.1-0.4,0c0.1,0.1,0.3,0,0.3,0.2c-0.2-0.1-0.1,0.2-0.3,0.1
								c-0.1,0.1-0.1,0.4,0,0.5c0.1,0.1,0.1-0.2,0.2-0.2C60.7,68,61,68,61,68.3l0-0.1c0.1,0.2,0.1,0.2,0.2,0.2
								c-0.2,0-0.5,0.2-0.4,0.5c0.1,0,0.2-0.2,0.3-0.1l0,0.2c0,0,0,0-0.1,0c0.1,0.2-0.2,0.3,0,0.4l-0.2,0.2l0.1-0.1
								c0.1,0,0.1,0.2,0.2,0.2c0.1,0.2,0,0.3-0.1,0.4c0.1,0,0.2-0.1,0.3,0c-0.3,0-0.1,0.3-0.2,0.3c0,0.1-0.1,0.2,0,0.2l-0.2,0
								c0.3,0,0.3,0.2,0.3,0.4c-0.3,0,0,0.2-0.3,0.3c0.2,0,0.1,0.3,0.3,0.3c0,0.1-0.2,0.1-0.3,0.2l0.1,0.1c-0.1,0.1-0.1,0.3-0.2,0.5
								l0.2,0.1l-0.1,0.1c0.1,0,0.1,0.1,0.2,0.1l0,0.1c0.2,0,0.1,0.1,0.2,0.2c0,0-0.1,0-0.1,0c0,0.1-0.1,0.1-0.2,0.1
								c0.1-0.1,0.4,0.2,0.5,0c0.1,0,0.2,0.1,0.1,0.2l-0.2,0.1l0.2,0.1c0,0.1-0.1,0.2-0.1,0.3c0-0.1-0.4-0.2-0.4,0.1
								c0-0.1-0.2-0.2-0.2-0.2c0,0.1,0,0.1-0.1,0c0.1,0.2,0.1,0.1,0.2,0.2c-0.2,0-0.2,0.1-0.3,0.2l0.1-0.1c0,0,0,0,0.1,0
								c0,0,0-0.1,0.1-0.1c0,0,0.2,0.2,0.1,0.2c0.3-0.2,0.2,0.3,0.4,0.2c0.1,0,0.1,0.2,0,0.2c-0.2-0.1-0.2,0.1-0.3,0.1
								c0.1,0.1,0.1-0.1,0.2-0.1c0,0.1-0.1,0.2-0.1,0.2l0,0l-0.1,0.2c0.1,0,0.1-0.2,0.2,0c0,0,0,0.2,0,0.2c-0.1-0.1-0.3,0-0.3-0.1
								c0,0.1,0.1,0.4,0.2,0.3l0,0.1c0.1-0.1,0.2-0.3,0.2-0.1l0,0l0.2,0.1l-0.1,0.1c0,0,0.1,0,0.1,0.1c-0.1,0-0.1,0.1-0.1,0.1
								c0,0.2,0.1,0.2,0.2,0.2c0,0.1,0,0.1-0.1,0.1c0,0.1,0,0.4-0.1,0.5c0.1,0.2,0,0,0.2,0.1c-0.3,0.2-0.1,0.6,0,0.9
								c0.3-0.1,0,0.1,0.3,0.1c-0.1-0.1-0.2,0.3-0.3,0l0,0.2c-0.1,0.1-0.1-0.2-0.3-0.1c0,0.2,0.3,0.3,0.3,0.5
								c-0.2-0.1,0.1,0.2-0.1,0.1c-0.1,0-0.1-0.1-0.1-0.2l0,0c0,0.4,0.2,0.1,0.4,0.3c0,0.2-0.1,0.2-0.2,0.2c0,0,0,0.2,0.1,0.2
								c-0.1-0.1,0.1-0.3,0.2-0.2c-0.2,0.1,0,0.3,0.1,0.4c0.2-0.4,0-0.2,0.2-0.6c-0.1,0-0.3,0-0.2-0.2c0.1,0.1,0.1,0,0.1-0.1
								c-0.1,0-0.1-0.1-0.1-0.2c0.1-0.1,0.3,0.1,0.3-0.1l-0.3,0c0-0.1,0.2,0,0.1-0.1c0.1,0.1,0.2,0,0.3,0.2c0.2-0.3-0.2-0.4-0.3-0.6
								c0,0,0.1,0,0.1,0c-0.1,0-0.1-0.1-0.1-0.2c0-0.1,0.1,0.1,0.2,0.1l0-0.2c0,0,0,0,0,0c0-0.1-0.1-0.1,0-0.1
								c0.1,0.1,0.2,0.1,0.3,0.1l-0.2-0.2c0.1,0,0.1-0.2,0.2,0l-0.1-0.3l0.2,0c0-0.1-0.1-0.1-0.1,0c0-0.1-0.4-0.5,0-0.4
								c-0.2-0.2-0.1-0.3-0.2-0.6c0.2,0.2,0.2-0.3,0.3,0c0.1-0.2-0.1-0.2-0.2-0.3c0.1-0.1,0.3-0.1,0.3,0l-0.1-0.1l0,0l-0.1-0.1
								c0.1-0.1,0.2,0,0.2-0.2l-0.2,0l0.1-0.1c-0.1,0-0.1,0-0.1-0.1l0,0l0-0.1c0.1,0.1,0-0.1,0.1-0.1c0-0.1,0-0.1,0-0.3l-0.1,0
								c-0.1-0.2,0.2,0,0.2-0.2l-0.1,0c0.2-0.3-0.2-0.5,0-0.7c0,0.1,0.2,0.1,0.1,0.1c-0.1-0.2-0.1-0.5-0.2-0.6
								c0.2-0.1,0.2-0.1,0.3-0.3c0-0.1,0-0.2-0.2-0.2c0.1-0.1-0.1-0.4,0.1-0.4c-0.1,0,0-0.1-0.1-0.2l0.1,0l-0.1,0
								c0.3-0.3-0.2-0.4,0-0.6l0,0l-0.1-0.1c0.1,0,0.1,0,0.2,0l0-0.5l-0.1,0.1c0-0.1-0.1-0.2-0.1-0.3c0.2,0.2,0-0.2,0.1-0.2l0.1,0.1
								c0-0.1,0-0.1-0.1-0.1c-0.1-0.2,0.2-0.1,0.1-0.3l0,0.1c-0.1,0-0.2,0-0.2-0.1c0,0,0.1-0.1,0.1,0c-0.1-0.1,0-0.3-0.1-0.4
								c0-0.1,0.1-0.1,0.2,0c-0.1-0.3,0-0.1-0.1-0.4l0.1,0l-0.1-0.1l0.1-0.2l-0.1,0.1c0-0.1-0.1-0.2,0-0.3l0.1,0
								c-0.1-0.3,0.2-0.3,0-0.6c0,0,0.1,0,0.1,0c-0.2-0.2,0.2-0.2-0.1-0.4c0,0,0.1,0,0.1,0l-0.1-0.1l0.1,0l-0.2-0.1l0.1-0.1l-0.1,0
								c0.3-0.1,0-0.3,0.2-0.5l-0.2,0c-0.4-0.4,0.1-1-0.1-1.4l0.1,0l-0.2-0.2c0.1-0.1,0.1,0.1,0.2,0c-0.1-0.2-0.2-0.1-0.3-0.3
								c0.1-0.1,0.1,0,0.2,0.1c-0.1-0.2-0.2-0.6-0.1-0.7c0,0,0,0-0.1,0c-0.1-0.2,0-0.4-0.1-0.5c0.1,0,0.1,0,0.1,0.1
								c0-0.1,0-0.2,0-0.2l0.1,0.1c0-0.1-0.1-0.4,0-0.4c-0.1,0-0.2,0-0.2-0.1c0.2-0.1-0.1-0.3,0-0.5c0.1,0,0.1,0.2,0.1,0.1
								c0.1-0.1-0.1-0.2-0.1-0.2l0.1,0l-0.2-0.4c0.2-0.1-0.1-0.4,0.1-0.4c0-0.2-0.1,0.1-0.1-0.1c0.1-0.1-0.1-0.2,0.1-0.2l0,0l0-0.1
								l0.1,0.1c0-0.1-0.2-0.2-0.3-0.2c0.1-0.1,0-0.3,0.1-0.3l0,0c-0.1-0.3,0.3-0.6,0.1-0.8c0,0,0.1,0,0.1,0l0-0.2l0.1,0l-0.2-0.3
								l0.1,0c0-0.2-0.1-0.5-0.1-0.8l0,0c-0.1-0.3,0-0.3-0.1-0.5c0,0,0,0,0,0l0-0.2l0.1,0c-0.2-0.1,0.2-0.4,0-0.3
								c-0.1-0.1-0.2-0.2-0.3-0.2c0-0.2,0.1-0.1,0.1-0.2c0-0.2-0.1-0.2-0.1-0.4l0.1,0c0-0.1-0.1-0.2-0.1-0.3l0,0
								c-0.2-0.2,0.2-0.3-0.1-0.4c0.1-0.1,0-0.3,0.1-0.3c-0.1-0.3-0.2-0.5-0.3-0.7c0.2-0.1,0-0.1,0.1-0.2l-0.1,0
								c-0.1-0.4,0.2-0.9,0.1-1.3l0.1,0l-0.1-0.1c0-0.5,0-1.1,0-1.4c-0.1-0.1-0.2-0.3-0.2-0.5l0,0c-0.1-0.3-0.2-0.7-0.2-1
								c0.1,0,0.1,0,0.1,0c-0.1-0.1,0-0.2,0-0.3L62,50.4c-0.1-0.1,0-0.3,0.1-0.3L61.9,50c0,0,0,0,0,0l-0.1,0l0.2-0.1
								c0,0-0.1-0.2-0.3-0.3c0.1,0,0.1-0.2,0.1-0.1l0-0.6L61.8,49c-0.1,0-0.2-0.1-0.2-0.2c0.1,0.1,0.2,0,0.3-0.1
								c-0.1-0.1-0.1,0.1-0.2,0c-0.1-0.1-0.2-0.3-0.1-0.4l0.1,0.1c-0.1-0.1,0.2-0.2,0.1-0.4c-0.1-0.1,0-0.2-0.2-0.2
								c-0.1-0.2,0.1-0.1,0.2-0.1c-0.1-0.1-0.1-0.3,0-0.4c-0.3-0.1,0.1-0.5-0.2-0.5l0.1-0.2c-0.1,0-0.2,0-0.3-0.1
								c0.1-0.1,0.2-0.1,0.3-0.1l-0.3,0c0.2-0.7,0-1.5,0.1-2.2c-0.1-0.3-0.3-0.7-0.3-1.1l0,0l0-0.4l-0.1,0.3c0-0.1-0.1-0.1-0.1-0.2
								c0.1-0.4,0.1-1,0-1.4c-0.3-0.3,0.2-0.2,0-0.5c0,0,0.1,0,0.1,0c-0.1-0.3-0.2-0.5-0.4-0.8c0.3,0,0-0.2,0.1-0.2l-0.1,0
								c0.1-0.1,0.1-0.3,0.2-0.2l-0.2-0.1l0.1,0c0-0.2-0.2-0.6,0.1-0.7c-0.2-0.5-0.3-1.2-0.3-1.8c-0.1-0.1-0.1-0.2-0.2-0.4l0.1-0.2
								c-0.1-0.1-0.3-0.3-0.2-0.4c0,0,0,0,0,0c0-0.1,0-0.3-0.1-0.4c0-0.2,0.1-0.3,0.2-0.3c-0.3,0,0-0.3,0-0.3s-0.1-2-0.4-4.2
								c-0.3-2.2-0.9-4.6-1.7-5.5c-0.1,0-0.2-0.2-0.4-0.1c-0.1-0.1,0.1-0.2,0-0.2c-0.1,0.2-0.3,0-0.5,0.2l0-0.1
								c-0.1,0,0.1,0.1,0,0.1l0.2,0c0,0.1-0.1,0.2-0.1,0.2c0.1,0.1,0.4,0.1,0.3,0.3l0-0.1c0,0.2-0.1,0.1-0.2,0.2l0,0L57.7,26
								c0.1-0.1-0.2-0.3-0.1-0.2c0,0.2,0-0.1,0.1,0.1c0,0.1-0.1,0.1-0.2,0.1l0,0.2c-0.1,0,0-0.1-0.1,0l0.1,0.2
								c-0.3,0.1,0.2,0.2-0.1,0.4c-0.1-0.1-0.1,0-0.2,0l0.1,0.4c0,0-0.1-0.1-0.1,0c-0.1,0.1,0.1,0.1,0.1,0.1c-0.1,0,0,0.3-0.1,0.3
								c-0.1,0.3,0.2,0.1,0.2,0.3c-0.1,0-0.1-0.2-0.2-0.1l0.1,0.2c-0.1,0-0.2,0-0.2-0.1c0,0.7-0.6,1.1-0.3,1.7
								c-0.1,0.1-0.1-0.1-0.2-0.1c0.2,0.4-0.2,0.7-0.1,1.1l0.1,0c-0.3,0.6,0,1.2,0,1.8l0.1-0.1c0.1,0.1,0.1,0.2,0.2,0.3
								c-0.1,0-0.2,0-0.2,0.1c0,0,0.1-0.1,0.1-0.1c-0.2,0.6,0,1.6,0,2.5c0.2,1.1,0.2,2.4,0.4,3.5c0-0.2,0.2-0.1,0.2,0
								c-0.4,0.4,0.1,0.6-0.1,1c0.2,0.6-0.1,1.3,0.3,1.9l-0.1,0c0,0.1,0,0.1,0.1,0.2l0,0c0,0.2,0.1,0.5,0.1,0.6l0.1,0
								c0,0.1-0.1,0.1,0,0.2l-0.1,0l0.2,0.1c-0.3,0,0,0.4-0.1,0.5c0.1,0.2,0.2,0.5,0.2,0.8c-0.1,0.1-0.1,0.4-0.1,0.6
								c0.1,0.4,0.2,1,0.2,1.5l0.2,0l0,0.1c0,0-0.1,0-0.1,0c-0.2,0.1,0.1,0.3,0,0.4c0.1-0.1,0-0.1,0-0.2c0.1-0.1,0.2,0,0.2,0.1l0,0
								l0.1,0.1c-0.1,0-0.2,0.1-0.3,0.1c0.1,0.4,0.3,0.7,0.3,1.2c-0.1,0,0.1,0.3-0.2,0.3c0.1,0.3,0.2-0.1,0.4,0c0,0.1,0.1,0.2,0,0.2
								c-0.1,0-0.1,0.1-0.2,0l0,0.2c0,0-0.1,0-0.1,0c0.2,0.4-0.1,0.7,0.1,1c0.1,0,0-0.1,0.1-0.1c0.2,0.3-0.1,0.3,0,0.6l-0.1-0.1
								c0.1,0.1,0.2,0.1,0.1,0.3c-0.1,0-0.1-0.1-0.2-0.2c0,0.1,0.1,0.4,0.2,0.3c0.1,0.1-0.1,0.2-0.1,0.3c0,0,0.1-0.1,0.2-0.1
								c-0.1,0.2,0,0.5,0,0.7c0,0-0.1,0-0.1,0C58.6,51.6,58.2,51.7,58.3,51.9z"/>
							<path class="st12" d="M60.1,64.1L60.1,64.1c0-0.1-0.1-0.1-0.1-0.1L60.1,64.1z"/>
							<path class="st12" d="M59.8,59.7C59.8,59.7,59.8,59.7,59.8,59.7C59.8,59.7,59.8,59.7,59.8,59.7z"/>
							<path class="st12" d="M59.5,58.6c0,0.1,0.1,0,0.1,0C59.6,58.6,59.5,58.6,59.5,58.6z"/>
							<path class="st12" d="M60.7,66.5C60.7,66.5,60.7,66.5,60.7,66.5C60.7,66.5,60.7,66.5,60.7,66.5z"/>
							<path class="st12" d="M61.2,73.4C61.2,73.4,61.2,73.4,61.2,73.4C61.2,73.4,61.2,73.4,61.2,73.4z"/>
							<path class="st12" d="M61.4,73C61.4,73,61.4,73,61.4,73C61.4,73,61.4,73,61.4,73z"/>
							<path class="st12" d="M60.5,64.9C60.5,64.8,60.5,64.8,60.5,64.9C60.5,64.8,60.5,64.9,60.5,64.9z"/>
							<path class="st12" d="M61.3,72.9L61.3,72.9C61.3,72.8,61.3,72.8,61.3,72.9L61.3,72.9z"/>
							<path class="st12" d="M61.2,73.6c0,0,0-0.1,0-0.1C61.2,73.5,61.2,73.5,61.2,73.6z"/>
							<path class="st12" d="M61.1,69L61.1,69C61,69,61.1,69,61.1,69z"/>
							<polygon class="st12" points="61.1,72.5 61.1,72.5 61,72.4 							"/>
							<path class="st12" d="M61.2,74C61.2,74,61.2,73.9,61.2,74C61.2,73.9,61.2,74,61.2,74C61.2,74,61.2,74,61.2,74z"/>
							<path class="st12" d="M61,70.5c0.1,0,0.1,0,0.1,0C61.1,70.5,61.1,70.5,61,70.5z"/>
						</g>
					</g>
				</g>
			</g>
		</g>
		<g>
			<g>
				<g>
					<g>
						<g>
							<path class="st12" d="M58.4,77.6C58.4,77.5,58.5,77.5,58.4,77.6C58.5,77.5,58.4,77.5,58.4,77.6z"/>
							<path class="st12" d="M56.2,76.3L56.2,76.3C56.2,76.3,56.2,76.3,56.2,76.3z"/>
							<path class="st12" d="M59.8,78.2L59.8,78.2C59.8,78.2,59.9,78.3,59.8,78.2L59.8,78.2z"/>
							<path class="st12" d="M51.2,74L51.2,74C51.3,74,51.3,74,51.2,74z"/>
							<path class="st12" d="M54.1,75.4C54.1,75.5,54.1,75.5,54.1,75.4C54.1,75.5,54.1,75.5,54.1,75.4z"/>
							<path class="st12" d="M60.1,79.8l0-0.1C60.1,79.7,60.1,79.8,60.1,79.8z"/>
							<path class="st12" d="M61.7,79.9L61.7,79.9C61.7,79.9,61.7,79.9,61.7,79.9z"/>
							<path class="st12" d="M61.3,79.4C61.3,79.4,61.2,79.4,61.3,79.4C61.2,79.4,61.3,79.4,61.3,79.4z"/>
							<path class="st12" d="M61.2,79.4L61.2,79.4C61.2,79.4,61.2,79.4,61.2,79.4z"/>
							<path class="st12" d="M33,66.8c0,0-0.1,0-0.2,0.1L33,66.8z"/>
							<path class="st12" d="M46.7,72.2L46.7,72.2C46.7,72.2,46.7,72.2,46.7,72.2z"/>
							<path class="st12" d="M32.6,67.5L32.6,67.5C32.6,67.5,32.6,67.5,32.6,67.5z"/>
							<path class="st12" d="M59.3,79.8c-0.1,0.1-0.1-0.1-0.2,0C59.2,79.8,59.2,79.9,59.3,79.8z"/>
							<path class="st12" d="M44.4,75.1L44.4,75.1C44.4,75.1,44.4,75.1,44.4,75.1z"/>
							<path class="st12" d="M32.6,67.5L32.6,67.5C32.6,67.5,32.6,67.5,32.6,67.5C32.6,67.5,32.6,67.5,32.6,67.5z"/>
							<polygon class="st12" points="42,70.3 42,70.3 42,70.3 							"/>
							<path class="st12" d="M41.8,70L41.8,70C41.8,70,41.8,70,41.8,70z"/>
							<path class="st12" d="M32.8,66.8L32.8,66.8C32.8,66.9,32.8,66.9,32.8,66.8z"/>
							<path class="st12" d="M39.1,69C39.1,69,39.1,69,39.1,69C39.1,69,39.1,69,39.1,69z"/>
							<path class="st12" d="M54.3,75.6C54.3,75.6,54.3,75.6,54.3,75.6C54.3,75.6,54.3,75.5,54.3,75.6z"/>
							<polygon class="st12" points="51.6,77.2 51.6,77.2 51.6,77.2 							"/>
							<path class="st12" d="M51.7,77.1c0,0-0.1,0-0.1,0.1C51.6,77.2,51.6,77.2,51.7,77.1z"/>
							<path class="st12" d="M51.4,77.1L51.4,77.1C51.4,77.1,51.4,77.1,51.4,77.1z"/>
							<polygon class="st12" points="53.4,78 53.4,78 53.4,78 							"/>
							<path class="st12" d="M52.9,77.9C52.9,77.8,52.9,77.8,52.9,77.9C52.9,77.8,52.9,77.8,52.9,77.9z"/>
							<polygon class="st12" points="50.3,76.9 50.3,76.9 50.3,76.9 							"/>
							<path class="st12" d="M46.2,76.1c0.4,0.1,1,0.1,1.3,0.3c0.2-0.1,0.3-0.1,0.4-0.1l-0.1,0.2l0.1,0c0,0.1-0.1,0-0.1,0.1l0.1-0.1
								c0,0.1,0.2,0.2,0,0.3l0.4,0.2c0.1,0,0.1-0.2,0.2-0.1c0,0.1-0.1,0-0.1,0.1c0.2,0.3,0.5-0.3,0.7-0.1l0,0c0.1,0,0.2,0,0.2,0
								c0.1-0.3-0.1,0.1-0.1-0.1c0.1-0.2,0.1-0.1,0.2-0.2c0,0.1,0.1,0,0.2,0c0,0.2,0.2,0.1,0.2,0.3c0.1,0,0.2-0.2,0.3-0.2
								c0,0.2-0.1,0.1,0,0.2l0.1-0.1c0.1,0,0,0.1,0,0.1c0.1,0,0.1-0.1,0.2,0L50.4,77c0.1,0,0.1,0,0.2,0.1c0,0.1-0.1,0-0.1,0
								c0,0.2,0.1,0,0.2,0c0-0.1-0.1-0.1,0-0.2c0,0,0.2-0.1,0.2,0L50.7,77c0.1,0,0.1-0.1,0.2,0c0,0,0,0,0,0.1
								c0.1-0.1,0.2,0.1,0.3,0.1l0,0c0.1,0,0.1-0.1,0.2-0.1c0-0.1,0-0.1,0-0.2c0,0.2,0.2-0.2,0.3,0c0,0.1-0.1,0.1-0.1,0
								c-0.1,0.2-0.2,0.3-0.3,0.4c0.1,0,0.2,0,0.1,0.1l0.1-0.2c0,0,0.1,0,0.1,0c0.1-0.1,0-0.2,0.1-0.3c0.1,0,0,0.2,0,0.1
								c0.2,0,0.1-0.2,0.2-0.1c0,0-0.1,0-0.1,0c0.1,0.1,0.2,0,0.2,0.3c0,0-0.1,0.1-0.1,0.1l0,0c-0.2,0.1,0.1,0,0,0.2
								c0-0.1,0.1-0.1,0.2,0l0-0.1c0.3-0.3-0.1,0.3,0.1,0.3c0.1-0.1,0-0.1,0.1-0.1c0.1,0.1,0.1,0.2,0.2,0.2c0,0.1,0,0.2,0,0.3
								c0.1,0,0.2,0.1,0.3,0c-0.1-0.2-0.2,0.1-0.2-0.1l0.1-0.1c0.1,0,0.2,0,0.3,0.1c0,0,0-0.1,0-0.1c0.2,0,0.2-0.1,0.4-0.1
								c0,0.1-0.1,0.1-0.2,0.1c0,0.1,0.1,0,0.2,0.1c0,0.1-0.1,0-0.1,0.1l0.2,0l0,0c0.1-0.2,0.1,0.1,0.2,0c0.2,0.1,0.3-0.2,0.5-0.3
								c0,0.1,0,0.1,0,0.2c0-0.1,0,0-0.1,0c0.1,0,0.1,0.3,0,0.3c0.1,0,0-0.1,0.1-0.2l0.1,0.1c0-0.1,0-0.2,0.1-0.2
								c0.1,0,0.1,0,0.2,0.1c0,0,0,0.2-0.1,0.1c0,0.1,0.1,0.1,0.2,0c-0.1-0.1,0.2,0,0.2-0.2l0.1,0.1c0,0,0,0.1-0.1,0
								c0,0.2,0.1,0,0.1,0c0,0,0.1,0.1,0.1,0.1c0,0,0.1,0,0.1,0.1c0.1,0,0-0.1,0.1-0.1l0.1,0.1c0,0.1-0.1,0.3-0.1,0.4
								c0.1-0.1,0.1-0.2,0.2-0.2c-0.1,0.1,0.1,0.2-0.1,0.3c0,0.1,0.2,0.2,0.2,0.2c0.1-0.1-0.1-0.1,0-0.2c0.2,0,0.4-0.3,0.5-0.2
								l0-0.1c0.1,0,0.1,0,0.2-0.1c-0.1,0.2,0,0.5,0.1,0.5c0-0.1,0-0.2,0-0.3l0.1,0c0,0,0,0,0,0.1c0.1,0,0.1,0.3,0.2,0.1l0,0.3
								l0-0.1c0-0.1,0.2-0.1,0.2-0.1c0.1-0.1,0.2,0,0.2,0.2c0-0.1,0-0.3,0.1-0.2c-0.1,0.3,0.2,0.2,0.1,0.3c0,0,0.1,0.1,0.1,0
								l-0.1,0.2c0.1-0.2,0.2-0.2,0.3-0.2c-0.1,0.3,0.1,0,0.1,0.3c0.1-0.2,0.2,0,0.3-0.2c0.1,0,0,0.2,0,0.3l0.1-0.1
								c0,0.1,0.1,0.2,0.2,0.3l0.1-0.2l0,0.1c0,0,0.1-0.1,0.1-0.1l0,0c0.1-0.2,0.1,0,0.2-0.1c0,0,0,0.1,0,0.1c0,0,0,0.1,0,0.2
								c0-0.1,0.3-0.3,0.2-0.5C58.9,79,59,79,59,79l0,0.2l0.1-0.2c0.1,0,0.1,0.1,0.1,0.2c-0.1,0-0.2,0.3-0.1,0.4
								c-0.1,0-0.2,0.1-0.2,0.1c0,0,0,0,0,0.1c0.1,0,0.1-0.1,0.2-0.1c-0.1,0.2-0.1,0.2,0,0.3l0-0.2c0,0,0,0,0,0c0,0,0-0.1,0-0.1
								c0,0,0.2-0.2,0.2-0.1c0-0.3,0.3-0.1,0.2-0.3c0,0,0.1,0,0.1,0.1c-0.1,0.1,0,0.2-0.1,0.3c0.1,0,0-0.2,0-0.2
								c0.1,0,0.1,0.1,0.1,0.2l0,0l0.1,0.1c0-0.1,0-0.2,0.1-0.2c0,0,0.1,0,0.1,0.1c-0.1,0.1-0.1,0.3-0.2,0.3c0.1,0,0.2,0,0.2-0.1
								l0.1,0c0-0.1-0.1-0.3,0.1-0.2l0,0l0.1-0.1l0,0.1c0,0,0-0.1,0.1-0.1c0,0.1,0,0.1,0,0.2c0.1,0,0.1-0.1,0.2-0.1
								c0.1,0,0.1,0,0,0.1c0.1,0,0.2,0.1,0.2,0.2c0.1,0,0,0,0.1-0.1c0,0.3,0.3,0.2,0.5,0.2c0-0.3,0.1,0,0.2-0.2
								c-0.1,0.1,0.1,0.3-0.1,0.3l0.1,0c0,0.2-0.2,0.1-0.2,0.3c0.1,0,0.3-0.2,0.3-0.1c-0.1,0.2,0.1,0,0,0.2c0,0.1-0.1,0-0.1,0l0,0
								c0.2,0.1,0.1-0.2,0.3-0.3c0.1,0,0.1,0.2,0,0.3c0,0,0.1,0,0.1,0c-0.1,0.1-0.1-0.2,0-0.3c0,0.2,0.2,0.1,0.3,0
								C62,80,62,80.2,61.9,79.9c0,0.1-0.1,0.2-0.2,0.1c0.1-0.1,0-0.1,0-0.1c0,0.1-0.1,0-0.1,0.1c0-0.1,0.1-0.2,0.1-0.3l-0.1,0.2
								c0-0.1,0.1-0.2,0-0.2c0.1-0.1,0.1-0.2,0.2-0.2c-0.1-0.3-0.3,0-0.4,0.1c0,0,0,0,0-0.1c0,0.1-0.1,0-0.1,0
								c-0.1-0.1,0.1-0.1,0.1-0.2l-0.1,0c0,0,0,0,0,0c0,0-0.1,0-0.1,0c0.1-0.1,0.1-0.2,0.2-0.2l-0.2,0.1c0-0.1-0.1-0.2,0.1-0.2
								l-0.2,0l0-0.2c-0.1,0-0.1,0,0,0.1c-0.1-0.1-0.4,0.2-0.2-0.1c-0.2,0.1-0.2,0-0.4,0c0.2-0.1-0.1-0.3,0.1-0.3
								c-0.1-0.1-0.1,0.1-0.2,0.1c0-0.1,0-0.3,0.1-0.3l-0.1,0.1l0,0l-0.1,0.1c0-0.1,0-0.2,0-0.2L60,78.4l0-0.1
								c0,0.1-0.1,0.1-0.1,0.1l0,0l-0.1,0c0.1-0.1-0.1-0.1,0-0.2c-0.1,0-0.1,0-0.2,0l0,0.1c-0.2,0,0-0.2-0.1-0.2l0,0.1
								c-0.1-0.3-0.3,0-0.4-0.1c0.1,0,0.1-0.2,0.1-0.1c-0.1,0-0.3-0.1-0.4,0c0-0.2,0-0.2,0-0.4c-0.1,0-0.1,0-0.2,0.1
								c-0.1-0.1-0.2,0-0.2-0.2c-0.1,0.1-0.1,0-0.1,0l0-0.1l0,0.1c0-0.3-0.3,0.1-0.3-0.2l0,0l-0.1,0c0-0.1,0-0.1,0.1-0.1l-0.3-0.1
								l0,0.1c-0.1,0-0.1,0.1-0.2,0c0.2-0.1-0.1,0-0.1-0.2l0.1,0c-0.1,0-0.1,0-0.1,0.1c-0.1,0,0-0.3-0.1-0.2l0.1,0
								c0,0.1-0.1,0.2-0.1,0.1c0,0,0-0.1,0-0.1c-0.1,0-0.2-0.1-0.2,0c0-0.1,0-0.1,0-0.2c-0.2,0-0.1,0-0.3,0l0-0.1l-0.1,0.1l0-0.2
								l0,0.1c-0.1,0-0.1,0-0.2,0l0.1-0.1c-0.2,0-0.1-0.2-0.3-0.1c0,0,0,0,0-0.1c-0.2,0.1,0-0.2-0.2-0.1c0,0,0-0.1,0-0.1l-0.1,0
								l0.1-0.1L56,76.4l0-0.2l0,0.1c0-0.3-0.1-0.1-0.2-0.4l0,0.2c-0.4,0.3-0.5-0.4-0.8-0.3l0.1-0.1l-0.2,0.1c0-0.1,0.1-0.1,0.1-0.2
								c-0.1,0-0.1,0.2-0.3,0.2c0-0.1,0.1-0.1,0.1-0.1c-0.2,0-0.4,0-0.4-0.1c0,0,0,0,0,0c-0.1,0-0.2-0.1-0.3-0.1
								c0-0.1,0.1-0.1,0.1-0.1c0,0-0.1-0.1-0.1,0l0.1-0.1c-0.1-0.1-0.3,0-0.2-0.1c0,0.1-0.1,0.2-0.1,0.1c0-0.2-0.2,0-0.3-0.1
								c0,0,0.1,0,0.1,0c0-0.1-0.1,0-0.2,0.1l0-0.1l-0.3,0c0-0.2-0.2-0.1-0.2-0.2c-0.1,0,0,0.1-0.1,0.1c0-0.1-0.1,0-0.1-0.1l0,0
								l-0.1,0l0.1-0.1c-0.1,0-0.2,0.1-0.2,0.2c0-0.1-0.1-0.1-0.1-0.2l0,0c-0.2,0-0.2-0.5-0.4-0.3c0,0,0-0.1,0,0l-0.1,0l0.1-0.1
								l-0.2,0.1l0-0.1c-0.1-0.1-0.3-0.1-0.5-0.1l0,0c-0.2,0-0.1-0.1-0.3-0.1c0,0,0,0,0,0l-0.1,0l0-0.1C51,74,51,73.7,51,73.8
								c-0.1,0-0.2,0.1-0.2,0.2c-0.1,0,0-0.1,0-0.2c-0.1,0-0.1,0.1-0.2,0l0-0.1c-0.1,0-0.1,0-0.2,0l0,0c-0.2,0.1-0.1-0.3-0.3,0
								c0-0.1-0.1-0.1-0.1-0.2c-0.2,0-0.3,0-0.5,0c0.1-0.2,0,0-0.1-0.2l0,0.1C49.2,73.4,49,73,48.8,73l0-0.1l-0.1,0.1
								c-0.2-0.2-0.5-0.3-0.8-0.4c-0.1,0-0.2,0.1-0.3,0.1l0,0c-0.2,0-0.4,0-0.6-0.2c0,0,0-0.1,0.1-0.1c-0.1,0.1-0.1,0-0.2-0.1l0,0.1
								c-0.1,0.1-0.1-0.1-0.1-0.1l-0.1,0.1c0,0,0,0,0-0.1l0,0.1l0-0.2c0,0-0.2,0-0.3,0.2c0-0.1-0.1-0.1,0-0.1l-0.3-0.2l0,0.1
								c0,0.1-0.2,0.2-0.2,0.1C46,72,46,71.9,46,71.8c-0.1,0,0,0.1-0.1,0.2c-0.1,0.1-0.2,0.1-0.2,0l0.1,0c-0.1,0,0-0.2-0.1-0.2
								c-0.1,0.1-0.1,0-0.2,0.2c-0.1,0,0-0.2,0-0.2c-0.1,0.1-0.2,0-0.2-0.1c-0.2,0.3-0.2-0.2-0.3,0l0-0.2c0,0.1-0.1,0.2-0.2,0.2
								c0-0.1,0-0.2,0-0.3l-0.1,0.2c-0.2-0.4-0.8-0.4-1.1-0.8c-0.2,0-0.5,0-0.6-0.1l0,0l-0.2-0.2l0.1,0.2c-0.1,0-0.1,0-0.2,0
								c-0.2-0.2-0.4-0.4-0.7-0.4c-0.3,0.2,0-0.3-0.3-0.2c0,0,0-0.1,0.1-0.1c-0.2,0-0.3,0-0.6,0.1c0.1-0.3-0.1,0,0-0.2l-0.1,0.1
								c0-0.1-0.1-0.2,0-0.2l-0.1,0.1l0-0.1c-0.1-0.1-0.4-0.1-0.3-0.3c-0.3,0.1-0.7-0.2-1-0.4c-0.1,0.1-0.2,0-0.3,0l0-0.2
								c-0.1,0-0.3,0.1-0.3,0c0,0,0,0,0,0c-0.1,0-0.1-0.1-0.3,0c-0.1,0-0.1-0.2,0-0.3c-0.1,0.2-0.2-0.1-0.2-0.1s-1-0.6-2.2-1.2
								c-1.2-0.5-2.6-1-3.4-0.7c-0.1,0.1-0.2,0.1-0.3,0.3c-0.1,0,0-0.2-0.1-0.1c0.1,0.1-0.2,0.3-0.1,0.5l-0.1,0
								c-0.1,0.1,0.1,0,0,0.1l0.1-0.2c0,0.1,0,0.1,0,0.2c0.1-0.1,0.3-0.3,0.3-0.1l0,0c0.1,0,0,0.2,0,0.2l0,0l0,0.1
								c0-0.1-0.2,0-0.2,0c0.1,0.1,0-0.1,0.1,0c0.1,0,0,0.1,0,0.2l0.1,0c-0.1,0.1-0.1,0-0.1,0.1l0.2,0c-0.1,0.3,0.2-0.1,0.1,0.2
								c-0.1,0,0,0.1-0.1,0.2l0.2,0.1c0,0-0.1,0-0.1,0.1c0,0.1,0.1,0,0.1,0c0,0.1,0.2,0.1,0.1,0.2c0.1,0.2,0.2-0.2,0.2,0
								c0,0.1-0.1,0-0.1,0.1l0.2,0c0,0-0.1,0.1-0.1,0.1c0.3,0.3,0.3,0.9,0.7,1c0,0.1-0.1,0.1-0.1,0.1c0.3,0,0.2,0.4,0.4,0.5l0.1-0.1
								c0.2,0.4,0.6,0.4,0.9,0.7l0-0.1c0.1-0.1,0.2,0,0.2-0.1c0,0.1-0.1,0.2,0,0.2c0,0,0-0.1,0-0.1c0.2,0.4,0.8,0.6,1.2,0.9
								c0.7,0.2,1.3,0.7,2,0.9c-0.1,0,0-0.3,0.1-0.2c0,0.5,0.4,0.1,0.5,0.5c0.4,0,0.6,0.5,1.1,0.4l0,0.1c0,0.1,0.1,0,0.1,0l0,0
								c0.1,0.1,0.3,0,0.4,0.1l0.1-0.1c0.1,0,0,0.1,0.1,0.1l0,0.1l0.1-0.1c-0.1,0.2,0.2,0.1,0.2,0.2c0.1,0,0.3,0,0.5,0.1
								c0,0.1,0.2,0.2,0.3,0.3c0.2,0.1,0.6,0.2,0.9,0.3l0.1-0.2l0.1,0c0,0,0,0.1,0,0.1c0,0.2,0.2,0,0.2,0.1c0-0.2,0,0-0.1-0.1
								c0-0.1,0.1-0.2,0.1-0.1l0,0l0.1-0.1c0,0.1,0,0.2-0.1,0.3c0.3,0.1,0.5-0.1,0.8,0.1c-0.1,0.1,0.2,0,0.1,0.3
								c0.2,0,0-0.2,0.2-0.3c0,0,0.1,0,0.1,0.1c0,0,0,0.2-0.1,0.2l0.1,0c0,0,0,0-0.1,0.1c0.3,0,0.3,0.3,0.6,0.2c0-0.1-0.1-0.1,0-0.1
								c0.3-0.1,0.1,0.2,0.3,0.2l-0.1,0.1c0.1-0.1,0.2-0.1,0.2,0c0,0.1-0.1,0.1-0.2,0.1c0.1,0,0.2,0.1,0.2-0.1
								c0.1,0,0.1,0.1,0.1,0.2c0,0,0-0.1,0-0.2c0.1,0.1,0.2,0.2,0.4,0.2c0,0,0,0.1,0,0.1C46.2,75.8,46,76.1,46.2,76.1z"/>
							<path class="st12" d="M53.4,78L53.4,78c-0.1,0-0.1,0-0.1,0L53.4,78z"/>
							<path class="st12" d="M50.9,77C50.9,77,50.9,77,50.9,77C50.9,77.1,50.9,77,50.9,77z"/>
							<path class="st12" d="M50.2,77c0.1,0,0-0.1,0-0.1C50.2,77,50.2,77,50.2,77z"/>
							<path class="st12" d="M54.9,78.2C54.9,78.2,54.9,78.2,54.9,78.2C54.9,78.2,54.9,78.2,54.9,78.2z"/>
							<path class="st12" d="M58.8,79.6C58.8,79.6,58.8,79.6,58.8,79.6C58.8,79.6,58.8,79.6,58.8,79.6z"/>
							<path class="st12" d="M58.7,79.3C58.7,79.3,58.7,79.3,58.7,79.3C58.7,79.4,58.7,79.4,58.7,79.3z"/>
							<path class="st12" d="M54,77.9C54,77.9,53.9,77.9,54,77.9C53.9,77.9,54,77.9,54,77.9z"/>
							<path class="st12" d="M58.6,79.4L58.6,79.4C58.5,79.3,58.5,79.4,58.6,79.4L58.6,79.4z"/>
							<path class="st12" d="M58.9,79.7C58.9,79.7,58.9,79.7,58.9,79.7C58.9,79.7,58.9,79.7,58.9,79.7z"/>
							<path class="st12" d="M56.4,78.5L56.4,78.5C56.4,78.6,56.4,78.5,56.4,78.5z"/>
							<polygon class="st12" points="58.3,79.5 58.3,79.5 58.2,79.5 							"/>
							<path class="st12" d="M59.1,79.8C59.1,79.8,59.1,79.8,59.1,79.8L59.1,79.8C59.1,79.8,59.1,79.8,59.1,79.8z"/>
							<path class="st12" d="M57.2,79c0,0,0.1-0.1,0.1-0.1C57.2,78.9,57.2,78.9,57.2,79z"/>
						</g>
					</g>
				</g>
			</g>
		</g>
		<g>
			<g>
				<g>
					<g>
						<g>
							<path class="st12" d="M73.5,64.8C73.5,64.9,73.6,64.9,73.5,64.8C73.6,64.9,73.5,64.9,73.5,64.8z"/>
							<path class="st12" d="M74.3,62.8L74.3,62.8C74.3,62.8,74.3,62.8,74.3,62.8z"/>
							<path class="st12" d="M73,66.1L73,66.1C73,66.1,73,66.1,73,66.1L73,66.1z"/>
							<path class="st12" d="M74.8,58.1L74.8,58.1C74.8,58.1,74.8,58.1,74.8,58.1z"/>
							<path class="st12" d="M74.6,60.9C74.5,60.9,74.5,60.8,74.6,60.9C74.5,60.8,74.5,60.9,74.6,60.9z"/>
							<path class="st12" d="M71.5,66.2l0.1,0C71.5,66.2,71.5,66.2,71.5,66.2z"/>
							<path class="st12" d="M71.4,67.5L71.4,67.5C71.4,67.5,71.4,67.5,71.4,67.5z"/>
							<path class="st12" d="M71.9,67.2C71.9,67.2,71.9,67.2,71.9,67.2C71.9,67.2,71.9,67.2,71.9,67.2z"/>
							<path class="st12" d="M71.9,67.1L71.9,67.1C71.9,67.1,71.9,67.1,71.9,67.1z"/>
							<path class="st12" d="M67.9,42.6c0,0-0.1,0-0.2,0.1L67.9,42.6z"/>
							<path class="st12" d="M74.1,53.9L74.1,53.9C74.1,53.9,74.1,53.9,74.1,53.9z"/>
							<path class="st12" d="M67.5,43.4L67.5,43.4C67.5,43.3,67.5,43.4,67.5,43.4z"/>
							<path class="st12" d="M71.4,65.5c-0.1-0.1,0-0.1,0-0.1C71.4,65.5,71.3,65.5,71.4,65.5z"/>
							<path class="st12" d="M70.5,53.9L70.5,53.9C70.5,53.9,70.5,53.9,70.5,53.9z"/>
							<path class="st12" d="M67.5,43.4L67.5,43.4C67.5,43.4,67.5,43.4,67.5,43.4C67.5,43.4,67.5,43.4,67.5,43.4z"/>
							<polygon class="st12" points="72.9,49.8 72.9,49.8 72.9,49.8 							"/>
							<path class="st12" d="M73,49.5L73,49.5C73,49.5,73,49.5,73,49.5z"/>
							<path class="st12" d="M67.7,42.7L67.7,42.7C67.6,42.7,67.7,42.7,67.7,42.7z"/>
							<path class="st12" d="M72.1,47.3L72.1,47.3C72.1,47.3,72.1,47.3,72.1,47.3z"/>
							<path class="st12" d="M74.5,61C74.5,61,74.5,61.1,74.5,61C74.5,61.1,74.5,61.1,74.5,61z"/>
							<polygon class="st12" points="72,59.4 72,59.4 72,59.4 							"/>
							<path class="st12" d="M72.1,59.5c0,0,0-0.1-0.1-0.1C72,59.5,72,59.5,72.1,59.5z"/>
							<path class="st12" d="M72,59.3L72,59.3C72,59.3,72,59.3,72,59.3z"/>
							<polygon class="st12" points="71.9,60.9 71.9,60.9 71.9,60.9 							"/>
							<path class="st12" d="M71.9,60.6C71.9,60.6,71.9,60.6,71.9,60.6C71.9,60.6,71.9,60.6,71.9,60.6z"/>
							<polygon class="st12" points="71.7,58.5 71.7,58.5 71.7,58.5 							"/>
							<path class="st12" d="M70.5,55.5c0.1,0.3,0.4,0.6,0.4,1c0.2,0,0.2,0.1,0.3,0.2L71,56.7l0.1,0.1c-0.1,0-0.1-0.1-0.1,0l0.2,0
								c-0.1,0,0,0.2-0.2,0.1l0,0.3c0,0.1,0.2,0,0.2,0.1c-0.1,0-0.1,0-0.1,0c-0.2,0.3,0.5,0.2,0.4,0.4l0,0c0.1,0,0.1,0.1,0.1,0.1
								c0.3-0.1-0.1,0,0-0.1c0.2,0,0.1,0.1,0.3,0c-0.1,0.1,0.1,0.1,0.1,0.1c-0.1,0.1,0,0.2-0.2,0.3c0.1,0,0.3,0,0.3,0.1
								c-0.2,0.1-0.2,0-0.2,0.1l0.1,0c0,0.1,0,0.1-0.1,0.1c0,0.1,0.2,0,0.1,0.1l-0.1,0c0.1,0.1,0,0.1,0,0.2c-0.1,0-0.1,0-0.1-0.1
								c-0.2,0.1,0.1,0.1,0.1,0.1c0.1,0,0.1-0.1,0.2-0.1c0,0,0.2,0.1,0,0.1l-0.1,0c0.1,0.1,0.2,0,0.1,0.1c0,0,0,0-0.1,0
								c0.2,0.1,0,0.2,0,0.3l0,0c0,0,0.2,0.1,0.2,0.1c0.1-0.1,0.1,0,0.2-0.1c-0.2,0.1,0.2,0.1,0.1,0.2c-0.1,0-0.2,0-0.1-0.1
								c-0.2,0-0.4,0-0.5-0.1c0.1,0,0.1,0.1,0,0.1l0.2,0c0,0,0,0.1,0,0.1c0.1,0,0.2-0.1,0.3,0c0.1,0.1-0.2,0-0.1,0.1
								c0.1,0.1,0.2,0,0.2,0.1c0,0-0.1,0,0,0c-0.1,0.1,0,0.2-0.2,0.2c-0.1,0-0.1,0-0.1,0l0,0c-0.2-0.1,0,0.1-0.2,0
								c0.1,0,0.1,0.1,0.1,0.1l0.1,0c0.4,0.1-0.3,0-0.2,0.1c0.1,0.1,0,0,0.1,0c0,0.1-0.2,0.1-0.1,0.2c-0.1,0-0.1,0.1-0.3,0.1
								c0.1,0.1-0.1,0.2,0.1,0.2c0.1-0.1-0.2-0.1,0-0.2l0.2,0c0,0.1,0.1,0.2,0,0.2c0,0,0.1,0,0.1,0c0.1,0.1,0.2,0.1,0.2,0.2
								c-0.1,0-0.1,0-0.1-0.1c-0.1,0.1,0,0.1-0.1,0.2c-0.1,0,0-0.1-0.1-0.1l0,0.1l0,0c0.2,0,0,0.1,0,0.2c0,0.2,0.3,0.2,0.4,0.3
								c-0.1,0-0.1,0-0.2,0c0.1,0,0,0,0-0.1c0,0.1-0.2,0.1-0.3,0.1c0.1,0.1,0.1,0,0.2,0l0,0.1c0.1,0,0.1-0.1,0.2,0
								c0,0.1,0,0.1,0,0.2c-0.1,0-0.2,0-0.2,0c0,0-0.1,0.1,0.1,0.1c0.1-0.1,0.1,0.1,0.3,0.1L72.3,62c0,0-0.1,0,0,0
								c-0.2,0,0,0.1,0.1,0.1c0,0-0.1,0.1-0.1,0.1c0,0,0,0.1-0.1,0.1c0,0,0.1,0,0.2,0l0,0.1c-0.1,0-0.3,0-0.4,0
								c0.1,0.1,0.3,0,0.3,0.1c-0.2-0.1-0.1,0.1-0.4,0c-0.1,0-0.1,0.1-0.1,0.2c0.1,0.1,0.1-0.1,0.2,0c0,0.2,0.4,0.2,0.3,0.4l0,0
								c0.1,0.1,0.1,0.1,0.2,0.1c-0.2,0-0.5,0-0.5,0.2c0.1,0,0.2,0,0.3,0l0,0.1c0,0,0,0-0.1,0c0.1,0.1-0.3,0.1,0,0.2l-0.3,0l0.1,0
								c0.1,0,0.1,0.1,0.1,0.1c0.1,0.1,0,0.1-0.1,0.2c0.1,0,0.2,0,0.3,0.1C72,63.8,72.2,64,72,64c0,0-0.1,0.1,0,0.1l-0.2,0
								c0.2,0.1,0.2,0.2,0.2,0.2c-0.3-0.1,0,0.1-0.3,0.1c0.2,0.1,0.1,0.2,0.2,0.2c0,0.1-0.2,0-0.3,0l0.1,0c-0.1,0-0.2,0.1-0.2,0.2
								l0.2,0.1h-0.1c0,0,0.1,0.1,0.1,0.1l0,0c0.2,0.1,0,0.1,0.1,0.2c0,0-0.1,0-0.1,0c0,0-0.1,0-0.2,0c0.1,0,0.4,0.2,0.5,0.2
								c0.1,0,0.1,0.1,0.1,0.1l-0.2,0l0.2,0.1c0,0.1-0.1,0-0.2,0.1c0,0-0.3-0.2-0.4-0.1c0-0.1-0.1-0.1-0.1-0.2c0,0,0,0-0.1,0
								c0,0.1,0.1,0.1,0.1,0.2c-0.2-0.1-0.2,0-0.3,0l0.1,0c0,0,0,0,0,0c0,0,0.1,0,0.1,0c0,0,0.2,0.2,0.1,0.1c0.3,0,0.2,0.2,0.3,0.2
								c0,0,0,0.1-0.1,0.1c-0.1-0.1-0.2,0-0.3-0.1c0,0,0.1,0,0.2,0c0,0-0.1,0-0.2,0l0,0l-0.1,0c0.1,0,0.2,0,0.2,0.1
								c0,0,0,0.1-0.1,0.1c-0.1-0.1-0.3-0.1-0.3-0.2c0,0,0,0.2,0.2,0.2l0,0c0.1,0,0.2-0.1,0.2,0.1l0,0l0.1,0.1h-0.1
								c0,0,0.1,0,0.1,0.1c-0.1,0-0.1,0-0.2,0c0,0.1,0.1,0.1,0.1,0.1c0,0,0,0-0.1,0c0,0-0.1,0.2-0.2,0.2c0,0.1,0,0,0.1,0.1
								c-0.3,0-0.2,0.2-0.2,0.3c0.3,0.1,0,0,0.2,0.2c-0.1-0.1-0.2,0-0.3-0.1l0,0.1c-0.2,0-0.1-0.2-0.3-0.2c0,0.1,0.2,0.2,0.1,0.3
								c-0.2-0.1,0,0.1-0.2,0c-0.1,0,0-0.1,0-0.1l0,0c-0.1,0.1,0.2,0.1,0.3,0.3c0,0.1-0.2,0-0.3,0c0,0,0,0.1,0,0.1
								c-0.1-0.1,0.2-0.1,0.3,0c-0.2-0.1-0.1,0.1,0,0.2c0.3,0,0.1-0.1,0.3-0.1c-0.1,0-0.2-0.1-0.1-0.2c0.1,0.1,0.1,0,0.1,0
								c-0.1,0,0-0.1,0-0.1c0.1,0,0.2,0.2,0.3,0.1l-0.2-0.1c0.1,0,0.2,0.1,0.1,0c0.1,0.1,0.2,0.1,0.2,0.2c0.3,0,0-0.2-0.1-0.3
								c0,0,0,0,0.1,0c-0.1,0,0-0.1,0-0.1c0.1,0,0.1,0.1,0.2,0.1l0-0.1c0,0,0,0,0,0c0,0,0-0.1,0-0.1c0.1,0.1,0.1,0.1,0.2,0.2L72,67
								c0.1,0,0.2,0,0.2,0.1l0-0.2l0.2,0.1c0,0,0-0.1-0.1,0c0.1,0-0.2-0.3,0.1-0.2c-0.1-0.2,0-0.2-0.1-0.4c0.1,0.2,0.2-0.1,0.3,0.1
								c0.1,0-0.1-0.1-0.1-0.2c0.1,0,0.3,0.1,0.3,0.1l-0.1-0.1l0,0l-0.1-0.1c0.1,0,0.2,0,0.2,0l-0.1-0.1l0.1,0
								c-0.1,0-0.1-0.1-0.1-0.1l0,0l0-0.1c0.1,0.1,0,0,0.2,0c0,0,0,0,0-0.1l-0.1,0c-0.1-0.1,0.2,0,0.2,0l-0.1,0
								c0.2-0.1-0.1-0.3,0.1-0.3c0,0.1,0.2,0.1,0.1,0.1c0-0.1,0.1-0.2-0.1-0.4c0.2,0,0.2,0,0.3-0.1c0-0.1,0-0.1-0.1-0.1
								c0.1,0,0-0.2,0.1-0.2c-0.1,0,0-0.1,0-0.1l0.1,0l-0.1,0c0.3-0.1-0.1-0.2,0.2-0.3l0,0l0-0.1c0.1,0,0.1,0,0.2,0l0.1-0.2l-0.1,0
								c0-0.1-0.1-0.1,0-0.1c0.2,0.1,0-0.1,0.2-0.1l0,0.1c0-0.1,0-0.1-0.1-0.1c0-0.1,0.3,0,0.1-0.1l0,0.1c-0.1,0-0.2-0.1-0.2-0.1
								c0,0,0.1,0,0.1,0c0-0.1,0-0.2,0-0.2c0,0,0.1,0,0.2,0c-0.1-0.2,0-0.1-0.1-0.2l0.1,0l-0.1-0.1l0.2-0.1l-0.1,0
								c0-0.1-0.1-0.1,0-0.1l0.1,0c0-0.1,0.2-0.1,0.1-0.3c0,0,0.1,0,0.1,0c-0.2-0.1,0.2-0.1,0-0.2c0,0,0.1,0,0.1,0l-0.1-0.1l0.1,0
								l-0.2-0.1l0.2,0l-0.1,0c0.3,0,0.1-0.1,0.3-0.2l-0.2,0c-0.4-0.2,0.3-0.5,0.1-0.7l0.1,0l-0.2-0.1c0.1-0.1,0.1,0,0.2,0
								c-0.1-0.1-0.2-0.1-0.2-0.2c0.1-0.1,0.1,0,0.2,0.1c-0.1-0.1-0.1-0.3-0.1-0.4c0,0,0,0-0.1,0c-0.1-0.1,0-0.2,0-0.3
								c0.1,0,0.1,0,0.1,0c0,0,0.1-0.1,0-0.1l0.1,0c0-0.1-0.1-0.2,0.1-0.2c-0.1,0-0.2,0-0.2-0.1c0.2,0-0.1-0.2,0-0.3
								c0.1,0,0.1,0.1,0.1,0.1c0.1,0,0-0.1-0.1-0.1l0.1,0l-0.1-0.2c0.2,0,0-0.2,0.1-0.2c0-0.1-0.1,0.1-0.1,0c0.1,0,0-0.1,0.1-0.1
								l0,0l0-0.1l0.1,0c0-0.1-0.2-0.1-0.3-0.1c0.1-0.1,0-0.1,0.1-0.2l0,0c-0.1-0.2,0.4-0.3,0.1-0.4c0,0,0.1,0,0.1,0l0-0.1l0.1,0
								l-0.2-0.2l0.1,0c0-0.1,0-0.3-0.1-0.4l0,0c-0.1-0.1,0.1-0.2,0-0.3c0,0,0,0,0,0l0-0.1l0.1,0c-0.2-0.1,0.2-0.2,0.1-0.2
								c-0.1,0-0.2-0.1-0.3-0.1c0-0.1,0.1,0,0.1-0.1c0-0.1-0.1-0.1-0.1-0.2l0.1,0c0,0-0.1-0.1-0.1-0.1l0,0c-0.2-0.1,0.2-0.2-0.1-0.2
								c0.1-0.1,0-0.1,0.1-0.2c-0.1-0.1-0.2-0.2-0.3-0.4c0.2-0.1,0,0,0.1-0.1l-0.1,0c0-0.2,0.2-0.5,0.1-0.7l0.1,0l-0.1,0
								c0-0.2,0-0.6,0-0.7c-0.1,0-0.2-0.1-0.2-0.2l0,0c-0.1-0.2-0.2-0.3-0.2-0.5c0.1,0,0.1,0,0.1,0c-0.1,0,0-0.1,0-0.1l-0.1,0.1
								c-0.1,0,0-0.1,0.1-0.2l-0.2,0c0,0,0,0,0,0l-0.1,0l0.2-0.1c0,0-0.1-0.1-0.3-0.1c0.1,0,0.1-0.1,0.1-0.1l0-0.3l0,0.1
								c-0.1,0-0.2,0-0.2-0.1c0.1,0,0.2,0,0.3-0.1c-0.1,0-0.1,0.1-0.2,0.1c-0.1,0-0.2-0.1-0.1-0.2l0.1,0c-0.1-0.1,0.1-0.1,0.1-0.2
								c-0.1,0,0-0.1-0.2,0c-0.1-0.1,0.1-0.1,0.1-0.1c-0.1,0-0.1-0.2,0-0.2c-0.3,0,0-0.3-0.2-0.2l0.1-0.1c-0.1,0-0.2,0-0.3,0
								c0.1-0.1,0.2-0.1,0.3-0.1l-0.3,0c0.2-0.4-0.1-0.7,0-1.1c-0.1-0.1-0.3-0.3-0.3-0.5l0,0l0-0.2l-0.1,0.2c0,0-0.1,0-0.1-0.1
								c0-0.2,0.1-0.5-0.1-0.7c-0.3-0.1,0.2-0.2,0-0.3c0,0,0.1,0,0.1,0c-0.1-0.1-0.2-0.2-0.5-0.3c0.3-0.1,0-0.1,0.1-0.1l-0.1,0
								c0.1-0.1,0.1-0.1,0.1-0.2l-0.2,0l0.1,0c0-0.1-0.2-0.3,0-0.4c-0.3-0.2-0.3-0.5-0.4-0.8c-0.1,0-0.1-0.1-0.2-0.1l0.1-0.1
								c-0.1,0-0.3-0.1-0.2-0.1c0,0,0,0,0,0c-0.1-0.1,0-0.1-0.2-0.2c0-0.1,0-0.2,0.2-0.2c-0.2,0.1,0-0.2,0-0.2S72,46.5,71.9,46
								c-0.1-0.4-0.4-1-0.7-1.6c-0.4-0.6-0.9-1.2-1.5-1.6c-0.6-0.4-1.3-0.5-1.7-0.3c-0.1,0.1-0.2,0.1-0.2,0.3c-0.1,0,0-0.2-0.1-0.1
								c0.1,0.1-0.1,0.3-0.1,0.5l-0.1,0c0,0.1,0.1-0.1,0,0.1l0.1-0.2c0,0.1,0,0.1,0,0.2c0.1-0.1,0.2-0.3,0.3-0.2l0,0
								c0.1,0,0,0.2,0,0.2l0,0l0,0.1c0-0.1-0.2,0-0.1,0c0.1,0.1,0-0.1,0.1,0c0.1,0,0,0.1-0.1,0.2l0.1,0c-0.1,0.1,0,0-0.1,0.1l0.2,0
								c-0.1,0.2,0.2-0.1,0.1,0.2c-0.1,0,0,0.1-0.1,0.1l0.2,0.1c0,0-0.1,0-0.1,0c0,0.1,0.1,0,0.1,0c0,0.1,0.1,0.1,0,0.2
								c0,0.2,0.2-0.1,0.2,0c-0.1,0.1-0.1,0-0.1,0.1c0,0,0.1,0,0.1,0c0,0-0.1,0.1-0.2,0.1c0.1,0.3-0.2,0.8,0.1,0.9
								c-0.1,0.1-0.1,0-0.2,0.1c0.2,0-0.1,0.4,0,0.5L68,46c-0.2,0.4,0.1,0.5,0.1,0.7l0.1-0.1c0.1,0,0.1,0,0.2,0c0,0-0.2,0.1-0.1,0.1
								c0,0,0-0.1,0.1-0.1c-0.2,0.3,0.1,0.7,0.1,1.1c0.3,0.4,0.3,1.1,0.5,1.6c0-0.1,0.2-0.1,0.2-0.1c-0.4,0.3,0.2,0.3-0.1,0.5
								c0.2,0.3,0,0.6,0.4,0.8l-0.1,0c0,0.1,0,0,0.1,0.1l0,0c0,0.1,0.2,0.2,0.1,0.3l0.1,0c0,0.1-0.1,0.1,0,0.1l-0.1,0l0.2,0
								c-0.2,0.1,0,0.2-0.1,0.3c0.1,0.1,0.2,0.2,0.2,0.3c-0.1,0.1-0.1,0.2-0.1,0.3c0.1,0.2,0.2,0.4,0.2,0.7l0.2-0.1l0,0.1
								c0,0-0.1,0-0.1,0c-0.2,0.1,0.1,0.1,0,0.2c0.1-0.1,0,0,0-0.1c0.1-0.1,0.2-0.1,0.2,0l0,0l0.1,0c-0.1,0-0.2,0.1-0.3,0.1
								c0.1,0.2,0.3,0.3,0.3,0.5c-0.1,0,0.1,0.1-0.2,0.2c0.1,0.1,0.2-0.1,0.4-0.1c0,0,0.1,0.1,0,0.1c-0.1,0-0.1,0.1-0.2,0l0,0.1
								c0,0-0.1,0-0.1,0c0.2,0.1-0.1,0.3,0.1,0.5c0.1,0,0-0.1,0.1-0.1c0.2,0.1-0.1,0.2,0,0.3h-0.1c0.1,0,0.2,0,0.1,0.1
								c-0.1,0-0.1,0-0.2-0.1c0,0.1,0.1,0.2,0.2,0.1c0.1,0.1-0.1,0.1-0.1,0.1c0,0,0.1-0.1,0.2-0.1c-0.1,0.1,0,0.2,0,0.3
								c0,0-0.1,0-0.1,0C70.8,55.3,70.5,55.4,70.5,55.5z"/>
							<path class="st12" d="M71.9,61L71.9,61C71.9,60.9,71.8,60.9,71.9,61L71.9,61z"/>
							<path class="st12" d="M71.9,58.9C71.9,58.9,71.9,58.9,71.9,58.9C71.9,58.9,71.9,58.9,71.9,58.9z"/>
							<path class="st12" d="M71.6,58.5c0,0,0.1,0,0.1,0C71.7,58.5,71.7,58.5,71.6,58.5z"/>
							<path class="st12" d="M72.2,62.1C72.2,62.1,72.2,62.1,72.2,62.1C72.2,62.1,72.2,62.1,72.2,62.1z"/>
							<path class="st12" d="M71.5,65.2C71.5,65.2,71.6,65.2,71.5,65.2C71.6,65.2,71.5,65.2,71.5,65.2z"/>
							<path class="st12" d="M71.8,65.1C71.8,65.1,71.8,65.1,71.8,65.1C71.8,65.1,71.8,65.1,71.8,65.1z"/>
							<path class="st12" d="M72.2,61.4C72.2,61.3,72.2,61.3,72.2,61.4C72.1,61.3,72.2,61.3,72.2,61.4z"/>
							<path class="st12" d="M71.8,65L71.8,65C71.8,65,71.8,65,71.8,65L71.8,65z"/>
							<path class="st12" d="M71.5,65.3C71.5,65.2,71.5,65.2,71.5,65.3C71.5,65.2,71.5,65.2,71.5,65.3z"/>
							<path class="st12" d="M72.2,63.3L72.2,63.3C72.2,63.3,72.2,63.3,72.2,63.3z"/>
							<polygon class="st12" points="71.6,64.8 71.6,64.8 71.6,64.8 							"/>
							<path class="st12" d="M71.4,65.4C71.4,65.4,71.4,65.4,71.4,65.4L71.4,65.4C71.4,65.4,71.4,65.4,71.4,65.4z"/>
							<path class="st12" d="M71.9,63.9c0.1,0,0.1,0,0.1,0C72,64,72,63.9,71.9,63.9z"/>
						</g>
					</g>
				</g>
			</g>
		</g>
		<g>
			<g>
				<g>
					<g>
						<g>
							<path class="st12" d="M81.2,65.9C81.2,65.9,81.2,65.9,81.2,65.9C81.2,65.9,81.2,65.9,81.2,65.9z"/>
							<path class="st12" d="M82.4,63.4L82.4,63.4C82.4,63.4,82.4,63.4,82.4,63.4z"/>
							<path class="st12" d="M80.4,67.3L80.4,67.3C80.3,67.3,80.3,67.3,80.4,67.3L80.4,67.3z"/>
							<path class="st12" d="M83.3,57.5L83.3,57.5C83.3,57.5,83.3,57.5,83.3,57.5z"/>
							<path class="st12" d="M82.9,61C82.9,61,82.9,61,82.9,61C82.9,61,82.9,61,82.9,61z"/>
							<path class="st12" d="M78.7,67.4l0.1,0C78.8,67.4,78.8,67.3,78.7,67.4z"/>
							<path class="st12" d="M78.2,68.8L78.2,68.8C78.2,68.8,78.2,68.8,78.2,68.8z"/>
							<path class="st12" d="M78.9,68.6C78.9,68.5,78.9,68.5,78.9,68.6C78.9,68.5,78.9,68.5,78.9,68.6z"/>
							<path class="st12" d="M78.9,68.5L78.9,68.5C78.9,68.5,78.9,68.5,78.9,68.5z"/>
							<path class="st12" d="M74.2,38.8c0,0-0.1,0-0.2,0L74.2,38.8z"/>
							<path class="st12" d="M82.8,52.2L82.8,52.2C82.8,52.2,82.8,52.2,82.8,52.2z"/>
							<path class="st12" d="M73.8,39.5L73.8,39.5C73.8,39.5,73.8,39.5,73.8,39.5z"/>
							<path class="st12" d="M78.9,66.5c-0.1-0.1,0.1-0.1,0-0.1C78.9,66.4,78.8,66.5,78.9,66.5z"/>
							<path class="st12" d="M79.1,51.9L79.1,51.9C79.1,51.9,79.1,51.9,79.1,51.9z"/>
							<path class="st12" d="M73.8,39.5L73.8,39.5C73.8,39.5,73.8,39.5,73.8,39.5C73.8,39.5,73.8,39.5,73.8,39.5z"/>
							<polygon class="st12" points="81.3,46.9 81.3,46.9 81.3,46.9 							"/>
							<path class="st12" d="M81.4,46.5L81.4,46.5C81.4,46.5,81.4,46.5,81.4,46.5z"/>
							<path class="st12" d="M74,38.8l-0.1,0C73.9,38.9,74,38.8,74,38.8z"/>
							<path class="st12" d="M79.8,43.6L79.8,43.6C79.8,43.6,79.8,43.6,79.8,43.6z"/>
							<path class="st12" d="M82.8,61.2C82.8,61.2,82.8,61.2,82.8,61.2C82.8,61.2,82.8,61.2,82.8,61.2z"/>
							<polygon class="st12" points="80.5,59 80.5,59 80.5,59 							"/>
							<path class="st12" d="M80.6,59.1c0,0,0-0.1-0.1-0.1C80.5,59,80.5,59,80.6,59.1z"/>
							<path class="st12" d="M80.5,58.7L80.5,58.7C80.5,58.8,80.5,58.7,80.5,58.7z"/>
							<polygon class="st12" points="80.2,60.8 80.2,60.8 80.2,60.8 							"/>
							<path class="st12" d="M80.2,60.4C80.3,60.4,80.3,60.4,80.2,60.4C80.3,60.4,80.3,60.4,80.2,60.4z"/>
							<polygon class="st12" points="80.2,57.7 80.3,57.7 80.3,57.7 							"/>
							<path class="st12" d="M79.2,53.8c0.1,0.4,0.4,0.9,0.4,1.3c0.2,0.1,0.2,0.2,0.3,0.3l-0.3,0l0.1,0.1c-0.1,0.1-0.1-0.1-0.1,0
								l0.2,0c-0.1,0,0,0.3-0.2,0.1l0,0.4c0,0.1,0.2,0,0.2,0.1c-0.1,0-0.1,0-0.1,0c-0.2,0.3,0.5,0.3,0.4,0.6l0,0
								c0.1,0,0.1,0.1,0.1,0.1c0.3-0.1-0.1,0,0-0.1c0.2,0,0.1,0.1,0.3,0.1c-0.1,0.1,0.1,0.1,0.1,0.2c-0.1,0.1,0,0.2-0.2,0.3
								c0.1,0,0.3,0.1,0.3,0.2c-0.2,0.1-0.2,0-0.2,0.1l0.1,0c0,0.1-0.1,0.1-0.1,0.1c0,0.1,0.2,0.1,0.1,0.2l-0.1-0.1
								c0,0.1,0,0.1,0,0.2c-0.1,0-0.1,0,0-0.1c-0.2,0.1,0.1,0.1,0.1,0.1c0.1,0,0.1-0.1,0.2-0.1c0,0.1,0.2,0.1,0,0.2l-0.1-0.1
								c0.1,0.1,0.2,0.1,0.1,0.2c0,0,0,0-0.1,0c0.2,0.1,0,0.2,0,0.3l0,0c0,0.1,0.2,0.1,0.1,0.1c0.1-0.1,0.1-0.1,0.2-0.1
								c-0.2,0.1,0.2,0.1,0.1,0.3c-0.1,0-0.2,0-0.1-0.1c-0.2-0.1-0.4-0.1-0.5-0.2c0,0.1,0.1,0.1,0,0.1l0.2,0c0,0,0,0.1,0,0.1
								c0.1,0,0.2-0.1,0.3,0c0.1,0.1-0.2,0-0.1,0.1c0.1,0.1,0.2,0.1,0.1,0.2c0,0,0,0,0,0c-0.1,0.1,0,0.2-0.2,0.2
								c-0.1,0-0.1,0-0.1-0.1l0,0c-0.2-0.1,0,0.1-0.2,0c0.1,0,0.1,0.1,0.1,0.2l0.1,0c0.4,0.2-0.3,0-0.2,0.2c0.1,0.1,0,0,0.1,0
								c0,0.1-0.2,0.1-0.1,0.2c-0.1,0-0.1,0.1-0.3,0.1c0.1,0.1-0.1,0.2,0.1,0.3c0.1-0.1-0.2-0.1,0.1-0.3l0.2,0c0,0.1,0.1,0.2,0,0.3
								c0,0,0.1,0,0.1,0c0,0.1,0.2,0.2,0.1,0.3c-0.1,0-0.1-0.1-0.1-0.1c-0.1,0.1,0,0.1-0.1,0.2c-0.1,0,0-0.1-0.1-0.1l0,0.1l0,0
								c0.2,0,0,0.1,0,0.2c0,0.2,0.3,0.3,0.4,0.4c-0.1,0-0.1,0-0.2,0c0.1,0,0,0,0-0.1c0,0.1-0.2,0.1-0.3,0.1c0,0.1,0.1,0,0.2,0.1
								l0,0.2c0.1,0,0.1-0.1,0.2,0c0,0.1,0,0.1,0,0.2c-0.1,0-0.2,0-0.2-0.1c0,0-0.1,0.1,0,0.1c0.1-0.1,0.1,0.2,0.2,0.1l-0.1,0.1
								c0,0-0.1,0,0-0.1c-0.2,0,0,0.1,0,0.1c0,0-0.1,0.1-0.1,0.1c0,0,0,0.1-0.1,0.1c0,0.1,0.1,0,0.2,0l0,0.2c-0.1,0-0.3,0-0.4-0.1
								c0.1,0.1,0.3,0.1,0.2,0.2c-0.2-0.1-0.2,0.1-0.3,0c-0.1,0-0.2,0.2-0.1,0.2c0.1,0.1,0.1-0.1,0.2,0c0,0.2,0.4,0.3,0.3,0.5l0.1,0
								c0.1,0.1,0,0.1,0.1,0.2c-0.2-0.1-0.5,0-0.5,0.2c0.1,0,0.2,0,0.3,0l0,0.1c0,0,0,0-0.1,0c0,0.1-0.3,0.1-0.1,0.2l-0.3,0l0.1,0
								c0.1,0,0.1,0.2,0.1,0.2c0.1,0.1,0,0.2-0.2,0.2c0.1,0,0.3,0,0.3,0.1c-0.3-0.1-0.2,0.2-0.3,0.1c0,0-0.1,0.1,0,0.1l-0.2-0.1
								c0.2,0.1,0.2,0.2,0.2,0.3c-0.3-0.1,0,0.1-0.3,0.1c0.2,0.1,0,0.2,0.2,0.3c0,0.1-0.2,0-0.3,0l0.1,0.1c-0.1,0-0.2,0.1-0.3,0.2
								l0.2,0.2l-0.1,0c0,0,0,0.1,0.1,0.1l0,0c0.2,0.1,0,0.1,0.1,0.2c0,0-0.1,0-0.1-0.1c0,0-0.1,0-0.2,0c0.1,0,0.3,0.3,0.4,0.2
								c0.1,0,0.1,0.1,0.1,0.1l-0.2-0.1l0.2,0.1c0,0.1-0.1,0-0.2,0.1c0-0.1-0.3-0.3-0.4-0.1c0-0.1-0.1-0.2-0.1-0.2c0,0,0,0-0.1,0
								c0,0.1,0.1,0.1,0.1,0.2c-0.2-0.1-0.2-0.1-0.3,0l0.2,0c0,0,0,0,0,0c0,0,0.1,0,0.1,0c0,0,0.1,0.2,0,0.2c0.3,0,0.1,0.3,0.3,0.3
								c0,0,0,0.1-0.1,0.1c-0.1-0.1-0.2,0-0.3-0.1c0,0.1,0.2,0,0.2,0.1c0,0.1-0.1,0-0.2,0l0,0l-0.1,0c0.1,0.1,0.2,0,0.2,0.1
								c0,0,0,0.1-0.1,0.1c-0.1-0.1-0.2-0.1-0.2-0.2c0,0.1-0.1,0.2,0.1,0.2l0,0.1c0.1,0,0.3,0,0.2,0.1l0,0l0.1,0.1l-0.1,0
								c0,0,0.1,0.1,0,0.1c-0.1,0-0.1,0-0.1,0c0,0.1,0,0.1,0.1,0.2c0,0.1-0.1,0.1-0.1,0c-0.1,0.1-0.1,0.2-0.2,0.2c0,0.1,0,0,0.1,0.1
								c-0.3-0.1-0.3,0.2-0.3,0.4c0.3,0.1,0,0.1,0.2,0.2c0-0.1-0.3,0-0.2-0.2l0,0.1c-0.2,0,0-0.2-0.2-0.2c-0.1,0.1,0.2,0.3,0,0.4
								c-0.1-0.1,0,0.1-0.2,0c0-0.1,0-0.1,0-0.1l0,0c-0.2,0.1,0.1,0.2,0.2,0.4c-0.1,0.1-0.2,0-0.3-0.1c0,0-0.1,0.1,0,0.1
								c0-0.1,0.2,0,0.3,0.1c-0.2-0.1-0.1,0.2-0.1,0.2c0.3,0,0.1-0.1,0.4-0.1c0-0.1-0.2-0.2-0.1-0.2c0,0.1,0.1,0.1,0.1,0.1
								c-0.1-0.1,0-0.1,0-0.1c0.1,0,0.2,0.2,0.3,0.1l-0.2-0.2c0.1,0,0.1,0.1,0.2,0c0.1,0.1,0.2,0.1,0.1,0.2c0.3,0,0-0.3,0-0.4
								c0,0,0,0,0,0.1c0-0.1,0-0.1,0-0.1c0.1,0,0.1,0.1,0.1,0.1l0.1-0.1c0,0,0,0,0,0c0,0,0-0.1,0-0.1c0.1,0.1,0.1,0.1,0.2,0.2
								L79,68.4c0.1,0.1,0.2,0,0.2,0.1l0.1-0.2l0.2,0.1c0-0.1,0-0.1-0.1,0c0.1,0-0.1-0.4,0.2-0.2c0-0.2,0-0.2,0.1-0.4
								c0.1,0.2,0.3,0,0.3,0.1c0.1,0,0-0.2,0-0.2c0.1,0,0.2,0.1,0.3,0.2l0-0.1l0,0L80,67.6c0.1,0,0.2,0.1,0.2,0l-0.1-0.1l0.1,0
								c-0.1,0-0.1-0.1-0.1-0.1l0,0l0-0.1c0.1,0.1,0.1,0,0.1,0c0-0.1,0-0.1,0.1-0.2l-0.1,0c0-0.2,0.1,0.1,0.2,0l-0.1,0
								c0.3-0.1,0-0.3,0.2-0.4c0,0.1,0.1,0.1,0.1,0.1c0-0.1,0.1-0.3,0-0.4c0.2,0,0.2,0,0.4,0c0-0.1,0-0.1-0.1-0.2
								c0.1-0.1,0.1-0.2,0.2-0.2c-0.1-0.1,0-0.1,0-0.1l0.1,0l-0.1,0c0.3,0-0.1-0.3,0.2-0.4l0,0l0-0.1c0.1,0,0.1,0,0.1,0.1l0.1-0.3
								l-0.1,0c0-0.1-0.1-0.1,0-0.2c0.1,0.2,0-0.1,0.2-0.1l0,0.1c0-0.1,0-0.1-0.1-0.1c0-0.1,0.3,0,0.2-0.1l0,0.1
								c-0.1,0-0.2-0.1-0.1-0.1c0,0,0.1,0,0.1,0c0-0.1,0.1-0.2,0-0.3c0.1,0,0.1,0,0.2,0c-0.1-0.2,0-0.1,0-0.3l0.1,0l-0.1-0.1L82,64
								l-0.1,0c0-0.1,0-0.1,0-0.2l0.1,0.1c0-0.2,0.2-0.2,0.1-0.4c0,0,0,0,0.1,0c-0.1-0.2,0.2-0.1,0-0.3c0,0,0.1,0,0.1,0l-0.1-0.1
								l0.1,0l-0.2-0.1l0.2,0l-0.1,0c0.3,0,0.1-0.2,0.3-0.2l-0.2,0c-0.3-0.3,0.3-0.6,0.2-0.9l0.1,0l-0.2-0.2c0.1-0.1,0.1,0.1,0.2,0
								c-0.1-0.2-0.2-0.1-0.2-0.3c0.1-0.1,0.1,0,0.1,0.1c-0.1-0.2-0.1-0.4,0-0.5c0,0,0,0-0.1,0c-0.1-0.1,0-0.2,0-0.4
								c0.1,0,0.1,0,0.1,0.1c0,0,0.1-0.1,0-0.1l0.1,0.1c0-0.1-0.1-0.3,0.1-0.3c-0.1,0-0.2,0-0.2-0.1c0.2,0-0.1-0.2,0.1-0.3
								c0.1,0,0.1,0.1,0.1,0.1c0.1-0.1,0-0.1-0.1-0.2l0.1,0l-0.1-0.3c0.2,0,0-0.3,0.1-0.2c0-0.1-0.1,0.1-0.1,0c0.1,0,0-0.1,0.1-0.1
								l0,0l0-0.1l0.1,0.1c0-0.1-0.2-0.1-0.3-0.1c0.1-0.1,0-0.2,0.1-0.2l0,0c-0.1-0.2,0.4-0.3,0.2-0.5c0,0,0.1,0,0.1,0l0-0.1l0.1,0
								l-0.2-0.2l0.1,0c0-0.1,0-0.4,0-0.5l0,0c-0.1-0.2,0.1-0.2,0-0.3c0,0,0,0,0,0l0-0.1l0.1,0c-0.2-0.1,0.2-0.3,0.1-0.2
								c-0.1-0.1-0.2-0.1-0.3-0.1c0-0.1,0.1,0,0.1-0.1c0-0.1-0.1-0.1-0.1-0.2l0.1,0c0-0.1-0.1-0.1-0.1-0.2l0,0
								c-0.2-0.1,0.2-0.2-0.1-0.3c0.1-0.1,0-0.2,0.1-0.2c-0.1-0.2-0.2-0.3-0.2-0.5c0.2-0.1,0,0,0.1-0.2l-0.1,0
								c0-0.2,0.2-0.6,0.2-0.8l0.1,0l-0.1,0c0-0.3,0-0.7,0-0.9c-0.1-0.1-0.2-0.2-0.2-0.3l0,0c-0.1-0.2-0.2-0.4-0.2-0.7
								c0.1,0,0.1,0,0.1,0c-0.1,0,0-0.1,0-0.2l-0.1,0.1c-0.1,0,0-0.2,0.1-0.2l-0.2-0.1c0,0,0,0,0,0l-0.1,0l0.2-0.1
								c0,0-0.1-0.1-0.3-0.2c0.1,0,0.1-0.1,0.1-0.1l0-0.4l0,0.1c-0.1,0-0.2-0.1-0.2-0.1c0.1,0.1,0.2,0,0.3-0.1
								c-0.1,0-0.1,0.1-0.2,0.1c-0.1,0-0.2-0.2-0.1-0.2l0.1,0c-0.1-0.1,0.1-0.2,0.1-0.2c-0.1-0.1,0-0.1-0.2-0.1
								c-0.1-0.1,0.1-0.1,0.1-0.1c-0.1,0-0.1-0.2,0-0.2c-0.3,0,0-0.3-0.2-0.3l0.1-0.1c-0.1,0-0.2,0-0.3,0c0.1-0.1,0.2-0.1,0.3-0.1
								l-0.3,0c0.2-0.5-0.2-1-0.1-1.5c-0.1-0.2-0.3-0.4-0.3-0.6l0,0l0-0.2l-0.1,0.2c0,0-0.1-0.1-0.1-0.1c0-0.3,0-0.7-0.2-0.9
								c-0.4-0.1,0.2-0.2-0.1-0.3c0,0,0.1,0,0.1,0c-0.2-0.2-0.3-0.3-0.5-0.4c0.3-0.1-0.1-0.1,0.1-0.2l-0.1,0c0.1-0.1,0-0.2,0.1-0.2
								l-0.2,0l0.1-0.1c0-0.1-0.2-0.3,0-0.5c-0.3-0.2-0.5-0.7-0.6-1.1C80.1,44.1,80,44,80,44l0.1-0.2c-0.1-0.1-0.3-0.1-0.3-0.2
								c0,0,0,0,0,0c-0.1-0.1-0.1-0.2-0.2-0.2c0-0.1,0-0.2,0.1-0.3c-0.2,0.1-0.1-0.2-0.1-0.2s-0.6-1.3-1.7-2.4
								c-1.1-1.2-2.8-2.1-3.7-1.7c-0.1,0.1-0.2,0.1-0.3,0.3c-0.1,0,0-0.2-0.1-0.1c0.1,0.1-0.2,0.3-0.1,0.5l-0.1,0
								c-0.1,0.1,0.1,0,0,0.1l0.1-0.2c0,0.1,0,0.1,0,0.2c0.1-0.1,0.3-0.3,0.3-0.1l0,0c0.1,0,0,0.2,0,0.2l0,0l0,0.1
								c0-0.1-0.2,0-0.2,0c0.1,0.1,0-0.1,0.1,0c0.1,0,0,0.1-0.1,0.2l0.1,0C74,40,74,39.9,74,40l0.2,0c-0.1,0.2,0.2,0,0.1,0.2
								c-0.1,0,0,0.1-0.1,0.2l0.2,0.1c0,0-0.1,0-0.1,0c0,0.1,0.1,0,0.1,0c0,0.1,0.1,0.1,0,0.2c0.1,0.2,0.2-0.2,0.3,0
								c0,0.1-0.1,0-0.1,0.1l0.1,0.1c0,0-0.1,0.1-0.2,0.1c0.2,0.4,0,0.9,0.4,1.1c-0.1,0.1-0.1,0-0.2,0.1c0.3,0,0.1,0.5,0.2,0.6
								l0.1-0.1c0,0.4,0.3,0.6,0.5,0.9l0-0.1c0.1,0,0.2,0,0.2,0c0,0-0.2,0.1-0.1,0.2c0,0,0-0.1,0.1-0.1c0,0.4,0.4,0.8,0.5,1.3
								c0.4,0.5,0.6,1.2,0.9,1.7c0-0.1,0.2-0.2,0.2-0.1c-0.3,0.4,0.2,0.3,0,0.6c0.3,0.3,0.1,0.7,0.5,0.9L77.8,48
								c0,0.1,0.1,0.1,0.1,0.1l0,0c0,0.1,0.2,0.2,0.1,0.3l0.1,0c0,0.1-0.1,0.1,0,0.1l-0.1,0l0.2,0c-0.2,0.1,0.1,0.2,0,0.3
								c0.1,0.1,0.2,0.2,0.2,0.4c-0.1,0.1-0.1,0.2-0.1,0.4c0.1,0.2,0.2,0.5,0.3,0.8l0.2,0l0,0.1c0,0-0.1,0-0.1,0
								c-0.2,0.1,0.1,0.2,0,0.3c0.1-0.1,0-0.1,0-0.1c0.1-0.1,0.2-0.1,0.2,0l0,0l0.1,0c-0.1,0-0.2,0.1-0.3,0.1
								c0.1,0.2,0.3,0.4,0.3,0.6c-0.1,0,0.1,0.2-0.2,0.2c0.1,0.1,0.2-0.1,0.4,0c0,0,0.1,0.1,0,0.1c-0.1,0-0.1,0.1-0.2,0l0,0.1
								c0,0-0.1,0-0.1,0c0.2,0.2-0.1,0.4,0.1,0.6c0.1,0,0-0.1,0.1-0.1c0.2,0.2-0.1,0.2,0,0.4l-0.1,0c0.1,0,0.2,0,0.1,0.2
								c-0.1,0-0.1-0.1-0.2-0.1c0,0.1,0.1,0.2,0.2,0.2c0.1,0.1-0.1,0.1-0.1,0.2c0,0,0.1-0.1,0.2-0.1c-0.1,0.1,0,0.3,0,0.4
								c0,0-0.1,0-0.1,0C79.4,53.7,79.1,53.7,79.2,53.8z"/>
							<path class="st12" d="M80.2,60.9L80.2,60.9C80.2,60.8,80.2,60.8,80.2,60.9L80.2,60.9z"/>
							<path class="st12" d="M80.4,58.3C80.4,58.3,80.4,58.3,80.4,58.3C80.4,58.3,80.4,58.3,80.4,58.3z"/>
							<path class="st12" d="M80.1,57.7c0,0,0.1,0,0.1,0C80.2,57.7,80.2,57.7,80.1,57.7z"/>
							<path class="st12" d="M80.4,62.4C80.4,62.4,80.3,62.4,80.4,62.4C80.3,62.4,80.3,62.4,80.4,62.4z"/>
							<path class="st12" d="M79.1,66.2C79.1,66.2,79.1,66.2,79.1,66.2C79.1,66.2,79.1,66.2,79.1,66.2z"/>
							<path class="st12" d="M79.4,66.1C79.4,66,79.4,66,79.4,66.1C79.4,66,79.4,66,79.4,66.1z"/>
							<path class="st12" d="M80.5,61.4C80.5,61.4,80.5,61.4,80.5,61.4C80.4,61.4,80.4,61.4,80.5,61.4z"/>
							<path class="st12" d="M79.4,65.9L79.4,65.9C79.4,65.9,79.4,65.9,79.4,65.9L79.4,65.9z"/>
							<path class="st12" d="M79,66.2C79,66.2,79.1,66.2,79,66.2C79,66.2,79,66.2,79,66.2z"/>
							<path class="st12" d="M80.2,63.9L80.2,63.9C80.2,63.8,80.2,63.8,80.2,63.9z"/>
							<polygon class="st12" points="79.2,65.6 79.2,65.6 79.2,65.6 							"/>
							<path class="st12" d="M78.9,66.4C78.9,66.4,78.9,66.4,78.9,66.4L78.9,66.4C78.9,66.4,78.9,66.4,78.9,66.4z"/>
							<path class="st12" d="M79.8,64.6c0,0,0.1,0,0.1,0.1C79.9,64.7,79.8,64.6,79.8,64.6z"/>
						</g>
					</g>
				</g>
			</g>
		</g>
		<g>
			<g>
				<g>
					<g>
						<g>
							<path class="st12" d="M88.8,69.4C88.8,69.4,88.8,69.5,88.8,69.4C88.8,69.4,88.8,69.4,88.8,69.4z"/>
							<path class="st12" d="M90.2,65.8L90.2,65.8C90.2,65.8,90.2,65.8,90.2,65.8z"/>
							<path class="st12" d="M87.6,71.5L87.6,71.5c0,0-0.1,0.1-0.1,0.1L87.6,71.5z"/>
							<path class="st12" d="M91.2,57.7L91.2,57.7C91.2,57.7,91.2,57.7,91.2,57.7z"/>
							<path class="st12" d="M90.8,62.5C90.7,62.5,90.7,62.4,90.8,62.5C90.7,62.4,90.7,62.5,90.8,62.5z"/>
							<path class="st12" d="M85.8,71.7l0.1,0C85.9,71.7,85.8,71.7,85.8,71.7z"/>
							<path class="st12" d="M84.8,73.6L84.8,73.6C84.8,73.6,84.8,73.6,84.8,73.6z"/>
							<path class="st12" d="M85.6,73.3C85.6,73.2,85.6,73.2,85.6,73.3C85.6,73.2,85.6,73.2,85.6,73.3z"/>
							<path class="st12" d="M85.6,73.1L85.6,73.1C85.6,73.2,85.6,73.1,85.6,73.1z"/>
							<path class="st12" d="M79.7,31.2c-0.1,0-0.1,0-0.2,0L79.7,31.2z"/>
							<path class="st12" d="M90.8,50.3L90.8,50.3C90.9,50.3,90.9,50.3,90.8,50.3z"/>
							<path class="st12" d="M79.2,31.9L79.2,31.9C79.2,31.9,79.2,31.9,79.2,31.9z"/>
							<path class="st12" d="M86.2,70.6c-0.1-0.1,0.1-0.2,0-0.2C86.2,70.5,86.1,70.6,86.2,70.6z"/>
							<path class="st12" d="M87.2,49.3L87.2,49.3C87.1,49.2,87.1,49.3,87.2,49.3z"/>
							<path class="st12" d="M79.2,31.9L79.2,31.9C79.2,31.9,79.2,31.9,79.2,31.9C79.2,31.9,79.2,31.9,79.2,31.9z"/>
							<polygon class="st12" points="89.2,42.6 89.2,42.6 89.3,42.7 							"/>
							<path class="st12" d="M89.2,42.2C89.3,42.2,89.3,42.2,89.2,42.2C89.3,42.2,89.3,42.2,89.2,42.2z"/>
							<path class="st12" d="M79.4,31.3l-0.1,0C79.4,31.3,79.4,31.3,79.4,31.3z"/>
							<path class="st12" d="M87.2,38.1L87.2,38.1C87.2,38.1,87.2,38.1,87.2,38.1z"/>
							<path class="st12" d="M90.7,62.8C90.7,62.8,90.7,62.8,90.7,62.8C90.7,62.8,90.7,62.8,90.7,62.8z"/>
							<polygon class="st12" points="88.3,59.7 88.3,59.7 88.3,59.7 							"/>
							<path class="st12" d="M88.5,59.9c0,0,0-0.1-0.1-0.2C88.3,59.8,88.4,59.8,88.5,59.9z"/>
							<path class="st12" d="M88.4,59.4L88.4,59.4C88.4,59.4,88.4,59.4,88.4,59.4z"/>
							<polygon class="st12" points="88.1,62.4 88.1,62.4 88.1,62.4 							"/>
							<path class="st12" d="M88.1,61.8C88.1,61.8,88.1,61.8,88.1,61.8C88.1,61.8,88.1,61.8,88.1,61.8z"/>
							<polygon class="st12" points="88.1,57.8 88.1,57.8 88.1,57.8 							"/>
							<path class="st12" d="M87.2,52.1c0.1,0.6,0.3,1.3,0.3,1.9c0.2,0.1,0.2,0.3,0.3,0.5l-0.3,0l0.1,0.1c-0.1,0.1-0.1-0.1-0.1,0
								l0.2,0.1c-0.1,0,0,0.4-0.2,0.1l0,0.6c0,0.1,0.2,0.1,0.2,0.2c-0.1,0-0.1-0.1-0.1,0c-0.2,0.4,0.5,0.5,0.4,0.9l0,0
								c0.1,0.1,0.1,0.2,0.1,0.2c0.3-0.1-0.1-0.1,0-0.2c0.2,0,0.1,0.2,0.3,0.1c-0.1,0.1,0,0.2,0.1,0.2c-0.1,0.1,0,0.4-0.2,0.5
								c0.1,0.1,0.3,0.1,0.3,0.3c-0.2,0.1-0.2,0-0.2,0.1l0.1,0c0,0.1-0.1,0.1-0.1,0.1c0,0.1,0.2,0.1,0.1,0.3L88.1,58
								c0,0.1,0,0.2,0,0.3c-0.1,0-0.1-0.1,0-0.1c-0.2,0.1,0.1,0.2,0.1,0.2c0.1,0,0.1-0.1,0.2-0.1c0,0.1,0.2,0.2,0,0.2l-0.1-0.1
								c0.1,0.2,0.2,0.1,0.1,0.3c0,0,0,0-0.1,0c0.2,0.1,0,0.3,0,0.5l0,0c0,0.1,0.2,0.1,0.1,0.2c0.1-0.1,0.1-0.1,0.2-0.1
								c-0.2,0.1,0.2,0.2,0.1,0.4c-0.1,0-0.2-0.1-0.1-0.1c-0.2-0.1-0.4-0.1-0.5-0.2c0,0.1,0.1,0.2,0,0.2l0.2,0c0,0.1,0,0.1,0,0.1
								c0.1,0,0.2-0.1,0.3,0c0.1,0.1-0.2,0.1-0.1,0.1c0.1,0.2,0.2,0.1,0.1,0.3c0,0,0-0.1,0-0.1c-0.1,0.1,0,0.3-0.2,0.3
								c-0.1,0-0.1,0-0.1-0.1l0,0c-0.2-0.1,0,0.1-0.2,0.1c0.1,0,0.1,0.2,0.1,0.3l0.1,0c0.4,0.3-0.3,0-0.2,0.2c0.1,0.2,0-0.1,0.1,0
								c0,0.1-0.2,0.1-0.1,0.3c-0.1,0-0.1,0.1-0.3,0.1c0.1,0.1-0.1,0.3,0.1,0.4c0.1-0.2-0.2-0.2,0.1-0.4l0.2,0.1
								c0,0.1,0.1,0.3,0,0.4c0,0,0.1,0,0.1,0c0.1,0.2,0.2,0.3,0.1,0.5c-0.1,0-0.1-0.1-0.1-0.2c-0.1,0.1,0,0.1-0.1,0.3
								c-0.1,0,0-0.1-0.1-0.2l0,0.2l0,0c0.2,0,0,0.2,0,0.3c0,0.3,0.3,0.4,0.4,0.6c-0.1,0-0.1,0-0.2,0c0.1-0.1,0-0.1,0-0.1
								c0,0.1-0.2,0.2-0.3,0.1c0,0.2,0.1,0,0.2,0.1l0,0.2c0.1,0,0.1-0.1,0.2,0c0,0.1,0,0.1,0,0.3c-0.1,0-0.2,0-0.2-0.1
								c0,0.1-0.1,0.2,0,0.2c0.1-0.1,0.1,0.2,0.2,0.2l-0.1,0.1c0,0-0.1,0,0-0.1c-0.2,0,0,0.1,0,0.2c0,0-0.1,0.2-0.1,0.2
								c0,0.1,0,0.2-0.1,0.2c0,0.1,0.1,0,0.2,0.1l0,0.2c-0.1,0-0.3,0-0.4-0.1c0.1,0.1,0.3,0.1,0.2,0.2c-0.2-0.1-0.2,0.1-0.4,0
								c-0.1,0-0.2,0.3-0.2,0.4c0.1,0.1,0.1-0.1,0.2-0.1c0,0.3,0.4,0.4,0.3,0.6l0.1-0.1c0,0.2,0,0.1,0.1,0.3
								c-0.2-0.1-0.5,0.1-0.5,0.3c0.1,0,0.2-0.1,0.3,0l0,0.2c0,0,0,0-0.1,0c0,0.2-0.3,0.2-0.1,0.3l-0.3,0.1l0.1,0
								c0.1,0,0.1,0.2,0.1,0.3c0.1,0.2,0,0.2-0.2,0.3c0.1,0,0.3,0,0.2,0.1c-0.3-0.1-0.2,0.2-0.3,0.2c0,0.1-0.1,0.1,0,0.2l-0.2-0.1
								c0.2,0.1,0.2,0.3,0.2,0.4c-0.3-0.1,0,0.2-0.3,0.1c0.2,0.1,0,0.3,0.2,0.4c0,0.1-0.2,0-0.3,0l0.1,0.1c-0.1,0-0.2,0.2-0.3,0.3
								l0.1,0.2l-0.1,0c0,0,0,0.1,0.1,0.1l0,0.1c0.2,0.1,0,0.1,0.1,0.3c0,0-0.1,0-0.1-0.1c0,0.1-0.1,0-0.2,0c0.1,0,0.3,0.4,0.4,0.3
								c0.1,0,0.1,0.1,0,0.2l-0.2-0.1l0.2,0.2c0,0.1-0.2,0.1-0.2,0.1c0-0.1-0.3-0.3-0.4-0.1c0-0.1-0.1-0.2-0.1-0.3
								c0,0-0.1,0-0.1-0.1c0,0.2,0.1,0.1,0,0.3c-0.2-0.1-0.2-0.1-0.3,0l0.2,0c0,0,0,0,0,0c0,0,0.1,0,0.1,0c0,0,0.1,0.3,0,0.2
								c0.3,0,0.1,0.3,0.2,0.3c0,0,0,0.1-0.1,0.1c-0.1-0.2-0.2,0-0.3-0.1c0,0.1,0.2,0,0.2,0.1c0,0.1-0.2,0.1-0.2,0.1l0,0L86,71.2
								c0.1,0.1,0.2,0,0.2,0.1c0,0-0.1,0.1-0.1,0.1c-0.1-0.1-0.2-0.2-0.2-0.3c0,0.1-0.1,0.3,0.1,0.3l-0.1,0.1c0.1,0,0.3-0.1,0.2,0.1
								l0,0l0,0.2l-0.1,0c0,0,0.1,0.1,0,0.1c-0.1,0-0.1,0-0.2,0c-0.1,0.1,0,0.2,0,0.2c0,0.1-0.1,0.1-0.1,0c-0.1,0.1-0.2,0.2-0.3,0.3
								c0,0.2,0,0,0.1,0.1c-0.3-0.1-0.4,0.3-0.5,0.5c0.2,0.1,0,0.1,0.1,0.3c0-0.1-0.3,0-0.2-0.2l-0.1,0.1c-0.2,0,0-0.2-0.2-0.3
								c-0.1,0.1,0.1,0.4-0.1,0.4c-0.1-0.2,0,0.1-0.2,0c0-0.1,0-0.1,0-0.1l0,0c-0.3,0.2,0.1,0.2,0.1,0.4c-0.1,0.2-0.2,0-0.3-0.1
								c0,0-0.1,0.1-0.1,0.2c0-0.2,0.2-0.1,0.3,0.1c-0.2-0.1-0.2,0.2-0.2,0.3c0.4,0,0.1-0.1,0.5-0.1c0-0.1-0.2-0.2,0-0.3
								c0,0.1,0.1,0.1,0.1,0.1c-0.1-0.1,0-0.1,0-0.2c0.1,0,0.1,0.3,0.3,0.2l-0.2-0.2c0.1,0,0.1,0.2,0.2,0c0.1,0.1,0.2,0.1,0.1,0.3
								c0.3,0,0.1-0.3,0.2-0.5c0,0,0,0,0,0.1c0-0.1,0-0.1,0-0.2c0.1,0,0,0.1,0.1,0.2l0.1-0.1c0,0,0,0,0,0c0-0.1,0-0.1,0.1-0.1
								c0,0.1,0.1,0.2,0.1,0.2l0-0.3c0.1,0.1,0.2,0,0.2,0.1l0.2-0.2l0.2,0.1c0-0.1,0-0.1-0.1,0c0.1-0.1,0-0.6,0.3-0.3
								c0-0.3,0.1-0.3,0.2-0.6c0,0.3,0.3-0.1,0.3,0.1c0.1-0.1,0-0.2,0-0.3c0.1,0,0.2,0.1,0.2,0.2l0-0.2l0,0l0-0.1
								c0.1-0.1,0.2,0.1,0.3,0l-0.1-0.1l0.1,0c-0.1,0-0.1-0.1,0-0.2l0,0l0-0.1c0,0.1,0.1-0.1,0.2,0c0.1-0.1,0.1-0.1,0.1-0.2l-0.1,0
								c0-0.2,0.2,0.1,0.2-0.1l-0.1,0c0.3-0.1,0.1-0.4,0.3-0.5c0,0.1,0.1,0.1,0.1,0.1c0-0.2,0.2-0.4,0.1-0.6c0.2,0,0.2,0,0.4-0.1
								c0-0.1,0-0.1-0.1-0.2c0.1-0.1,0.1-0.3,0.2-0.3c-0.1-0.1,0.1-0.1,0-0.2l0.1,0l-0.1,0c0.4-0.1,0-0.4,0.3-0.5l0,0l0-0.1
								c0.1,0,0.1,0,0.1,0.1l0.2-0.4l-0.1,0.1c0-0.1-0.1-0.2,0-0.3c0.1,0.2,0-0.1,0.2-0.1l0,0.1c0-0.1,0-0.1-0.1-0.1
								c0-0.2,0.3,0,0.2-0.2l0,0.1c-0.1,0-0.2-0.1-0.1-0.2c0,0,0.1,0,0.1,0c0-0.1,0.1-0.3,0.1-0.4c0.1-0.1,0.1,0,0.2,0
								c0-0.3,0.1-0.1,0-0.4l0.1,0l-0.1-0.1l0.2-0.1l-0.1,0c0-0.1,0-0.2,0-0.2l0.1,0.1c0-0.3,0.2-0.2,0.1-0.5c0,0,0,0,0.1,0.1
								c-0.1-0.2,0.2-0.1,0.1-0.4c0,0,0.1,0,0.1,0l0-0.1l0.1,0l-0.2-0.1l0.2,0l-0.1-0.1c0.3-0.1,0.1-0.2,0.3-0.4l-0.2,0
								c-0.3-0.4,0.3-0.8,0.2-1.3l0.1,0l-0.1-0.2c0.1-0.1,0.1,0.1,0.2,0.1c-0.1-0.2-0.2-0.1-0.2-0.3c0.1-0.1,0.1,0.1,0.1,0.1
								c0-0.2-0.1-0.5,0-0.7c0,0,0,0-0.1,0c-0.1-0.1,0-0.3,0-0.5c0.1,0,0.1,0,0.1,0.1c0-0.1,0.1-0.1,0-0.2l0.1,0.1
								c0-0.1-0.1-0.4,0.1-0.4c-0.1,0-0.2,0-0.2-0.1c0.2,0-0.1-0.3,0.1-0.4c0.1,0,0.1,0.1,0.1,0.1c0.1-0.1,0-0.2-0.1-0.2l0.1,0
								l-0.1-0.4c0.2,0,0-0.4,0.1-0.3c0-0.1-0.1,0.1-0.1-0.1c0.1,0,0-0.2,0.1-0.1l0,0l0-0.1l0.1,0.1c0-0.1-0.2-0.2-0.3-0.2
								c0.1-0.1,0-0.2,0.2-0.3l0,0c0-0.3,0.4-0.5,0.2-0.7c0,0,0.1,0,0.1,0l0-0.2l0.1,0l-0.2-0.3l0.1,0c0-0.2,0-0.5,0-0.7l0,0
								c-0.1-0.3,0.1-0.3,0-0.4c0,0,0,0,0,0l0-0.2l0.1,0c-0.2-0.1,0.2-0.4,0.1-0.3c-0.1-0.1-0.2-0.2-0.2-0.2c0-0.2,0.1,0,0.2-0.2
								c0-0.1-0.1-0.2-0.1-0.3l0.1,0c0-0.1-0.1-0.1-0.1-0.3l0,0c-0.2-0.2,0.2-0.3-0.1-0.4c0.1-0.1,0-0.2,0.2-0.2
								c-0.1-0.2-0.2-0.4-0.2-0.7c0.2,0,0-0.1,0.1-0.2l-0.1,0c0-0.3,0.3-0.8,0.2-1.1l0.1,0l-0.1-0.1c0-0.4,0.1-1,0-1.3
								C91.1,52.2,91,52,91,51.8l0,0c-0.1-0.3-0.2-0.6-0.1-0.9c0.1,0,0.1,0,0.1,0c-0.1-0.1,0-0.2,0-0.3l-0.1,0.1
								c-0.1-0.1,0-0.2,0.1-0.3l-0.2-0.1c0,0,0,0,0,0l-0.1,0l0.2-0.1c0,0-0.1-0.2-0.3-0.3c0.1,0,0.1-0.2,0.1-0.1l0-0.5l0,0.1
								c-0.1,0-0.2-0.1-0.2-0.2c0.1,0.1,0.2,0,0.3-0.1c-0.1-0.1-0.1,0.1-0.2,0c-0.1-0.1-0.2-0.3-0.1-0.3l0.1,0
								c-0.1-0.1,0.1-0.2,0.1-0.3c-0.1-0.1,0-0.2-0.2-0.1c-0.1-0.2,0.1-0.1,0.2-0.1c-0.1-0.1-0.1-0.3,0-0.3c-0.3,0,0-0.4-0.2-0.4
								l0.1-0.2c-0.1,0-0.2,0-0.3-0.1c0.1-0.1,0.2-0.1,0.3-0.2l-0.3,0c0.2-0.6-0.2-1.3-0.1-2c-0.1-0.3-0.3-0.6-0.4-0.9l0,0l0-0.3
								l0,0.3c-0.1-0.1-0.1-0.1-0.1-0.2c0-0.4,0-0.9-0.3-1.3c-0.4-0.2,0.2-0.3-0.1-0.5c0,0,0.1,0,0.1,0c-0.2-0.3-0.3-0.4-0.6-0.6
								c0.3-0.1-0.1-0.2,0.1-0.2l-0.1,0c0-0.1,0-0.3,0.1-0.3l-0.2-0.1l0.1-0.1c-0.1-0.2-0.3-0.5-0.1-0.7c-0.4-0.3-0.6-1-0.8-1.5
								c-0.1,0-0.2-0.2-0.3-0.3l0.1-0.2c-0.1-0.1-0.3-0.1-0.3-0.3c0,0,0,0,0,0c-0.1-0.1-0.1-0.2-0.3-0.3c-0.1-0.1-0.1-0.3,0.1-0.3
								c-0.2,0.1-0.1-0.3-0.1-0.3s-0.2-0.4-0.6-1c-0.4-0.6-1-1.4-1.7-2.2c-1.5-1.6-3.7-2.8-4.8-2.7c-0.1,0.1-0.3,0.1-0.3,0.2
								c-0.1,0-0.1-0.2-0.2-0.1c0.1,0.2-0.2,0.3-0.1,0.5l-0.1,0c-0.1,0.1,0.2,0,0.1,0.1l0.1-0.2c0.1,0.1,0.1,0.1,0.1,0.2
								c0.1,0,0.3-0.3,0.4-0.1l-0.1,0c0.1,0.1,0,0.2,0,0.2l0,0l0.1,0.2c0-0.1-0.3,0-0.2,0c0.1,0.1,0-0.1,0.1,0c0.1,0,0,0.1,0,0.2
								l0.1,0.1c-0.1,0.1-0.1-0.1-0.1,0.1l0.2,0c-0.1,0.3,0.2,0,0.2,0.3c-0.2,0,0,0.1-0.1,0.1l0.3,0.2c0,0-0.1,0-0.1,0
								c0,0.1,0.1,0,0.2,0c0,0.1,0.2,0.1,0.1,0.3c0.1,0.2,0.2-0.1,0.3,0.1c0,0.1-0.2-0.1-0.1,0.1l0.2,0.1c0,0-0.1,0.1-0.2,0.1
								c0.4,0.5,0.2,1.1,0.7,1.3c0,0.1-0.1,0-0.2,0.1c0.4,0.1,0.2,0.6,0.4,0.8l0.1-0.1c0.1,0.5,0.6,0.8,0.8,1.2l0-0.1
								c0.1,0,0.2,0.1,0.3,0.1c0,0-0.2,0.1-0.1,0.2c0,0,0-0.1,0.1-0.1c0,0.5,0.7,1.2,0.9,1.8c0.6,0.7,0.9,1.7,1.3,2.5
								c-0.1-0.1,0.2-0.2,0.2-0.1c-0.3,0.5,0.3,0.4,0.1,0.8c0.3,0.4,0.1,1,0.6,1.4l-0.1,0.1c0,0.1,0.1,0.1,0.1,0.2l0,0
								c0,0.2,0.2,0.4,0.2,0.5l0.1,0c0,0.1-0.1,0.1,0,0.2l-0.1,0l0.2,0.1c-0.2,0.1,0.1,0.3,0,0.4c0.1,0.1,0.3,0.4,0.3,0.6
								c-0.1,0.1,0,0.3-0.1,0.5c0.1,0.3,0.3,0.8,0.3,1.2l0.2,0l0,0.1c0,0-0.1,0-0.1,0c-0.2,0.1,0.1,0.2,0,0.4c0.1-0.1,0-0.1,0-0.1
								c0.1-0.1,0.2,0,0.2,0.1l0,0l0.1,0.1c-0.1,0-0.2,0.1-0.3,0.2c0.1,0.4,0.4,0.6,0.4,1c-0.1,0,0.1,0.3-0.2,0.2
								c0.1,0.2,0.2-0.1,0.4,0c0,0.1,0.1,0.1,0,0.1c-0.1,0-0.1,0.1-0.2,0l0,0.1c0,0-0.1,0-0.1,0c0.2,0.3-0.1,0.6,0.1,0.8
								c0.1,0,0-0.1,0.1-0.1c0.2,0.3-0.1,0.3,0,0.5l-0.1,0c0.1,0.1,0.2,0.1,0.1,0.3c-0.1,0-0.1-0.1-0.2-0.2c0,0.1,0.1,0.3,0.2,0.2
								c0.1,0.1-0.1,0.2-0.1,0.2c0,0,0.1-0.1,0.2-0.1c-0.1,0.2,0,0.4,0,0.6c0,0-0.1,0-0.1,0C87.4,51.9,87.1,51.9,87.2,52.1z"/>
							<path class="st12" d="M88,62.5L88,62.5c0-0.1,0-0.1-0.1-0.1L88,62.5z"/>
							<path class="st12" d="M88.3,58.8C88.3,58.8,88.3,58.8,88.3,58.8C88.3,58.8,88.3,58.8,88.3,58.8z"/>
							<path class="st12" d="M88,57.9c0,0.1,0.1,0,0.1,0C88.1,57.8,88.1,57.8,88,57.9z"/>
							<path class="st12" d="M88.2,64.7C88.2,64.6,88.2,64.6,88.2,64.7C88.1,64.7,88.2,64.7,88.2,64.7z"/>
							<path class="st12" d="M86.5,70.1C86.5,70.1,86.5,70.1,86.5,70.1C86.5,70.1,86.5,70.1,86.5,70.1z"/>
							<path class="st12" d="M86.8,69.9C86.8,69.9,86.8,69.9,86.8,69.9C86.8,69.9,86.8,69.9,86.8,69.9z"/>
							<path class="st12" d="M88.3,63.2C88.3,63.2,88.3,63.2,88.3,63.2C88.3,63.2,88.3,63.2,88.3,63.2z"/>
							<path class="st12" d="M86.8,69.8L86.8,69.8C86.9,69.7,86.8,69.7,86.8,69.8L86.8,69.8z"/>
							<path class="st12" d="M86.4,70.2C86.4,70.2,86.4,70.1,86.4,70.2C86.4,70.1,86.4,70.1,86.4,70.2z"/>
							<path class="st12" d="M88,66.8L88,66.8C87.9,66.7,87.9,66.8,88,66.8z"/>
							<polygon class="st12" points="86.7,69.4 86.7,69.4 86.7,69.3 							"/>
							<path class="st12" d="M86.2,70.5C86.2,70.4,86.2,70.4,86.2,70.5C86.2,70.4,86.2,70.4,86.2,70.5
								C86.2,70.4,86.2,70.4,86.2,70.5z"/>
							<path class="st12" d="M87.4,67.9c0,0,0.1,0.1,0.1,0.1C87.5,67.9,87.5,67.9,87.4,67.9z"/>
						</g>
					</g>
				</g>
			</g>
		</g>
	</g>
</g>
<g id="Layer_2">
</g>
</svg>
