<?xml version="1.0" encoding="utf-8"?>
<!-- Generator: Adobe Illustrator 25.1.0, SVG Export Plug-In . SVG Version: 6.00 Build 0)  -->
<svg version="1.1" xmlns="http://www.w3.org/2000/svg" xmlns:xlink="http://www.w3.org/1999/xlink" x="0px" y="0px"
	 viewBox="0 0 154.7 138.9" style="enable-background:new 0 0 154.7 138.9;" xml:space="preserve">
<style type="text/css">
	.st0{fill:#161413;}
	.st1{fill:#F1EADC;}
	.st2{fill:#EF7EB0;}
	.st3{fill:none;stroke:#FFFFFF;stroke-miterlimit:10;}
	.st4{fill:none;stroke:#FFFFFF;stroke-width:2;stroke-linecap:round;stroke-linejoin:round;}
	
		.st5{fill:none;stroke:#FFFFFF;stroke-width:2;stroke-linecap:round;stroke-linejoin:round;stroke-dasharray:5.3004,5.3004,5.3004,5.3004;}
	
		.st6{fill:none;stroke:#FFFFFF;stroke-width:2;stroke-linecap:round;stroke-linejoin:round;stroke-dasharray:5.3004,5.3004,5.3004,5.3004,5.3004,5.3004;}
	.st7{fill:#1C3B2A;}
	.st8{fill:#E84820;}
	
		.st9{fill:none;stroke:#FFFFFF;stroke-width:2;stroke-linecap:round;stroke-linejoin:round;stroke-dasharray:5.4243,5.4243,5.4243,5.4243;}
	
		.st10{fill:none;stroke:#FFFFFF;stroke-width:2;stroke-linecap:round;stroke-linejoin:round;stroke-dasharray:5.4243,5.4243,5.4243,5.4243,5.4243,5.4243;}
	.st11{fill:#F49F2E;}
	.st12{fill:#F1ECDC;}
	.st13{fill:#FFFFFF;}
	.st14{fill:#5577BA;}
	.st15{fill:#FFF5DC;}
	.st16{fill:none;}
	
		.st17{fill:none;stroke:#FFFFFF;stroke-width:2;stroke-linecap:round;stroke-linejoin:round;stroke-dasharray:5.4063,5.4063,5.4063,5.4063;}
	
		.st18{fill:none;stroke:#FFFFFF;stroke-width:2;stroke-linecap:round;stroke-linejoin:round;stroke-dasharray:5.4063,5.4063,5.4063,5.4063,5.4063,5.4063;}
	
		.st19{fill:none;stroke:#FFFFFF;stroke-width:2;stroke-linecap:round;stroke-linejoin:round;stroke-dasharray:4.5833,4.5833,4.5833,4.5833;}
	
		.st20{fill:none;stroke:#FFFFFF;stroke-width:2;stroke-linecap:round;stroke-linejoin:round;stroke-dasharray:4.5833,4.5833,4.5833,4.5833,4.5833,4.5833;}
	.st21{fill:#282521;}
	.st22{fill:#151413;}
	.st23{fill:#FDF4E8;}
	.st24{fill:#020203;}
	.st25{fill:#204232;}
	.st26{fill:#FDF4E8;stroke:#000000;stroke-miterlimit:10;}
	.st27{fill:none;stroke:#000000;stroke-width:0.25;stroke-miterlimit:10;}
	.st28{fill:#FDF4E8;stroke:#000000;stroke-width:0.25;stroke-miterlimit:10;}
	.st29{fill:#204730;}
	.st30{fill:#1F422B;}
	.st31{fill:#F1ECDC;stroke:#000000;stroke-width:2;stroke-miterlimit:10;}
	.st32{opacity:0.7;}
	.st33{opacity:0.6;}
	.st34{clip-path:url(#SVGID_32_);}
	.st35{fill:#B5CCBE;}
	.st36{clip-path:url(#SVGID_34_);}
	.st37{clip-path:url(#SVGID_38_);}
	.st38{clip-path:url(#SVGID_40_);}
</style>
<g id="Calque_1">
	<g>
		<g>
			<path class="st12" d="M37.9,74.7c7-3.9,12.8-9.7,16.8-16.6c2-3.4,3.6-7.1,4.6-11c1-3.5,1.9-7.7,1.4-11.3c-0.4-2.9-2.6-7-6.1-5.1
				c-1.5,0.8-2.2,2.6-2.5,4.2c-0.5,2.4-0.9,4.8-1.2,7.2c-1.4,9.7-1.8,19.4-2.9,29.1c-0.6,5.5-1.5,11-2.8,16.4
				c-1,4.1-2.1,10.1-6.4,12c0.6,0.2,1.2,0.5,1.8,0.7c-1.2-6-2.5-13,1.1-18.4c3.3-5,9.4-6.8,14.3-9.7c4.6-2.7,9.6-7.3,9.5-13.1
				c0-2.1-1.5-5.7-4.3-4.1c-1.1,0.7-1.6,2.1-2.1,3.3c-0.7,1.6-1.2,3.3-1.6,5.1c-0.4,1.6-0.6,3.1-0.7,4.7c-0.1,1.5-0.2,3.2,0.2,4.7
				c0.8,2.7,3.4,3.6,6,2.8c2.7-1,4.6-3.3,6.2-5.6c1.7-2.6,3-5.6,3.6-8.6c0.5-2.1,1.1-5.5-1.1-7c-2.7-1.8-4.3,2-4.9,4
				c-1,3.1-1.3,6.5-0.8,9.8c0.4,2.7,1.3,5.6,4.2,6.3c3.3,0.8,6.1-1.3,7.8-3.9c2-3,3.4-6.7,4.4-10.1c2.2-7.2,2.6-14.9,1.3-22.3
				c-0.2-1.3-2-1-2.4,0c-2.8,7.8-4.2,16-4.1,24.2c0,3.2,0,7,2,9.7c0.9,1.2,2.3,2.3,3.9,2.2c1.7-0.1,2.6-1.5,3.2-2.9
				c1.7-4.3,2.6-8.9,2.8-13.6c0.1-1.4-2.1-1.7-2.5-0.3c-1.4,6-1.1,12.3,1,18.1c0.3,0.9,1.8,1.3,2.3,0.3c2.6-5.4,4.3-11.1,5.1-17
				c-0.8,0.1-1.6,0.2-2.5,0.3c1.5,4,1.5,8.3-0.1,12.3c0.8,0.2,1.6,0.4,2.4,0.7c1.3-5.8,3.9-11.3,7.6-16c-0.6,0-1.2,0-1.8,0
				c2.1,2.7,0.8,7,1.1,10.1c0.3,3.7,2.8,6.8,6.9,6.3c4.4-0.5,7.2-4.5,8.9-8.2c1.3-3,1.7-8.2-2.7-8.6c-4.9-0.5-6.3,5.2-6.5,8.9
				c-0.1,2.2,0.7,3.9,2.8,4.7c1,0.4,1.9,0.7,2.7,1.6c0.7,0.8,1.2,1.7,1.6,2.7c2,4.5,4,9.6,4,14.6c-0.1,3.9-1.7,8.8-5.5,10.6
				c-3.3,1.5-3.4-2.9-3-5c0.5-2.6,1.7-5,3.2-7.1c3.3-5,7.5-9.5,11.2-14.1c1-1.2-0.8-3-1.8-1.8c-3.3,4-6.6,8-9.7,12.1
				c-2.7,3.5-5.2,7.5-5.5,12c-0.1,1.8,0.1,4,1.3,5.4c1.5,1.7,3.7,1.7,5.6,0.7c3.5-1.7,5.6-5.6,6.4-9.3c0.9-4.6-0.1-9.2-1.7-13.6
				c-0.8-2.1-1.6-4.3-2.6-6.4c-0.8-1.7-2-3.3-3.7-4.1c-0.8-0.4-2.2-0.5-2.6-1.5c-0.4-0.9,0-2.4,0.1-3.3c0.3-1.8,1.1-4.8,3.5-4.6
				c2,0.2,1.6,2.8,1.2,4.1c-0.6,1.9-1.8,3.9-3.1,5.4c-1.4,1.6-3.8,3-6,2.2c-1.9-0.7-2.3-2.8-2.3-4.6c-0.1-3.8,0.8-7.8-1.7-11
				c-0.4-0.5-1.4-0.5-1.8,0c-4,5-6.9,10.8-8.3,17.1c-0.4,1.6,1.8,2.1,2.4,0.7c1.7-4.4,1.8-9.3,0.1-13.7C94,57.3,92.2,57.6,92,59
				c-0.7,5.5-2.3,10.8-4.7,15.7c0.8,0.1,1.5,0.2,2.3,0.3c-1.9-5.4-2.2-11.2-1-16.8c-0.8-0.1-1.6-0.2-2.5-0.3
				c-0.2,4.3-0.9,8.9-2.7,12.9c-0.4,1-1,1.4-1.9,0.6c-0.6-0.5-1-1.2-1.3-1.9c-0.7-1.6-0.7-3.5-0.8-5.2c-0.3-8.7,1.1-17.3,4-25.5
				c-0.8,0-1.6,0-2.4,0c0.9,5.4,0.9,10.9-0.2,16.3c-0.5,2.6-1.2,5.1-2.1,7.6c-0.9,2.5-2,5.3-3.7,7.4c-1.2,1.5-3.9,3.1-5.7,1.4
				c-0.8-0.8-1-2.1-1.2-3.2C68,66.9,68,65.5,68,64.1c0.1-1.3,0.3-2.5,0.6-3.7c0.1-0.5,0.9-3.8,1.5-3.8c0.4,0,0.5,1.5,0.5,1.8
				c0,1.2-0.4,2.4-0.7,3.6c-0.7,2.5-1.8,4.8-3.2,7c-1.2,1.9-2.9,4-5.2,4.5c-4.8,1-1.3-11.1-0.6-13.1c0.1-0.3,1.1-3.1,1.5-3
				c0.7,0.2,0.5,2.5,0.4,3c-0.3,2.3-1.6,4.3-3.1,6c-3.3,3.5-7.6,5.2-11.7,7.5c-4.5,2.5-8.6,5.7-10.2,10.8
				c-1.7,5.4-0.7,11.3,0.4,16.7c0.2,0.9,1.2,1,1.8,0.7c3.3-1.5,4.9-4.9,6-8.1c1.4-4.2,2.4-8.6,3.2-13c1.5-8.9,2.1-18,2.9-27
				c0.4-4.7,0.9-9.3,1.7-13.9C54,38,54.2,35.8,55,34c0.7-1.5,1.9-1.6,2.7-0.1c0.8,1.5,0.7,3.2,0.6,4.8c-0.1,1.9-0.4,3.8-0.8,5.6
				c-0.8,3.6-2,7.1-3.7,10.4c-3.8,7.5-9.7,13.7-17,17.9C35.2,73.4,36.5,75.5,37.9,74.7L37.9,74.7z"/>
		</g>
	</g>
	<g>
		<g>
			<path class="st12" d="M89.2,50.3c1.6,0,1.6-2.5,0-2.5C87.6,47.8,87.6,50.3,89.2,50.3L89.2,50.3z"/>
		</g>
	</g>
	<g>
		<g>
			<path class="st12" d="M140.9,90.9c-2.5-3.1,1-6.7,3.8-7.9c1.5-0.6,3.8-1.4,5.3-0.5c1.2,0.7,1.6,2.4,1.8,3.7
				c0.5,3.6-0.1,7.6-0.9,11.2c-0.9,4-2.2,7.8-4.1,11.4c-0.7,1.4,1.4,2.7,2.2,1.3c3.6-7,5.8-15.2,5.4-23.1c-0.2-2.9-1.1-6.1-4.1-7.1
				c-3.2-1.1-7.6,0.8-10,3c-2.7,2.5-3.4,6.7-1,9.7C140.1,94,141.9,92.2,140.9,90.9L140.9,90.9z"/>
		</g>
	</g>
	<g>
		<g>
			<path class="st12" d="M148.2,119.3c0-0.2,0-0.3,0-0.5c0-0.2,0-0.3-0.1-0.5c-0.1-0.2-0.1-0.3-0.3-0.4c-0.1-0.1-0.2-0.2-0.4-0.3
				c-0.1-0.1-0.3-0.1-0.5-0.1c-0.1,0-0.2,0-0.3,0c-0.2,0.1-0.4,0.2-0.6,0.3c-0.1,0.1-0.1,0.2-0.2,0.3c-0.1,0.2-0.2,0.4-0.2,0.6
				c0,0.2,0,0.3,0,0.5c0,0.2,0,0.3,0.1,0.5c0.1,0.2,0.1,0.3,0.3,0.4c0.1,0.1,0.2,0.2,0.4,0.3c0.1,0.1,0.3,0.1,0.5,0.1
				c0.1,0,0.2,0,0.3,0c0.2-0.1,0.4-0.2,0.6-0.3c0.1-0.1,0.1-0.2,0.2-0.3C148.1,119.7,148.2,119.5,148.2,119.3L148.2,119.3z"/>
		</g>
	</g>
	<g>
		<g>
			<path class="st12" d="M17.3,71.8C9.1,66.9,3.8,58,2.6,48.5C1.4,38,4.8,27.4,11.1,19.1c3.4-4.5,7.7-8.3,12.5-11.3
				c1.4-0.8,0.1-3-1.3-2.2C13.1,11.3,5.8,20.1,2.2,30.4C-1.3,40.7-1,52.3,4.4,61.9c2.8,4.9,6.8,9.2,11.6,12.1
				C17.5,74.8,18.7,72.6,17.3,71.8L17.3,71.8z"/>
		</g>
	</g>
	<g>
		<g>
			<path class="st12" d="M22.2,18.1c1.1-2.5,2.1-4.9,3.2-7.4c0.5-1.1,1.2-2.3,1-3.5c-0.2-1-1.1-1.7-2-2.1c-1-0.4-2-0.4-3-0.7
				c-1.1-0.3-2.3-0.6-3.4-1c-2.3-0.8-4.5-1.8-6.5-3.1c-0.4,0.7-0.8,1.4-1.3,2.2c0.4,0.2,0.8,0.5,1.3,0.7c1.4,0.8,2.7-1.4,1.3-2.2
				c-0.4-0.2-0.8-0.5-1.3-0.7C10-0.4,8.8,1.7,10.2,2.6c3.6,2.2,7.6,3.8,11.8,4.6c0.4,0.1,1.8,0.1,2,0.6c-0.1-0.1,0,0.1-0.1,0.2
				c-0.1,0.2-0.2,0.4-0.3,0.6c-0.2,0.5-0.5,1.1-0.7,1.6c-1,2.2-1.9,4.4-2.9,6.7c-0.3,0.6-0.2,1.3,0.4,1.7
				C21.1,18.9,22,18.7,22.2,18.1L22.2,18.1z"/>
		</g>
	</g>
	<g>
		<g>
			<path class="st12" d="M54.6,100.5c0.6,5.9,1.2,11.8,1.9,17.7c0.3,2.9,0.6,5.7,0.9,8.6c0.2,1.5,0.3,2.9,0.5,4.4
				c0.1,1.1-0.1,2.8,0.8,3.5c0.4,0.3,1,0.5,1.5,0.2c0.5-0.3,0.7-0.7,0.7-1.3c0-0.5-0.4-1.1-0.9-1.2c0,0-0.1,0-0.1,0
				c-1.6-0.4-2.2,2-0.7,2.4c0,0,0.1,0,0.1,0c-0.3-0.4-0.6-0.8-0.9-1.2c0,0,0,0.1,0,0.1c0.2-0.4,0.4-0.7,0.6-1.1c0,0-0.1,0-0.1,0.1
				c0.5,0.1,1,0.1,1.5,0.2c0,0-0.1-1.3-0.1-1.5c-0.1-0.7-0.2-1.5-0.2-2.2c-0.1-1.3-0.3-2.6-0.4-3.9c-0.3-2.8-0.6-5.6-0.9-8.4
				c-0.6-5.5-1.2-11-1.7-16.5C56.9,98.9,54.4,98.9,54.6,100.5L54.6,100.5z"/>
		</g>
	</g>
	<g>
		<g>
			<path class="st12" d="M52.7,102.9c2.6-1.6,5.5-3.4,8.7-3.5c2.5-0.1,5.4,1.2,6.3,3.8c0.9,2.8-2,4.8-4.1,6.1
				c-2.8,1.7-5.9,2.7-8.9,3.8c-1.3,0.4-1.2,2.5,0.3,2.5c4.7-0.3,9.5,0,14.1,1.1c1.7,0.4,4.2,0.9,4.4,3c0.2,2.2-1.7,3.9-3.4,5.1
				c-7.3,5.3-15.6,9.1-24.2,11.5c0.3,0.8,0.6,1.5,1,2.3c0.5-0.2,1.1-0.5,1.6-0.7c1.5-0.6,0.2-2.8-1.3-2.2c-0.5,0.2-1.1,0.5-1.6,0.7
				c-1.3,0.6-0.4,2.7,1,2.3c7.9-2.2,15.4-5.6,22.3-10.1c3-1.9,6.7-4.2,7.1-8.1c0.2-1.7-0.4-3.4-1.7-4.5c-1.3-1.1-3.1-1.5-4.8-1.9
				c-4.8-1.1-9.7-1.5-14.5-1.2c0.1,0.8,0.2,1.6,0.3,2.5c5.1-1.8,17.5-5.5,14.6-13.2c-1.1-3.1-4.3-5.1-7.5-5.3c-4-0.3-7.7,1.9-11,3.9
				C50.1,101.5,51.3,103.7,52.7,102.9L52.7,102.9z"/>
		</g>
	</g>
	<g>
		<g>
			<path class="st12" d="M80.3,122c0.5-2.4,2-4.5,1.9-7c-0.1-1.9-1-3.9-2.8-4.7c-1.7-0.7-3.5,0.1-4.5,1.6c-1,1.6-1,3.7-0.7,5.5
				c0.7,3.6,3.3,8.2,7.5,8.1c4.3-0.2,6.2-4.8,6.7-8.4c1-6.4,0.8-13-0.7-19.3c-0.3-1.4-2.4-1-2.5,0.3c-0.4,9.3,1.6,18.6,5.6,27
				c0.2,0.5,0.9,0.7,1.4,0.6c2-0.5,2.6-2.5,2.8-4.3c0.3-2.9,0.4-5.8,0.5-8.7c0.2-5.9,0.1-11.9-0.3-17.8c-0.1-1.6-2.5-1.6-2.5,0
				c-0.1,3.8,0.2,7.7,1,11.4c0.7,3.3,1.6,6.8,3.2,9.7c1.3,2.4,3.4,4.8,6.3,5.2c2.7,0.4,5-1.2,6.2-3.4c1.3-2.4,2.1-5.9,1.5-8.5
				c-0.5-2.5-3.7-4.6-5.9-2.4c-1,1-1.1,2.6-1.1,4c-0.1,1.6,0.2,3.3,0.6,4.9c0.8,2.9,2.5,6.5,5.6,7.7c3.7,1.5,5.8-2.2,6.6-5.2
				c1.1-4,1.1-8.3,0-12.3c-0.2-0.8-1.2-1.2-1.8-0.7c-1.5,0.9-1.4,3.2,0,4.2c0.8,0.5,1.8,0.5,2.7,0.3c1.1-0.3,2.2-1.3,3.4-1.2
				c-0.4-0.4-0.8-0.8-1.2-1.2c0,3.1,0.3,6.2,0.8,9.2c0.4,2.4,0.8,5.5,2.9,7.1c1.8,1.3,4.4,1.1,6.2-0.1c2.2-1.3,3.3-3.7,4.3-5.9
				c0.7-1.5-1.5-2.7-2.2-1.3c-0.8,1.7-1.6,3.7-3.1,4.9c-1.4,1-3.5,1.2-4.5-0.5c-1-1.8-1.2-4.3-1.5-6.3c-0.3-2.4-0.5-4.8-0.5-7.2
				c0-0.7-0.6-1.2-1.2-1.2c-0.9,0-1.7,0.2-2.5,0.6c-0.4,0.2-0.8,0.4-1.1,0.6c-0.4,0.1-0.9,0-1.2,0.2c-0.6-0.2-1.2-0.5-1.8-0.7
				c0.7,2.6,0.9,5.3,0.6,8c-0.2,1.3-0.5,2.6-0.9,3.8c-0.3,0.9-0.7,2.1-1.6,2.6c-2.2,1.2-4.3-2.9-4.9-4.4c-0.9-2.2-1.3-4.7-0.9-7
				c0.1-0.9,0.7-1.6,1.5-0.8c0.8,0.8,0.5,2.5,0.4,3.5c-0.2,1.8-0.7,3.9-2,5.3c-3.4,3.6-7.2-2-8.3-4.9c-2.2-5.7-3.1-11.8-3-17.9
				c-0.8,0-1.7,0-2.5,0c0.3,5.1,0.4,10.2,0.4,15.3c0,2.5-0.1,4.9-0.3,7.4c-0.1,1.2-0.1,2.5-0.3,3.8c-0.1,0.7-0.2,1.7-1,1.9
				c0.5,0.2,0.9,0.4,1.4,0.6c-3.8-8-5.6-16.9-5.3-25.8c-0.8,0.1-1.6,0.2-2.5,0.3c0.9,4.2,1.3,8.4,1.2,12.6
				c-0.1,3.3-0.2,7.4-2.1,10.2c-0.7,1.1-1.9,1.9-3.3,1.7c-1.4-0.2-2.5-1.5-3.2-2.7c-0.7-1.2-1.3-2.7-1.4-4.2c-0.1-1,0-2.9,1-3.5
				c1.5-0.9,2.2,1.5,2.2,2.6c-0.1,2.1-1.4,4-1.8,6C77.5,122.9,80,123.6,80.3,122L80.3,122z"/>
		</g>
	</g>
	<g>
		<g>
			<path class="st12" d="M81.3,109.1c7.9-2.4,15.4-5.9,22.4-10.2c1.4-0.8,0.1-3-1.3-2.2c-6.8,4.2-14.2,7.6-21.8,9.9
				C79.2,107.2,79.8,109.6,81.3,109.1L81.3,109.1z"/>
		</g>
	</g>
</g>
<g id="Layer_2">
</g>
</svg>
