<?xml version="1.0" encoding="utf-8"?>
<!-- Generator: Adobe Illustrator 25.1.0, SVG Export Plug-In . SVG Version: 6.00 Build 0)  -->
<svg version="1.1" xmlns="http://www.w3.org/2000/svg" xmlns:xlink="http://www.w3.org/1999/xlink" x="0px" y="0px"
	 viewBox="0 0 363.8 405.4" style="enable-background:new 0 0 363.8 405.4;" xml:space="preserve">
<style type="text/css">
	.st0{fill:#161413;}
	.st1{fill:#F1EADC;}
	.st2{fill:#EF7EB0;}
	.st3{fill:none;stroke:#FFFFFF;stroke-miterlimit:10;}
	.st4{fill:none;stroke:#FFFFFF;stroke-width:2;stroke-linecap:round;stroke-linejoin:round;}
	
		.st5{fill:none;stroke:#FFFFFF;stroke-width:2;stroke-linecap:round;stroke-linejoin:round;stroke-dasharray:5.3004,5.3004,5.3004,5.3004;}
	
		.st6{fill:none;stroke:#FFFFFF;stroke-width:2;stroke-linecap:round;stroke-linejoin:round;stroke-dasharray:5.3004,5.3004,5.3004,5.3004,5.3004,5.3004;}
	.st7{fill:#1C3B2A;}
	.st8{fill:#E84820;}
	
		.st9{fill:none;stroke:#FFFFFF;stroke-width:2;stroke-linecap:round;stroke-linejoin:round;stroke-dasharray:5.4243,5.4243,5.4243,5.4243;}
	
		.st10{fill:none;stroke:#FFFFFF;stroke-width:2;stroke-linecap:round;stroke-linejoin:round;stroke-dasharray:5.4243,5.4243,5.4243,5.4243,5.4243,5.4243;}
	.st11{fill:#F49F2E;}
	.st12{fill:#F1ECDC;}
	.st13{fill:#FFFFFF;}
	.st14{fill:#5577BA;}
	.st15{fill:#FFF5DC;}
	.st16{fill:none;}
	
		.st17{fill:none;stroke:#FFFFFF;stroke-width:2;stroke-linecap:round;stroke-linejoin:round;stroke-dasharray:5.4063,5.4063,5.4063,5.4063;}
	
		.st18{fill:none;stroke:#FFFFFF;stroke-width:2;stroke-linecap:round;stroke-linejoin:round;stroke-dasharray:5.4063,5.4063,5.4063,5.4063,5.4063,5.4063;}
	
		.st19{fill:none;stroke:#FFFFFF;stroke-width:2;stroke-linecap:round;stroke-linejoin:round;stroke-dasharray:4.5833,4.5833,4.5833,4.5833;}
	
		.st20{fill:none;stroke:#FFFFFF;stroke-width:2;stroke-linecap:round;stroke-linejoin:round;stroke-dasharray:4.5833,4.5833,4.5833,4.5833,4.5833,4.5833;}
	.st21{fill:#282521;}
	.st22{fill:#151313;}
	.st23{fill:#FDF4E8;}
	.st24{fill:#020203;}
	.st25{fill:#204232;}
	.st26{fill:#FDF4E8;stroke:#000000;stroke-miterlimit:10;}
	.st27{fill:none;stroke:#000000;stroke-width:0.25;stroke-miterlimit:10;}
	.st28{fill:#FDF4E8;stroke:#000000;stroke-width:0.25;stroke-miterlimit:10;}
	.st29{fill:#204730;}
	.st30{fill:#1F422B;}
	.st31{fill:#F1ECDC;stroke:#000000;stroke-width:2;stroke-miterlimit:10;}
	.st32{opacity:0.7;}
	.st33{opacity:0.6;}
	.st34{clip-path:url(#SVGID_32_);}
	.st35{fill:#B5CCBE;}
	.st36{clip-path:url(#SVGID_34_);}
	.st37{clip-path:url(#SVGID_38_);}
	.st38{clip-path:url(#SVGID_40_);}
</style>
<g id="Calque_1">
	<g>
		<defs>
			<rect id="SVGID_39_" y="0" width="363.8" height="405.4"/>
		</defs>
		<clipPath id="SVGID_2_">
			<use xlink:href="#SVGID_39_"  style="overflow:visible;"/>
		</clipPath>
		<g style="clip-path:url(#SVGID_2_);">
			<g>
				<g>
					<path class="st8" d="M-29.6,152.9c-1.3-2.1-1.3-4.7-1.2-7.1c0.6-14.8,5.4-29.5,13.7-41.8c1-1.4,2-2.9,3.6-3.6
						c1.6-0.7,3.7-0.5,4.6,0.9c0.6,0.9,0.5,2,0.5,3.1c-1.3,17.6-17.3,30.6-22.1,47.6c7.8-5.5,15.5-10.9,23.3-16.4
						c3.8-2.7,7.7-5.4,12.1-7c4.4-1.5,9.5-1.8,13.6,0.5c2.6,1.4,4.8,4.1,4.4,7.1c-0.2,1.6-1.1,3-2,4.3c-5.3,7.2-13.2,12.4-22,14.4
						c-8.7,2-18.1,0.7-26-3.6"/>
				</g>
				<g>
					<path class="st8" d="M31.6,79.5c-6.7-7.7-16.3-28-19.3-37.8c-0.6-2-1.2-4.2-0.9-6.3c0.2-2.1,1.4-4.3,3.3-5.1
						c2.1-1,4.7-0.2,6.7,0.9c2.6,1.5,4.9,3.7,5.9,6.5c0.5,1.7,0.6,3.4,0.6,5.2c0.1,7.8,4.1,26.9,3,34.6"/>
				</g>
				<g>
					<g>
						<path class="st8" d="M-39.7,163c18.9-17.7,36.6-36.7,52.8-56.9C21.2,96,29,85.6,36.3,75C43.7,64.5,50.8,53.7,57,42.5
							c7-12.5,12.7-25.9,15.3-40.1c0.4-2.4-3.2-3.4-3.6-1c-4.5,25.2-18.9,47.3-33.1,68C21.2,90.6,5.3,110.7-12,129.6
							c-9.7,10.6-19.9,20.9-30.4,30.7C-44.1,162-41.5,164.6-39.7,163L-39.7,163z"/>
					</g>
				</g>
				<g>
					<path class="st8" d="M38.7,68.1c6.5-5.1,13.9-9,21.7-11.6c4.2-1.4,8.7-2.4,13.1-1.9c4.4,0.4,8.8,2.5,11.3,6.2
						c0.3,0.4,0.5,0.9,0.6,1.4c0.1,0.6-0.2,1.2-0.5,1.7c-3.2,6.1-10.4,8.7-17.2,9.9c-10.7,2-21.9,2.1-32.3-1.3"/>
				</g>
				<g>
					<path class="st8" d="M57.3,37.7c4.1-3.5,8.3-6.9,13.1-9.3c4.8-2.4,10.3-3.7,15.6-2.6c1.1,0.2,2.3,0.6,2.9,1.6
						c1.1,1.8-0.4,4-1.8,5.6c-1.3,1.4-2.6,2.9-4.4,3.7c-1.9,1-4.2,1-6.3,1.1c-6.1,0.2-12.2,0.4-18.2,0.5"/>
				</g>
				<g>
					<path class="st8" d="M58.4,34.4c-1.8-8.6-7.7-16.2-15.5-20.1c-2.2-1.1-4.8-1.9-7.1-1.1c-3.2,1.1-4.7,5.2-3.8,8.6
						c0.9,3.3,3.4,5.9,6.2,8c5.9,4.4,13.1,6.9,20.5,7.1"/>
				</g>
				<g>
					<path class="st8" d="M0,119.6c-0.3-7.7-0.1-15.3,0.5-23C1.2,88,3,78.6,9.8,73.3c1.3-1,3.7-1.6,4.3,0c0.2,0.5,0.1,1,0,1.5
						C12,89.2,9.5,104.3,0.7,115.8c9.5-6.7,19.8-12.1,30.7-16.1c3.1-1.1,6.7-2.2,9.7-0.6c0.6,0.3,1.2,0.8,1.3,1.4
						c0.1,0.7-0.2,1.3-0.6,1.9C34,114.5,19,121.8,4.5,120.4"/>
				</g>
			</g>
			<g>
				<g>
					<path class="st12" d="M-1,237.5c18.1-13.3,36.4-26.4,54.4-39.8c16.1-11.9,31.8-24.6,44-40.6c7.3-9.5,13.1-20.1,18.8-30.6
						c0.8-1.4-1.4-2.7-2.2-1.3c-5,9.3-10.1,18.5-16.2,27.1c-5.8,8.2-12.7,15.6-20.1,22.4c-15.2,14-32.4,25.8-49.1,38
						c-10.3,7.5-20.6,15.1-31,22.6C-3.6,236.3-2.3,238.5-1,237.5L-1,237.5z"/>
				</g>
			</g>
			<g>
				<g>
					<path class="st12" d="M1.7,233.5c2.8-13,9.6-24.5,14.7-36.7c5.3-12.6,7.8-26,7-39.7c-0.5-7.6-1.9-15.2-4.3-22.4
						c-0.5-1.5-2.9-0.9-2.4,0.7c4.3,12.8,5.5,26.7,3.3,40.1c-1,6.6-2.9,12.9-5.4,19.1c-2.5,6.1-5.5,12-8.2,18
						c-3,6.5-5.7,13.2-7.2,20.3C-1.1,234.4,1.3,235,1.7,233.5L1.7,233.5z"/>
				</g>
			</g>
			<g>
				<g>
					<path class="st12" d="M13.5,202.2c-2.1-7.1-6.8-13.2-13-17.1c-1.4-0.9-2.6,1.3-1.3,2.2c5.7,3.6,10,9.2,11.9,15.6
						C11.6,204.4,14,203.7,13.5,202.2L13.5,202.2z"/>
				</g>
			</g>
			<g>
				<g>
					<path class="st12" d="M18.3,191.9c2.8-6,9.5-8,15.3-9.7c1.5-0.4,0.9-2.9-0.7-2.4c-6.4,1.9-13.8,4.3-16.8,10.9
						C15.4,192.1,17.6,193.4,18.3,191.9L18.3,191.9z"/>
				</g>
			</g>
			<g>
				<g>
					<path class="st12" d="M23.8,165.6c3-7.7,11.4-11.1,18.8-13.3c1.5-0.5,0.9-2.9-0.7-2.4c-8.3,2.5-17.1,6.4-20.5,15
						C20.9,166.4,23.3,167.1,23.8,165.6L23.8,165.6z"/>
				</g>
			</g>
			<g>
				<g>
					<path class="st12" d="M22.1,175.2c0.5-2.1-0.5-4.1-1.6-5.8c-1-1.6-2.2-3-3.6-4.2c-2.8-2.4-6.3-4.1-10-4.6c0,0.8,0,1.6,0,2.4
						c0.3-0.1,0.5-0.2,0.8-0.3c0.6-0.3,1.1-0.8,0.9-1.5c-0.2-0.6-0.9-1.1-1.5-0.9c-0.3,0.1-0.5,0.2-0.8,0.3
						c-0.5,0.2-0.9,0.6-0.9,1.2c0,0.5,0.4,1.1,0.9,1.2c3.1,0.4,6.1,1.7,8.5,3.7c1.2,1,2.3,2.1,3.1,3.3c0.8,1.2,2.1,3,1.8,4.5
						C19.3,176.1,21.7,176.8,22.1,175.2L22.1,175.2z"/>
				</g>
			</g>
			<circle class="st12" cx="-4.5" cy="184.6" r="7.4"/>
			<g>
				<g>
					<path class="st12" d="M101.8,152.3c1.7-7.2,0.7-14.8-2.8-21.4c-0.8-1.4-2.9-0.2-2.2,1.3c3.2,5.9,4.1,12.9,2.5,19.4
						C99,153.2,101.4,153.9,101.8,152.3L101.8,152.3z"/>
				</g>
			</g>
			<circle class="st12" cx="94.9" cy="128.1" r="7.4"/>
			<g>
				<g>
					<path class="st12" d="M77.8,178.3c5.7-3.2,12.4-0.9,18.1,1c1.5,0.5,2.2-1.9,0.7-2.4c-6.4-2.2-13.7-4.4-20-0.8
						C75.2,176.9,76.4,179.1,77.8,178.3L77.8,178.3z"/>
				</g>
			</g>
			<circle class="st12" cx="102.2" cy="180.4" r="7.4"/>
			<circle class="st12" cx="5.3" cy="161.3" r="7.4"/>
			<g>
				<g>
					<path class="st12" d="M84.5,171.9c5.4-6,1.4-14.9-3.3-20.1c-0.4,0.7-0.8,1.4-1.2,2.1c0.3,0.1,0.5,0.2,0.8,0.3
						c1.5,0.5,2.2-1.9,0.7-2.4c-0.3-0.1-0.5-0.2-0.8-0.3c-1.3-0.4-2,1.2-1.2,2.1c3.6,4.1,7.6,11.7,3.3,16.6
						C81.6,171.4,83.4,173.1,84.5,171.9L84.5,171.9z"/>
				</g>
			</g>
			<circle class="st12" cx="79.7" cy="151.5" r="7.4"/>
			<circle class="st12" cx="47.2" cy="150.7" r="7.4"/>
			<g>
				<g>
					<path class="st12" d="M97.4,157.1c2.2-3,5.8-5.1,9.2-6.4c4.3-1.6,8.8-1.9,13.4-2.1c1.6-0.1,1.6-2.6,0-2.5c-9,0.3-19,2-24.7,9.7
						C94.3,157.1,96.5,158.4,97.4,157.1L97.4,157.1z"/>
				</g>
			</g>
			<circle class="st12" cx="124.9" cy="148.3" r="7.4"/>
			<circle class="st12" cx="17.3" cy="132.8" r="7.4"/>
			<circle class="st12" cx="118.5" cy="121.7" r="7.4"/>
			<g>
				<path class="st11" d="M56.8,216.5c8.6-5.1,14.3-13.1,18.4-22.2c4.1-9.1,7.7-18.8,14.4-26.3c1.6-1.7,3.3-4.5,1.5-6.1
					c-2-1.8-5.9,0.9-7.5-1.2c-1.5-2,1.2-5.7-1-6.8c-0.6-0.3-1.4-0.2-2.1-0.1c-4.3,0.8-8.6,1.6-12.9,2.4c-2.7,0.5-5.5,1-8.2,0.6
					c-2.1-0.3-4.2-1.2-6.2-2c-6.3-2.6-12.6-5.3-18.9-7.9c-1.6-0.7-3.2-1.3-4.9-1c-3.3,0.7-4.5,4.8-4.2,8.1c0.5,6.3,3.9,11.9,6,17.8
					c2,5.7,2.9,11.9,2.6,17.9c-0.2,3.3-0.7,6.6-0.4,9.9c0.6,5.9,4.2,11.3,9.3,14.2s4,4.9,9.3,2.4"/>
			</g>
			<g>
				<g>
					<path class="st35" d="M13.1,331.3c5.6-5.7,10.7-12,15.1-18.8c2.1-3.3,4.1-6.7,5.5-10.4c1.5-3.8,2.3-7.9,2.7-12
						c0.4-4,0.3-8.1,0.4-12.1c0.1-3.9,0.4-7.8,1-11.7c1.1-7.8,2.9-15.6,5.2-23.2c2.6-8.5,5.8-16.9,9.4-25c0.7-1.5-1.5-2.7-2.2-1.3
						C43.8,231.1,38.6,246,36,261.4c-0.6,3.8-1.1,7.6-1.4,11.4c-0.3,3.9-0.3,7.8-0.4,11.7c-0.1,4.1-0.4,8.3-1.4,12.3
						c-1,3.9-2.6,7.6-4.7,11.1c-4.6,7.9-10.4,15.1-16.7,21.5C10.2,330.7,12,332.4,13.1,331.3L13.1,331.3z"/>
				</g>
			</g>
			<g>
				<g>
					<path class="st35" d="M-5.4,346.8c12.2-9.7,24.3-19.5,36.1-29.7c11.8-10.2,23.1-20.8,33.7-32.2c10.4-11.3,20.1-23.4,28.3-36.4
						c4-6.4,7.7-13,11.3-19.5c2.7-5,5.4-10,7.8-15.2c4.9-10.6,8.2-21.8,11.4-33.1c0.5-1.9,1.1-3.8,1.6-5.7c0.4-1.6-2-2.2-2.4-0.7
						c-3.3,11.8-6.5,23.7-11.4,35c-4.9,11.4-11.2,22.3-17.5,33c-7.8,13.3-17.2,25.6-27.4,37.1c-10.3,11.5-21.4,22.1-32.9,32.3
						C21.4,322,9.4,331.8-2.7,341.5c-1.5,1.2-3,2.4-4.5,3.6C-8.5,346.1-6.7,347.8-5.4,346.8L-5.4,346.8z"/>
				</g>
			</g>
			<g>
				<path class="st35" d="M8.8,331.2c5.2-23.9-14.4-47.4-11.2-71.6c0.4-3.1,1.4-6.4,3.8-8.5s6.7-2.1,8.4,0.5c1.5,2.3,1,6.3,3.7,7.1
					c3.5,1,4.7-5.3,8.2-6.5c2-0.7,4.2,0.7,5.2,2.6c1,1.9,1,4.1,0.9,6.2c-0.7,23.5-7.5,46.2-14.3,68.7"/>
			</g>
			<g>
				<path class="st35" d="M38,308.9c6.9-7.1,11.8-16.1,14.2-25.7c5.6-22.6-2.6-48.2,8.7-68.6c0.7-1.2,1.6-2.6,3-2.9
					c3-0.8,4.8,3.5,4.5,6.6c-0.3,3.1-1.1,6.9,1.3,8.8c2.5,2,6.1,0.3,8.8-1.2c2.8-1.5,6.8-2.7,8.7-0.2c0.7,0.9,0.9,2.1,1,3.2
					c1.3,10.8-2.8,21.5-7.9,31.1c-6,11.3-13.7,21.8-22.7,31"/>
			</g>
			<g>
				<path class="st35" d="M101.5,233.4c0-6.2,1.2-12.3,1.9-18.4c1.5-14.7-0.9-29.8-6.9-43.3c-3.2-7.2-7.4-14.7-5.7-22.3
					c0.7-3.1,2.8-6.2,6-6.6c4-0.4,6.9,3.7,7.6,7.6s0.1,8.1,1.5,11.8c2,5.4,8.3,8.7,13.8,7.4c2.9-0.7,5.6-2.4,8.5-1.9
					c4,0.7,6,5.6,5.1,9.6c-0.8,3.9-3.6,7.1-6.2,10.3c-10.8,13.2-19.2,28.3-24.7,44.5"/>
			</g>
			<g>
				<path class="st35" d="M110.6,211.3c6.8-6.4,13.6-12.8,20.5-19.2c3.6-3.4,7.3-6.9,11.8-9c2.6-1.2,5.5-2,8.3-1.5s5.5,2.4,6.2,5.2
					c0.9,3.6-1.6,7.2-4.2,9.9c-2.6,2.7-5.7,5.4-6.2,9.2c-0.8,5.6,4.5,10.9,3.1,16.3c-1,3.8-5,6.1-8.9,6.4c-3.9,0.3-7.7-1.1-11.3-2.6
					c-7.7-3-16-7.1-19-14.8"/>
			</g>
			<g>
				<path class="st35" d="M15.1,326.3c8.4-2.7,17.1-4.4,25.9-5.2c3.9-0.3,8-0.5,11.5,1.1c3.6,1.5,6.5,5.2,6,9.1
					c-0.1,1-0.5,2-1.3,2.7c-1.8,1.6-4.6,0.6-6.9,1.2c-3.3,0.8-5,4.6-5.3,8c-0.3,3.4,0.2,7-0.9,10.3s-4.7,6.1-7.9,4.6
					c-1.4-0.7-2.3-2-3.1-3.3c-4.3-7.7-5.9-17.7-13.5-22.1c-2.5-1.5-5.5-2.1-8.3-1.9"/>
			</g>
			<g>
				<path class="st35" d="M43.3,214.7c1.2,2.1,1.9,4.3,2.2,6.6c0.1,0.8,0.2,1.7,0.5,2.5c0.3,0.8,1.1,1.6,1.9,1.7
					c0.8,0.2,1.5-0.2,2.2-0.6c4.1-2.5,7-5.9,9.3-10c-5.5,0.4-10.7,0.2-16.3-0.7"/>
			</g>
			<g>
				<path class="st35" d="M47.2,297.4c16.3-10.5,33.7-19.3,51.8-26c4.1-1.5,8.5-3,12.7-1.9c4.2,1.1,7.8,5.8,6,9.8
					c-2.3,5.2-10.7,4.8-13.4,9.8c-3,5.4,3,13-0.6,18c-1.2,1.6-3.1,2.5-5.1,3c-9.1,2.1-17.7-3.8-26.4-7.2c-7.1-2.7-14.8-3.8-22.4-3
					c-0.8,0.1-1.6,0.2-2.2,0.8s-0.3,1.8,0.5,1.9"/>
			</g>
			<g>
				<path class="st11" d="M179,292.3c7.9-4.7,13.1-12,16.9-20.4c3.8-8.4,7.1-17.3,13.2-24.1c1.4-1.6,3-4.2,1.4-5.6
					c-1.8-1.6-5.4,0.8-6.9-1.1c-1.3-1.8,1.1-5.2-0.9-6.3c-0.6-0.3-1.3-0.2-1.9-0.1c-3.9,0.7-7.9,1.5-11.8,2.2
					c-2.5,0.5-5.1,0.9-7.6,0.6c-2-0.3-3.8-1.1-5.7-1.8c-5.8-2.4-11.6-4.9-17.3-7.3c-1.4-0.6-3-1.2-4.5-0.9c-3,0.6-4.1,4.4-3.9,7.5
					c0.5,5.8,3.6,10.9,5.5,16.4c1.9,5.3,2.7,10.9,2.4,16.5c-0.2,3-0.7,6.1-0.3,9.1c0.6,5.4,3.9,10.4,8.6,13.1s3.6,4.5,8.5,2.2"/>
			</g>
			<g>
				<g>
					<path class="st35" d="M138.9,397.8c4.9-5,9.4-10.5,13.3-16.4c4-6,6.9-12.2,7.8-19.4c0.9-7.2,0.4-14.4,1.1-21.6
						c0.7-7.2,2.2-14.4,4.2-21.3c2.3-7.9,5.2-15.6,8.6-23.1c0.7-1.5-1.5-2.7-2.2-1.3c-5.9,13-10.5,26.6-12.5,40.8
						c-0.5,3.6-0.9,7.2-1.1,10.9c-0.2,3.5-0.1,7.1-0.2,10.6c-0.2,3.6-0.6,7.1-1.6,10.5c-1,3.4-2.6,6.6-4.4,9.6
						c-4.2,6.9-9.3,13.2-14.9,19C136,397.2,137.8,399,138.9,397.8L138.9,397.8z"/>
				</g>
			</g>
			<g>
				<path class="st35" d="M166.6,290.7c1.1,1.9,1.8,4,2.1,6c0.1,0.8,0.2,1.5,0.5,2.3c0.3,0.7,1,1.4,1.8,1.6c0.7,0.1,1.4-0.2,2-0.6
					c3.8-2.3,6.4-5.5,8.5-9.2c-5,0.4-9.8,0.2-15-0.6"/>
			</g>
			<g>
				<path class="st8" d="M246.9,393.6c7.9-0.9,14.6-4.9,20.5-10.2c6-5.3,11.6-11.2,18.9-14.4c1.7-0.8,3.8-2.2,3.1-3.9
					c-0.9-1.9-4.6-1.3-5-3.3c-0.4-1.9,2.7-3.7,1.5-5.3c-0.3-0.4-0.9-0.6-1.5-0.7c-3.4-0.8-6.8-1.6-10.1-2.4c-2.1-0.5-4.3-1-6.2-2.2
					c-1.5-0.9-2.7-2.2-3.8-3.4c-3.7-4-7.4-7.9-11.1-11.9c-0.9-1-1.9-2-3.2-2.3c-2.6-0.6-4.8,2-5.7,4.5c-1.7,4.7-1,9.9-1.4,14.9
					c-0.4,4.8-1.7,9.6-3.9,13.9c-1.2,2.3-2.7,4.6-3.5,7.1c-1.4,4.5-0.6,9.6,2.2,13.3s1.3,4.8,6,4.7"/>
			</g>
			<g>
				<g>
					<path class="st35" d="M178.1,462.3c6.2-2.4,12.1-5.5,17.6-9.1c5.3-3.5,9.6-7.7,12.7-13.3c3-5.3,5.1-11,8.3-16.3
						c3.1-5.2,6.7-10.2,10.6-14.8c4.5-5.3,9.4-10.2,14.5-14.8c1.2-1.1-0.6-2.8-1.8-1.8c-8.9,8-17.1,16.8-23.6,26.9
						c-3.3,5.1-5.8,10.6-8.5,16.1c-2.7,5.6-6.2,10.5-11.3,14.2c-5.9,4.3-12.6,7.8-19.4,10.5C176,460.5,176.6,462.9,178.1,462.3
						L178.1,462.3z"/>
				</g>
			</g>
			<g>
				<path class="st35" d="M237.7,387.9c0.2,1.9,0,3.8-0.5,5.5c-0.2,0.6-0.4,1.3-0.4,2c0,0.7,0.3,1.5,0.9,1.9
					c0.5,0.4,1.2,0.3,1.8,0.3c3.8-0.5,7-2.1,10-4.3c-4.1-1.4-7.8-3.3-11.6-5.8"/>
			</g>
			<g>
				<g>
					<path class="st35" d="M130.7,406.9c17.6-19,35.4-38.1,55.7-54.3c10.1-8.1,20.8-15.4,32.2-21.4c5.5-2.9,11.1-5.5,16.8-8.1
						c4.4-2,8.7-3.9,13.2-5.6c10.6-3.9,21.8-6.2,32.9-8.4c1.6-0.3,0.9-2.7-0.7-2.4c-10.2,2-20.4,4.1-30.2,7.5
						c-10,3.4-19.6,8.1-29.1,12.8c-23.3,11.5-43.5,28.3-62,46.4c-10.5,10.3-20.6,21.1-30.6,31.8C127.8,406.3,129.6,408,130.7,406.9
						L130.7,406.9z"/>
				</g>
			</g>
			<g>
				<path class="st35" d="M143.1,394.3c20.3-2.9,38.8,15,59.3,13.8c2.7-0.2,5.5-0.7,7.3-2.6c1.9-1.9,2.2-5.4,0.1-7
					c-1.9-1.4-5.2-1.3-5.7-3.5c-0.7-3,4.7-3.6,5.9-6.5c0.7-1.6-0.4-3.6-1.9-4.5c-1.5-0.9-3.4-1.1-5.2-1.2
					c-19.7-0.9-39.2,3.4-58.4,7.7"/>
			</g>
			<g>
				<path class="st35" d="M163.5,371.1c6.4-5.3,14.2-8.9,22.4-10.3c19.2-3.3,40.2,5.1,57.9-3c1.1-0.5,2.2-1.2,2.6-2.3
					c0.8-2.5-2.6-4.2-5.2-4.2s-5.8,0.5-7.3-1.7c-1.5-2.2,0.1-5.1,1.5-7.3c1.4-2.2,2.6-5.5,0.7-7.3c-0.7-0.6-1.7-0.9-2.6-1.1
					c-8.9-1.7-18.2,1-26.5,4.7c-9.9,4.4-19.1,10.1-27.4,17"/>
			</g>
			<g>
				<path class="st35" d="M230.7,322.7c5.2,0.4,10.3-0.3,15.5-0.4c12.4-0.3,24.9,2.6,35.8,8.4c5.8,3.1,11.8,7.1,18.3,6.1
					c2.6-0.4,5.4-2,5.9-4.6c0.6-3.3-2.7-6-5.9-6.9c-3.2-0.8-6.7-0.6-9.8-2c-4.4-2-6.8-7.4-5.3-12c0.7-2.4,2.4-4.6,2.1-7
					c-0.4-3.4-4.3-5.3-7.7-4.9c-3.4,0.5-6.2,2.6-9,4.6c-11.7,8.3-24.9,14.4-38.8,17.9"/>
			</g>
			<g>
				<path class="st35" d="M249.8,316.4c5.8-5.3,11.6-10.6,17.4-16c3.1-2.8,6.2-5.7,8.3-9.3c1.2-2.1,2-4.5,1.8-6.9
					c-0.2-2.4-1.7-4.8-4-5.5c-3-1-6.1,0.9-8.6,2.9s-4.9,4.4-8,4.6c-4.7,0.3-8.8-4.4-13.5-3.6c-3.2,0.6-5.4,3.8-5.9,7
					c-0.5,3.2,0.5,6.5,1.4,9.6c2.1,6.6,5,13.8,11.2,16.8"/>
			</g>
			<g>
				<path class="st35" d="M147.6,389.3c2.8-6.9,4.8-14,6-21.3c0.5-3.2,0.9-6.6-0.2-9.7c-1.1-3.1-4-5.8-7.2-5.6
					c-0.9,0-1.7,0.3-2.3,0.9c-1.4,1.4-0.8,3.8-1.4,5.7c-0.9,2.7-4.2,3.9-7.1,4s-5.8-0.6-8.6,0.1c-2.8,0.7-5.4,3.6-4.4,6.3
					c0.5,1.2,1.5,2.1,2.6,2.8c6.1,4.1,14.4,6,17.7,12.7c1.1,2.2,1.4,4.7,1.1,7.1"/>
			</g>
			<g>
				<path class="st35" d="M173.8,364.2c9.8-13,18.2-27,25-41.7c1.5-3.3,3-6.9,2.4-10.5c-0.6-3.6-4.4-6.9-7.8-5.7
					c-4.5,1.6-4.7,8.6-9,10.6c-4.7,2.2-10.7-3.3-15.1-0.6c-1.4,0.9-2.3,2.5-2.8,4.1c-2.3,7.4,2.1,15.1,4.4,22.5
					c1.8,6.1,2.2,12.7,1.1,18.9c-0.1,0.7-0.3,1.4-0.8,1.8s-1.5,0.1-1.5-0.5"/>
			</g>
			<g>
				<g>
					<path class="st8" d="M51.3,400.5c-1.7-1.7-2.4-4.2-2.9-6.6c-3-14.5-1.8-29.9,3.3-43.8c0.6-1.6,1.3-3.3,2.6-4.4
						c1.3-1.1,3.5-1.4,4.7-0.2c0.8,0.7,1,1.8,1.2,2.9c2.9,17.4-9.4,33.9-10.1,51.5c6.2-7.2,12.5-14.3,18.7-21.5
						c3.1-3.5,6.2-7.1,10.1-9.7c3.9-2.5,8.8-4,13.3-2.8c2.9,0.8,5.6,2.9,6,5.8c0.2,1.6-0.3,3.2-0.9,4.7c-3.4,8.3-9.9,15.2-17.9,19.2
						s-17.5,5-26.1,2.8"/>
				</g>
				<g>
					<path class="st8" d="M93.2,314.6c-8.3-5.9-22.6-23.3-27.8-32.1c-1.1-1.8-2.1-3.8-2.4-5.9c-0.3-2.1,0.3-4.5,2-5.8
						c1.8-1.4,4.5-1.3,6.7-0.7c2.9,0.8,5.7,2.4,7.3,4.9c0.9,1.5,1.4,3.2,1.8,4.9c1.9,7.6,10.4,25.1,11.2,32.9"/>
				</g>
				<g>
					<g>
						<path class="st8" d="M43.4,412.4c13.9-21.3,26.3-43.6,37.1-66.6c5.4-11.5,10.4-23.3,15-35.2c4.6-12,9-24.2,12.5-36.6
							c4-14.3,6.6-29.1,5.7-44c-0.1-1.6-2.6-1.6-2.5,0c0.8,13.2-1.1,26.4-4.4,39.2c-3.2,12.6-7.6,24.8-12.2,37
							c-8.9,23.6-19.4,46.5-31.5,68.6c-6.8,12.4-14.1,24.6-21.8,36.5C40.4,412.5,42.5,413.7,43.4,412.4L43.4,412.4z"/>
					</g>
				</g>
				<g>
					<path class="st8" d="M97.3,301.9c5.1-6.5,11.3-12.1,18.3-16.5c3.8-2.4,7.8-4.4,12.2-5c4.4-0.6,9.2,0.3,12.4,3.3
						c0.4,0.3,0.7,0.7,0.9,1.2c0.2,0.6,0.1,1.2,0,1.8c-1.6,6.7-8.1,10.9-14.3,13.8c-9.9,4.5-20.8,7.2-31.7,6.4"/>
				</g>
				<g>
					<path class="st8" d="M108.2,267.9c3.2-4.3,6.4-8.7,10.5-12.2c4.1-3.5,9.2-6,14.5-6.2c1.1,0,2.4,0.1,3.2,0.9
						c1.5,1.5,0.6,4-0.4,5.9c-0.9,1.7-1.9,3.4-3.3,4.7c-1.7,1.4-3.8,2-5.9,2.6c-5.9,1.6-11.7,3.3-17.6,4.9"/>
				</g>
				<g>
					<path class="st8" d="M108.5,264.4c-3.8-7.9-11.3-13.9-19.9-15.8c-2.4-0.5-5.1-0.7-7.2,0.6c-2.9,1.9-3.3,6.2-1.7,9.2
						c1.6,3,4.7,4.9,7.9,6.3c6.8,2.8,14.4,3.5,21.6,2"/>
				</g>
				<g>
					<path class="st8" d="M72.1,361.1c-2.1-7.4-3.7-14.9-5-22.4c-1.4-8.5-2-18.1,3.4-24.9c1.1-1.3,3.2-2.4,4.2-1
						c0.3,0.4,0.4,1,0.4,1.5c1.3,14.5,2.5,29.7-3.3,43c7.6-8.8,16.4-16.5,26-23c2.8-1.9,6-3.7,9.3-2.9c0.6,0.2,1.3,0.5,1.6,1.1
						c0.3,0.6,0.1,1.3-0.1,1.9c-4.7,13.8-17.5,24.4-31.9,26.5"/>
				</g>
			</g>
			<g>
				<g>
					<path class="st12" d="M254.2,413c5.9-4.5,12.7-7.9,19.3-11.1c8.1-4,16.3-7.6,24.5-11.4c6.9-3.1,13.8-6.2,20.3-10
						c8.4-4.9,16.1-11.2,22.6-18.4c7.5-8.3,13.5-17.8,17.7-28.2c0.6-1.5-1.8-2.1-2.4-0.7c-7.5,18.2-20.8,33.9-37.6,44.1
						c-6.3,3.8-13,6.9-19.7,10c-8.1,3.7-16.2,7.3-24.2,11.2c-7.5,3.6-15.2,7.3-21.8,12.3C251.6,411.8,252.9,414,254.2,413L254.2,413
						z"/>
				</g>
			</g>
			<g>
				<g>
					<path class="st12" d="M305.1,386.7c3.3-7.4,3.9-15.9,1.5-23.7c-0.5-1.5-2.9-0.9-2.4,0.7c2.2,7.1,1.8,14.9-1.3,21.7
						C302.3,386.8,304.5,388.1,305.1,386.7L305.1,386.7z"/>
				</g>
			</g>
			<g>
				<g>
					<path class="st12" d="M295.1,391.5c6.5-2.9,13.7,0.3,19.6,3c1.5,0.7,2.7-1.5,1.3-2.2c-6.9-3.2-14.7-6.3-22.2-3
						C292.4,390,293.6,392.2,295.1,391.5L295.1,391.5z"/>
				</g>
			</g>
			<g>
				<g>
					<path class="st12" d="M319.2,379.8c8.2-4.3,17.6-1.1,25.4,2.3c1.5,0.6,2.7-1.5,1.3-2.2c-8.7-3.9-18.9-7.1-27.9-2.3
						C316.5,378.4,317.8,380.5,319.2,379.8L319.2,379.8z"/>
				</g>
			</g>
			<g>
				<g>
					<path class="st12" d="M327.8,374.6c1.7-1.3,2.4-3.2,2.8-5.3c0.4-2.1,0.4-4.3,0.2-6.4c-0.6-4.3-2.4-8.3-5.2-11.6
						c-0.4,0.7-0.8,1.4-1.2,2.1c0.3,0.1,0.6,0.2,0.9,0.3c1.5,0.5,2.2-1.9,0.7-2.4c-0.3-0.1-0.6-0.2-0.9-0.3c-1.3-0.4-2,1.2-1.2,2.1
						c2.3,2.7,3.9,6,4.4,9.5c0.3,1.7,0.3,3.5,0.1,5.3c-0.2,1.5-0.4,3.7-1.7,4.6C325.2,373.4,326.5,375.6,327.8,374.6L327.8,374.6z"
						/>
				</g>
			</g>
			<circle class="st12" cx="302.9" cy="358.9" r="8.2"/>
			<circle class="st12" cx="321.7" cy="396.5" r="8.2"/>
			<circle class="st12" cx="323.9" cy="350.8" r="8.2"/>
			<circle class="st12" cx="349.7" cy="384.3" r="8.2"/>
			<circle class="st12" cx="355.7" cy="337.5" r="8.2"/>
			<g>
				<g>
					<path class="st12" d="M116,379.7c5.1-5.4,12.2-8.9,19.6-9.5c1.6-0.1,1.6-2.6,0-2.5c-8.1,0.7-15.7,4.3-21.4,10.2
						C113.2,379.1,114.9,380.9,116,379.7L116,379.7z"/>
				</g>
			</g>
			<g>
				<g>
					<path class="st12" d="M117.2,365.3c0.3-8-5.6-14-11.1-19.1c-1.2-1.1-2.9,0.7-1.8,1.8c4.9,4.6,10.6,10,10.3,17.3
						C114.7,367,117.2,367,117.2,365.3L117.2,365.3z"/>
				</g>
			</g>
			<g>
				<g>
					<path class="st12" d="M125,336.9c1-10-5.9-18.2-12.6-24.7c-1.2-1.1-2.9,0.6-1.8,1.8c6.3,6.1,12.8,13.5,11.9,22.9
						C122.3,338.5,124.8,338.5,125,336.9L125,336.9z"/>
				</g>
			</g>
			<g>
				<g>
					<path class="st12" d="M121.8,347.7c0.4-1.6,2.1-2.6,3.5-3.4c1.6-0.9,3.3-1.6,5.1-2c3.5-0.8,7.2-0.6,10.6,0.6
						c1.3,0.4,2-1.2,1.2-2.1c-0.2-0.2-0.4-0.5-0.6-0.7c-1.1-1.2-2.8,0.6-1.8,1.8c0.2,0.2,0.4,0.5,0.6,0.7c0.4-0.7,0.8-1.4,1.2-2.1
						c-4-1.4-8.4-1.5-12.5-0.4c-2,0.5-4,1.4-5.7,2.5c-1.7,1.1-3.4,2.4-4,4.5C119,348.6,121.4,349.2,121.8,347.7L121.8,347.7z"/>
				</g>
			</g>
			<circle class="st12" cx="140.8" cy="369.7" r="8.2"/>
			<circle class="st12" cx="100.1" cy="342.5" r="8.2"/>
			<circle class="st12" cx="142.8" cy="341.8" r="8.2"/>
			<circle class="st12" cx="106.8" cy="310.3" r="8.2"/>
			<circle class="st12" cx="145.2" cy="307.7" r="8.2"/>
			<g>
				<g>
					<path class="st12" d="M112.7,415.3c4.1-15.3,2.7-31.3,4.2-46.9c1.3-14,5.8-27.6,13.1-39.6c4-6.7,8.9-12.8,14.5-18.3
						c1.1-1.1-0.6-2.9-1.8-1.8c-9.9,9.8-17.6,21.7-22.5,34.7c-2.5,6.6-4.2,13.5-5.2,20.5c-1.1,7.9-1.2,15.8-1.5,23.8
						c-0.3,9.1-0.8,18.2-3.2,27C109.9,416.2,112.3,416.8,112.7,415.3L112.7,415.3z"/>
				</g>
			</g>
			<g>
				<path class="st11" d="M-7.7,411.8c3.1,0.2,6.1-0.9,8.9-2.2c20.7-9.4,38.2-25.9,48.9-46c-4.3,4.5-11.1,5.2-17,7.1
					c-15.8,5.2-25.6,20.8-34.7,34.7c-1.5,2.3-4.9,4.5-6.4,6.7"/>
			</g>
			<g>
				<path class="st11" d="M25.4,382.9c13-21.5,14.8-47.7,16.3-72.7c-8.1,16-16.3,32.4-19.4,50.1C22.3,360.3,20.2,376,25.4,382.9"/>
			</g>
			<g>
				<path class="st11" d="M23.6,381.8c0-18.4-8.8-35.4-17.5-51.6c1,13.1,2.1,26.4,6.9,38.6C13,368.8,17.7,379.4,23.6,381.8"/>
			</g>
		</g>
	</g>
</g>
<g id="Layer_2">
</g>
</svg>
