<?xml version="1.0" encoding="utf-8"?>
<!-- Generator: Adobe Illustrator 25.1.0, SVG Export Plug-In . SVG Version: 6.00 Build 0)  -->
<svg version="1.1" xmlns="http://www.w3.org/2000/svg" xmlns:xlink="http://www.w3.org/1999/xlink" x="0px" y="0px"
	 viewBox="0 0 412.4 376.7" style="enable-background:new 0 0 412.4 376.7;" xml:space="preserve">
<style type="text/css">
	.st0{fill:#161413;}
	.st1{fill:#F1EADC;}
	.st2{fill:#EF7EB0;}
	.st3{fill:none;stroke:#FFFFFF;stroke-miterlimit:10;}
	.st4{fill:none;stroke:#FFFFFF;stroke-width:2;stroke-linecap:round;stroke-linejoin:round;}
	
		.st5{fill:none;stroke:#FFFFFF;stroke-width:2;stroke-linecap:round;stroke-linejoin:round;stroke-dasharray:5.3004,5.3004,5.3004,5.3004;}
	
		.st6{fill:none;stroke:#FFFFFF;stroke-width:2;stroke-linecap:round;stroke-linejoin:round;stroke-dasharray:5.3004,5.3004,5.3004,5.3004,5.3004,5.3004;}
	.st7{fill:#1C3B2A;}
	.st8{fill:#E84820;}
	
		.st9{fill:none;stroke:#FFFFFF;stroke-width:2;stroke-linecap:round;stroke-linejoin:round;stroke-dasharray:5.4243,5.4243,5.4243,5.4243;}
	
		.st10{fill:none;stroke:#FFFFFF;stroke-width:2;stroke-linecap:round;stroke-linejoin:round;stroke-dasharray:5.4243,5.4243,5.4243,5.4243,5.4243,5.4243;}
	.st11{fill:#F49F2E;}
	.st12{fill:#F1ECDC;}
	.st13{fill:#FFFFFF;}
	.st14{fill:#5577BA;}
	.st15{fill:#FFF5DC;}
	.st16{fill:none;}
	
		.st17{fill:none;stroke:#FFFFFF;stroke-width:2;stroke-linecap:round;stroke-linejoin:round;stroke-dasharray:5.4063,5.4063,5.4063,5.4063;}
	
		.st18{fill:none;stroke:#FFFFFF;stroke-width:2;stroke-linecap:round;stroke-linejoin:round;stroke-dasharray:5.4063,5.4063,5.4063,5.4063,5.4063,5.4063;}
	
		.st19{fill:none;stroke:#FFFFFF;stroke-width:2;stroke-linecap:round;stroke-linejoin:round;stroke-dasharray:4.5833,4.5833,4.5833,4.5833;}
	
		.st20{fill:none;stroke:#FFFFFF;stroke-width:2;stroke-linecap:round;stroke-linejoin:round;stroke-dasharray:4.5833,4.5833,4.5833,4.5833,4.5833,4.5833;}
	.st21{fill:#282521;}
	.st22{fill:#151413;}
	.st23{fill:#FDF4E8;}
	.st24{fill:#020203;}
	.st25{fill:#204232;}
	.st26{fill:#FDF4E8;stroke:#000000;stroke-miterlimit:10;}
	.st27{fill:none;stroke:#000000;stroke-width:0.25;stroke-miterlimit:10;}
	.st28{fill:#FDF4E8;stroke:#000000;stroke-width:0.25;stroke-miterlimit:10;}
	.st29{fill:#204730;}
	.st30{fill:#1F422B;}
	.st31{fill:#F1ECDC;stroke:#000000;stroke-width:2;stroke-miterlimit:10;}
	.st32{opacity:0.7;}
	.st33{opacity:0.6;}
	.st34{clip-path:url(#SVGID_32_);}
	.st35{fill:#B5CCBE;}
	.st36{clip-path:url(#SVGID_34_);}
	.st37{clip-path:url(#SVGID_38_);}
	.st38{clip-path:url(#SVGID_40_);}
</style>
<g id="Calque_1">
	<g>
		<defs>
			<rect id="SVGID_39_" x="446.2" y="-28.6" width="363.8" height="405.4"/>
		</defs>
		<clipPath id="SVGID_2_">
			<use xlink:href="#SVGID_39_"  style="overflow:visible;"/>
		</clipPath>
		<g style="clip-path:url(#SVGID_2_);">
			<g>
				<g>
					<g>
						<path class="st8" d="M406.5,134.3c18.9-17.7,36.6-36.7,52.8-56.9c8.1-10.1,15.9-20.4,23.2-31c7.3-10.5,14.5-21.3,20.7-32.5
							c7-12.5,12.7-25.9,15.3-40.1c0.4-2.4-3.2-3.4-3.6-1c-4.5,25.2-18.9,47.3-33.1,68c-14.4,21.1-30.4,41.2-47.6,60.1
							c-9.7,10.6-19.9,20.9-30.4,30.7C402.1,133.3,404.7,136,406.5,134.3L406.5,134.3z"/>
					</g>
				</g>
			</g>
		</g>
	</g>
	<g>
		<path class="st13" d="M118,27.6C11.4,65,21.2,113.2,4.3,165.5c-5.6,17.4-5.3,69.4-1.8,87.2c5,25.7,26.1,46.9,49.5,63.7
			c59.6,42.8,139.2,64.7,216.9,59.7c13.4-0.9,27.1-2.6,38.9-8.2c10.5-5,18.7-12.8,26.3-20.7c57-58.8,94.1-137.8,71.8-211.7
			c-9.1-30.2-27.5-57.6-45.6-84.6c-7.3-10.9-14.9-22-26.2-30.1C322.2,12.2,307,7.9,291.8,4.9C233.3-6.3,169.9,1.9,118,27.6"/>
	</g>
</g>
<g id="Layer_2">
</g>
</svg>
