<?xml version="1.0" encoding="utf-8"?>
<!-- Generator: Adobe Illustrator 25.1.0, SVG Export Plug-In . SVG Version: 6.00 Build 0)  -->
<svg version="1.1" id="Calque_1" xmlns="http://www.w3.org/2000/svg" xmlns:xlink="http://www.w3.org/1999/xlink" x="0px" y="0px"
	 viewBox="0 0 113 103.2" style="enable-background:new 0 0 113 103.2;" xml:space="preserve">
<style type="text/css">
	.st0{fill:#F1ECDC;}
	.st1{fill:#F49F2E;}
</style>
<g>
	<path class="st0" d="M32.3,7.6C3.1,17.8,5.8,31,1.2,45.4c-1.5,4.8-1.4,19-0.5,23.9c1.4,7,7.2,12.9,13.6,17.4
		c16.3,11.7,38.2,17.7,59.4,16.3c3.7-0.2,7.4-0.7,10.6-2.3c2.9-1.4,5.1-3.5,7.2-5.7c15.6-16.1,25.8-37.8,19.7-58
		c-2.5-8.3-7.5-15.8-12.5-23.2c-2-3-4.1-6-7.2-8.2C88.3,3.3,84.1,2.2,80,1.4C63.9-1.7,46.6,0.5,32.3,7.6"/>
</g>
<g>
	<g>
		<g>
			<g>
				<g>
					<g>
						<path class="st1" d="M28,49.5L28,49.5L28,49.5z"/>
						<path class="st1" d="M29.7,50.6L29.7,50.6L29.7,50.6z"/>
						<path class="st1" d="M25.3,50L25.3,50c0,0-0.1,0-0.2,0H25.3z"/>
						<path class="st1" d="M30.3,60.1L30.3,60.1L30.3,60.1z"/>
						<path class="st1" d="M30.1,54.4C30.1,54.5,30.1,54.5,30.1,54.4C30.1,54.5,30.1,54.4,30.1,54.4z"/>
						<path class="st1" d="M23.6,49L23.6,49C23.7,49,23.6,49,23.6,49z"/>
						<path class="st1" d="M21,50.1L21,50.1L21,50.1z"/>
						<path class="st1" d="M22.1,50.2C22.1,50.1,22.2,50.1,22.1,50.2C22.2,50.1,22.1,50.1,22.1,50.2z"/>
						<path class="st1" d="M22.2,50.1L22.2,50.1L22.2,50.1z"/>
						<path class="st1" d="M20.9,50c0-0.1-0.1-0.1-0.1-0.2L20.9,50z"/>
						<path class="st1" d="M30.3,65.8L30.3,65.8L30.3,65.8z"/>
						<path class="st1" d="M20,50L20,50C20,49.9,20,49.9,20,50z"/>
						<path class="st1" d="M24.9,48.4c0.1-0.1,0.2,0,0.2-0.1C25.1,48.3,24.9,48.2,24.9,48.4z"/>
						<path class="st1" d="M29.1,69.3L29.1,69.3L29.1,69.3z"/>
						<path class="st1" d="M20,50L20,50C20,50,20.1,50,20,50C20.1,50,20,50,20,50z"/>
						<polygon class="st1" points="22.8,65.1 22.8,65.1 22.8,65 						"/>
						<path class="st1" d="M22.8,64.9L22.8,64.9L22.8,64.9z"/>
						<path class="st1" d="M20.7,49.8l-0.1-0.1C20.7,49.7,20.7,49.8,20.7,49.8z"/>
						<path class="st1" d="M22.3,61.6L22.3,61.6L22.3,61.6z"/>
						<path class="st1" d="M30.1,54.1C30.1,54.1,30.1,54,30.1,54.1C30.1,54,30.1,54,30.1,54.1z"/>
						<path class="st1" d="M33,57.4L33,57.4L33,57.4z"/>
						<path class="st1" d="M32.8,57.2c0,0.1,0.1,0.1,0.1,0.2C32.9,57.3,32.9,57.3,32.8,57.2z"/>
						<path class="st1" d="M32.9,57.8L32.9,57.8L32.9,57.8z"/>
						<path class="st1" d="M32.7,53.9L32.7,53.9L32.7,53.9z"/>
						<path class="st1" d="M32.8,54.7L32.8,54.7L32.8,54.7z"/>
						<path class="st1" d="M33.4,59.7L33.4,59.7L33.4,59.7z"/>
						<path class="st1" d="M34.3,68.8c0-0.8-0.1-1.6-0.2-2.4c0-0.4,0-0.7-0.1-1.1c0-0.2,0-0.4,0-0.6c-0.2-0.2-0.2-0.4-0.3-0.6H34
							v-0.3c0.1-0.1,0.1,0.1,0.1,0L34,63.7c0.1,0,0-0.5,0.2-0.2v-0.8c0-0.2-0.2-0.1-0.2-0.3c0.1,0,0.1,0.1,0.1,0
							c0.2-0.6-0.5-0.6-0.4-1.1l0,0c-0.1-0.1-0.1-0.3-0.1-0.3c-0.3,0.1,0.1,0.1,0,0.3c-0.2,0-0.1-0.2-0.3-0.2
							c0.1-0.1-0.1-0.2-0.1-0.3c0.1-0.2,0-0.4,0.2-0.6c-0.1-0.1-0.3-0.2-0.3-0.4c0.2-0.1,0.2,0,0.2-0.2h-0.1c0-0.2,0-0.1,0.1-0.1
							c0-0.2-0.2-0.1-0.1-0.3l0.1,0.1c-0.1-0.1,0-0.2,0-0.4c0.1,0,0.1,0.1,0.1,0.1c0.2-0.1-0.1-0.2-0.1-0.3c-0.1,0-0.1,0.2-0.2,0.1
							c0-0.1-0.2-0.2,0-0.3l0.1,0.1c-0.1-0.2-0.2-0.1-0.1-0.4c0,0,0,0,0.1,0c-0.2-0.1,0-0.4-0.1-0.6l0,0c-0.1-0.1-0.2-0.1-0.2-0.2
							c-0.1,0.1-0.1,0.1-0.2,0.1c0.2-0.2-0.3-0.2-0.2-0.5c0.1,0,0.2,0.1,0.1,0.1c0.2,0.1,0.4,0.1,0.5,0.2c-0.1-0.1-0.1-0.2,0-0.2
							h-0.2c0-0.1,0-0.1,0-0.2c-0.1,0-0.2,0.2-0.3,0s0.2-0.1,0.1-0.1c-0.1-0.2-0.2-0.1-0.2-0.3c0,0,0.1,0.1,0,0.1
							c0.1-0.2-0.1-0.4,0.2-0.5c0.1,0,0.1,0,0.1,0.1l0,0c0.2,0.2-0.1-0.1,0.2-0.1c-0.1,0-0.1-0.2-0.1-0.3h-0.1
							c-0.5-0.3,0.3,0,0.2-0.3c-0.1-0.2,0,0.1-0.1,0c0-0.1,0.1-0.2,0-0.4c0.1-0.1,0.1-0.2,0.3-0.2c-0.1-0.1,0-0.4-0.1-0.5
							c-0.1,0.2,0.2,0.2,0,0.5l-0.2-0.1c0-0.2-0.1-0.4-0.1-0.5h-0.1c-0.1-0.2-0.3-0.3-0.2-0.6c0.1-0.1,0.1,0.1,0.2,0.2
							c0.1-0.2,0-0.2,0-0.4c0.1,0,0,0.2,0.1,0.2l-0.1-0.3l0,0c-0.2,0,0-0.2-0.1-0.4c-0.1-0.4-0.3-0.4-0.5-0.6c0-0.1,0.1-0.1,0.2-0.1
							c-0.1,0.1,0,0.1,0.1,0.1c0-0.1,0.2-0.3,0.3-0.3c-0.1-0.2-0.1,0.1-0.2,0v-0.3c-0.1,0-0.1,0.2-0.2,0c0-0.1,0-0.2-0.1-0.4
							c0.1,0,0.2-0.1,0.2,0c0-0.1,0-0.2-0.1-0.2c-0.1,0.2-0.1-0.3-0.3-0.1l0.1-0.2c0,0,0.1,0,0.1,0.1c0.2-0.1-0.1-0.1-0.1-0.2
							c0-0.1,0-0.2,0.1-0.3c-0.1-0.1,0-0.2,0-0.2c0-0.1-0.1,0-0.2,0V50c0.1,0,0.3-0.1,0.4-0.1c-0.1-0.1-0.3,0-0.3-0.2
							c0.1,0,0.1,0,0.1-0.1s0.1-0.1,0.2-0.1c0.1-0.2,0-0.6-0.1-0.8c-0.2-0.1,0,0.3-0.2,0.3c-0.2-0.6-0.5-0.4-0.5-0.8v0.1
							c-0.1-0.2-0.1-0.2-0.3-0.2c0.2,0,0.3-0.6,0-0.9c-0.1,0,0,0.3-0.1,0.4c-0.1-0.1-0.1-0.1-0.2-0.2c0,0,0,0,0.1,0
							c-0.2-0.1-0.2-0.5-0.4-0.3c0-0.1-0.1-0.2-0.1-0.3v0.1c-0.1,0.1-0.3,0-0.4,0c-0.3,0.1-0.4,0-0.5-0.1c0,0.1,0.1,0.2-0.1,0.3
							c0.1-0.3-0.4-0.1-0.4-0.2c-0.1,0-0.3,0-0.3,0.1v-0.2c0,0.3-0.4,0.3-0.6,0.4c0-0.2-0.1-0.2-0.2-0.1c-0.1,0-0.1,0.1-0.2-0.1
							c0,0.2-0.3,0.2-0.3,0.4c-0.1,0-0.2-0.2-0.2-0.2v0.1c-0.1-0.1-0.4,0-0.5-0.1l-0.1,0.2L26.5,48c0,0.1-0.1,0.1,0,0.2h-0.1
							c0.1,0.2-0.1,0.1-0.2,0.2v-0.1c-0.1,0-0.1-0.1-0.1-0.2c0.1,0-0.2,0.5,0.1,0.5c0,0.1-0.1,0.2-0.2,0.2l-0.1-0.2v0.2
							c-0.1,0.1-0.2-0.1-0.3,0c0.1,0,0.1-0.4-0.1-0.4c0.1-0.1,0.2-0.2,0.2-0.2c-0.1,0-0.1,0,0-0.1c-0.2,0.1,0,0.1-0.2,0.2
							c0-0.2-0.1-0.2-0.3-0.2l0.2,0.1c0,0,0,0,0,0.1c0.1,0,0.1,0,0.1,0.1c0,0-0.2,0.3-0.2,0.2c0.3,0.2-0.3,0.3-0.1,0.4
							c0,0.1-0.1,0.1-0.2,0c0.1-0.2-0.2-0.2-0.2-0.3c0,0.1,0.2,0.1,0.1,0.2c-0.1,0-0.2-0.1-0.3-0.1l0,0h-0.2c0,0.1,0.2,0.1,0.1,0.2
							c0,0-0.2,0.1-0.2,0s-0.1-0.3,0.1-0.3c-0.1,0-0.4,0.1-0.2,0.3h-0.1c0.1,0.1,0.3,0.1,0.1,0.2l0,0l-0.1,0.2L24,49.3
							c0,0,0,0.1-0.1,0.1l-0.1-0.1c-0.2,0.1-0.1,0.1-0.2,0.2c-0.1,0-0.1,0-0.1-0.1c-0.1,0-0.4,0.1-0.5,0c-0.2,0.1,0,0,0,0.2
							c-0.2-0.3-0.6,0-0.9,0.2c0.2,0.2-0.1,0.1-0.1,0.3c0-0.1-0.3-0.1-0.1-0.3l-0.2,0.1c-0.1-0.1,0.2-0.2,0-0.3
							c-0.2,0.1-0.2,0.4-0.5,0.3c0-0.2-0.1,0.1-0.1-0.1c0-0.1,0.1-0.1,0.1-0.1l0,0c-0.4,0-0.1,0.3-0.2,0.4c-0.2,0.1-0.2-0.1-0.3-0.2
							c0,0-0.2,0-0.2,0.1c0.1-0.2,0.3,0,0.3,0.2c-0.2-0.2-0.4,0.1-0.4,0.2c0.4,0.1,0.2-0.1,0.6,0.1c0-0.1,0-0.3,0.2-0.2
							c-0.1,0.1,0,0.1,0.1,0.1c-0.1-0.1,0.1-0.1,0.2-0.1c0.1,0.1,0,0.3,0.2,0.3v-0.3c0.1,0,0,0.2,0.2,0.1c-0.1,0.2,0.1,0.2-0.1,0.3
							c0.3,0.2,0.4-0.2,0.6-0.4v0.1c0-0.1,0.1-0.1,0.2-0.1c0.2,0-0.1,0.1,0,0.2l0.2-0.1l0,0c0-0.1,0.1-0.1,0.1,0s0,0.2-0.1,0.3
							l0.2-0.2c0,0.1,0.2,0.1,0.1,0.2l0.3-0.1l0.1,0.2c0.1-0.1,0.1-0.1,0-0.1c0.1,0,0.4-0.4,0.5-0.1c0.2-0.2,0.3-0.2,0.6-0.4
							c-0.2,0.2,0.3,0.1,0.1,0.3c0.2,0,0.2-0.2,0.3-0.2c0.1,0,0.1,0.2,0,0.3l0.1-0.1l0,0l0.1-0.1c0.2,0.1,0.1,0.2,0.2,0.2v-0.2
							L25,50c-0.1-0.1,0-0.1,0.1-0.2l0,0l0.1-0.1c-0.1,0.1,0.1,0,0.1,0.1c0.1,0,0.1,0,0.3-0.1l-0.1-0.1c0.2-0.2,0.1,0.2,0.3,0.1
							v-0.1c0.3,0.1,0.5-0.2,0.7-0.2c-0.1,0.1,0,0.2-0.1,0.2c0.2-0.1,0.5-0.1,0.6-0.3c0.1,0.2,0.1,0.2,0.4,0.2
							c0.1,0,0.2-0.1,0.2-0.2c0.2,0,0.4-0.1,0.4,0c0-0.1,0.1,0,0.2-0.1l0,0v-0.1c0.3,0.2,0.3-0.2,0.5,0l0,0l0.1-0.1
							c0,0.1,0,0.1,0,0.2h0.3v-0.1c0.1,0,0.1-0.2,0.2-0.1c-0.2,0.2,0.1,0,0.1,0.2l-0.1,0.1c0.1,0,0.1,0,0.1-0.2
							c0.1-0.1,0,0.3,0.1,0.1h-0.1c0-0.1,0.1-0.2,0.2-0.2v0.1c0.1,0,0.2,0.1,0.3,0.1c0,0.1-0.1,0.2-0.1,0.2c0.2,0,0,0.1,0.2,0.1
							l-0.1,0.1H30c0,0.1-0.1,0.1-0.1,0.2l0.1-0.1l0.1,0.1H30c0.1,0.1-0.1,0.3,0,0.4h-0.1c0.2,0.1-0.2,0.2,0.1,0.3h-0.1l0.1,0.1
							h-0.1c0.1,0,0.1,0,0.2,0L30,50.7h0.1c-0.3,0.2,0,0.3-0.2,0.5l0.2-0.1c0.4,0.4-0.1,1,0.2,1.5h-0.1L30,53
							c-0.1,0.1-0.1-0.1-0.2,0c0.1,0.2,0.2,0.1,0.3,0.3c-0.1,0.1-0.1,0-0.2-0.1c0.1,0.2,0.2,0.6,0.2,0.8c0,0,0,0,0.1,0
							c0.1,0.2,0,0.4,0.1,0.6c-0.1,0-0.1,0-0.1-0.1c0,0.1,0,0.2,0,0.2H30c0,0.1,0.1,0.4,0,0.5c0.1,0,0.2,0,0.2,0.1
							c-0.2,0.1,0.1,0.3,0,0.5c-0.1,0-0.1-0.2-0.1-0.1c0,0.1,0.1,0.2,0.1,0.3h-0.1l0.2,0.4c-0.2,0.1,0.1,0.4-0.1,0.4
							c0,0.2,0.1-0.1,0.1,0.1c-0.1,0.1,0.1,0.2-0.1,0.2l0,0v0.1V57c0,0.1,0.2,0.2,0.3,0.2c-0.1,0.1,0,0.3-0.1,0.4l0,0
							c0.1,0.3-0.3,0.6-0.1,0.8h-0.1v0.2h-0.1l0.2,0.3h-0.1c0,0.2,0.1,0.6,0.1,0.9l0,0c0.1,0.3,0,0.3,0,0.5l0,0v0.2h-0.1
							c0.2,0.1-0.2,0.4,0,0.3c0.1,0.1,0.2,0.2,0.3,0.2c0,0.2-0.1,0.1-0.1,0.2c0,0.2,0.1,0.2,0.1,0.4h-0.1c0,0.1,0.1,0.2,0.1,0.3l0,0
							c0.2,0.2-0.2,0.3,0.1,0.5c-0.1,0.1,0,0.3-0.1,0.3c0.1,0.3,0.2,0.5,0.2,0.8c-0.2,0.1,0,0.1-0.1,0.2h0.1c0,0.4-0.3,0.9-0.2,1.3
							h-0.1l0.1,0.1c0,0.1,0,0.3,0,0.4s0,0.1,0,0.1s0,0,0,0.1c0.1,0,0.2,0.2,0.2,0.2l0,0c0.1,0.1,0.2,0.3,0,0.2
							c0-0.1-0.1-0.1-0.1-0.1c0.1,0.2,0,0,0,0l0.1,0.1c0.1,0.1-0.1,0-0.1-0.1v0.1c0,0,0,0,0-0.1v0.1l-0.1-0.2c0,0,0,0.1,0,0.2
							c0-0.1-0.1-0.1,0-0.1l-0.1-0.1V66c0,0.1,0,0.2-0.1,0.1c0.1-0.1,0-0.2,0-0.3c-0.1,0.1,0.1,0.1,0,0.2s-0.4,0.1-0.4,0H30
							c-0.2,0-0.2-0.2-0.3-0.2c-0.1,0.1-0.2,0-0.2,0.2c-0.2,0-0.1-0.2-0.1-0.2c-0.1,0.1-0.4,0-0.4-0.1c-0.1,0.3-0.5-0.2-0.6,0.1
							l-0.1-0.2c0,0.1-0.1,0.2-0.2,0.2C28,65.7,28,65.6,28,65.5l-0.1,0.3c-0.7-0.4-1.6-0.2-2.3-0.6c-0.3,0-0.8,0.1-1.2,0l0,0
							L24,65.1l0.3,0.1c-0.1,0-0.2,0.1-0.2,0.1c-0.2-0.1-0.5-0.2-0.7-0.2s-0.1,0-0.2,0c0,0,0,0-0.1,0c-0.2,0.3,0.1-0.3-0.1-0.1
							l0.1-0.1C23,65,22.9,65,22.7,65.1c0.3-0.2,0,0,0.1-0.1h-0.4c0.1-0.1,0.1-0.1,0.2-0.1c-0.1,0-0.1,0-0.2,0h0.1c0,0,0,0,0-0.1
							l0,0v-0.1c0-0.1,0.1-0.1,0.1-0.1c-0.2-0.5-0.2-1.3-0.2-1.9c-0.1-0.1-0.1-0.3-0.2-0.4l0.1-0.2c-0.1-0.1-0.3-0.3-0.2-0.4l0,0
							c0-0.1,0-0.3-0.1-0.4c0-0.2,0.1-0.3,0.2-0.3c-0.3,0,0-0.4,0-0.4s0-8.5-1.6-10.5c-0.1-0.1-0.2-0.2-0.4-0.2
							c-0.1-0.1,0.2-0.2,0-0.2c-0.1,0.2-0.3,0-0.5,0.2v-0.1c-0.1,0,0.1,0.2,0,0.1h0.2c0,0.1-0.1,0.2-0.1,0.2
							c0.1,0.1,0.4,0.1,0.3,0.4v-0.1c0,0.2-0.1,0.1-0.2,0.2l0,0l-0.1,0.2c0.1-0.1-0.1-0.3-0.1-0.2c0,0.2,0.1-0.1,0.1,0.1
							c0,0.1-0.1,0.1-0.2,0.1V51c-0.1,0,0-0.1-0.1,0l0.1,0.2c-0.3,0.1,0.2,0.2-0.1,0.4c-0.1-0.2-0.1,0-0.2,0V52c0,0-0.1-0.1-0.1,0
							c-0.1,0.1,0.1,0.1,0.1,0.2c-0.1,0,0,0.3-0.2,0.3c-0.1,0.3,0.2,0.1,0.2,0.4c-0.1,0,0-0.2-0.1-0.1l0.1,0.3c-0.1,0-0.2,0-0.2-0.1
							c-0.1,0.7-0.6,1.2-0.4,1.9c-0.1,0.1-0.1-0.1-0.2-0.1c0.2,0.5-0.2,0.7-0.2,1.1h0.1c-0.3,0.6,0,1.3-0.1,2l0.1-0.1
							c0.1,0.1,0.1,0.2,0.2,0.3c-0.1,0-0.2-0.1-0.2,0.1l0.1-0.1c-0.2,0.6-0.1,1.8-0.1,2.7c0.2,1.2,0.1,2.6,0.2,3.8
							c0-0.2,0.2-0.1,0.2,0c-0.2,0.2-0.2,0.4-0.1,0.5c0,0.1,0.1,0.2,0.1,0.3c0,0.1,0,0.3-0.1,0.5c0.1,0.7,0.2,1.3,0.5,1.8
							s0.8,0.9,1.4,1v0.1c0.1,0.1,0.2,0,0.4,0.1l0,0c0.4,0.2,1.1,0.1,1.3,0.1v-0.1c0.1,0,0.1,0.1,0.2,0.1v0.1l0.2-0.1
							c0,0.2,0.4,0.1,0.5,0.2c0.2,0,0.6-0.1,0.8,0c0,0.1,0.4,0.2,0.6,0.3c0.4,0,1.1,0,1.6,0.1v-0.2h0.1v0.1c0.1,0.2,0.3,0,0.4,0.1
							c-0.1-0.2-0.1,0-0.2,0c-0.1-0.1,0-0.2,0.2-0.1l0,0l0.1-0.1c0,0.1,0.1,0.2,0.1,0.3c0.5,0,0.8-0.2,1.3-0.1
							c-0.1,0.1,0.4,0,0.2,0.2c0.3-0.1,0-0.2,0.1-0.4c0.1,0,0.2,0,0.2,0c0,0.1,0.1,0.2,0,0.2h0.2c0,0,0,0.1-0.1,0.1
							c0.1,0,0.2,0,0.3,0c0.1,0,0.2,0.1,0.3,0.1c0.3,0.1,0.7,0.1,1,0.1c0-0.1-0.3-0.1-0.2-0.1c0.6-0.1,0.6,0.2,1.2,0.2l-0.1,0.1
							c0.2-0.1,0.2-0.2,0.6,0c0.1,0.2-0.2,0.1-0.4,0.2c0.2,0,0.8,0,0.6-0.1c0.2,0,0.4,0.1,0.6,0.2c0,0-0.3-0.1-0.2-0.2
							c0.2,0.1,0.5,0.1,0.7,0.1h0.4c0-0.1,0-0.2,0-0.4l0.1,0.1C34.1,69,34.4,69.4,34.3,68.8z"/>
						<path class="st1" d="M32.7,53.8L32.7,53.8L32.7,53.8L32.7,53.8z"/>
						<path class="st1" d="M33.1,58.6C33.1,58.6,33.2,58.6,33.1,58.6C33.2,58.6,33.1,58.6,33.1,58.6z"/>
						<path class="st1" d="M33.5,59.7C33.5,59.6,33.4,59.7,33.5,59.7C33.4,59.7,33.4,59.7,33.5,59.7z"/>
						<path class="st1" d="M32,51.1C32,51.2,32,51.2,32,51.1L32,51.1z"/>
						<path class="st1" d="M25.7,48.2L25.7,48.2L25.7,48.2z"/>
						<path class="st1" d="M26.2,48.3L26.2,48.3C26.2,48.2,26.2,48.2,26.2,48.3z"/>
						<path class="st1" d="M32.3,52.9C32.3,53,32.3,53,32.3,52.9C32.3,53,32.3,52.9,32.3,52.9z"/>
						<path class="st1" d="M26.3,48.2h0.1C26.4,48.2,26.4,48.1,26.3,48.2L26.3,48.2z"/>
						<path class="st1" d="M25.6,48.2h0.1C25.7,48.1,25.6,48.1,25.6,48.2z"/>
						<path class="st1" d="M31,48L31,48C31.1,48.1,31,48,31,48z"/>
						<path class="st1" d="M26.7,47.8L26.7,47.8L26.7,47.8L26.7,47.8z"/>
						<path class="st1" d="M25.1,48.2C25.2,48.2,25.2,48.2,25.1,48.2C25.2,48.2,25.1,48.2,25.1,48.2L25.1,48.2z"/>
						<path class="st1" d="M29.1,47.3c0,0.1-0.1,0.1-0.1,0.1C29.1,47.5,29.2,47.4,29.1,47.3z"/>
					</g>
				</g>
			</g>
		</g>
	</g>
	<g>
		<g>
			<g>
				<g>
					<g>
						<path class="st1" d="M53.4,27.7L53.4,27.7L53.4,27.7z"/>
						<path class="st1" d="M51.1,29.4L51.1,29.4L51.1,29.4z"/>
						<path class="st1" d="M54.7,26.6L54.7,26.6L54.7,26.6L54.7,26.6z"/>
						<path class="st1" d="M46.5,33.3L46.5,33.3C46.5,33.2,46.5,33.2,46.5,33.3z"/>
						<path class="st1" d="M49.3,31C49.3,31,49.3,31.1,49.3,31C49.3,31.1,49.3,31.1,49.3,31z"/>
						<path class="st1" d="M56.3,26.9L56.3,26.9L56.3,26.9z"/>
						<path class="st1" d="M57.2,25.4L57.2,25.4L57.2,25.4z"/>
						<path class="st1" d="M56.5,25.6C56.5,25.7,56.5,25.7,56.5,25.6C56.5,25.7,56.5,25.7,56.5,25.6z"/>
						<path class="st1" d="M56.5,25.7L56.5,25.7L56.5,25.7z"/>
						<path class="st1" d="M30.9,48.6c0,0,0,0.1,0,0.2V48.6z"/>
						<path class="st1" d="M42.5,36.9L42.5,36.9L42.5,36.9z"/>
						<path class="st1" d="M31.4,49.2L31.4,49.2L31.4,49.2z"/>
						<path class="st1" d="M55.9,27.8c0,0.1-0.1,0.1-0.1,0.2C55.9,27.9,56,27.9,55.9,27.8z"/>
						<path class="st1" d="M44.1,40.3L44.1,40.3L44.1,40.3z"/>
						<path class="st1" d="M31.4,49.2L31.4,49.2L31.4,49.2L31.4,49.2z"/>
						<polygon class="st1" points="38.3,40.8 38.3,40.8 38.3,40.7 						"/>
						<path class="st1" d="M38,40.9L38,40.9C38,40.8,38,40.8,38,40.9z"/>
						<path class="st1" d="M30.9,48.8L30.9,48.8C30.9,48.8,30.9,48.8,30.9,48.8z"/>
						<path class="st1" d="M35.7,43.2L35.7,43.2L35.7,43.2z"/>
						<path class="st1" d="M49.5,30.9L49.5,30.9L49.5,30.9z"/>
						<path class="st1" d="M49.6,34.2L49.6,34.2L49.6,34.2z"/>
						<path class="st1" d="M49.6,34.1c0,0,0,0.1,0,0.2C49.6,34.2,49.6,34.2,49.6,34.1z"/>
						<path class="st1" d="M49.4,34.4L49.4,34.4L49.4,34.4z"/>
						<path class="st1" d="M51.2,32.8L51.2,32.8L51.2,32.8z"/>
						<path class="st1" d="M50.9,33.2L50.9,33.2L50.9,33.2z"/>
						<path class="st1" d="M48.7,35.4L48.7,35.4L48.7,35.4z"/>
						<path class="st1" d="M45.9,39c0.3-0.3,0.6-0.9,1-1.2c-0.1-0.2,0-0.3,0.1-0.4l0.2,0.2v-0.1c0.1,0,0,0.1,0.1,0.1l-0.1-0.1
							c0.1,0.1,0.3-0.2,0.2,0.1l0.3-0.3c0.1-0.1-0.1-0.2,0-0.2s0,0.1,0.1,0.1c0.4-0.1-0.1-0.6,0.3-0.8l0,0c0-0.1,0.1-0.2,0-0.2
							c-0.2-0.2,0.1,0.1-0.1,0.1c-0.1-0.2,0-0.2-0.1-0.3c0.1,0,0.1-0.1,0.1-0.2c0.2,0,0.2-0.2,0.4-0.1c0-0.1-0.1-0.3,0-0.4
							c0.2,0.1,0.1,0.1,0.2,0.1l-0.1-0.1c0.1-0.1,0.1,0,0.1,0c0.1-0.1-0.1-0.2,0.1-0.2v0.1c0-0.1,0.1-0.1,0.2-0.2c0,0.1,0,0.1,0,0.1
							c0.2,0.1,0-0.1,0.1-0.2c0,0-0.1,0-0.2-0.1c0.1,0,0-0.2,0.1-0.1v0.1c0-0.2-0.1-0.2,0.1-0.2c0,0,0,0,0,0.1
							c0-0.2,0.2-0.2,0.3-0.3l0,0c0-0.1,0-0.2,0-0.2c-0.1,0-0.1,0-0.2-0.1c0.2,0.1,0-0.3,0.2-0.3c0,0.1,0.1,0.1,0,0.1
							c0.1,0.2,0.2,0.3,0.2,0.5c0-0.1,0-0.2,0.1-0.1l-0.1-0.2c0,0,0.1,0,0.1-0.1c-0.1-0.1-0.2-0.1-0.2-0.2c0-0.1,0.2,0.1,0.1,0
							c0-0.2-0.1-0.2,0-0.2v0.1c0.1,0,0.2-0.2,0.3,0c0,0,0.1,0.1,0,0.1l0,0c0,0.2,0-0.1,0.2,0.1c-0.1-0.1,0-0.2,0.1-0.2l-0.1,0
							c-0.2-0.5,0.2,0.2,0.3,0c0-0.2-0.1,0-0.1-0.1c0.1,0,0.2,0,0.2-0.1c0.1,0,0.2,0,0.3,0.1c0-0.1,0.2-0.1,0.1-0.3
							c-0.2,0,0,0.2-0.2,0.2l-0.1-0.1c0.1-0.1,0.1-0.2,0.2-0.2c0,0-0.1,0-0.1-0.1c0.1-0.2,0-0.3,0.1-0.4c0.1,0.1,0,0.1,0,0.2
							c0.2,0,0.1-0.1,0.2-0.1c0.1,0.1-0.1,0.1,0,0.2l0.1-0.1l0,0c-0.1-0.2,0.1-0.1,0.1-0.2c0.2-0.2,0-0.4,0-0.6c0.1,0,0.1,0,0.1,0.1
							c-0.1,0,0,0,0,0.1c0-0.1,0.3,0,0.3,0.1c0.1-0.1-0.1,0-0.1-0.2l0.1-0.1c-0.1-0.1-0.2,0-0.1-0.2c0-0.1,0.1-0.1,0.2-0.2l0.1,0.1
							c0.1,0,0.1-0.1,0.1-0.2c-0.1,0,0.1-0.2-0.1-0.3h0.1v0.1c0.1,0.1,0-0.1,0-0.1c0.1,0,0.1-0.1,0.2,0c0-0.1,0.1-0.1,0.2,0
							c0-0.1-0.1-0.1-0.1-0.1l0.1-0.1c0.1,0.1,0.3,0.2,0.3,0.3c0-0.1-0.2-0.2-0.1-0.3c0.1,0.2,0.2,0,0.3,0.2
							c0.1,0.1,0.2-0.1,0.3-0.2c-0.1-0.1-0.1,0-0.2-0.1c0.1-0.2-0.1-0.5,0.1-0.6h-0.1c0-0.1,0-0.1,0-0.3c0.1,0.1,0.4,0.2,0.5,0.1
							c-0.1-0.1-0.2,0-0.3-0.2l0.1-0.1c0,0,0,0,0,0.1c0-0.1,0.3,0,0.2-0.2l0.3,0.1h-0.1c-0.1-0.1,0-0.2,0-0.2c0-0.2,0.1-0.1,0.2-0.1
							c-0.1,0-0.2-0.1-0.2-0.2c0.2,0.2,0.2-0.1,0.3,0c0,0,0.1,0,0.1-0.1l0.1,0.1c-0.2-0.2-0.1-0.3,0-0.4c0.2,0.3,0.1-0.1,0.3,0.1
							c-0.2-0.2,0.1-0.2,0-0.4c0.1-0.1,0.2,0.1,0.3,0.1v-0.1c0.1,0,0.2-0.1,0.4-0.1l0-0.1h0.1c0,0,0-0.1-0.1-0.1l0,0
							c-0.2-0.2,0-0.1,0-0.2c0,0,0.1,0,0.1,0.1c0,0,0.1,0.1,0.2,0.1c-0.1,0-0.2-0.4-0.3-0.4c-0.1-0.1-0.1-0.2,0-0.2l0.2,0.1
							l-0.1-0.2c0-0.1,0.1,0,0.2,0c0,0.1,0.2,0.4,0.3,0.2c0,0.1,0,0.2,0,0.3c0,0,0.1,0,0.1,0.1c0-0.1-0.1-0.1,0-0.2
							c0.1,0.1,0.2,0.1,0.3,0.1h-0.2l0,0h-0.1c0,0-0.1-0.3,0-0.2c-0.3-0.1,0-0.3-0.2-0.4c0,0,0-0.1,0.1-0.1c0,0.2,0.2,0.1,0.3,0.2
							c0-0.1-0.2,0-0.2-0.1s0.1,0,0.2,0l0,0H56c-0.1-0.1-0.2,0-0.1-0.1c0,0,0.1-0.1,0.1,0c0.1,0.1,0.2,0.2,0.2,0.3
							c0-0.1,0.2-0.2,0-0.3l0.1-0.1c-0.1,0-0.3,0-0.2-0.1l0,0v-0.2h0.1c0,0-0.1-0.1,0-0.1c0,0,0.1,0,0.1,0.1c0.1-0.1,0-0.1,0-0.2
							s0.1,0,0.1,0c0.1,0,0.2-0.2,0.3-0.2c0-0.1,0,0-0.1-0.1c0.3,0.1,0.4-0.2,0.5-0.4c-0.2-0.1,0-0.1-0.1-0.3c0,0.1,0.3,0,0.2,0.2
							V26c0.2,0,0,0.2,0.2,0.3c0.1-0.1-0.1-0.4,0.1-0.4c0.1,0.2,0-0.1,0.2,0c0,0.1,0,0.1,0,0.1l0,0c0.2-0.2-0.1-0.2-0.1-0.4
							c0.1-0.1,0.2,0,0.3,0.1l0.1-0.1c0,0.2-0.2,0-0.3-0.1c0.2,0.1,0.2-0.2,0.1-0.2c-0.3,0-0.1,0.1-0.4,0.1c0,0.1,0.2,0.2,0,0.2
							c0-0.1-0.1-0.1-0.1-0.1c0.1,0.1,0,0.1,0,0.2c-0.1,0-0.1-0.2-0.3-0.2l0.2,0.2c-0.1,0-0.1-0.1-0.2,0c-0.1-0.1-0.2-0.1-0.1-0.3
							c-0.3,0-0.1,0.3-0.1,0.4c0,0,0,0,0-0.1c0,0.1,0,0.1,0,0.1c-0.1,0,0-0.1-0.1-0.2l-0.1,0.1l0,0c0,0.1,0,0.1-0.1,0.1
							c0-0.1-0.1-0.2-0.1-0.2v0.2c-0.1-0.1-0.2,0-0.2-0.1L56,25.9l-0.1-0.1c0,0.1,0,0.1,0.1,0.1c-0.1,0,0,0.5-0.2,0.2
							c0,0.2-0.1,0.2-0.2,0.4c0-0.2-0.3,0-0.2-0.2c-0.1,0,0,0.2,0,0.2c-0.1,0-0.2-0.1-0.2-0.2v0.1l0,0v0.1c-0.1,0-0.1-0.1-0.2-0.1
							l0.1,0.1H55c0.1,0,0.1,0.1,0,0.1l0,0v0.1c0-0.1-0.1,0-0.1-0.1c-0.1,0-0.1,0-0.1,0.2l0.1,0.1c0,0.2-0.1-0.1-0.2,0l0.1,0.1
							c-0.3,0-0.1,0.3-0.3,0.3c0-0.1-0.1-0.2-0.1-0.1s-0.2,0.2-0.2,0.4c-0.2-0.1-0.2-0.1-0.4-0.1c-0.1,0.1-0.1,0.1,0,0.2
							c-0.1,0-0.2,0.2-0.3,0.1c0.1,0.1-0.1,0,0,0.1l0,0l0.1,0.1c-0.3-0.1-0.1,0.3-0.4,0.2l0,0v0.1l-0.1-0.1l-0.2,0.2H53
							c0,0.1,0,0.2-0.1,0.2c-0.1-0.2-0.1,0.1-0.2,0v-0.1c-0.1,0.1-0.1,0.1,0,0.2c0,0.1-0.2-0.1-0.2,0.1l0.1-0.1
							c0.1,0,0.1,0.1,0.1,0.2c0,0-0.1,0-0.1-0.1c0,0.1-0.2,0.2-0.2,0.2c-0.1,0-0.1-0.1-0.1-0.1c-0.1,0.2-0.1,0-0.1,0.3v-0.1v0.1H52
							h0.1c0,0.1,0,0.1-0.1,0.1l-0.1-0.1c-0.1,0.2-0.3,0-0.3,0.2c0,0,0,0,0-0.1c0,0.2-0.2,0-0.2,0.2l-0.1-0.1v0.1L51,29.4l0.1,0.2
							L51,29.5v0.1c-0.3-0.1-0.2,0.1-0.4,0l0.1,0.1c0.1,0.5-0.6,0.3-0.7,0.6l0,0v0.2c-0.1,0-0.1-0.1-0.1-0.2c0,0.2,0.1,0.2,0,0.3
							c-0.1,0-0.1-0.1-0.1-0.2c-0.1,0.2-0.2,0.4-0.3,0.4l0,0c0,0.1-0.2,0.2-0.2,0.3V31c0,0-0.1,0-0.1,0.1L49.1,31
							c-0.1,0-0.1,0.2-0.2,0.2c0,0,0.1,0.1,0.1,0.2c-0.2-0.1-0.1,0.2-0.3,0.2v-0.1c-0.1,0-0.1,0.1,0,0.2l-0.1-0.1l-0.1,0.3
							c-0.2-0.1-0.2,0.2-0.3,0.1c-0.1,0.1,0.1,0,0.1,0.1c-0.1,0-0.1,0.1-0.1,0l0,0l-0.1,0.1L48,32c0,0.1,0,0.2,0.1,0.3
							c-0.1,0-0.1,0.1-0.3,0l0,0c-0.1,0.2-0.5,0-0.5,0.2l0,0l-0.1,0.1l-0.1-0.1v0.3v-0.1c-0.1,0.1-0.3,0.3-0.4,0.4l0,0
							c-0.1,0.2-0.2,0.1-0.2,0.2l0,0l-0.1,0.1v-0.1c0,0.2-0.3,0-0.2,0.1c0,0.1,0,0.2,0,0.3c-0.1,0.1-0.1,0-0.2,0
							c-0.1,0.1,0,0.2-0.2,0.2v-0.1c0,0.1,0,0.1-0.1,0.2l0,0c0,0.2-0.3,0-0.1,0.3c-0.1,0-0.1,0.1-0.2,0c-0.1,0.2-0.1,0.3-0.2,0.5
							c-0.2-0.2,0,0-0.2,0l0.1,0.1c-0.2,0.2-0.6,0.2-0.8,0.4l-0.1-0.1l0.1,0.1c-0.3,0.2-0.6,0.4-0.8,0.6c0,0.1,0,0.3-0.1,0.4l0,0
							c-0.1,0.2-0.2,0.4-0.5,0.5l-0.1-0.1c0.1,0.1-0.1,0.1-0.1,0.1h0.1c0,0.1-0.1,0.1-0.2,0.1v0.2c0,0,0,0-0.1,0v0.1l-0.2-0.1
							c0,0-0.1,0.2,0,0.3c0,0-0.1,0-0.1-0.1l-0.3,0.2H42c0.1,0.1,0.1,0.2,0,0.2c0-0.1-0.1-0.1-0.2-0.2c0,0.1,0.1,0.1,0.1,0.1
							c0,0.1-0.1,0.2-0.1,0.2v-0.1c0,0.1-0.2,0-0.3,0c0,0.1-0.1,0.1,0.1,0.3c-0.1,0.1-0.1-0.1-0.2-0.1c0,0.1-0.1,0.2-0.2,0.1
							c0.2,0.3-0.3,0.1-0.1,0.3h-0.2c0,0.1,0.1,0.2,0.1,0.3c-0.1,0-0.2-0.1-0.2-0.2l0.1,0.2c-0.5,0.1-0.8,0.6-1.3,0.7
							c-0.1,0.2-0.2,0.5-0.4,0.6l0,0L39,40h0.2c0,0.1,0,0.1-0.1,0.2c-0.3,0.1-0.6,0.2-0.8,0.6c0.1,0.4-0.3-0.1-0.3,0.2v-0.1
							c-0.1,0.2-0.1,0.3-0.2,0.6c-0.2-0.2-0.1,0.1-0.2,0l0.1,0.1c-0.1,0-0.2,0-0.2,0v0.2l-0.1-0.1c-0.1,0.1-0.2,0.3-0.5,0.2
							c-0.1,0.4-0.5,0.7-0.8,0.9c0,0.1,0,0.2-0.1,0.3h-0.2c0,0.1,0,0.3-0.1,0.3l0,0c0,0.1-0.2,0.1-0.1,0.3c-0.1,0.1-0.2,0.1-0.3-0.1
							c0.2,0.2-0.2,0.1-0.2,0.1S34,44.3,33,45.3c-1.1,1-2.1,2.3-2.1,3.3c0.1,0.1,0,0.3,0.2,0.3c0,0.1-0.2,0-0.1,0.1
							c0.1,0,0.2,0.3,0.4,0.3v0.1c0.1,0.1,0-0.1,0.1,0l-0.1-0.2c0.1,0,0.1,0,0.2,0c0-0.1-0.2-0.4,0-0.4l0,0c0.1-0.1,0.2,0.1,0.2,0.1
							l0,0H32c-0.1,0-0.1,0.2,0,0.2c0.1,0-0.1,0,0-0.1c0-0.1,0.1,0,0.2,0.1l0.1-0.1c0.1,0.1-0.1,0,0.1,0.1v-0.2
							c0.2,0.2,0-0.2,0.3-0.1c0,0.1,0.1,0.1,0.1,0.1l0.2-0.2v0.1c0.1,0,0-0.1,0-0.1c0.1,0,0.1-0.1,0.3,0c0.2,0-0.1-0.2,0.1-0.3
							c0.1,0.1-0.1,0.1,0.1,0.1l0.1-0.1c0,0,0.1,0.2,0,0.2c0.4-0.2,1,0,1.2-0.4c0.1,0.1,0,0.1,0.1,0.2c0.1-0.3,0.5-0.1,0.7-0.3
							L35,48.2c0.5,0,0.7-0.4,1.1-0.6H36c0-0.1,0-0.2,0-0.3c0,0,0.1,0.2,0.2,0.1c0,0-0.1,0-0.1-0.1c0.4,0,0.9-0.6,1.4-0.9
							c0.5-0.6,1.3-1,1.8-1.6c-0.1,0.1-0.2-0.1-0.1-0.2c0.5,0.2,0.3-0.3,0.6-0.3c0.2-0.4,0.8-0.4,0.8-0.9l0.1,0.1
							c0.1,0,0-0.1,0.1-0.1l0,0c0.1-0.1,0.2-0.3,0.3-0.3l-0.1,0c0.1-0.1,0.1,0,0.1-0.1v0.1v-0.2c0.2,0.2,0.2-0.2,0.3-0.1
							c0.1-0.1,0.1-0.3,0.3-0.4c0.1,0.1,0.3-0.1,0.4-0.1c0.2-0.2,0.4-0.5,0.7-0.7l-0.1-0.1l0.1-0.1c0,0,0,0,0,0.1
							c0.2,0.1,0.1-0.2,0.2-0.1c-0.1-0.1-0.1,0-0.1,0.1c-0.1,0-0.2-0.2,0-0.2l0,0v-0.1c0.1,0.1,0.2,0.1,0.3,0.2
							c0.2-0.2,0.2-0.5,0.5-0.7c0.1,0.1,0.1-0.2,0.3,0c0.1-0.2-0.2-0.1-0.2-0.3c0,0,0-0.1,0.1-0.1c0,0.1,0.1,0.1,0.1,0.1l0.1-0.1
							c0,0,0,0,0,0.1c0.1-0.3,0.4-0.2,0.5-0.4c0-0.1-0.1,0-0.1,0c0-0.3,0.3,0,0.3-0.3l0.1,0.1c0-0.1-0.1-0.2,0.1-0.2
							c0.1,0.1,0,0.2,0,0.2c0.1,0,0.2-0.2,0-0.3c0-0.1,0.1,0,0.2,0c0,0-0.1,0-0.1-0.1c0.1,0,0.3-0.2,0.4-0.3l0.1,0.1
							C45.6,38.9,45.8,39.1,45.9,39z"/>
						<path class="st1" d="M51.3,32.8L51.3,32.8C51.3,32.9,51.3,32.9,51.3,32.8L51.3,32.8z"/>
						<path class="st1" d="M49.1,34.8L49.1,34.8L49.1,34.8z"/>
						<path class="st1" d="M48.8,35.5C48.8,35.4,48.7,35.4,48.8,35.5C48.7,35.4,48.7,35.5,48.8,35.5z"/>
						<path class="st1" d="M52.2,31.4L52.2,31.4L52.2,31.4z"/>
						<path class="st1" d="M55.5,28.1L55.5,28.1L55.5,28.1z"/>
						<path class="st1" d="M55.2,28.2L55.2,28.2L55.2,28.2z"/>
						<path class="st1" d="M51.5,32.2L51.5,32.2L51.5,32.2z"/>
						<polygon class="st1" points="55.2,28.3 55.1,28.3 55.1,28.3 						"/>
						<path class="st1" d="M55.6,28.1L55.6,28.1L55.6,28.1z"/>
						<path class="st1" d="M53.3,30L53.3,30C53.3,30.1,53.3,30.1,53.3,30z"/>
						<path class="st1" d="M55.1,28.7L55.1,28.7L55.1,28.7z"/>
						<path class="st1" d="M55.8,27.9C55.8,27.9,55.8,28,55.8,27.9C55.8,28,55.8,28,55.8,27.9L55.8,27.9z"/>
						<path class="st1" d="M54.1,29.5c0-0.1,0-0.1-0.1-0.1C54,29.4,54,29.4,54.1,29.5z"/>
					</g>
				</g>
			</g>
		</g>
	</g>
	<g>
		<g>
			<g>
				<g>
					<g>
						<path class="st1" d="M62.9,71.5L62.9,71.5L62.9,71.5z"/>
						<path class="st1" d="M62.9,67.2L62.9,67.2C63,67.3,63,67.2,62.9,67.2z"/>
						<path class="st1" d="M62.9,74.1L62.9,74.1c0,0,0,0.1,0,0.2V74.1z"/>
						<path class="st1" d="M62.6,58.2L62.6,58.2L62.6,58.2z"/>
						<path class="st1" d="M62.8,63.5C62.8,63.5,62.7,63.5,62.8,63.5C62.7,63.5,62.7,63.5,62.8,63.5z"/>
						<path class="st1" d="M61.7,75.5L61.7,75.5L61.7,75.5z"/>
						<path class="st1" d="M62.3,78.1L62.3,78.1L62.3,78.1z"/>
						<path class="st1" d="M62.6,77C62.6,77,62.5,77,62.6,77C62.5,77,62.5,77,62.6,77z"/>
						<path class="st1" d="M62.5,76.9L62.5,76.9C62.5,77,62.5,76.9,62.5,76.9z"/>
						<path class="st1" d="M58.5,25.4c0-0.1-0.1-0.1-0.2-0.2L58.5,25.4z"/>
						<path class="st1" d="M61.9,50L61.9,50C62,50,62,49.9,61.9,50z"/>
						<path class="st1" d="M57.7,25.4L57.7,25.4L57.7,25.4z"/>
						<path class="st1" d="M61.3,74.2c-0.1-0.1,0-0.2-0.1-0.2C61.2,74.1,61.2,74.2,61.3,74.2z"/>
						<path class="st1" d="M58.3,48.6L58.3,48.6C58.3,48.5,58.3,48.5,58.3,48.6z"/>
						<path class="st1" d="M57.7,25.4L57.7,25.4L57.7,25.4L57.7,25.4z"/>
						<path class="st1" d="M61.1,41.4L61.1,41.4L61.1,41.4z"/>
						<path class="st1" d="M61.2,40.9C61.2,41,61.2,41,61.2,40.9C61.3,41,61.2,41,61.2,40.9z"/>
						<path class="st1" d="M58.3,25.2l-0.1-0.1C58.3,25.1,58.3,25.1,58.3,25.2z"/>
						<path class="st1" d="M60.5,36.1L60.5,36.1L60.5,36.1z"/>
						<path class="st1" d="M62.8,63.9C62.7,63.9,62.7,63.9,62.8,63.9L62.8,63.9z"/>
						<path class="st1" d="M60,60.7L60,60.7L60,60.7z"/>
						<path class="st1" d="M60.1,60.9c0-0.1-0.1-0.1-0.1-0.2C60,60.8,60,60.8,60.1,60.9z"/>
						<path class="st1" d="M60,60.3L60,60.3C60,60.4,60,60.4,60,60.3z"/>
						<path class="st1" d="M60.1,64L60.1,64L60.1,64z"/>
						<path class="st1" d="M60.1,63.3C60.1,63.3,60.1,63.2,60.1,63.3C60.1,63.2,60.1,63.2,60.1,63.3z"/>
						<path class="st1" d="M59.6,58.6L59.6,58.6L59.6,58.6z"/>
						<path class="st1" d="M58.3,51.9c0.1,0.7,0.4,1.5,0.4,2.2c0.2,0.1,0.2,0.3,0.3,0.6h-0.3l0.1,0.2c-0.1,0.1-0.1-0.1-0.1,0
							l0.2,0.1c-0.1,0,0,0.5-0.2,0.2l0.1,0.7c0,0.2,0.2,0.1,0.2,0.2c-0.1,0-0.1-0.1-0.1,0c-0.1,0.5,0.5,0.5,0.5,1l0,0
							c0.1,0.1,0.1,0.2,0.1,0.2c0.3-0.1-0.1-0.1,0-0.2c0.2,0,0.1,0.2,0.3,0.1c-0.1,0.1,0.1,0.2,0.1,0.3c-0.1,0.2,0,0.4-0.2,0.5
							c0.1,0.1,0.3,0.1,0.3,0.3c-0.2,0.1-0.2,0-0.2,0.2h0.1c0,0.1,0,0.1-0.1,0.1c0,0.1,0.2,0.1,0.1,0.3l-0.1-0.1
							c0.1,0.1,0,0.2,0,0.4c-0.1,0-0.1-0.1-0.1-0.1c-0.2,0.1,0.1,0.2,0.1,0.2c0.1,0,0.1-0.2,0.2-0.1c0,0.1,0.2,0.2,0,0.3l-0.1-0.1
							c0.1,0.2,0.2,0.1,0.1,0.3c0,0,0,0-0.1,0c0.2,0.1,0,0.3,0.1,0.5l0,0c0,0.1,0.2,0.1,0.2,0.2c0.1-0.1,0.1-0.1,0.2-0.1
							c-0.2,0.2,0.3,0.2,0.2,0.5c-0.1,0-0.2-0.1-0.1-0.1c-0.2-0.1-0.4-0.1-0.5-0.2c0.1,0.1,0.1,0.2,0,0.2h0.2c0,0.1,0,0.1,0,0.2
							c0.1,0,0.2-0.1,0.3,0c0.1,0.2-0.2,0.1-0.1,0.1c0.1,0.2,0.2,0.1,0.2,0.3c0,0-0.1-0.1,0-0.1c-0.1,0.2,0.1,0.4-0.2,0.4
							c-0.1,0-0.1,0-0.1-0.1l0,0c-0.2-0.1,0.1,0.1-0.2,0.1c0.1,0,0.1,0.2,0.1,0.3h0.1c0.5,0.3-0.3,0-0.2,0.3c0.1,0.2,0-0.1,0.1,0
							c0,0.1-0.1,0.2-0.1,0.4c-0.1,0.1-0.1,0.2-0.3,0.2c0.1,0.1,0,0.4,0.1,0.4c0.1-0.2-0.2-0.2,0-0.4l0.2,0.1c0,0.2,0.1,0.4,0.1,0.5
							h0.1c0.1,0.2,0.2,0.3,0.2,0.5c-0.1,0-0.1-0.1-0.2-0.2c-0.1,0.2,0,0.2,0,0.4c-0.1,0,0-0.2-0.1-0.2l0.1,0.2l0,0
							c0.2,0,0,0.2,0.1,0.3c0,0.4,0.3,0.4,0.5,0.6c-0.2,0-0.3,0-0.3,0c0.1-0.1,0-0.1,0-0.1c0,0.1-0.2,0.3-0.3,0.2
							c0.1,0.2,0.1-0.1,0.2,0v0.3c0.1,0,0.1-0.1,0.2,0c0,0.1,0,0.2,0,0.3c-0.1,0-0.2,0.1-0.2-0.1c0,0.1,0,0.2,0.1,0.2
							c0.1-0.2,0.1,0.3,0.3,0.1l-0.1,0.2c0,0-0.1,0-0.1-0.1c-0.2,0.1,0.1,0.1,0.1,0.2s0,0.2-0.1,0.2c0.1,0,0,0.2-0.1,0.2
							c0,0.1,0.1,0,0.2,0v0.3c-0.1,0-0.3,0.1-0.4,0c0.1,0.1,0.3,0,0.3,0.2c-0.2-0.1-0.1,0.2-0.3,0.1c-0.1,0.1-0.1,0.4,0,0.5
							s0.1-0.2,0.2-0.2C60.7,68,61,68,61,68.3v-0.1c0.1,0.2,0.1,0.2,0.2,0.2c-0.2,0-0.5,0.2-0.4,0.5c0.1,0,0.2-0.2,0.3-0.1V69
							c0,0,0,0-0.1,0c0.1,0.2-0.2,0.3,0,0.4l-0.2,0.2l0.1-0.1c0.1,0,0.1,0.2,0.2,0.2c0.1,0.2,0,0.3-0.1,0.4c0.1,0,0.2-0.1,0.3,0
							c-0.3,0-0.1,0.3-0.2,0.3c0,0.1-0.1,0.2,0,0.2h-0.2c0.3,0,0.3,0.2,0.3,0.4c-0.3,0,0,0.2-0.3,0.3c0.2,0,0.1,0.3,0.3,0.3
							c0,0.1-0.2,0.1-0.3,0.2l0.1,0.1c-0.1,0.1-0.1,0.3-0.2,0.5l0.2,0.1l-0.1,0.1c0.1,0,0.1,0.1,0.2,0.1v0.1c0.2,0,0.1,0.1,0.2,0.2
							h-0.1c0,0.1-0.1,0.1-0.2,0.1c0.1-0.1,0.4,0.2,0.5,0c0.1,0,0.2,0.1,0.1,0.2l-0.2,0.1l0.2,0.1c0,0.1-0.1,0.2-0.1,0.3
							c0-0.1-0.4-0.2-0.4,0.1c0-0.1-0.2-0.2-0.2-0.2c0,0.1,0,0.1-0.1,0c0.1,0.2,0.1,0.1,0.2,0.2c-0.2,0-0.2,0.1-0.3,0.2l0.1-0.1
							c0,0,0,0,0.1,0c0,0,0-0.1,0.1-0.1c0,0,0.2,0.2,0.1,0.2c0.3-0.2,0.2,0.3,0.4,0.2c0.1,0,0.1,0.2,0,0.2c-0.2-0.1-0.2,0.1-0.3,0.1
							c0.1,0.1,0.1-0.1,0.2-0.1c0,0.1-0.1,0.2-0.1,0.2l0,0l-0.1,0.2c0.1,0,0.1-0.2,0.2,0v0.2c-0.1-0.1-0.3,0-0.3-0.1
							c0,0.1,0.1,0.4,0.2,0.3v0.1c0.1-0.1,0.2-0.3,0.2-0.1l0,0l0.2,0.1l-0.1,0.1c0,0,0.1,0,0.1,0.1c-0.1,0-0.1,0.1-0.1,0.1
							c0,0.2,0.1,0.2,0.2,0.2c0,0.1,0,0.1-0.1,0.1c0,0.1,0,0.4-0.1,0.5c0.1,0.2,0,0,0.2,0.1c-0.3,0.2-0.1,0.6,0,0.9
							c0.3-0.1,0,0.1,0.3,0.1c-0.1-0.1-0.2,0.3-0.3,0v0.2c-0.1,0.1-0.1-0.2-0.3-0.1c0,0.2,0.3,0.3,0.3,0.5c-0.2-0.1,0.1,0.2-0.1,0.1
							c-0.1,0-0.1-0.1-0.1-0.2l0,0c0,0.4,0.2,0.1,0.4,0.3c0,0.2-0.1,0.2-0.2,0.2c0,0,0,0.2,0.1,0.2c-0.1-0.1,0.1-0.3,0.2-0.2
							c-0.2,0.1,0,0.3,0.1,0.4c0.2-0.4,0-0.2,0.2-0.6c-0.1,0-0.3,0-0.2-0.2c0.1,0.1,0.1,0,0.1-0.1c-0.1,0-0.1-0.1-0.1-0.2
							c0.1-0.1,0.3,0.1,0.3-0.1h-0.3c0-0.1,0.2,0,0.1-0.1c0.1,0.1,0.2,0,0.3,0.2c0.2-0.3-0.2-0.4-0.3-0.6h0.1
							c-0.1,0-0.1-0.1-0.1-0.2s0.1,0.1,0.2,0.1V77l0,0c0-0.1-0.1-0.1,0-0.1c0.1,0.1,0.2,0.1,0.3,0.1l-0.2-0.2c0.1,0,0.1-0.2,0.2,0
							l-0.1-0.3h0.2c0-0.1-0.1-0.1-0.1,0c0-0.1-0.4-0.5,0-0.4c-0.2-0.2-0.1-0.3-0.2-0.6c0.2,0.2,0.2-0.3,0.3,0
							c0.1-0.2-0.1-0.2-0.2-0.3c0.1-0.1,0.3-0.1,0.3,0l-0.1-0.1l0,0L62.8,75c0.1-0.1,0.2,0,0.2-0.2h-0.2l0.1-0.1
							c-0.1,0-0.1,0-0.1-0.1l0,0v-0.1c0.1,0.1,0-0.1,0.1-0.1c0-0.1,0-0.1,0-0.3h-0.1c-0.1-0.2,0.2,0,0.2-0.2h-0.1
							c0.2-0.3-0.2-0.5,0-0.7c0,0.1,0.2,0.1,0.1,0.1c-0.1-0.2-0.1-0.5-0.2-0.6c0.2-0.1,0.2-0.1,0.3-0.3c0-0.1,0-0.2-0.2-0.2
							c0.1-0.1-0.1-0.4,0.1-0.4c-0.1,0,0-0.1-0.1-0.2H63h-0.1c0.3-0.3-0.2-0.4,0-0.6l0,0l-0.1-0.1c0.1,0,0.1,0,0.2,0v-0.5l-0.1,0.1
							c0-0.1-0.1-0.2-0.1-0.3c0.2,0.2,0-0.2,0.1-0.2l0.1,0.1c0-0.1,0-0.1-0.1-0.1c-0.1-0.2,0.2-0.1,0.1-0.3v0.1
							c-0.1,0-0.2,0-0.2-0.1c0,0,0.1-0.1,0.1,0c-0.1-0.1,0-0.3-0.1-0.4c0-0.1,0.1-0.1,0.2,0c-0.1-0.3,0-0.1-0.1-0.4H63l-0.1-0.1
							l0.1-0.2l-0.1,0.1c0-0.1-0.1-0.2,0-0.3H63c-0.1-0.3,0.2-0.3,0-0.6h0.1c-0.2-0.2,0.2-0.2-0.1-0.4h0.1L63,67.3h0.1l-0.2-0.1
							l0.1-0.1h-0.1c0.3-0.1,0-0.3,0.2-0.5h-0.2c-0.4-0.4,0.1-1-0.1-1.4h0.1L62.7,65c0.1-0.1,0.1,0.1,0.2,0
							c-0.1-0.2-0.2-0.1-0.3-0.3c0.1-0.1,0.1,0,0.2,0.1c-0.1-0.2-0.2-0.6-0.1-0.7c0,0,0,0-0.1,0c-0.1-0.2,0-0.4-0.1-0.5
							c0.1,0,0.1,0,0.1,0.1c0-0.1,0-0.2,0-0.2l0.1,0.1c0-0.1-0.1-0.4,0-0.4c-0.1,0-0.2,0-0.2-0.1c0.2-0.1-0.1-0.3,0-0.5
							c0.1,0,0.1,0.2,0.1,0.1c0.1-0.1-0.1-0.2-0.1-0.2h0.1l-0.2-0.4c0.2-0.1-0.1-0.4,0.1-0.4c0-0.2-0.1,0.1-0.1-0.1
							c0.1-0.1-0.1-0.2,0.1-0.2l0,0v-0.1l0.1,0.1c0-0.1-0.2-0.2-0.3-0.2c0.1-0.1,0-0.3,0.1-0.3l0,0c-0.1-0.3,0.3-0.6,0.1-0.8h0.1
							v-0.2h0.1l-0.2-0.3h0.1c0-0.2-0.1-0.5-0.1-0.8l0,0c-0.1-0.3,0-0.3-0.1-0.5l0,0v-0.2h0.1c-0.2-0.1,0.2-0.4,0-0.3
							c-0.1-0.1-0.2-0.2-0.3-0.2c0-0.2,0.1-0.1,0.1-0.2c0-0.2-0.1-0.2-0.1-0.4h0.1c0-0.1-0.1-0.2-0.1-0.3l0,0
							c-0.2-0.2,0.2-0.3-0.1-0.4c0.1-0.1,0-0.3,0.1-0.3c-0.1-0.3-0.2-0.5-0.3-0.7c0.2-0.1,0-0.1,0.1-0.2h-0.1
							c-0.1-0.4,0.2-0.9,0.1-1.3h0.1L62,53.7c0-0.5,0-1.1,0-1.4c-0.1-0.1-0.2-0.3-0.2-0.5l0,0c-0.1-0.3-0.2-0.7-0.2-1
							c0.1,0,0.1,0,0.1,0c-0.1-0.1,0-0.2,0-0.3l0.3-0.1c-0.1-0.1,0-0.3,0.1-0.3L61.9,50l0,0h-0.1l0.2-0.1c0,0-0.1-0.2-0.3-0.3
							c0.1,0,0.1-0.2,0.1-0.1v-0.6l0,0.1c-0.1,0-0.2-0.1-0.2-0.2c0.1,0.1,0.2,0,0.3-0.1c-0.1-0.1-0.1,0.1-0.2,0
							c-0.1-0.1-0.2-0.3-0.1-0.4l0.1,0.1c-0.1-0.1,0.2-0.2,0.1-0.4c-0.1-0.1,0-0.2-0.2-0.2c-0.1-0.2,0.1-0.1,0.2-0.1
							c-0.1-0.1-0.1-0.3,0-0.4c-0.3-0.1,0.1-0.5-0.2-0.5l0.1-0.2c-0.1,0-0.2,0-0.3-0.1c0.1-0.1,0.2-0.1,0.3-0.1h-0.3
							c0.2-0.7,0-1.5,0.1-2.2c-0.1-0.3-0.3-0.7-0.3-1.1l0,0v-0.4L61.1,43c0-0.1-0.1-0.1-0.1-0.2c0.1-0.4,0.1-1,0-1.4
							c-0.3-0.3,0.2-0.2,0-0.5h0.1c-0.1-0.3-0.2-0.5-0.4-0.8c0.3,0,0-0.2,0.1-0.2h-0.1c0.1-0.1,0.1-0.3,0.2-0.2l-0.2-0.1h0.1
							c0-0.2-0.2-0.6,0.1-0.7c-0.2-0.5-0.3-1.2-0.3-1.8c-0.1-0.1-0.1-0.2-0.2-0.4l0.1-0.2c-0.1-0.1-0.3-0.3-0.2-0.4l0,0
							c0-0.1,0-0.3-0.1-0.4c0-0.2,0.1-0.3,0.2-0.3c-0.3,0,0-0.3,0-0.3s-0.1-2-0.4-4.2c-0.3-2.2-0.9-4.6-1.7-5.5
							c-0.1,0-0.2-0.2-0.4-0.1c-0.1-0.1,0.1-0.2,0-0.2c-0.1,0.2-0.3,0-0.5,0.2v-0.1c-0.1,0,0.1,0.1,0,0.1h0.2c0,0.1-0.1,0.2-0.1,0.2
							c0.1,0.1,0.4,0.1,0.3,0.3v-0.1c0,0.2-0.1,0.1-0.2,0.2l0,0l0.1,0.1c0.1-0.1-0.2-0.3-0.1-0.2c0,0.2,0-0.1,0.1,0.1
							c0,0.1-0.1,0.1-0.2,0.1v0.2c-0.1,0,0-0.1-0.1,0l0.1,0.2c-0.3,0.1,0.2,0.2-0.1,0.4c-0.1-0.1-0.1,0-0.2,0l0.1,0.4
							c0,0-0.1-0.1-0.1,0c-0.1,0.1,0.1,0.1,0.1,0.1c-0.1,0,0,0.3-0.1,0.3c-0.1,0.3,0.2,0.1,0.2,0.3c-0.1,0-0.1-0.2-0.2-0.1l0.1,0.2
							c-0.1,0-0.2,0-0.2-0.1c0,0.7-0.6,1.1-0.3,1.7c-0.1,0.1-0.1-0.1-0.2-0.1c0.2,0.4-0.2,0.7-0.1,1.1h0.1c-0.3,0.6,0,1.2,0,1.8
							l0.1-0.1c0.1,0.1,0.1,0.2,0.2,0.3c-0.1,0-0.2,0-0.2,0.1l0.1-0.1c-0.2,0.6,0,1.6,0,2.5c0.2,1.1,0.2,2.4,0.4,3.5
							c0-0.2,0.2-0.1,0.2,0c-0.4,0.4,0.1,0.6-0.1,1c0.2,0.6-0.1,1.3,0.3,1.9h-0.1c0,0.1,0,0.1,0.1,0.2l0,0c0,0.2,0.1,0.5,0.1,0.6
							h0.1c0,0.1-0.1,0.1,0,0.2h-0.1l0.2,0.1c-0.3,0,0,0.4-0.1,0.5c0.1,0.2,0.2,0.5,0.2,0.8c-0.1,0.1-0.1,0.4-0.1,0.6
							c0.1,0.4,0.2,1,0.2,1.5h0.2v0.1h-0.1c-0.2,0.1,0.1,0.3,0,0.4c0.1-0.1,0-0.1,0-0.2c0.1-0.1,0.2,0,0.2,0.1l0,0l0.1,0.1
							c-0.1,0-0.2,0.1-0.3,0.1c0.1,0.4,0.3,0.7,0.3,1.2c-0.1,0,0.1,0.3-0.2,0.3c0.1,0.3,0.2-0.1,0.4,0c0,0.1,0.1,0.2,0,0.2
							s-0.1,0.1-0.2,0v0.2h-0.1c0.2,0.4-0.1,0.7,0.1,1c0.1,0,0-0.1,0.1-0.1c0.2,0.3-0.1,0.3,0,0.6l-0.1-0.1c0.1,0.1,0.2,0.1,0.1,0.3
							c-0.1,0-0.1-0.1-0.2-0.2c0,0.1,0.1,0.4,0.2,0.3c0.1,0.1-0.1,0.2-0.1,0.3c0,0,0.1-0.1,0.2-0.1c-0.1,0.2,0,0.5,0,0.7h-0.1
							C58.6,51.6,58.2,51.7,58.3,51.9z"/>
						<path class="st1" d="M60.1,64.1L60.1,64.1C60.1,64,60,64,60.1,64.1L60.1,64.1z"/>
						<path class="st1" d="M59.8,59.7L59.8,59.7L59.8,59.7z"/>
						<path class="st1" d="M59.5,58.6C59.5,58.7,59.6,58.6,59.5,58.6L59.5,58.6z"/>
						<path class="st1" d="M60.7,66.5L60.7,66.5L60.7,66.5z"/>
						<path class="st1" d="M61.2,73.4L61.2,73.4L61.2,73.4z"/>
						<path class="st1" d="M61.4,73L61.4,73L61.4,73z"/>
						<path class="st1" d="M60.5,64.9C60.5,64.8,60.5,64.8,60.5,64.9C60.5,64.8,60.5,64.9,60.5,64.9z"/>
						<path class="st1" d="M61.3,72.9L61.3,72.9C61.3,72.8,61.3,72.8,61.3,72.9L61.3,72.9z"/>
						<path class="st1" d="M61.2,73.6L61.2,73.6C61.2,73.5,61.2,73.5,61.2,73.6z"/>
						<path class="st1" d="M61.1,69L61.1,69C61,69,61.1,69,61.1,69z"/>
						<polygon class="st1" points="61.1,72.5 61.1,72.5 61,72.4 						"/>
						<path class="st1" d="M61.2,74C61.2,74,61.2,73.9,61.2,74C61.2,73.9,61.2,74,61.2,74L61.2,74z"/>
						<path class="st1" d="M61,70.5C61.1,70.5,61.1,70.5,61,70.5C61.1,70.5,61.1,70.5,61,70.5z"/>
					</g>
				</g>
			</g>
		</g>
	</g>
	<g>
		<g>
			<g>
				<g>
					<g>
						<path class="st1" d="M58.4,77.6C58.4,77.5,58.5,77.5,58.4,77.6C58.5,77.5,58.4,77.5,58.4,77.6z"/>
						<path class="st1" d="M56.2,76.3L56.2,76.3L56.2,76.3z"/>
						<path class="st1" d="M59.8,78.2L59.8,78.2C59.8,78.2,59.9,78.3,59.8,78.2L59.8,78.2z"/>
						<path class="st1" d="M51.2,74L51.2,74C51.3,74,51.3,74,51.2,74z"/>
						<path class="st1" d="M54.1,75.4C54.1,75.5,54.1,75.5,54.1,75.4C54.1,75.5,54.1,75.5,54.1,75.4z"/>
						<path class="st1" d="M60.1,79.8L60.1,79.8C60.1,79.7,60.1,79.8,60.1,79.8z"/>
						<path class="st1" d="M61.7,79.9L61.7,79.9L61.7,79.9z"/>
						<path class="st1" d="M61.3,79.4C61.3,79.4,61.2,79.4,61.3,79.4C61.2,79.4,61.3,79.4,61.3,79.4z"/>
						<path class="st1" d="M61.2,79.4L61.2,79.4L61.2,79.4z"/>
						<path class="st1" d="M33,66.8c0,0-0.1,0-0.2,0.1L33,66.8z"/>
						<path class="st1" d="M46.7,72.2L46.7,72.2L46.7,72.2z"/>
						<path class="st1" d="M32.6,67.5L32.6,67.5L32.6,67.5z"/>
						<path class="st1" d="M59.3,79.8c-0.1,0.1-0.1-0.1-0.2,0C59.2,79.8,59.2,79.9,59.3,79.8z"/>
						<path class="st1" d="M44.4,75.1L44.4,75.1L44.4,75.1z"/>
						<path class="st1" d="M32.6,67.5L32.6,67.5L32.6,67.5L32.6,67.5z"/>
						<path class="st1" d="M42,70.3L42,70.3L42,70.3z"/>
						<path class="st1" d="M41.8,70L41.8,70L41.8,70z"/>
						<path class="st1" d="M32.8,66.8L32.8,66.8C32.8,66.9,32.8,66.9,32.8,66.8z"/>
						<path class="st1" d="M39.1,69L39.1,69L39.1,69z"/>
						<path class="st1" d="M54.3,75.6L54.3,75.6C54.3,75.6,54.3,75.5,54.3,75.6z"/>
						<path class="st1" d="M51.6,77.2L51.6,77.2L51.6,77.2z"/>
						<path class="st1" d="M51.7,77.1C51.7,77.1,51.6,77.1,51.7,77.1C51.6,77.2,51.6,77.2,51.7,77.1z"/>
						<path class="st1" d="M51.4,77.1L51.4,77.1L51.4,77.1z"/>
						<path class="st1" d="M53.4,78L53.4,78L53.4,78z"/>
						<path class="st1" d="M52.9,77.9C52.9,77.8,52.9,77.8,52.9,77.9C52.9,77.8,52.9,77.8,52.9,77.9z"/>
						<path class="st1" d="M50.3,76.9L50.3,76.9L50.3,76.9z"/>
						<path class="st1" d="M46.2,76.1c0.4,0.1,1,0.1,1.3,0.3c0.2-0.1,0.3-0.1,0.4-0.1l-0.1,0.2h0.1c0,0.1-0.1,0-0.1,0.1l0.1-0.1
							c0,0.1,0.2,0.2,0,0.3l0.4,0.2c0.1,0,0.1-0.2,0.2-0.1c0,0.1-0.1,0-0.1,0.1c0.2,0.3,0.5-0.3,0.7-0.1l0,0c0.1,0,0.2,0,0.2,0
							c0.1-0.3-0.1,0.1-0.1-0.1c0.1-0.2,0.1-0.1,0.2-0.2c0,0.1,0.1,0,0.2,0c0,0.2,0.2,0.1,0.2,0.3c0.1,0,0.2-0.2,0.3-0.2
							c0,0.2-0.1,0.1,0,0.2l0.1-0.1c0.1,0,0,0.1,0,0.1c0.1,0,0.1-0.1,0.2,0l0,0.1c0.1,0,0.1,0,0.2,0.1c0,0.1-0.1,0-0.1,0
							c0,0.2,0.1,0,0.2,0c0-0.1-0.1-0.1,0-0.2c0,0,0.2-0.1,0.2,0L50.7,77c0.1,0,0.1-0.1,0.2,0c0,0,0,0,0,0.1
							c0.1-0.1,0.2,0.1,0.3,0.1l0,0c0.1,0,0.1-0.1,0.2-0.1c0-0.1,0-0.1,0-0.2c0,0.2,0.2-0.2,0.3,0c0,0.1-0.1,0.1-0.1,0
							c-0.1,0.2-0.2,0.3-0.3,0.4c0.1,0,0.2,0,0.1,0.1l0.1-0.2h0.1c0.1-0.1,0-0.2,0.1-0.3c0.1,0,0,0.2,0,0.1c0.2,0,0.1-0.2,0.2-0.1
							h-0.1c0.1,0.1,0.2,0,0.2,0.3l-0.1,0.1l0,0c-0.2,0.1,0.1,0,0,0.2c0-0.1,0.1-0.1,0.2,0v-0.1c0.3-0.3-0.1,0.3,0.1,0.3
							c0.1-0.1,0-0.1,0.1-0.1c0.1,0.1,0.1,0.2,0.2,0.2c0,0.1,0,0.2,0,0.3c0.1,0,0.2,0.1,0.3,0c-0.1-0.2-0.2,0.1-0.2-0.1l0.1-0.1
							c0.1,0,0.2,0,0.3,0.1v-0.1c0.2,0,0.2-0.1,0.4-0.1c0,0.1-0.1,0.1-0.2,0.1c0,0.1,0.1,0,0.2,0.1c0,0.1-0.1,0-0.1,0.1h0.2l0,0
							c0.1-0.2,0.1,0.1,0.2,0c0.2,0.1,0.3-0.2,0.5-0.3c0,0.1,0,0.1,0,0.2c0-0.1,0,0-0.1,0c0.1,0,0.1,0.3,0,0.3c0.1,0,0-0.1,0.1-0.2
							l0.1,0.1c0-0.1,0-0.2,0.1-0.2s0.1,0,0.2,0.1c0,0,0,0.2-0.1,0.1c0,0.1,0.1,0.1,0.2,0c-0.1-0.1,0.2,0,0.2-0.2l0.1,0.1
							c0,0,0,0.1-0.1,0c0,0.2,0.1,0,0.1,0l0.1,0.1c0,0,0.1,0,0.1,0.1c0.1,0,0-0.1,0.1-0.1l0.1,0.1c0,0.1-0.1,0.3-0.1,0.4
							c0.1-0.1,0.1-0.2,0.2-0.2c-0.1,0.1,0.1,0.2-0.1,0.3c0,0.1,0.2,0.2,0.2,0.2c0.1-0.1-0.1-0.1,0-0.2c0.2,0,0.4-0.3,0.5-0.2v-0.1
							c0.1,0,0.1,0,0.2-0.1c-0.1,0.2,0,0.5,0.1,0.5c0-0.1,0-0.2,0-0.3h0.1c0,0,0,0,0,0.1c0.1,0,0.1,0.3,0.2,0.1v0.3V79
							c0-0.1,0.2-0.1,0.2-0.1c0.1-0.1,0.2,0,0.2,0.2c0-0.1,0-0.3,0.1-0.2c-0.1,0.3,0.2,0.2,0.1,0.3c0,0,0.1,0.1,0.1,0l-0.1,0.2
							c0.1-0.2,0.2-0.2,0.3-0.2c-0.1,0.3,0.1,0,0.1,0.3c0.1-0.2,0.2,0,0.3-0.2c0.1,0,0,0.2,0,0.3l0.1-0.1c0,0.1,0.1,0.2,0.2,0.3
							l0.1-0.2v0.1l0.1-0.1l0,0c0.1-0.2,0.1,0,0.2-0.1v0.1c0,0,0,0.1,0,0.2c0-0.1,0.3-0.3,0.2-0.5C58.9,79,59,79,59,79v0.2l0.1-0.2
							c0.1,0,0.1,0.1,0.1,0.2c-0.1,0-0.2,0.3-0.1,0.4c-0.1,0-0.2,0.1-0.2,0.1s0,0,0,0.1c0.1,0,0.1-0.1,0.2-0.1
							c-0.1,0.2-0.1,0.2,0,0.3v-0.2l0,0v-0.1c0,0,0.2-0.2,0.2-0.1c0-0.3,0.3-0.1,0.2-0.3c0,0,0.1,0,0.1,0.1c-0.1,0.1,0,0.2-0.1,0.3
							c0.1,0,0-0.2,0-0.2c0.1,0,0.1,0.1,0.1,0.2l0,0l0.1,0.1c0-0.1,0-0.2,0.1-0.2c0,0,0.1,0,0.1,0.1c-0.1,0.1-0.1,0.3-0.2,0.3
							c0.1,0,0.2,0,0.2-0.1H60c0-0.1-0.1-0.3,0.1-0.2l0,0l0.1-0.1v0.1c0,0,0-0.1,0.1-0.1c0,0.1,0,0.1,0,0.2c0.1,0,0.1-0.1,0.2-0.1
							c0.1,0,0.1,0,0,0.1c0.1,0,0.2,0.1,0.2,0.2c0.1,0,0,0,0.1-0.1c0,0.3,0.3,0.2,0.5,0.2c0-0.3,0.1,0,0.2-0.2
							c-0.1,0.1,0.1,0.3-0.1,0.3h0.1c0,0.2-0.2,0.1-0.2,0.3c0.1,0,0.3-0.2,0.3-0.1c-0.1,0.2,0.1,0,0,0.2c0,0.1-0.1,0-0.1,0l0,0
							c0.2,0.1,0.1-0.2,0.3-0.3c0.1,0,0.1,0.2,0,0.3h0.1c-0.1,0.1-0.1-0.2,0-0.3c0,0.2,0.2,0.1,0.3,0C62,80,62,80.2,61.9,79.9
							c0,0.1-0.1,0.2-0.2,0.1c0.1-0.1,0-0.1,0-0.1c0,0.1-0.1,0-0.1,0.1c0-0.1,0.1-0.2,0.1-0.3l-0.1,0.2c0-0.1,0.1-0.2,0-0.2
							c0.1-0.1,0.1-0.2,0.2-0.2c-0.1-0.3-0.3,0-0.4,0.1c0,0,0,0,0-0.1c0,0.1-0.1,0-0.1,0c-0.1-0.1,0.1-0.1,0.1-0.2h-0.1l0,0h-0.1
							c0.1-0.1,0.1-0.2,0.2-0.2l-0.2,0.1c0-0.1-0.1-0.2,0.1-0.2h-0.2v-0.2c-0.1,0-0.1,0,0,0.1c-0.1-0.1-0.4,0.2-0.2-0.1
							c-0.2,0.1-0.2,0-0.4,0c0.2-0.1-0.1-0.3,0.1-0.3c-0.1-0.1-0.1,0.1-0.2,0.1c0-0.1,0-0.3,0.1-0.3l-0.1,0.1l0,0l-0.1,0.1
							c0-0.1,0-0.2,0-0.2L60,78.4v-0.1c0,0.1-0.1,0.1-0.1,0.1l0,0h-0.1c0.1-0.1-0.1-0.1,0-0.2c-0.1,0-0.1,0-0.2,0v0.1
							c-0.2,0,0-0.2-0.1-0.2v0.1c-0.1-0.3-0.3,0-0.4-0.1c0.1,0,0.1-0.2,0.1-0.1c-0.1,0-0.3-0.1-0.4,0c0-0.2,0-0.2,0-0.4
							c-0.1,0-0.1,0-0.2,0.1c-0.1-0.1-0.2,0-0.2-0.2c-0.1,0.1-0.1,0-0.1,0v-0.1v0.1c0-0.3-0.3,0.1-0.3-0.2l0,0h-0.1
							c0-0.1,0-0.1,0.1-0.1l-0.3-0.1v0.1c-0.1,0-0.1,0.1-0.2,0c0.2-0.1-0.1,0-0.1-0.2h0.1c-0.1,0-0.1,0-0.1,0.1
							c-0.1,0,0-0.3-0.1-0.2h0.1c0,0.1-0.1,0.2-0.1,0.1v-0.1c-0.1,0-0.2-0.1-0.2,0c0-0.1,0-0.1,0-0.2c-0.2,0-0.1,0-0.3,0v-0.1
							l-0.1,0.1v-0.2v0.1c-0.1,0-0.1,0-0.2,0l0.1-0.1c-0.2,0-0.1-0.2-0.3-0.1c0,0,0,0,0-0.1c-0.2,0.1,0-0.2-0.2-0.1v-0.1H56l0.1-0.1
							L56,76.4v-0.2v0.1c0-0.3-0.1-0.1-0.2-0.4v0.2c-0.4,0.3-0.5-0.4-0.8-0.3l0.1-0.1l-0.2,0.1c0-0.1,0.1-0.1,0.1-0.2
							c-0.1,0-0.1,0.2-0.3,0.2c0-0.1,0.1-0.1,0.1-0.1c-0.2,0-0.4,0-0.4-0.1l0,0c-0.1,0-0.2-0.1-0.3-0.1c0-0.1,0.1-0.1,0.1-0.1
							s-0.1-0.1-0.1,0l0.1-0.1c-0.1-0.1-0.3,0-0.2-0.1c0,0.1-0.1,0.2-0.1,0.1c0-0.2-0.2,0-0.3-0.1h0.1c0-0.1-0.1,0-0.2,0.1v-0.1
							h-0.3c0-0.2-0.2-0.1-0.2-0.2c-0.1,0,0,0.1-0.1,0.1c0-0.1-0.1,0-0.1-0.1l0,0h-0.1l0.1-0.1c-0.1,0-0.2,0.1-0.2,0.2
							c0-0.1-0.1-0.1-0.1-0.2l0,0c-0.2,0-0.2-0.5-0.4-0.3c0,0,0-0.1,0,0H52l0.1-0.1l-0.2,0.1v-0.1c-0.1-0.1-0.3-0.1-0.5-0.1l0,0
							c-0.2,0-0.1-0.1-0.3-0.1l0,0H51v-0.1c0-0.2,0-0.5,0-0.4c-0.1,0-0.2,0.1-0.2,0.2c-0.1,0,0-0.1,0-0.2c-0.1,0-0.1,0.1-0.2,0v-0.1
							c-0.1,0-0.1,0-0.2,0l0,0c-0.2,0.1-0.1-0.3-0.3,0c0-0.1-0.1-0.1-0.1-0.2c-0.2,0-0.3,0-0.5,0c0.1-0.2,0,0-0.1-0.2v0.1
							c-0.2,0-0.4-0.4-0.6-0.4v-0.1L48.7,73c-0.2-0.2-0.5-0.3-0.8-0.4c-0.1,0-0.2,0.1-0.3,0.1l0,0c-0.2,0-0.4,0-0.6-0.2
							c0,0,0-0.1,0.1-0.1c-0.1,0.1-0.1,0-0.2-0.1v0.1c-0.1,0.1-0.1-0.1-0.1-0.1l-0.1,0.1c0,0,0,0,0-0.1v0.1v-0.2c0,0-0.2,0-0.3,0.2
							c0-0.1-0.1-0.1,0-0.1l-0.3-0.2v0.1c0,0.1-0.2,0.2-0.2,0.1C46,72,46,71.9,46,71.8c-0.1,0,0,0.1-0.1,0.2s-0.2,0.1-0.2,0h0.1
							c-0.1,0,0-0.2-0.1-0.2c-0.1,0.1-0.1,0-0.2,0.2c-0.1,0,0-0.2,0-0.2c-0.1,0.1-0.2,0-0.2-0.1c-0.2,0.3-0.2-0.2-0.3,0v-0.2
							c0,0.1-0.1,0.2-0.2,0.2c0-0.1,0-0.2,0-0.3l-0.1,0.2c-0.2-0.4-0.8-0.4-1.1-0.8c-0.2,0-0.5,0-0.6-0.1l0,0l-0.2-0.2l0.1,0.2
							c-0.1,0-0.1,0-0.2,0c-0.2-0.2-0.4-0.4-0.7-0.4c-0.3,0.2,0-0.3-0.3-0.2c0,0,0-0.1,0.1-0.1c-0.2,0-0.3,0-0.6,0.1
							c0.1-0.3-0.1,0,0-0.2L41.1,70c0-0.1-0.1-0.2,0-0.2L41,69.9v-0.1c-0.1-0.1-0.4-0.1-0.3-0.3c-0.3,0.1-0.7-0.2-1-0.4
							c-0.1,0.1-0.2,0-0.3,0v-0.2c-0.1,0-0.3,0.1-0.3,0l0,0c-0.1,0-0.1-0.1-0.3,0c-0.1,0-0.1-0.2,0-0.3c-0.1,0.2-0.2-0.1-0.2-0.1
							s-1-0.6-2.2-1.2c-1.2-0.5-2.6-1-3.4-0.7c-0.1,0.1-0.2,0.1-0.3,0.3c-0.1,0,0-0.2-0.1-0.1c0.1,0.1-0.2,0.3-0.1,0.5h-0.1
							c-0.1,0.1,0.1,0,0,0.1l0.1-0.2c0,0.1,0,0.1,0,0.2c0.1-0.1,0.3-0.3,0.3-0.1l0,0c0.1,0,0,0.2,0,0.2l0,0v0.1c0-0.1-0.2,0-0.2,0
							c0.1,0.1,0-0.1,0.1,0c0.1,0,0,0.1,0,0.2h0.1c-0.1,0.1-0.1,0-0.1,0.1h0.2c-0.1,0.3,0.2-0.1,0.1,0.2c-0.1,0,0,0.1-0.1,0.2
							l0.2,0.1c0,0-0.1,0-0.1,0.1s0.1,0,0.1,0c0,0.1,0.2,0.1,0.1,0.2c0.1,0.2,0.2-0.2,0.2,0c0,0.1-0.1,0-0.1,0.1h0.2l-0.1,0.1
							c0.3,0.3,0.3,0.9,0.7,1C34.1,70,34,70,34,70c0.3,0,0.2,0.4,0.4,0.5l0.1-0.1c0.2,0.4,0.6,0.4,0.9,0.7V71c0.1-0.1,0.2,0,0.2-0.1
							c0,0.1-0.1,0.2,0,0.2V71c0.2,0.4,0.8,0.6,1.2,0.9c0.7,0.2,1.3,0.7,2,0.9c-0.1,0,0-0.3,0.1-0.2c0,0.5,0.4,0.1,0.5,0.5
							c0.4,0,0.6,0.5,1.1,0.4v0.1c0,0.1,0.1,0,0.1,0l0,0c0.1,0.1,0.3,0,0.4,0.1l0.1-0.1c0.1,0,0,0.1,0.1,0.1v0.1l0.1-0.1
							c-0.1,0.2,0.2,0.1,0.2,0.2c0.1,0,0.3,0,0.5,0.1c0,0.1,0.2,0.2,0.3,0.3c0.2,0.1,0.6,0.2,0.9,0.3l0.1-0.2h0.1v0.1
							c0,0.2,0.2,0,0.2,0.1c0-0.2,0,0-0.1-0.1c0-0.1,0.1-0.2,0.1-0.1l0,0l0.1-0.1c0,0.1,0,0.2-0.1,0.3c0.3,0.1,0.5-0.1,0.8,0.1
							c-0.1,0.1,0.2,0,0.1,0.3c0.2,0,0-0.2,0.2-0.3c0,0,0.1,0,0.1,0.1c0,0,0,0.2-0.1,0.2h0.1c0,0,0,0-0.1,0.1c0.3,0,0.3,0.3,0.6,0.2
							c0-0.1-0.1-0.1,0-0.1c0.3-0.1,0.1,0.2,0.3,0.2l-0.1,0.1c0.1-0.1,0.2-0.1,0.2,0s-0.1,0.1-0.2,0.1c0.1,0,0.2,0.1,0.2-0.1
							c0.1,0,0.1,0.1,0.1,0.2c0,0,0-0.1,0-0.2c0.1,0.1,0.2,0.2,0.4,0.2v0.1C46.2,75.8,46,76.1,46.2,76.1z"/>
						<path class="st1" d="M53.4,78L53.4,78C53.3,78,53.3,78,53.4,78L53.4,78z"/>
						<path class="st1" d="M50.9,77L50.9,77C50.9,77.1,50.9,77,50.9,77z"/>
						<path class="st1" d="M50.2,77C50.3,77,50.2,76.9,50.2,77C50.2,77,50.2,77,50.2,77z"/>
						<path class="st1" d="M54.9,78.2L54.9,78.2L54.9,78.2z"/>
						<path class="st1" d="M58.8,79.6L58.8,79.6L58.8,79.6z"/>
						<path class="st1" d="M58.7,79.3L58.7,79.3C58.7,79.4,58.7,79.4,58.7,79.3z"/>
						<path class="st1" d="M54,77.9C54,77.9,53.9,77.9,54,77.9C53.9,77.9,54,77.9,54,77.9z"/>
						<path class="st1" d="M58.6,79.4L58.6,79.4C58.5,79.3,58.5,79.4,58.6,79.4L58.6,79.4z"/>
						<path class="st1" d="M58.9,79.7L58.9,79.7L58.9,79.7z"/>
						<path class="st1" d="M56.4,78.5L56.4,78.5C56.4,78.6,56.4,78.5,56.4,78.5z"/>
						<polygon class="st1" points="58.3,79.5 58.3,79.5 58.2,79.5 						"/>
						<path class="st1" d="M59.1,79.8L59.1,79.8L59.1,79.8L59.1,79.8z"/>
						<path class="st1" d="M57.2,79L57.2,79C57.2,78.9,57.2,78.9,57.2,79z"/>
					</g>
				</g>
			</g>
		</g>
	</g>
</g>
<g>
	<g>
		<g>
			<g>
				<g>
					<path class="st1" d="M87.7,62L87.7,62L87.7,62z"/>
					<path class="st1" d="M86.3,60L86.3,60L86.3,60z"/>
					<path class="st1" d="M88.6,63.2L88.6,63.2L88.6,63.2L88.6,63.2z"/>
					<path class="st1" d="M83,56L83,56L83,56z"/>
					<path class="st1" d="M84.9,58.4L84.9,58.4L84.9,58.4z"/>
					<path class="st1" d="M88.1,64.7L88.1,64.7L88.1,64.7z"/>
					<path class="st1" d="M89.4,65.5L89.4,65.5L89.4,65.5z"/>
					<path class="st1" d="M89.3,64.8L89.3,64.8L89.3,64.8z"/>
					<path class="st1" d="M89.2,64.8L89.2,64.8L89.2,64.8z"/>
					<path class="st1" d="M69.5,43c0,0-0.1,0-0.2,0H69.5z"/>
					<path class="st1" d="M79.8,52.7L79.8,52.7C79.8,52.6,79.8,52.6,79.8,52.7z"/>
					<path class="st1" d="M68.9,43.6L68.9,43.6L68.9,43.6z"/>
					<path class="st1" d="M87.4,64.3C87.3,64.3,87.3,64.2,87.4,64.3C87.3,64.3,87.3,64.4,87.4,64.3z"/>
					<path class="st1" d="M76.6,54.4L76.6,54.4C76.5,54.4,76.5,54.4,76.6,54.4z"/>
					<path class="st1" d="M68.9,43.6L68.9,43.6L68.9,43.6L68.9,43.6z"/>
					<path class="st1" d="M76.4,49.2L76.4,49.2L76.4,49.2L76.4,49.2z"/>
					<path class="st1" d="M76.3,48.9L76.3,48.9L76.3,48.9z"/>
					<path class="st1" d="M69.3,43L69.3,43C69.2,43,69.3,43,69.3,43z"/>
					<path class="st1" d="M74.2,47C74.2,47,74.3,47,74.2,47C74.3,47,74.2,47,74.2,47z"/>
					<path class="st1" d="M85,58.6L85,58.6C85,58.6,85.1,58.6,85,58.6z"/>
					<path class="st1" d="M81.9,59L81.9,59L81.9,59z"/>
					<path class="st1" d="M82.1,59c0,0-0.1,0-0.2,0C81.9,59,82,59,82.1,59z"/>
					<path class="st1" d="M81.8,58.8L81.8,58.8L81.8,58.8z"/>
					<path class="st1" d="M83.1,60.4L83.1,60.4L83.1,60.4z"/>
					<path class="st1" d="M82.8,60.1L82.8,60.1L82.8,60.1z"/>
					<path class="st1" d="M80.9,58.2L80.9,58.2L80.9,58.2z"/>
					<path class="st1" d="M77.7,56c0.3,0.2,0.8,0.5,1,0.8c0.2-0.1,0.3,0,0.4,0.1L78.9,57H79c0,0.1-0.1,0-0.1,0.1L79,57
						c-0.1,0.1,0.1,0.2-0.1,0.2l0.3,0.3c0.1,0.1,0.2-0.1,0.2,0s-0.1,0-0.1,0.1c0.1,0.3,0.6-0.1,0.7,0.2l0,0c0.1,0,0.1,0.1,0.2,0
						c0.2-0.2-0.1,0.1-0.1-0.1c0.2-0.1,0.2,0,0.3-0.1c0,0.1,0.1,0,0.2,0.1c0,0.2,0.1,0.2,0.1,0.4c0.1,0,0.3-0.1,0.3-0.1
						c-0.1,0.2-0.1,0.1-0.1,0.2l0.1-0.1c0,0.1,0,0.1,0,0.1c0.1,0.1,0.2-0.1,0.2,0.1h-0.1c0.1,0,0.1,0.1,0.2,0.1c-0.1,0-0.1,0-0.1,0
						c-0.1,0.2,0.1,0,0.1,0.1c0,0,0-0.1,0.1-0.2c0,0.1,0.2,0,0.1,0.1h-0.1c0.1,0,0.2-0.1,0.2,0.1c0,0,0,0-0.1,0
						c0.2-0.1,0.1,0.1,0.2,0.2l0,0c0.1,0,0.2-0.1,0.2,0c0-0.1,0-0.1,0.1-0.2c-0.1,0.2,0.3-0.1,0.3,0.1c-0.1,0-0.1,0.1-0.1,0
						c-0.2,0.1-0.3,0.2-0.5,0.2c0.1,0,0.1,0,0.1,0.1l0.2-0.1c0,0,0,0,0.1,0.1c0.1-0.1,0.1-0.2,0.2-0.2s-0.1,0.2,0,0.1
						c0.1,0,0.2-0.1,0.2,0h-0.1c0,0.1,0.2,0.1,0,0.3c0,0-0.1,0.1-0.1,0l0,0c-0.2,0.1,0.1,0-0.1,0.2c0.1-0.1,0.2,0,0.2,0.1l0.1-0.1
						c0.4-0.2-0.2,0.2,0,0.3c0.1,0,0-0.1,0.1-0.1c0,0.1,0,0.2,0.1,0.2c0,0.1,0,0.2-0.1,0.3c0.1,0,0.1,0.2,0.2,0.1
						c0-0.2-0.2,0-0.1-0.2l0.1-0.1c0.1,0.1,0.2,0.1,0.2,0.2c0,0,0-0.1,0.1-0.1c0.1,0.1,0.3,0,0.3,0.1c-0.1,0.1-0.1,0-0.2,0
						c0,0.1,0.1,0.1,0.1,0.2c-0.1,0.1-0.1-0.1-0.2,0l0.1,0.1l0,0c0.2-0.1,0.1,0.1,0.2,0.1c0.1,0.1,0.4,0,0.6-0.1
						c0,0.1-0.1,0.1-0.1,0.1c0-0.1,0,0-0.1,0c0.1,0,0,0.3-0.1,0.3c0.1,0,0.1-0.1,0.1-0.1l0.1,0.1c0.1-0.1,0-0.1,0.2-0.1
						c0.1,0,0.1,0.1,0.1,0.1l-0.1,0.1c0,0.1,0,0.1,0.1,0.1c0-0.1,0.2,0,0.2-0.1v0.1h-0.1c-0.1,0.1,0.1,0,0.1,0s0.1,0.1,0,0.2
						c0.1,0,0.1,0.1,0,0.1c0.1,0,0.1-0.1,0.1-0.1l0.1,0.1c-0.1,0.1-0.2,0.3-0.3,0.3c0.1,0,0.2-0.2,0.3-0.1c-0.2,0.1,0,0.2-0.2,0.3
						c-0.1,0.1,0,0.2,0.1,0.2c0.1-0.1,0-0.1,0.1-0.2c0.2,0.1,0.5-0.1,0.5,0v-0.1c0.1,0,0.1,0,0.2,0c-0.1,0.1-0.3,0.4-0.1,0.5
						c0.1-0.1,0.1-0.2,0.2-0.3l0.1,0.1c0,0,0,0-0.1,0c0.1,0,0,0.3,0.1,0.2l-0.1,0.3l0.1-0.1c0.1-0.1,0.2,0,0.2,0
						c0.1,0,0.1,0.1,0.1,0.2c0-0.1,0.1-0.2,0.2-0.2c-0.2,0.2,0.1,0.2-0.1,0.3c0,0,0,0.1,0.1,0.1l0,0.2c0.2-0.2,0.3-0.1,0.4,0
						c-0.3,0.2,0.1,0.1-0.1,0.3c0.2-0.2,0.2,0.1,0.3-0.1c0.1,0-0.1,0.2-0.1,0.3h0.1c-0.1,0.1,0,0.2,0,0.3l0.2-0.1v0.1
						c0,0,0.1,0,0.1-0.1l0,0c0.2-0.2,0.1,0,0.2,0L87,63.7c0,0-0.1,0.1-0.1,0.2c0-0.1,0.4-0.2,0.4-0.3c0.1-0.1,0.2-0.1,0.2,0
						l-0.1,0.2l0.2-0.1c0.1,0,0,0.1,0,0.2c0,0-0.4,0.2-0.3,0.3c-0.1,0-0.2,0-0.2,0s0,0.1-0.1,0.1c0.1,0,0.1-0.1,0.2,0
						c-0.1,0.1-0.2,0.2-0.1,0.3v-0.1l0,0c0,0,0-0.1,0.1-0.1c0,0,0.2-0.1,0.2,0c0.1-0.3,0.3,0,0.4-0.2c0,0,0.1,0,0,0.1
						c-0.2,0-0.1,0.2-0.2,0.3c0.1,0,0-0.1,0.1-0.2c0,0,0,0.1,0,0.2l0,0v0.1c0.1-0.1,0.1-0.2,0.1-0.1c0,0,0.1,0.1,0,0.1
						c-0.1,0.1-0.2,0.2-0.3,0.2c0,0,0.2,0.1,0.3,0V65c0-0.1,0-0.3,0.2-0.2l0,0h0.2v0.1c0,0,0.1-0.1,0.1,0c0,0,0,0.1-0.1,0.1
						c0.1,0.1,0.1,0,0.2,0c0,0,0,0.1-0.1,0.1c0,0.1,0.1,0.1,0.1,0.3c0.1,0,0,0,0.1-0.1c-0.2,0.3,0.1,0.3,0.3,0.4
						c0.2-0.2,0.1,0,0.3-0.1c-0.1,0,0,0.3-0.2,0.2H89c-0.1,0.1-0.2,0-0.3,0.2c0.1,0.1,0.3-0.1,0.3,0.1c-0.2,0.1,0.1,0-0.1,0.1
						c-0.1,0-0.1,0-0.1,0l0,0c0.1,0.2,0.2-0.1,0.4-0.1c0.1,0.1,0,0.2-0.1,0.3l0.1,0.1c-0.1,0,0-0.2,0.1-0.3
						c-0.1,0.2,0.1,0.2,0.2,0.1c0-0.3-0.1-0.1,0-0.4c-0.1,0-0.2,0.2-0.2,0c0.1,0,0.1-0.1,0.1-0.1c-0.1,0.1-0.1,0-0.1,0
						c0-0.1,0.2-0.1,0.2-0.3l-0.2,0.2c0-0.1,0.2-0.1,0-0.1c0.1-0.1,0.1-0.2,0.3-0.1c0.1-0.3-0.2-0.1-0.4-0.1c0,0,0,0,0.1,0
						c-0.1,0-0.1,0-0.1,0c0-0.1,0.1,0,0.2-0.1l-0.1-0.1l0,0c0,0-0.1,0,0-0.1c0.1,0,0.2-0.1,0.2-0.1h-0.2c0.1-0.1,0-0.2,0.1-0.2
						l-0.2-0.1l0.1-0.1c-0.1,0-0.1,0-0.1,0.1c0-0.1-0.4,0-0.1-0.2c-0.2,0-0.2-0.1-0.4-0.1c0.2,0,0-0.3,0.2-0.2c0-0.1-0.2,0-0.2,0
						c0-0.1,0.2-0.2,0.3-0.2h-0.1l0,0h-0.1c0-0.1,0.1-0.1,0.1-0.2l-0.1,0.1v-0.1c0,0.1-0.1,0.1-0.1,0l0,0h-0.1c0.1,0,0-0.1,0.1-0.1
						c0,0,0,0-0.1-0.1l-0.1,0.1c-0.2,0,0.1-0.1,0-0.2l-0.1,0.1c0-0.3-0.3-0.1-0.3-0.3c0.1,0,0.2-0.1,0.1-0.1S88,63,87.8,63.1
						c0.1-0.2,0.1-0.2,0.1-0.3c-0.1,0-0.1,0-0.2,0c0-0.1-0.2-0.1-0.1-0.2c-0.1,0.1,0-0.1-0.1,0l0,0l0-0.6c0.1-0.3-0.3,0-0.2-0.3l0,0
						h-0.1l0.1-0.1l-0.2-0.2v0.1c0,0-0.2,0-0.2-0.1c0.2-0.1-0.1-0.1,0-0.2H87c-0.1,0-0.1,0-0.1,0c-0.1,0,0.1-0.2,0-0.2v0.1
						c0,0.1-0.1,0.1-0.2,0.1c0,0,0-0.1,0.1-0.1c-0.1,0-0.1-0.2-0.2-0.1c0-0.1,0.1-0.1,0.1-0.1c-0.2,0,0-0.1-0.2-0.1h0.1h-0.1
						l0.1-0.2v0.1c0,0-0.1,0-0.1-0.1l0.1-0.1c-0.2-0.1,0-0.3-0.2-0.3c0,0,0,0,0.1,0c-0.2,0,0.1-0.2-0.2-0.2l0.1-0.1h-0.1l0.1-0.1
						L86.1,60l0.1-0.1h-0.1c0.1-0.2-0.1-0.2,0-0.4L86,59.7c-0.4,0.1-0.2-0.5-0.5-0.6l0.1-0.1h-0.2c0-0.1,0.1-0.1,0.2-0.1
						c-0.1,0-0.2,0.1-0.3,0c0-0.1,0.1-0.1,0.2-0.1c-0.1,0-0.3-0.1-0.4-0.3l0,0c-0.1,0-0.1-0.1-0.2-0.2H85c0,0,0-0.1-0.1-0.1l0.1-0.1
						c0-0.1-0.2-0.1-0.1-0.2c0,0-0.1,0.1-0.2,0.1c0.1-0.2-0.2-0.1-0.2-0.2h0.1c0-0.1-0.1,0-0.2,0l0.1-0.1l-0.3-0.1
						c0.1-0.2-0.2-0.1-0.1-0.2c-0.1-0.1,0,0.1-0.1,0.1c0-0.1-0.1,0,0-0.1l0,0h-0.1l0.1-0.1c-0.1,0-0.2,0-0.3,0.1
						c0-0.1-0.1-0.1,0-0.2l0,0c-0.2-0.1,0.1-0.5-0.2-0.4l0,0l-0.1-0.1l0.1-0.1h-0.2h0.1c-0.1-0.1-0.2-0.2-0.3-0.3l0,0
						c-0.2,0-0.1-0.2-0.2-0.2l0,0L82.8,56h0.1c-0.2,0.1,0-0.3-0.1-0.2c-0.1,0-0.2,0-0.3,0.1c-0.1-0.1,0-0.1,0-0.2
						c-0.1-0.1-0.2,0-0.2-0.1h0.1c0,0-0.1,0-0.2-0.1l0,0c-0.2,0,0-0.3-0.3-0.1c0-0.1-0.1-0.1,0-0.2c-0.2,0-0.3-0.1-0.4-0.2
						c0.2-0.2,0,0,0-0.2l-0.1,0.1c-0.2-0.1-0.1-0.5-0.3-0.7l0.1-0.1l-0.1,0.1c-0.1-0.2-0.3-0.5-0.5-0.7c-0.1,0-0.3,0-0.3-0.1l0,0
						c-0.2-0.1-0.4-0.2-0.5-0.4l0.1-0.1c0.1,0,0.1-0.1,0.1-0.1v0.1c-0.1,0-0.1-0.1-0.1-0.2h-0.2l0,0h-0.1l0.1-0.2c0,0-0.2,0-0.3,0
						c0,0,0-0.1,0.1-0.1l-0.2-0.3v0.1c-0.1,0.1-0.2,0.1-0.2,0c0.1,0,0.1-0.1,0.2-0.2c-0.1,0-0.1,0.1-0.1,0.1c-0.1,0-0.2,0-0.2-0.1
						h0.1c-0.1,0,0-0.2,0-0.3c-0.1,0-0.1-0.1-0.2,0.1c-0.1,0,0.1-0.1,0.1-0.2c-0.1,0-0.2-0.1-0.1-0.2c-0.3,0.2-0.1-0.3-0.3-0.1
						l0.1-0.2c-0.1,0-0.2,0.2-0.2,0.1c0-0.1,0.1-0.2,0.2-0.2l-0.2,0.2c-0.1-0.5-0.5-0.7-0.6-1.1c-0.2-0.1-0.4-0.2-0.5-0.3l0,0
						L77,49.7v0.2c-0.1,0-0.1,0-0.1,0c-0.1-0.2-0.2-0.6-0.5-0.7c-0.3,0.1,0.1-0.3-0.2-0.2h0.1c-0.2-0.1-0.3-0.1-0.6-0.1
						c0.2-0.2-0.1-0.1,0-0.2l-0.1,0.1c0-0.1,0-0.2,0-0.2l-0.2,0.1l0.1-0.1c-0.1-0.1-0.3-0.2-0.2-0.4c-0.3-0.1-0.6-0.4-0.8-0.7
						c-0.1,0-0.2,0-0.2-0.1l0.1-0.2c-0.1,0-0.3,0.1-0.3-0.1l0,0C74,47.1,74,47,73.9,47c-0.1-0.1-0.1-0.2,0.1-0.3
						c-0.2,0.2-0.1-0.2-0.1-0.2s-2.7-3.6-4.5-3.5c-0.1,0.1-0.2,0-0.3,0.2c-0.1,0,0-0.2-0.1-0.1c0,0.1-0.3,0.2-0.3,0.4h-0.1
						c-0.1,0.1,0.1,0,0,0.1l0.2-0.2c0,0.1,0,0.1,0,0.2c0.1,0,0.3-0.2,0.3,0l0,0c0.1,0.1-0.1,0.1-0.1,0.2l0,0v0.1c0-0.1-0.2,0-0.1,0
						c0,0.1,0-0.1,0.1,0c0,0-0.1,0.1-0.1,0.2L69,44c-0.1,0.1,0-0.1-0.1,0.1h0.2c-0.2,0.2,0.2,0,0,0.2c-0.1,0-0.1,0.1-0.1,0.1
						l0.2,0.1h-0.1c0,0.1,0.1,0,0.1,0c0,0.1,0.1,0.1,0,0.2c0,0.2,0.2-0.1,0.2,0.1c-0.1,0.1-0.1-0.1-0.1,0.1l0.1,0.1
						c0,0-0.1,0.1-0.2,0.1c0.2,0.4-0.1,0.9,0.3,1.1c-0.1,0.1-0.1,0-0.2,0.1c0.3,0.1,0.1,0.5,0.2,0.6l0.1-0.1c0,0.5,0.4,0.6,0.5,0.9
						v-0.1c0.1,0,0.2,0,0.2,0s-0.2,0.1-0.1,0.2c0,0,0-0.1,0.1-0.1c0,0.4,0.5,0.8,0.7,1.3c0.5,0.4,0.9,1.1,1.4,1.5
						c-0.1-0.1,0.1-0.2,0.2-0.1c-0.2,0.5,0.3,0.2,0.2,0.6c0.4,0.2,0.3,0.7,0.8,0.7l-0.1,0.1c0,0.1,0.1,0,0.1,0.1l0,0
						c0.1,0.1,0.3,0.1,0.3,0.2L74,52c0.1,0-0.1,0.1,0.1,0.1H74h0.2c-0.2,0.2,0.1,0.2,0.1,0.3c0.1,0,0.3,0.1,0.4,0.2
						c-0.1,0.1,0.1,0.2,0.1,0.4c0.2,0.1,0.4,0.3,0.6,0.6l0.1-0.1h0.1c0,0,0,0-0.1,0c-0.1,0.2,0.2,0.1,0.1,0.2c0.1-0.1,0-0.1,0-0.1
						c0-0.1,0.2-0.2,0.2-0.1l0,0h0.1c-0.1,0.1-0.1,0.2-0.2,0.3c0.2,0.2,0.5,0.1,0.6,0.4c-0.1,0.1,0.2,0.1-0.1,0.2
						c0.2,0,0.1-0.2,0.3-0.2c0,0,0.1,0,0,0.1c-0.1,0-0.1,0.1-0.1,0.1l0.1,0.1c0,0,0,0-0.1,0c0.3,0.1,0.2,0.4,0.4,0.4
						c0.1-0.1,0-0.1,0-0.1c0.3,0,0,0.2,0.2,0.3l-0.1,0.1c0.1,0,0.2-0.1,0.2,0.1c-0.1,0.1-0.1,0-0.2,0c0,0.1,0.2,0.1,0.2,0
						c0.1,0,0,0.1,0,0.2c0,0,0-0.1,0.1-0.1c0,0.1,0.1,0.2,0.2,0.4l-0.1,0.1C77.8,55.7,77.6,55.9,77.7,56z"/>
					<path class="st1" d="M83.1,60.4L83.1,60.4L83.1,60.4L83.1,60.4z"/>
					<path class="st1" d="M81.4,58.6L81.4,58.6L81.4,58.6z"/>
					<path class="st1" d="M80.8,58.3C80.9,58.3,80.9,58.3,80.8,58.3C80.9,58.3,80.8,58.3,80.8,58.3z"/>
					<path class="st1" d="M84.4,61.2L84.4,61.2L84.4,61.2z"/>
					<path class="st1" d="M87.1,64L87.1,64L87.1,64z"/>
					<path class="st1" d="M87.1,63.7L87.1,63.7L87.1,63.7z"/>
					<path class="st1" d="M83.7,60.5L83.7,60.5L83.7,60.5z"/>
					<path class="st1" d="M87,63.7L87,63.7L87,63.7L87,63.7z"/>
					<path class="st1" d="M87.1,64.1L87.1,64.1L87.1,64.1z"/>
					<path class="st1" d="M85.5,62.1L85.5,62.1L85.5,62.1z"/>
					<polygon class="st1" points="86.7,63.7 86.7,63.7 86.6,63.7 					"/>
					<path class="st1" d="M87.3,64.3C87.2,64.3,87.2,64.3,87.3,64.3C87.2,64.3,87.2,64.3,87.3,64.3C87.2,64.3,87.2,64.3,87.3,64.3z"
						/>
					<path class="st1" d="M86,62.8L86,62.8C86.1,62.7,86,62.7,86,62.8z"/>
				</g>
			</g>
		</g>
	</g>
</g>
<g>
	<g>
		<g>
			<g>
				<g>
					<path class="st1" d="M86.7,44.8L86.7,44.8L86.7,44.8z"/>
					<path class="st1" d="M84.7,46.2L84.7,46.2L84.7,46.2z"/>
					<path class="st1" d="M87.8,44L87.8,44C87.9,44,87.9,43.9,87.8,44L87.8,44z"/>
					<path class="st1" d="M80.7,49.5L80.7,49.5L80.7,49.5z"/>
					<path class="st1" d="M83.1,47.6C83.1,47.6,83.1,47.7,83.1,47.6C83.1,47.7,83.1,47.6,83.1,47.6z"/>
					<path class="st1" d="M89.4,44.4L89.4,44.4C89.3,44.4,89.4,44.4,89.4,44.4z"/>
					<path class="st1" d="M90.2,43.1C90.1,43.1,90.1,43.1,90.2,43.1C90.1,43.1,90.1,43.1,90.2,43.1z"/>
					<path class="st1" d="M89.5,43.2C89.5,43.3,89.5,43.3,89.5,43.2C89.5,43.3,89.5,43.3,89.5,43.2z"/>
					<path class="st1" d="M89.5,43.3L89.5,43.3L89.5,43.3z"/>
					<path class="st1" d="M67.7,63.1c0,0,0,0.1,0,0.2V63.1z"/>
					<path class="st1" d="M77.3,52.8L77.3,52.8L77.3,52.8z"/>
					<path class="st1" d="M68.2,63.7L68.2,63.7L68.2,63.7z"/>
					<path class="st1" d="M89,45.1C89,45.2,88.9,45.2,89,45.1C89,45.2,89.1,45.2,89,45.1z"/>
					<path class="st1" d="M79.1,56L79.1,56L79.1,56z"/>
					<path class="st1" d="M68.2,63.7L68.2,63.7L68.2,63.7L68.2,63.7z"/>
					<path class="st1" d="M73.8,56.2L73.8,56.2L73.8,56.2L73.8,56.2z"/>
					<path class="st1" d="M73.5,56.3C73.5,56.2,73.5,56.2,73.5,56.3C73.5,56.2,73.5,56.2,73.5,56.3z"/>
					<path class="st1" d="M67.7,63.2L67.7,63.2C67.7,63.3,67.7,63.3,67.7,63.2z"/>
					<path class="st1" d="M71.7,58.3L71.7,58.3C71.7,58.3,71.6,58.3,71.7,58.3z"/>
					<path class="st1" d="M83.2,47.5C83.3,47.5,83.3,47.5,83.2,47.5C83.3,47.5,83.2,47.5,83.2,47.5z"/>
					<path class="st1" d="M83.6,50.6L83.6,50.6L83.6,50.6z"/>
					<path class="st1" d="M83.6,50.5c0,0,0,0.1,0,0.2C83.6,50.6,83.7,50.6,83.6,50.5z"/>
					<path class="st1" d="M83.4,50.8L83.4,50.8C83.4,50.7,83.4,50.7,83.4,50.8z"/>
					<path class="st1" d="M85,49.4L85,49.4L85,49.4z"/>
					<path class="st1" d="M84.8,49.7C84.7,49.7,84.7,49.7,84.8,49.7C84.7,49.7,84.7,49.7,84.8,49.7z"/>
					<path class="st1" d="M82.9,51.7L82.9,51.7L82.9,51.7z"/>
					<path class="st1" d="M80.6,54.9c0.2-0.3,0.5-0.8,0.8-1c-0.1-0.2,0-0.3,0.1-0.4l0.2,0.2v-0.1c0.1,0,0,0.1,0.1,0.1l-0.1-0.1
						c0.1,0.1,0.2-0.1,0.2,0.1l0.3-0.3c0.1-0.1-0.1-0.2,0-0.2s0,0.1,0.1,0.1c0.3-0.1-0.1-0.6,0.2-0.7l0,0c0-0.1,0.1-0.1,0-0.2
						c-0.2-0.2,0.1,0.1-0.1,0.1c-0.1-0.2,0-0.2-0.1-0.3c0.1,0,0-0.1,0.1-0.2c0.2,0,0.2-0.1,0.4-0.1c0-0.1-0.1-0.3-0.1-0.3
						c0.2,0.1,0.1,0.1,0.2,0.1l-0.1-0.1c0.1,0,0.1,0,0.1,0c0.1-0.1-0.1-0.2,0.1-0.2v0.1c0-0.1,0.1-0.1,0.1-0.2c0,0.1,0,0.1,0,0.1
						c0.2,0.1,0-0.1,0.1-0.1c0,0-0.1,0-0.2-0.1c0.1,0,0-0.2,0.1-0.1v0.1c0-0.1-0.1-0.2,0.1-0.2c0,0,0,0,0,0.1
						c-0.1-0.2,0.1-0.1,0.2-0.2l0,0c0-0.1-0.1-0.2,0-0.2c-0.1,0-0.1,0-0.2-0.1c0.2,0.1-0.1-0.3,0.1-0.3c0,0.1,0.1,0.1,0,0.1
						c0.1,0.2,0.2,0.3,0.2,0.5c0-0.1,0-0.1,0.1-0.1l-0.1-0.2c0,0,0,0,0.1-0.1c-0.1-0.1-0.2-0.1-0.2-0.2c0-0.1,0.2,0.1,0.1,0
						c0-0.1-0.1-0.2,0-0.2v0.1c0.1,0,0.1-0.2,0.3,0c0,0,0.1,0.1,0,0.1l0,0c0.1,0.2,0-0.1,0.2,0.1c-0.1-0.1,0-0.1,0.1-0.2l-0.1,0
						c-0.2-0.4,0.2,0.2,0.3,0c0-0.1-0.1,0-0.1-0.1c0.1,0,0.2,0,0.2-0.1c0.1,0,0.2,0,0.3,0.1c0-0.1,0.2-0.1,0.1-0.2
						c-0.2,0,0,0.2-0.2,0.1l-0.1-0.1c0.1-0.1,0.1-0.2,0.2-0.2c0,0-0.1,0-0.1-0.1c0.1-0.1,0-0.3,0.1-0.3c0.1,0.1,0,0.1,0,0.2
						c0.1,0,0.1-0.1,0.2-0.1c0.1,0.1-0.1,0.1,0,0.2l0.1-0.1l0,0c-0.1-0.2,0.1-0.1,0.1-0.2c0.1-0.1,0-0.4-0.1-0.6
						c0.1,0,0.1,0.1,0.1,0.1c-0.1,0,0,0,0,0.1c0-0.1,0.3,0,0.3,0.1c0-0.1-0.1-0.1-0.1-0.1l0.1-0.1c-0.1-0.1-0.1,0-0.1-0.2
						c0-0.1,0.1-0.1,0.1-0.1l0.1,0.1c0.1,0,0.1,0,0.1-0.1c-0.1,0,0-0.2-0.1-0.2h0.1v0.1c0.1,0.1,0-0.1,0-0.1s0.1-0.1,0.2,0
						c0-0.1,0.1-0.1,0.1,0c0-0.1-0.1-0.1-0.1-0.1l0.1-0.1c0.1,0.1,0.3,0.2,0.3,0.3c0-0.1-0.2-0.2-0.1-0.3c0.1,0.2,0.2,0,0.3,0.2
						c0.1,0.1,0.2,0,0.2-0.1c-0.1-0.1-0.1,0-0.2-0.1c0.1-0.2-0.1-0.5,0-0.5h-0.1c0-0.1,0-0.1,0-0.2c0.1,0.1,0.4,0.3,0.5,0.1
						c-0.1-0.1-0.2-0.1-0.3-0.2l0.1-0.1c0,0,0,0,0,0.1c0-0.1,0.3,0,0.2-0.1l0.3,0.1L87,46.9c-0.1-0.1,0-0.2,0-0.2
						c0-0.1,0.1-0.1,0.2-0.1c-0.1,0-0.2-0.1-0.2-0.2c0.2,0.2,0.2-0.1,0.3,0.1c0,0,0.1,0,0.1-0.1l0.1,0.1c-0.2-0.2-0.1-0.3,0-0.4
						c0.2,0.3,0.1-0.1,0.3,0.1c-0.2-0.2,0.1-0.2-0.1-0.3c0-0.1,0.2,0.1,0.3,0.1v-0.1c0.1,0,0.2,0,0.3,0l-0.1-0.2h0.1
						c0,0,0-0.1-0.1-0.1l0,0c-0.2-0.2,0-0.1,0-0.2l0.1,0.1c0,0,0.1,0.1,0.2,0.1c-0.1,0-0.2-0.4-0.3-0.4c-0.1-0.1-0.1-0.2,0-0.2
						l0.2,0.1l-0.1-0.2c0-0.1,0.1,0,0.2,0c0,0,0.2,0.4,0.3,0.3c0,0.1,0,0.2,0,0.2s0.1,0,0.1,0.1c0-0.1-0.1-0.1,0-0.2
						c0.1,0.1,0.2,0.2,0.3,0.1h-0.1l0,0c0,0-0.1,0-0.1-0.1c0,0-0.1-0.2,0-0.2c-0.3-0.1,0-0.3-0.2-0.4c0,0,0-0.1,0.1,0
						c0,0.2,0.2,0.1,0.3,0.2c0-0.1-0.1,0-0.2-0.1c0,0,0.1,0,0.2,0l0,0h0.1c-0.1-0.1-0.2-0.1-0.1-0.1c0,0,0.1-0.1,0.1,0
						c0.1,0.1,0.2,0.2,0.2,0.3c0,0,0.1-0.2,0-0.3h0.1c-0.1,0-0.3,0-0.2-0.2l0,0v-0.2h0.1c0,0-0.1-0.1,0-0.1c0,0,0.1,0,0.1,0.1
						c0.1-0.1,0-0.1,0-0.2c0,0,0.1,0,0.1,0.1c0.1,0,0.1-0.1,0.3-0.1c0-0.1,0,0-0.1-0.1c0.3,0.2,0.3-0.1,0.4-0.3
						c-0.2-0.2,0-0.1-0.1-0.3c0,0.1,0.3,0,0.2,0.2v-0.1c0.1,0.1,0,0.2,0.2,0.3c0.1-0.1-0.1-0.3,0.1-0.3c0.1,0.2,0-0.1,0.1,0.1
						c0,0.1,0,0.1,0,0.1l0,0c0.2-0.1-0.1-0.2-0.1-0.4c0.1-0.1,0.2,0,0.3,0.1l0.1-0.1c0,0.1-0.2,0-0.3-0.1c0.2,0.1,0.2-0.1,0.1-0.2
						c-0.3,0-0.1,0.1-0.4,0c0,0.1,0.2,0.2,0,0.2c0-0.1-0.1-0.1-0.1-0.1c0.1,0.1,0,0.1,0,0.1c-0.1,0-0.1-0.2-0.3-0.2l0.2,0.2
						c-0.1,0-0.1-0.2-0.1,0c-0.1-0.1-0.2-0.1-0.1-0.3c-0.3-0.1-0.1,0.2-0.1,0.4c0,0,0,0,0-0.1c0,0.1,0,0.1,0,0.1
						c-0.1,0,0-0.1-0.1-0.2l-0.1,0.1l0,0c0,0,0,0.1-0.1,0c0-0.1-0.1-0.2-0.1-0.2v0.2c-0.1-0.1-0.2,0-0.2-0.1l-0.1,0.2l-0.1-0.1
						c0,0.1,0,0.1,0.1,0.1c-0.1,0,0,0.4-0.2,0.1c0,0.2-0.1,0.2-0.1,0.4c0-0.2-0.3,0-0.2-0.2c-0.1,0,0,0.2,0,0.2
						c-0.1,0-0.2-0.2-0.2-0.3v0.1l0,0v0.1c-0.1,0-0.1-0.1-0.2-0.1l0.1,0.1h-0.1c0.1,0,0.1,0.1,0,0.1l0,0v0.1c0-0.1-0.1,0-0.1-0.1
						c0,0,0,0-0.1,0.1l0.1,0.1c0,0.2-0.1-0.1-0.2,0l0.1,0.1c-0.3,0-0.1,0.3-0.3,0.3c0-0.1-0.1-0.2-0.1-0.1c0,0.1-0.2,0.2-0.1,0.4
						c-0.2-0.1-0.2-0.1-0.3-0.1c0,0.1,0,0.1,0,0.2c-0.1,0-0.1,0.2-0.2,0.1c0.1,0.1-0.1,0,0,0.1l0,0l0.1,0.1c-0.3-0.1,0,0.3-0.3,0.2
						l0,0v0.1l-0.1-0.1l-0.2,0.2h0.1c0,0,0,0.2-0.1,0.2c-0.1-0.2-0.1,0.1-0.2,0v-0.1c0,0.1,0,0.1,0,0.1c0,0.1-0.2-0.1-0.2,0h0.1
						c0.1,0,0.1,0.1,0.1,0.2c0,0-0.1,0-0.1-0.1c0,0.1-0.2,0.1-0.1,0.2c-0.1,0-0.1-0.1-0.1-0.1c0,0.2-0.1,0-0.1,0.2V46v0.1L85.9,46
						H86c0,0,0,0.1-0.1,0.1L85.2,46c-0.1,0.2-0.3,0-0.3,0.2c0,0,0,0,0-0.1c0,0.2-0.2-0.1-0.2,0.2l-0.1-0.1v0.1l-0.1-0.1l0.1,0.2
						l-0.1-0.1v0.1c-0.2-0.1-0.2,0.1-0.4,0l0.1,0.1c0.1,0.4-0.5,0.2-0.6,0.5l-0.1-0.1v0.2c-0.1,0-0.1-0.1-0.1-0.2
						c0,0.1,0.1,0.2,0,0.3c-0.1,0-0.1-0.1-0.1-0.2c0,0.1-0.1,0.3-0.3,0.4l0,0c0,0.1-0.1,0.1-0.2,0.2v-0.1c0,0-0.1,0-0.1,0.1
						l-0.1-0.1c-0.1,0-0.1,0.2-0.2,0.1c0,0,0.1,0.1,0.1,0.2c-0.2-0.1-0.1,0.2-0.2,0.2v-0.1c-0.1,0,0,0.1,0,0.2L82.2,48l-0.1,0.3
						c-0.2-0.1-0.1,0.2-0.2,0.1c-0.1,0.1,0.1,0,0.1,0.1c-0.1,0,0,0.1-0.1,0l0,0v0.1l0.1-0.1c0,0.1,0,0.2,0.1,0.3
						c-0.1,0-0.1,0.1-0.2,0l0,0c-0.1,0.2-0.5-0.1-0.4,0.2l0,0h-0.2l-0.1-0.1v0.2V49c-0.1,0.1-0.2,0.2-0.3,0.3l0,0
						c0,0.2-0.2,0.1-0.2,0.2l0,0l-0.1,0.1v-0.1c0.1,0.2-0.3,0-0.2,0.1c0,0.1,0,0.2,0.1,0.3c-0.1,0.1-0.1,0-0.2,0
						c-0.1,0.1,0,0.2-0.1,0.2V50c0,0,0,0.1-0.1,0.2l0,0c0,0.2-0.3,0-0.1,0.3c-0.1,0-0.1,0.1-0.2,0c0,0.2-0.1,0.3-0.2,0.4
						c-0.2-0.2,0,0-0.2,0l0.1,0.1c-0.1,0.2-0.5,0.1-0.7,0.3l-0.1-0.1l0.1,0.1c-0.2,0.1-0.5,0.3-0.7,0.5c0,0.1,0,0.3-0.1,0.3l0,0
						c-0.1,0.2-0.2,0.4-0.4,0.5l-0.1-0.1c0.1,0.1-0.1,0.1-0.1,0.1h0.1c0,0.1-0.1,0.1-0.2,0.1v0.2l0,0V53l-0.2-0.1c0,0,0,0.2,0,0.3
						c0,0-0.1,0-0.1-0.1l-0.3,0.2h0.1c0.1,0.1,0.1,0.2,0,0.2c0-0.1-0.1-0.1-0.2-0.2c0,0.1,0.1,0.1,0.1,0.1c0,0.1,0,0.2-0.1,0.2v-0.1
						c0,0.1-0.2,0-0.3,0c0,0.1-0.1,0.1,0.1,0.2c0,0.1-0.1-0.1-0.2-0.1c0,0.1-0.1,0.2-0.2,0.1c0.2,0.3-0.3,0.1-0.1,0.3l0,0
						c0,0.1,0.2,0.2,0.1,0.2s-0.2-0.1-0.2-0.2l0.2,0.2c-0.5,0.1-0.7,0.5-1.1,0.6c-0.1,0.2-0.2,0.4-0.3,0.5l0,0l-0.2,0.1h0.2
						c0,0.1,0,0.1,0,0.1c-0.2,0.1-0.6,0.2-0.7,0.5c0.1,0.3-0.3-0.1-0.2,0.2v-0.1c-0.1,0.2-0.1,0.3-0.1,0.6c-0.2-0.2-0.1,0.1-0.2,0
						l0.1,0.1c-0.1,0-0.2,0-0.2,0l0.1,0.2l-0.1-0.1c-0.1,0.1-0.2,0.3-0.4,0.2c-0.1,0.3-0.4,0.6-0.7,0.8c0,0.1,0,0.2-0.1,0.2L71.9,58
						c0,0.1,0.1,0.3-0.1,0.3l0,0c0,0.1-0.1,0.1-0.1,0.2c-0.1,0.1-0.2,0.1-0.3-0.1c0.2,0.2-0.2,0.1-0.2,0.1s-3.6,2.7-3.5,4.5
						c0.1,0.1,0,0.2,0.2,0.3c0,0.1-0.2,0-0.1,0.1c0.1,0,0.2,0.3,0.4,0.3v0.1c0.1,0.1,0-0.1,0.1,0L68,63.6c0.1,0,0.1,0,0.2,0
						c0-0.1-0.2-0.3,0-0.3l0,0c0.1-0.1,0.1,0.1,0.2,0.1l0,0h0.1c-0.1,0,0,0.2,0,0.1c0.1,0-0.1,0,0-0.1c0,0,0.1,0.1,0.2,0.1l0.1-0.1
						c0.1,0.1-0.1,0,0.1,0.1v-0.2c0.2,0.2,0-0.2,0.2,0c0,0.1,0.1,0.1,0.1,0.1l0.1-0.2v0.1c0.1,0,0-0.1,0-0.1c0.1,0,0.1-0.1,0.2,0
						c0.2,0-0.1-0.2,0.1-0.2c0.1,0.1-0.1,0.1,0.1,0.1l0.1-0.1c0,0,0.1,0.1,0.1,0.2c0.4-0.2,0.9,0.1,1.1-0.3c0.1,0.1,0,0.1,0.1,0.2
						c0.1-0.3,0.5-0.1,0.6-0.2l-0.1-0.1c0.5,0,0.6-0.4,0.9-0.5h-0.1c0-0.1,0-0.2,0-0.2s0.1,0.2,0.2,0.1c0,0-0.1,0-0.1-0.1
						c0.4,0,0.8-0.5,1.3-0.7c0.4-0.5,1.1-0.9,1.5-1.4c-0.1,0.1-0.2-0.1-0.1-0.2c0.5,0.2,0.2-0.3,0.6-0.2c0.2-0.4,0.7-0.3,0.7-0.8
						l0.1,0.1c0.1,0,0-0.1,0.1-0.1l0,0c0.1-0.1,0.1-0.3,0.2-0.3l-0.1-0.1c0-0.1,0.1,0.1,0.1-0.1v0.1v-0.2c0.2,0.2,0.2-0.1,0.3-0.1
						c0-0.1,0.1-0.3,0.2-0.4c0.1,0.1,0.2-0.1,0.4-0.1c0.1-0.2,0.3-0.4,0.6-0.6l-0.1-0.1v-0.1c0,0,0,0,0,0.1c0.2,0.1,0.1-0.2,0.2-0.1
						c-0.1-0.1-0.1,0-0.1,0c-0.1,0-0.2-0.2-0.1-0.2l0,0v-0.1c0.1,0.1,0.2,0.1,0.3,0.2c0.2-0.2,0.1-0.5,0.4-0.6
						c0.1,0.1,0.1-0.2,0.2,0.1c0-0.2-0.2-0.1-0.2-0.3c0,0,0-0.1,0.1,0c0,0.1,0.1,0.1,0.1,0.1l0.1-0.1c0,0,0,0,0,0.1
						c0.1-0.3,0.4-0.2,0.4-0.4c-0.1-0.1-0.1,0-0.1,0c0-0.3,0.2,0,0.3-0.2l0.1,0.1c0-0.1-0.1-0.2,0.1-0.2c0.1,0.1,0,0.1,0,0.2
						c0.1,0,0.1-0.2,0-0.2c0-0.1,0.1,0,0.2,0c0,0-0.1,0-0.1-0.1C80.3,55.2,80.4,55.1,80.6,54.9l0.1,0.2C80.3,54.7,80.6,55,80.6,54.9
						z"/>
					<path class="st1" d="M85.1,49.4L85.1,49.4L85.1,49.4L85.1,49.4z"/>
					<path class="st1" d="M83.2,51.1L83.2,51.1C83.3,51.1,83.2,51.1,83.2,51.1z"/>
					<path class="st1" d="M83,51.7C83,51.7,82.9,51.7,83,51.7C82.9,51.7,82.9,51.7,83,51.7z"/>
					<path class="st1" d="M85.8,48.1C85.8,48.2,85.8,48.2,85.8,48.1C85.9,48.2,85.8,48.1,85.8,48.1z"/>
					<path class="st1" d="M88.7,45.4L88.7,45.4C88.7,45.4,88.7,45.5,88.7,45.4z"/>
					<path class="st1" d="M88.4,45.4C88.4,45.4,88.4,45.5,88.4,45.4C88.4,45.5,88.4,45.5,88.4,45.4z"/>
					<path class="st1" d="M85.2,48.8C85.2,48.9,85.2,48.9,85.2,48.8C85.2,48.9,85.2,48.9,85.2,48.8z"/>
					<path class="st1" d="M88.4,45.5L88.4,45.5C88.3,45.6,88.3,45.6,88.4,45.5L88.4,45.5z"/>
					<path class="st1" d="M88.8,45.4C88.7,45.4,88.7,45.4,88.8,45.4C88.7,45.5,88.8,45.4,88.8,45.4z"/>
					<path class="st1" d="M86.7,47L86.7,47C86.7,47.1,86.7,47,86.7,47z"/>
					<path class="st1" d="M88.4,45.9L88.4,45.9L88.4,45.9z"/>
					<path class="st1" d="M89,45.3L89,45.3L89,45.3L89,45.3z"/>
					<path class="st1" d="M87.5,46.6C87.4,46.5,87.4,46.5,87.5,46.6C87.4,46.5,87.4,46.5,87.5,46.6z"/>
				</g>
			</g>
		</g>
	</g>
</g>
<g id="Layer_2">
</g>
<g id="Layer_2_1_">
</g>
</svg>
