<?xml version="1.0" encoding="utf-8"?>
<!-- Generator: Adobe Illustrator 25.1.0, SVG Export Plug-In . SVG Version: 6.00 Build 0)  -->
<svg version="1.1" xmlns="http://www.w3.org/2000/svg" xmlns:xlink="http://www.w3.org/1999/xlink" x="0px" y="0px"
	 viewBox="0 0 144.9 132.3" style="enable-background:new 0 0 144.9 132.3;" xml:space="preserve">
<style type="text/css">
	.st0{fill:#161413;}
	.st1{fill:#F1EADC;}
	.st2{fill:#EF7EB0;}
	.st3{fill:none;stroke:#FFFFFF;stroke-miterlimit:10;}
	.st4{fill:none;stroke:#FFFFFF;stroke-width:2;stroke-linecap:round;stroke-linejoin:round;}
	
		.st5{fill:none;stroke:#FFFFFF;stroke-width:2;stroke-linecap:round;stroke-linejoin:round;stroke-dasharray:5.3004,5.3004,5.3004,5.3004;}
	
		.st6{fill:none;stroke:#FFFFFF;stroke-width:2;stroke-linecap:round;stroke-linejoin:round;stroke-dasharray:5.3004,5.3004,5.3004,5.3004,5.3004,5.3004;}
	.st7{fill:#1C3B2A;}
	.st8{fill:#E84820;}
	
		.st9{fill:none;stroke:#FFFFFF;stroke-width:2;stroke-linecap:round;stroke-linejoin:round;stroke-dasharray:5.4243,5.4243,5.4243,5.4243;}
	
		.st10{fill:none;stroke:#FFFFFF;stroke-width:2;stroke-linecap:round;stroke-linejoin:round;stroke-dasharray:5.4243,5.4243,5.4243,5.4243,5.4243,5.4243;}
	.st11{fill:#F49F2E;}
	.st12{fill:#F1ECDC;}
	.st13{fill:#FFFFFF;}
	.st14{fill:#5577BA;}
	.st15{fill:#FFF5DC;}
	.st16{fill:none;}
	
		.st17{fill:none;stroke:#FFFFFF;stroke-width:2;stroke-linecap:round;stroke-linejoin:round;stroke-dasharray:5.4063,5.4063,5.4063,5.4063;}
	
		.st18{fill:none;stroke:#FFFFFF;stroke-width:2;stroke-linecap:round;stroke-linejoin:round;stroke-dasharray:5.4063,5.4063,5.4063,5.4063,5.4063,5.4063;}
	
		.st19{fill:none;stroke:#FFFFFF;stroke-width:2;stroke-linecap:round;stroke-linejoin:round;stroke-dasharray:4.5833,4.5833,4.5833,4.5833;}
	
		.st20{fill:none;stroke:#FFFFFF;stroke-width:2;stroke-linecap:round;stroke-linejoin:round;stroke-dasharray:4.5833,4.5833,4.5833,4.5833,4.5833,4.5833;}
	.st21{fill:#282521;}
	.st22{fill:#151413;}
	.st23{fill:#FDF4E8;}
	.st24{fill:#020203;}
	.st25{fill:#204232;}
	.st26{fill:#FDF4E8;stroke:#000000;stroke-miterlimit:10;}
	.st27{fill:none;stroke:#000000;stroke-width:0.25;stroke-miterlimit:10;}
	.st28{fill:#FDF4E8;stroke:#000000;stroke-width:0.25;stroke-miterlimit:10;}
	.st29{fill:#204730;}
	.st30{fill:#1F422B;}
	.st31{fill:#F1ECDC;stroke:#000000;stroke-width:2;stroke-miterlimit:10;}
	.st32{opacity:0.7;}
	.st33{opacity:0.6;}
	.st34{clip-path:url(#SVGID_32_);}
	.st35{fill:#B5CCBE;}
	.st36{clip-path:url(#SVGID_34_);}
	.st37{clip-path:url(#SVGID_38_);}
	.st38{clip-path:url(#SVGID_40_);}
</style>
<g id="Calque_1">
	<g>
		<g>
			<path class="st12" d="M41.4,9.7C4,22.8,7.4,39.8,1.5,58.2c-2,6.1-1.9,24.4-0.6,30.6c1.7,9,9.2,16.5,17.4,22.4
				c20.9,15,48.9,22.7,76.2,21c4.7-0.3,9.5-0.9,13.7-2.9c3.7-1.8,6.6-4.5,9.3-7.3c20-20.6,33.1-48.4,25.2-74.4
				c-3.2-10.6-9.6-20.2-16-29.7c-2.6-3.8-5.2-7.7-9.2-10.6c-4.2-3-9.5-4.5-14.8-5.5C82-2.2,59.7,0.7,41.4,9.7"/>
		</g>
		<g>
			<g>
				<g>
					<g>
						<g>
							<path class="st11" d="M78,80C78,80,78,80,78,80C78,80,78,80,78,80z"/>
							<path class="st11" d="M80.1,69.6l0,0.1C80.1,69.6,80.1,69.6,80.1,69.6z"/>
							<path class="st11" d="M76.1,86C76.1,86,76.1,86,76.1,86c0,0.1-0.1,0.2-0.2,0.4L76.1,86z"/>
							<path class="st11" d="M77.1,46.9l0.1,0.1C77.2,47,77.2,47,77.1,46.9z"/>
							<path class="st11" d="M80.2,60.3c0,0,0-0.1-0.1-0.2C80.1,60.2,80.1,60.2,80.2,60.3z"/>
							<path class="st11" d="M73.7,88.7l0.1-0.1C73.8,88.6,73.8,88.6,73.7,88.7z"/>
							<path class="st11" d="M71.9,94.8C71.9,94.8,71.9,94.8,71.9,94.8C71.9,94.8,71.9,94.8,71.9,94.8z"/>
							<path class="st11" d="M73.1,92.6c0-0.1,0-0.1,0-0.2C73.1,92.5,73.1,92.6,73.1,92.6z"/>
							<path class="st11" d="M73.1,92.4L73.1,92.4C73.1,92.4,73.2,92.4,73.1,92.4z"/>
							<path class="st11" d="M70,98.1c0.1,0.2,0.3,0.3,0.4,0.4L70,98.1z"/>
							<path class="st11" d="M66.4,36.8L66.4,36.8C66.4,36.8,66.4,36.8,66.4,36.8z"/>
							<path class="st11" d="M70.8,97.8l0.1,0.1C70.9,97.9,70.8,97.9,70.8,97.8z"/>
							<path class="st11" d="M74.5,85.5c0-0.2,0.2-0.5,0.1-0.5C74.6,85.1,74.4,85.4,74.5,85.5z"/>
							<path class="st11" d="M68.4,42.6l0,0.1C68.4,42.7,68.4,42.7,68.4,42.6z"/>
							<path class="st11" d="M70.8,97.8l-0.1-0.1C70.7,97.7,70.7,97.7,70.8,97.8C70.8,97.8,70.8,97.8,70.8,97.8z"/>
							<path class="st11" d="M62.3,58.6L62.3,58.6C62.3,58.6,62.3,58.6,62.3,58.6L62.3,58.6z"/>
							<path class="st11" d="M62,59.8c0-0.1,0-0.2,0-0.2C62,59.6,62,59.7,62,59.8z"/>
							<path class="st11" d="M70.4,98.5l0.2,0.2C70.6,98.6,70.5,98.5,70.4,98.5z"/>
							<path class="st11" d="M62.4,72l0-0.1C62.3,72,62.3,72,62.4,72z"/>
							<path class="st11" d="M80.2,61.1c0,0,0,0.1,0,0.1C80.2,61.2,80.2,61.2,80.2,61.1z"/>
							<polygon class="st11" points="76.4,53.3 76.4,53.3 76.4,53.3 							"/>
							<path class="st11" d="M76.6,53.7c0-0.1-0.1-0.3-0.2-0.4C76.4,53.5,76.5,53.6,76.6,53.7z"/>
							<path class="st11" d="M76.2,52.4C76.2,52.5,76.2,52.5,76.2,52.4C76.2,52.5,76.2,52.5,76.2,52.4z"/>
							<polygon class="st11" points="77.6,61 77.6,61 77.6,61 							"/>
							<path class="st11" d="M77.4,59.3c0,0,0-0.1,0-0.1C77.4,59.2,77.4,59.2,77.4,59.3z"/>
							<polygon class="st11" points="74.5,48.5 74.5,48.5 74.5,48.5 							"/>
							<path class="st11" d="M69.5,39.6c0,0,0-0.1,0-0.1c0-0.2,0.1-0.2,0.1,0c0.1,0,0.2,0,0.2,0c0,0,0.1,0.1,0.1,0.1c0,0,0,0,0,0.1
								l0.1,0.2L69.9,40l0.3,0.4c0,0.2-0.2-0.3-0.1,0l0.2,0.1c-0.1,0.1,0.4,1.1-0.1,0.5l0.7,1.6c0.2,0.3,0.3,0.1,0.4,0.5
								c0,0.1-0.1-0.1-0.2,0c0.4,1.2,1.1,1.1,1.5,2.2l-0.1-0.1c0.1,0.1,0.3,0.5,0.3,0.5c0.2-0.2-0.2-0.1-0.2-0.5
								c0.2-0.1,0.3,0.3,0.4,0.3c0,0.3,0.2,0.4,0.3,0.6c0,0.4,0.4,0.9,0.3,1.3c0.1,0.2,0.4,0.3,0.6,0.7c0,0.3-0.2,0-0.1,0.4l0.1,0
								c0.1,0.3,0.1,0.3,0,0.3c0.1,0.3,0.3,0.2,0.4,0.7L74.6,49c0.2,0.3,0.2,0.4,0.4,0.9c-0.1,0-0.1-0.2-0.2-0.3
								c-0.1,0.3,0.2,0.4,0.3,0.5c0-0.1-0.1-0.4,0.1-0.3c0.1,0.2,0.3,0.4,0.2,0.6l-0.2-0.2c0.3,0.4,0.2,0.2,0.4,0.7c0,0,0,0-0.1,0
								c0.3,0.3,0.3,0.8,0.4,1.2l-0.1-0.1c0.1,0.2,0.2,0.3,0.3,0.4c0-0.3,0-0.2,0.1-0.3c-0.1,0.4,0.4,0.5,0.5,1.1
								c-0.1,0-0.2-0.1-0.2-0.3c-0.3-0.2-0.4-0.1-0.6-0.5c0.1,0.2,0.2,0.5,0.1,0.4l0.2,0c0,0.1,0.1,0.3,0.1,0.4c0.1,0,0.1-0.3,0.3,0
								c0.2,0.4-0.1,0.2,0,0.3c0.2,0.5,0.3,0.2,0.3,0.7c0,0-0.1-0.1-0.1-0.2c0,0.4,0.2,0.9,0,1c-0.1,0-0.1,0-0.1-0.2l0,0
								c-0.3-0.3,0.1,0.3-0.1,0.2c0.1-0.1,0.2,0.4,0.2,0.7l0.1-0.1c0.6,0.7-0.3,0-0.1,0.7c0.2,0.4,0-0.2,0.2,0.1
								c0,0.3-0.1,0.5,0.1,0.9c0,0.1-0.1,0.4-0.2,0.5c0.1,0.3,0,0.9,0.2,1c0.1-0.5-0.2-0.5-0.1-1l0.2,0.1c0,0.4,0.2,0.9,0.2,1.2
								c0-0.1,0.1-0.1,0.1-0.1c0.1,0.6,0.3,0.7,0.3,1.3c-0.1,0.1-0.1-0.2-0.2-0.5c-0.1,0.4,0,0.4,0,0.9c-0.1,0,0-0.4-0.2-0.4
								l0.1,0.6c0,0,0,0,0,0c0.2,0.1,0,0.5,0.1,0.8c0.1,0.9,0.3,1,0.5,1.5c-0.1,0.1-0.1,0.2-0.2,0.1c0.1-0.2,0-0.2,0-0.3
								c0,0.3-0.2,0.7-0.3,0.5c0.1,0.5,0.1-0.2,0.2,0.1l0,0.7c0.1-0.1,0.1-0.3,0.2,0c0,0.3,0,0.4,0,0.8c-0.1-0.1-0.2,0.1-0.2-0.2
								c0,0.2-0.1,0.5,0.1,0.6c0.1-0.4,0.1,0.7,0.3,0.4l-0.1,0.4c0-0.1-0.1-0.1,0-0.2c-0.2,0.1,0,0.3,0.1,0.5c0,0.1-0.1,0.5-0.1,0.5
								c0,0.1,0,0.4-0.1,0.5c0,0.2,0.1,0,0.2,0.1c0,0.2,0,0.4-0.1,0.7c-0.1,0-0.4,0.1-0.4,0c0.1,0.3,0.3,0.1,0.2,0.5
								c-0.2-0.2-0.2,0.5-0.4,0.2c-0.1,0.2-0.2,0.8-0.2,1.1c0.1,0.2,0.1-0.4,0.3-0.3c0,0.9,0.4,1,0.2,1.7l0.1-0.2
								c0,0.4,0,0.4,0.1,0.7c-0.2-0.1-0.5,0.4-0.6,1.1c0.1,0.1,0.2-0.4,0.4-0.2l0,0.5c0,0,0,0-0.1-0.1c0,0.4-0.3,0.7-0.2,0.9
								l-0.3,0.4l0.1-0.1c0.1,0.1,0,0.5,0,0.6c0,0.5-0.1,0.7-0.3,0.9c0.1-0.1,0.3-0.2,0.2,0.1c-0.3-0.1-0.3,0.8-0.4,0.7
								c0,0.2-0.2,0.4-0.1,0.4l-0.2-0.1c0.2,0.1,0.1,0.6,0.1,1.1c-0.3-0.2-0.1,0.5-0.4,0.6c0.2,0.1-0.1,0.8,0.1,0.9
								c-0.1,0.3-0.3,0.2-0.4,0.3l0,0.2c-0.1,0.1-0.3,0.7-0.5,1.1l0.1,0.4l-0.1,0.1c0,0.1,0,0.4,0.1,0.2l-0.1,0.2
								c0.2,0.1,0,0.3,0,0.7c-0.1,0.1-0.1,0-0.1,0c-0.1,0.2-0.1,0.1-0.2,0.1c0.1-0.1,0.2,0.8,0.4,0.3c0.1,0,0.1,0.3,0,0.5l-0.2,0.1
								l0.1,0.3c-0.1,0.3-0.2,0.4-0.3,0.6c0.1-0.2-0.2-0.6-0.4,0c0.1-0.3,0-0.5,0-0.7c0,0.1-0.1,0.2-0.1,0c-0.1,0.5,0.1,0.2,0,0.6
								c-0.2-0.1-0.3,0-0.4,0.4l0.2-0.3c0,0,0,0,0,0.1c0.1-0.1,0.1-0.1,0.2-0.1c0,0.1,0.1,0.6-0.1,0.6c0.4-0.4,0,0.9,0.2,0.6
								c0,0.1-0.1,0.4-0.2,0.4c0-0.4-0.3,0.2-0.4,0.1c0,0.2,0.2-0.3,0.2,0c-0.1,0.2-0.2,0.4-0.3,0.5l0-0.1l-0.2,0.3
								c0.1,0.1,0.3-0.3,0.2,0c-0.1,0.1-0.1,0.4-0.2,0.4c-0.1-0.2-0.3-0.1-0.2-0.4c-0.1,0.2-0.3,1,0,0.7l-0.1,0.3
								c0.1-0.1,0.4-0.6,0.3,0l0,0l0,0.4l-0.1,0.1c0,0,0.1,0.1,0,0.2c-0.1,0-0.1,0.1-0.2,0.1c-0.1,0.4,0,0.4,0,0.5
								c-0.1,0.2-0.1,0.3-0.2,0.2c-0.1,0.3-0.3,0.8-0.5,1c-0.1,0.4,0.1-0.1,0.1,0.2c-0.4,0.2-0.6,1.3-0.8,2c0.3-0.1,0,0.2,0.1,0.4
								c0-0.2-0.4,0.6-0.3-0.1L72,93.5c-0.2,0.2,0.1-0.6-0.2-0.3c-0.1,0.4,0,0.8-0.2,1.2c-0.1-0.2-0.1,0.4-0.2,0.2
								c0-0.1,0-0.2,0.1-0.4l-0.1,0.1c-0.4,0.9,0.1,0.3,0.1,0.8c-0.2,0.5-0.3,0.4-0.4,0.4c-0.1,0.1-0.1,0.3-0.2,0.5
								c0-0.4,0.4-0.6,0.4-0.4c-0.3,0.2-0.3,0.8-0.3,1c0.5-0.7,0.2-0.5,0.7-1.1c0-0.1-0.2-0.2,0-0.6c0,0.3,0.1,0,0.2,0
								c-0.1,0,0.1-0.3,0.1-0.5c0.1-0.1,0.1,0.4,0.4-0.1l-0.2-0.2c0.1-0.2,0.2,0.1,0.2-0.2c0.1,0.2,0.2,0,0.1,0.5
								c0.4-0.5,0.2-1,0.3-1.4c0,0.1,0,0.1,0,0.1c0-0.1,0-0.3,0.1-0.4c0.2-0.3,0,0.3,0.1,0.2l0.2-0.5c0,0,0,0,0,0
								c0-0.1,0-0.3,0.1-0.3c0,0.2,0.1,0.3,0.1,0.4l0-0.6c0.1,0.1,0.3-0.4,0.2,0l0.2-0.8l0.2,0c0-0.2,0-0.2-0.1,0
								c0.1-0.2,0.1-1.3,0.4-1c0.1-0.7,0.2-0.9,0.4-1.6c0,0.6,0.4-0.6,0.3,0c0.2-0.3,0-0.5,0.1-0.7c0.2-0.2,0.3-0.1,0.3,0.2l0-0.4
								l0,0l0-0.3c0.2-0.3,0.2,0,0.3-0.3l-0.1-0.1l0.2-0.2c-0.1,0.1-0.1-0.1,0-0.4l0,0l0.1-0.3c0,0.3,0.1-0.2,0.2-0.1
								c0.1-0.2,0.1-0.2,0.2-0.7l-0.1,0c0.1-0.6,0.2,0,0.3-0.4l-0.1,0c0.4-0.6,0.2-1.2,0.5-1.6c-0.1,0.3,0.1,0.3,0.1,0.2
								c0.1-0.4,0.3-1.1,0.3-1.6c0.2-0.1,0.3-0.1,0.5-0.6c0.1-0.3,0.1-0.4,0-0.5c0.1-0.3,0.2-0.9,0.3-0.9c-0.1-0.1,0.1-0.3,0-0.5
								l0.1,0l-0.1,0c0.4-0.5,0.1-1,0.4-1.5l0,0.1l0-0.3c0.1,0,0.1,0.1,0.1,0.1l0.3-1.1L78.6,77c0-0.2-0.1-0.4,0.1-0.7
								c0.1,0.5,0.1-0.4,0.2-0.4l0,0.3c0.1-0.3,0.1-0.3-0.1-0.3c0-0.4,0.3-0.3,0.2-0.7L79,75.4c-0.1,0.1-0.2-0.2-0.1-0.3
								c0,0,0.1-0.2,0.1,0c0-0.3,0.2-0.8,0.1-1c0.1-0.2,0.1-0.1,0.2,0c0-0.8,0.1-0.3,0.1-1.1l0.1,0l0-0.3l0.2-0.3l-0.1,0.1
								c0-0.2,0-0.4,0.1-0.7l0.1,0.1c0-0.7,0.3-0.8,0.2-1.4c0,0,0,0.1,0.1,0.1c-0.1-0.6,0.2-0.4,0.1-1.1c0,0,0.1,0,0.1,0l0-0.3
								l0.1,0L80,69.1l0.2-0.2l-0.1-0.1c0.3-0.3,0.1-0.7,0.3-1.1l-0.2,0.1c-0.3-1,0.3-2.3,0.1-3.6l0.1,0l-0.2-0.5
								c0.1-0.3,0.1,0.2,0.2,0.1c-0.1-0.5-0.2-0.2-0.3-0.9c0.1-0.3,0.1,0.1,0.2,0.3c-0.1-0.6-0.2-1.5-0.2-1.9c0,0,0,0-0.1,0
								c-0.1-0.4-0.1-0.9-0.1-1.4c0.1,0,0.1,0.1,0.1,0.2c0-0.2,0-0.4-0.1-0.5l0.1,0.2c0-0.3-0.2-1-0.1-1.1c0,0-0.2,0-0.2-0.2
								c0.2-0.2-0.2-0.8-0.2-1.3c0.1,0,0.1,0.4,0.1,0.3c0-0.2-0.1-0.4-0.2-0.6l0.1,0c-0.1-0.4-0.2-0.7-0.3-1.1c0.2-0.2-0.2-1-0.1-1
								c-0.1-0.4,0,0.3-0.2-0.1c0.1-0.1-0.1-0.4,0-0.4l0,0L79.2,54l0.2,0.2c-0.1-0.3-0.3-0.5-0.4-0.5c0-0.3-0.1-0.7-0.1-0.8l0.1,0.1
								c-0.3-0.8,0-1.4-0.4-1.9c0-0.1,0-0.1,0.1,0l-0.1-0.5l0.1,0.1c-0.1-0.2-0.3-0.5-0.4-0.7l0.1,0c-0.2-0.5-0.5-1.3-0.8-1.9
								l0.1,0.1c-0.4-0.7-0.2-0.7-0.5-1.2c0,0,0,0,0.1,0l-0.2-0.5l0.1,0.1c-0.3-0.3-0.2-1-0.3-0.8c-0.1-0.2-0.4-0.4-0.5-0.5
								c-0.2-0.5,0-0.2-0.1-0.5c-0.2-0.4-0.3-0.4-0.5-0.9l0.1,0c-0.1-0.2-0.2-0.3-0.4-0.6l0.1,0.1c-0.4-0.4-0.1-0.7-0.6-1
								c0-0.2-0.3-0.6-0.1-0.6c-0.4-0.6-0.7-1-1-1.6c0.2-0.2-0.1-0.1-0.1-0.5l-0.1,0.1c-0.2-0.4-0.4-0.9-0.5-1.4
								c-0.1-0.3-0.3-0.8-0.4-1.2c-0.2-0.4-0.4-0.9-0.5-1.3l0.1-0.2l-0.2-0.2c-0.8-2-1.8-5.3-2.4-7c-0.1-0.1-0.1-0.2-0.2-0.3
								c-0.1,0.5-0.3,1.3-0.5,1.8l0-0.1c-0.5,1.6-0.9,3.1-1.5,4.5c0-0.2-0.1-0.1,0-0.3c0,0.6-0.3,0.9-0.4,1.2l0.2-0.3
								c-0.1,0.6-0.3,1-0.5,1.2c0,0.3-0.1,0.5-0.1,0.8c0,0-0.1,0.1-0.1,0.1l0,0.2l-0.3,0.3c0,0.1-0.1,0.4-0.1,0.7
								c0,0.2-0.1,0.3-0.1,0.5c0,0.1,0,0.2,0,0.2c-0.1,0-0.2,0.4-0.2,0.1c-0.2,0.5-0.3,0.9-0.5,1.4l0.1-0.2c0.1,0,0.1,0.5,0,0.7
								c0-0.3-0.2-0.1-0.3,0c0,0.2,0.2-0.1,0.2,0c0,0.3-0.1,0.8-0.2,0.9l0-0.2c0,0.3-0.3,0.4-0.4,0.8c0,0.3-0.1,0.5,0.1,0.5
								c-0.1,0.4-0.2,0.1-0.2,0.3c0.1,0.2-0.1,0.8-0.3,0.9c0.3,0.3-0.4,1.1-0.1,1.3L64,45.4c0.1,0,0.2,0.1,0.2,0.4
								c-0.1,0.3-0.2,0.2-0.3,0.2l0.2,0.2c-0.6,1.5-0.8,3.6-1.2,5.4c-0.1,0.8-0.1,1.8-0.2,2.7l0-0.1l-0.2,0.9l0.2-0.6
								c0,0.2,0,0.4,0,0.6c-0.1,0.5-0.2,1.1-0.3,1.7c-0.1,0.6-0.1,1.3-0.1,1.9c0.3,0.8-0.3,0.5-0.1,1.3c0-0.1-0.1-0.1-0.1-0.2
								c0,0.8,0.1,1.3,0.3,2.1c-0.3-0.1,0,0.5-0.2,0.5l0.1,0.1c-0.1,0.2-0.1,0.6-0.2,0.5l0.1,0.4l-0.1,0c0,0.5,0.1,1.5-0.2,1.8
								c0.1,0.6,0.1,1.4,0.2,2.2c0,0.8,0.1,1.7,0.1,2.4c0.1,0.2,0.1,0.6,0.2,1l-0.1,0.4c0.1,0.3,0.3,0.7,0.2,1c0,0,0,0,0,0
								c0.1,0.3,0,0.7,0.2,1c0,0.4,0,0.8-0.2,0.7c0.3,0,0,0.8,0,0.8s0.1,1.2,0.3,3.2c0.1,1,0.3,2.1,0.5,3.3c0.2,1.2,0.5,2.6,0.8,3.9
								c0.7,2.7,1.4,5.6,2.5,8c1.1,2.5,2.5,4.3,3.5,5.1c0.2,0.1,0.5,0.4,0.5,0.2c0.2,0.3,0.2,0.5,0.3,0.5c-0.2-0.4,0.3-0.1,0.2-0.5
								l0.2,0.2c0.1,0-0.3-0.3-0.1-0.3l-0.2,0.1c-0.1-0.2-0.2-0.4-0.1-0.5c-0.2-0.1-0.6-0.1-0.7-0.6l0.1,0.1c-0.2-0.4,0-0.3,0-0.4
								l0.1,0.1L70,96.6c0.1,0.3,0.5,0.6,0.3,0.4c-0.2-0.5,0,0.1-0.2-0.2c-0.1-0.2,0-0.2,0.1-0.2L70,96.2c0.1,0,0.1,0.2,0.1,0
								l-0.4-0.4c0.2-0.2-0.4-0.5-0.3-0.8c0.2,0.3,0.1-0.1,0.2-0.1c-0.2-0.3-0.3-0.6-0.4-0.8c0-0.1,0.2,0.2,0.1,0.1
								c0-0.2-0.2-0.2-0.2-0.3c0-0.1-0.3-0.6-0.1-0.7c-0.1-0.6-0.3-0.2-0.5-0.8c0.1-0.1,0.2,0.4,0.2,0.1L68.4,92
								c0.1,0,0.2,0,0.3,0.3c-0.5-1.6-0.2-2.6-0.7-4.1c0.1-0.2,0.1,0.1,0.3,0.2c-0.5-1-0.1-1.6-0.4-2.5l-0.1,0
								c0-0.7-0.1-1.4-0.3-2.1c-0.1-0.7-0.3-1.5-0.4-2.2l0,0.2c-0.1-0.2-0.2-0.5-0.3-0.7c0,0,0.3,0.1,0.1-0.3c0,0.1,0,0.3-0.1,0.2
								c0-1.3-0.5-3.9-0.6-6c-0.2-1.4-0.3-2.9-0.4-4.3c0-1.5-0.1-2.9-0.1-4.3c0,0.4-0.3,0.2-0.2-0.1c0.4-0.9-0.1-1.5,0.2-2.4
								c-0.1-1.6,0.3-3,0.1-4.5l0.1,0c0.1-0.2,0-0.3,0-0.5l0,0c0.1-0.5,0-1.2,0.1-1.5l-0.1,0c0-0.3,0.1-0.2,0.1-0.5l0.1,0l-0.1-0.4
								c0.2,0.1,0.1-0.9,0.3-1.2c0-0.4,0-1.2,0.1-1.9c0.1-0.1,0.3-0.9,0.4-1.4c0.1-0.5,0.1-1.1,0.2-1.7c0.1-0.6,0.2-1.3,0.4-1.9
								l-0.2,0l0-0.3c0,0,0.1,0,0.1,0c0.2-0.2,0.1-0.8,0.2-1c-0.2,0.1-0.1,0.2-0.1,0.4c-0.1,0.2-0.2,0-0.1-0.4l0,0l0-0.3
								c0.1,0,0.2-0.2,0.4-0.2c0.2-1.1,0.1-1.8,0.4-2.9c0.1,0.1,0.2-0.8,0.4-0.5c0.1-0.7-0.2,0.1-0.3-0.3c0.1-0.2,0-0.4,0.1-0.4
								c0,0.1,0.2-0.1,0.2,0l0.1-0.4c0,0,0,0.1,0,0.1c0.1-0.9,0.5-1.5,0.7-2.3c-0.1-0.1-0.1,0.3-0.2,0.2c0-0.4,0.1-0.6,0.2-0.7
								c0.1,0,0.1,0,0.1-0.1c0,0,0.1,0.1,0.1,0.1c-0.1-0.1-0.1-0.2-0.1-0.1C69.4,39.5,69.4,39.5,69.5,39.6c-0.1-0.1-0.1-0.1-0.2-0.3
								c0-0.1,0.1,0,0.1,0.1c0-0.1-0.1-0.1-0.1-0.2c0.1,0,0.1,0,0.1,0c0,0.1,0,0.2,0,0.2C69.4,39,69.6,39.7,69.5,39.6z"/>
							<path class="st11" d="M77.6,61.2l0-0.2c0,0-0.1,0-0.1-0.1L77.6,61.2z"/>
							<path class="st11" d="M75.6,50.9C75.5,50.9,75.5,50.9,75.6,50.9C75.5,50.9,75.5,50.9,75.6,50.9z"/>
							<path class="st11" d="M74.4,48.6c0.1,0.2,0.1,0,0.1-0.1C74.4,48.5,74.4,48.5,74.4,48.6z"/>
							<path class="st11" d="M78.1,67.2C78,67.2,78,67.2,78.1,67.2C78,67.2,78,67.2,78.1,67.2z"/>
							<path class="st11" d="M75.1,83.7C75.1,83.7,75.1,83.7,75.1,83.7C75.1,83.6,75.1,83.7,75.1,83.7z"/>
							<path class="st11" d="M75.5,82.9c0,0,0-0.1,0-0.2C75.5,82.8,75.5,82.8,75.5,82.9z"/>
							<path class="st11" d="M78,63.2c0-0.1,0-0.1-0.1-0.2C78,63.1,78,63.2,78,63.2z"/>
							<path class="st11" d="M75.6,82.5l0.1-0.2c0,0,0,0,0,0L75.6,82.5z"/>
							<path class="st11" d="M75,84c0-0.1,0.1-0.2,0.1-0.3C75,83.8,75,83.9,75,84z"/>
							<path class="st11" d="M77.7,73.4L77.7,73.4C77.6,73.2,77.6,73.3,77.7,73.4z"/>
							<polygon class="st11" points="75.6,81.4 75.6,81.4 75.6,81.3 							"/>
							<path class="st11" d="M74.6,84.9c0,0,0-0.1,0-0.1C74.6,84.8,74.6,84.9,74.6,84.9C74.6,84.9,74.6,84.9,74.6,84.9z"/>
							<path class="st11" d="M76.8,76.8c0,0.1,0.1,0.1,0.1,0.1C76.9,76.8,76.9,76.8,76.8,76.8z"/>
						</g>
					</g>
				</g>
			</g>
		</g>
		<g>
			<g>
				<g>
					<g>
						<g>
							<path class="st11" d="M86,92.6C86,92.7,86,92.7,86,92.6C86,92.7,86,92.7,86,92.6z"/>
							<path class="st11" d="M93.6,87.2l-0.1,0.1C93.6,87.3,93.6,87.3,93.6,87.2z"/>
							<path class="st11" d="M81.1,95C81.1,95,81.1,95,81.1,95c-0.1,0-0.2,0.1-0.3,0.1L81.1,95z"/>
							<path class="st11" d="M102.6,69.6l0,0.1C102.6,69.6,102.7,69.6,102.6,69.6z"/>
							<path class="st11" d="M98.3,80.5c0,0,0-0.1,0-0.2C98.3,80.4,98.3,80.4,98.3,80.5z"/>
							<path class="st11" d="M77.9,94.9l0.2,0C78,94.9,78,94.9,77.9,94.9z"/>
							<path class="st11" d="M73,97.6C73,97.6,73,97.6,73,97.6C73.1,97.6,73,97.6,73,97.6z"/>
							<path class="st11" d="M75.1,97c0,0,0.1-0.1,0.1-0.1C75.2,96.9,75.1,97,75.1,97z"/>
							<path class="st11" d="M75.3,96.9L75.3,96.9C75.3,96.9,75.3,96.9,75.3,96.9z"/>
							<path class="st11" d="M70.3,97.5c-0.1,0.1,0,0.3,0,0.5L70.3,97.5z"/>
							<path class="st11" d="M99.6,53.3L99.6,53.3C99.6,53.3,99.6,53.3,99.6,53.3z"/>
							<path class="st11" d="M71,98L71,98C71,98,71,98,71,98z"/>
							<path class="st11" d="M80.4,93.5c0.1-0.2,0.4-0.2,0.4-0.3C80.7,93.3,80.4,93.3,80.4,93.5z"/>
							<path class="st11" d="M97.7,58.6L97.7,58.6C97.7,58.6,97.7,58.6,97.7,58.6z"/>
							<path class="st11" d="M71,98l0.1-0.1C71.1,97.9,71.1,97.9,71,98C71.1,97.9,71.1,98,71,98z"/>
							<path class="st11" d="M84.7,65.8L84.7,65.8C84.7,65.7,84.7,65.7,84.7,65.8L84.7,65.8z"/>
							<path class="st11" d="M83.9,66.5c0-0.1,0.1-0.1,0.1-0.2C84,66.4,83.9,66.4,83.9,66.5z"/>
							<path class="st11" d="M70.3,98l0,0.3C70.3,98.1,70.3,98,70.3,98z"/>
							<path class="st11" d="M78.4,75.7L78.4,75.7C78.4,75.7,78.4,75.7,78.4,75.7z"/>
							<path class="st11" d="M97.9,81.1L97.9,81.1C97.8,81.2,97.9,81.2,97.9,81.1z"/>
							<polygon class="st11" points="98.4,73.5 98.4,73.5 98.4,73.5 							"/>
							<path class="st11" d="M98.4,73.9c0.1-0.1,0.1-0.3,0-0.4C98.4,73.6,98.4,73.7,98.4,73.9z"/>
							<path class="st11" d="M98.8,72.8C98.7,72.8,98.7,72.8,98.8,72.8C98.7,72.8,98.7,72.8,98.8,72.8z"/>
							<polygon class="st11" points="95.7,79.7 95.7,79.7 95.7,79.7 							"/>
							<path class="st11" d="M96.3,78.3C96.3,78.3,96.4,78.3,96.3,78.3C96.4,78.3,96.3,78.3,96.3,78.3z"/>
							<polygon class="st11" points="99.6,69.1 99.6,69.1 99.6,69.1 							"/>
							<path class="st11" d="M100.2,57.4C100.2,57.4,100.2,57.3,100.2,57.4C100.3,57.3,100.3,57.4,100.2,57.4c0.1,0,0.1,0,0.1,0
								l0,0.3c0.1,0.8,0.1,1.5,0.1,2.2c0.2,0.3,0.2,0.7,0.2,1.2l-0.3,0l0.1,0.4c-0.1,0.1,0-0.3-0.1,0l0.1,0.1
								c-0.1,0-0.1,0.9-0.3,0.3c0,0.5-0.1,0.9-0.1,1.4c0,0.3,0.2,0.2,0.1,0.5c-0.1,0.1,0-0.1-0.1-0.1c-0.3,1,0.3,1.3,0,2.2l0-0.1
								c0,0.2,0,0.5,0,0.5c0.3-0.1-0.1-0.2,0.1-0.5c0.2,0.1,0,0.4,0.2,0.4c-0.1,0.2,0,0.4-0.1,0.6c-0.2,0.3-0.2,0.8-0.4,1
								c0,0.2,0.2,0.4,0.1,0.8c-0.2,0.2-0.1-0.1-0.3,0.2l0.1,0.1c-0.1,0.3-0.1,0.2-0.2,0.2c-0.1,0.3,0.1,0.3-0.1,0.6l-0.1-0.2
								c0,0.3-0.1,0.4-0.2,0.8c-0.1,0,0-0.2,0-0.3c-0.2,0.2,0,0.4-0.1,0.5c0.1,0,0.2-0.3,0.2-0.1c-0.1,0.2,0,0.5-0.1,0.5l-0.1-0.2
								c0,0.4,0.1,0.3-0.1,0.7c0,0,0,0-0.1,0c0.1,0.3-0.2,0.7-0.4,1.1l0-0.1c0,0.2,0.1,0.3,0,0.4c0.2-0.2,0.2-0.1,0.3-0.1
								c-0.3,0.3,0.1,0.6-0.2,1.1c-0.1,0-0.1-0.2,0-0.3c-0.1-0.2-0.3-0.3-0.3-0.7c0,0.2-0.1,0.5-0.1,0.4l0.2,0.1
								c0,0.1-0.1,0.2-0.1,0.3c0.1,0.1,0.3-0.2,0.3,0.1c-0.1,0.3-0.3,0.1-0.2,0.2c-0.1,0.5,0.1,0.3-0.1,0.6c0,0,0-0.1,0-0.2
								C98.3,74.6,98.2,75,98,75c0-0.1-0.1-0.1,0-0.2l0,0c0-0.4-0.1,0.3-0.2,0.1c0.1,0-0.1,0.4-0.2,0.6l0.2,0
								c0.2,0.8-0.3-0.1-0.4,0.5c-0.1,0.4,0.1-0.1,0.1,0.1c-0.1,0.3-0.3,0.3-0.4,0.7c-0.1,0.1-0.3,0.3-0.4,0.2
								c0,0.3-0.4,0.7-0.3,0.8c0.3-0.3,0-0.5,0.4-0.8l0.1,0.2c-0.1,0.3-0.3,0.7-0.4,0.9c0,0,0.1,0,0.1,0c-0.2,0.5-0.1,0.7-0.3,1.1
								c-0.2,0,0-0.2,0.1-0.4c-0.2,0.2-0.1,0.3-0.4,0.7c-0.1,0,0.1-0.3,0.1-0.4l-0.2,0.5c0,0,0,0,0,0c0.2,0.2-0.2,0.3-0.3,0.7
								c-0.4,0.7-0.2,0.9-0.2,1.4c-0.1,0.1-0.2,0.1-0.2,0c0.2-0.1,0.1-0.1,0.1-0.2c-0.1,0.2-0.5,0.4-0.5,0.2
								c-0.2,0.4,0.2-0.1,0.1,0.2l-0.3,0.5c0.1,0,0.3-0.1,0.2,0.1c-0.1,0.2-0.2,0.3-0.4,0.6c0-0.1-0.2,0-0.1-0.2
								c-0.1,0.1-0.3,0.3-0.2,0.4c0.3-0.2-0.2,0.5,0,0.4l-0.3,0.2c0-0.1,0-0.1,0.1-0.2c-0.2,0-0.1,0.3-0.2,0.4
								c-0.1,0.1-0.3,0.3-0.4,0.3c0,0.1-0.2,0.3-0.3,0.3c-0.1,0.1,0.1,0.1,0.1,0.1l-0.4,0.4c-0.1,0-0.3-0.2-0.3-0.3
								c-0.1,0.2,0.2,0.2-0.1,0.5c0-0.3-0.4,0.2-0.4-0.1c-0.2,0-0.6,0.4-0.7,0.6c0,0.2,0.3-0.2,0.4-0.1c-0.5,0.6-0.3,0.9-0.7,1.3
								l0.1-0.1c-0.2,0.3-0.2,0.3-0.3,0.5c0-0.2-0.6-0.1-1.1,0.3c0,0.1,0.4-0.1,0.4,0.1l-0.3,0.3c0,0,0,0,0-0.1
								c-0.2,0.3-0.7,0.2-0.6,0.5l-0.5,0l0.2,0c0,0.1-0.3,0.4-0.3,0.4c-0.3,0.3-0.4,0.3-0.7,0.4c0.1,0,0.3,0.1,0.1,0.3
								c-0.2-0.2-0.6,0.3-0.7,0.2c-0.1,0.1-0.4,0.1-0.3,0.2L86.8,90c0.1,0.2-0.3,0.5-0.6,0.7c-0.1-0.3-0.3,0.2-0.6,0.1
								c0.1,0.2-0.5,0.4-0.5,0.6c-0.2,0.2-0.3-0.1-0.4-0.1l-0.1,0.1c-0.2,0-0.7,0.2-1,0.3l-0.2,0.3l-0.1,0c0,0.1-0.2,0.2-0.1,0.2
								l-0.1,0.1c0.1,0.2-0.2,0.2-0.4,0.4c-0.1,0-0.1-0.1,0-0.1c-0.1,0.1-0.1-0.1-0.2-0.1c0.1,0-0.3,0.6,0.1,0.5
								c0.1,0.1-0.1,0.2-0.3,0.3l-0.2-0.1L82,93.5c-0.2,0.1-0.4,0.1-0.6,0.1c0.2-0.1,0.2-0.5-0.2-0.3c0.2-0.1,0.3-0.3,0.4-0.4
								c-0.1,0-0.2,0,0-0.1c-0.3,0.2-0.1,0.2-0.4,0.4C81.1,93,81,93,80.6,93.1l0.3,0c0,0,0,0,0,0.1c0.1,0,0.1,0,0.2,0
								c-0.1,0-0.3,0.4-0.4,0.3c0.5,0.1-0.6,0.5-0.2,0.5c0,0.1-0.3,0.2-0.3,0.1c0.3-0.3-0.3-0.1-0.3-0.2c-0.1,0.1,0.3,0,0.2,0.1
								c-0.2,0.1-0.4,0.1-0.5,0.1l0.1-0.1l-0.3,0.1c0,0.1,0.3,0,0.1,0.2c-0.1,0-0.3,0.2-0.4,0.1c0.1-0.2-0.1-0.3,0.1-0.4
								c-0.2,0.1-0.8,0.4-0.5,0.4l-0.2,0.1c0.2,0,0.6-0.1,0.2,0.2l0,0L78.2,95l-0.2,0c0,0,0,0.1-0.1,0.2c-0.1,0-0.2,0-0.2-0.1
								c-0.3,0.2-0.3,0.2-0.3,0.3c-0.2,0.1-0.3,0.1-0.2,0c-0.3,0.1-0.7,0.3-0.9,0.3c-0.3,0.2,0.1,0-0.1,0.2
								c-0.4-0.2-1.2,0.4-1.7,0.7c0.3,0.2-0.1,0.1-0.1,0.4c0.1-0.1-0.6,0.1-0.2-0.2l-0.3,0.2c-0.3,0,0.5-0.3,0.1-0.4
								c-0.3,0.2-0.4,0.5-0.9,0.6c0.1-0.2-0.3,0.2-0.3,0c0.1-0.1,0.2-0.1,0.3-0.2l-0.1,0c-0.8,0.3-0.1,0.3-0.5,0.6
								c-0.4,0.2-0.4,0-0.5,0c-0.1,0-0.3,0.1-0.4,0.2c0.2-0.2,0.6-0.1,0.5,0c-0.3-0.1-0.7,0.3-0.8,0.4c0.7-0.1,0.5-0.2,1.2-0.2
								c0.1-0.1,0-0.3,0.4-0.4c-0.2,0.2,0.1,0.1,0.1,0.1c-0.1-0.1,0.2-0.2,0.3-0.3c0.1,0-0.1,0.3,0.3,0.2l0-0.3c0.2,0,0,0.2,0.3,0
								c-0.1,0.2,0.1,0.2-0.3,0.4c0.6,0,0.7-0.5,1.1-0.7c0,0,0,0.1-0.1,0.1c0.1-0.1,0.2-0.2,0.3-0.2c0.3-0.1-0.2,0.2-0.1,0.2
								l0.4-0.2c0,0,0,0,0,0c0.1-0.1,0.2-0.2,0.3-0.1c-0.1,0.1-0.1,0.2-0.2,0.3l0.4-0.4c0,0.1,0.4,0,0.1,0.2l0.6-0.3l0.1,0.1
								c0.1-0.1,0.1-0.1-0.1-0.1c0.2-0.1,0.8-0.7,0.9-0.4c0.4-0.4,0.6-0.4,1.2-0.8c-0.4,0.4,0.6-0.1,0.2,0.2
								c0.3-0.1,0.3-0.3,0.5-0.4c0.2,0,0.2,0.2,0,0.3l0.2-0.2l0,0l0.2-0.2c0.3,0,0.1,0.1,0.4,0l0-0.2l0.2,0c-0.1,0,0-0.1,0.2-0.2
								l0,0l0.2-0.1c-0.2,0.2,0.2-0.1,0.2,0.1c0.2-0.1,0.2-0.1,0.5-0.3l-0.1-0.1c0.4-0.3,0.1,0.1,0.5,0l-0.1-0.1
								c0.6-0.1,0.9-0.6,1.3-0.6c-0.2,0.1-0.1,0.2-0.1,0.2c0.3-0.2,0.9-0.5,1.2-0.8c0.2,0.1,0.3,0.1,0.7,0c0.3-0.2,0.3-0.2,0.3-0.3
								c0.3-0.1,0.7-0.4,0.8-0.3c0-0.1,0.2-0.1,0.3-0.3l0.1,0l-0.1-0.1c0.6,0,0.7-0.6,1.2-0.6l-0.1,0.1l0.2-0.2c0.1,0,0,0.1,0,0.2
								c0.3-0.2,0.6-0.3,0.9-0.5l-0.2,0c0.2-0.1,0.2-0.3,0.5-0.4c-0.2,0.4,0.3-0.2,0.4-0.1L89,90.9c0.2-0.2,0.2-0.2,0.1-0.3
								c0.3-0.3,0.4,0,0.6-0.3l-0.2,0.1c-0.1,0,0-0.2,0.1-0.3c0,0,0.2,0,0.1,0.1c0.2-0.2,0.6-0.4,0.7-0.6c0.2-0.1,0.2,0,0.1,0.1
								c0.4-0.5,0.3-0.2,0.7-0.7l0,0.1l0.1-0.2l0.3-0.1l-0.1,0c0.2-0.2,0.2-0.3,0.4-0.4l0,0.1c0.4-0.5,0.6-0.4,0.9-0.9
								c0,0,0,0.1,0,0.1c0.2-0.5,0.4-0.2,0.6-0.7c0,0,0.1,0,0.1,0.1l0.1-0.2l0.1,0.1l0-0.3l0.2,0l0-0.1c0.4,0,0.5-0.4,0.9-0.6
								L94.7,86c0.3-0.9,1.4-1.6,1.9-2.6l0.1,0.1l0.1-0.5c0.2-0.1,0,0.2,0.1,0.2c0.2-0.5-0.1-0.3,0.2-0.8c0.2-0.2,0,0.1,0,0.3
								c0.2-0.5,0.5-1.2,0.7-1.5c0,0,0,0,0,0c0.1-0.3,0.4-0.7,0.5-1.1c0.1,0,0,0.1,0,0.2c0.1-0.1,0.2-0.3,0.2-0.4l0.1,0.2
								c0.1-0.3,0.3-0.8,0.4-0.8c-0.1,0-0.2,0,0-0.3c0.3,0,0.2-0.7,0.5-1c0,0.1-0.1,0.3,0,0.3c0.1-0.2,0.1-0.4,0.1-0.6l0.1,0.1
								l0.2-0.9c0.3,0,0.3-0.8,0.4-0.7c0.1-0.3-0.2,0.2-0.1-0.2c0.1-0.1,0.1-0.4,0.2-0.3l0,0l0.1-0.3l0.1,0.2c0.1-0.2,0-0.5-0.1-0.5
								c0.2-0.2,0.2-0.5,0.4-0.6l0,0.1c0.2-0.7,0.7-0.9,0.7-1.5c0,0,0.1,0,0,0.1l0.1-0.4l0.1,0.1l0.1-0.7l0.1,0
								c0.2-0.4,0.3-1.1,0.5-1.7l0,0.1c0.1-0.7,0.2-0.6,0.3-1.1c0,0,0,0,0,0.1l0.1-0.4l0,0.1c-0.1-0.3,0.4-0.8,0.2-0.7
								c0-0.2,0-0.5-0.1-0.6c0.1-0.5,0.1-0.1,0.2-0.4c0.1-0.3,0-0.4,0.1-0.9l0.1,0c0-0.2,0-0.4,0-0.7l0,0.1c-0.1-0.5,0.3-0.6,0.1-1
								c0.1-0.2,0.1-0.6,0.2-0.6c0-0.6,0-1.1,0-1.7c0.2-0.1,0-0.1,0.2-0.5l-0.1,0c0.1-0.9,0.4-1.8,0.4-2.8l0.1,0l-0.1-0.2
								c0-0.5,0.1-1.1,0-1.7c0-0.3,0-0.6,0-0.9c0-0.5-0.1-0.9-0.1-1.2c-0.1-0.5-0.4-1-0.4-1.8l0,0.1c-0.1-0.6-0.3-1.2-0.4-1.8
								l-0.1-0.5c-0.1,0.1-0.3,0.1-0.4,0.2c-0.3,0.1-0.6,0.3-0.9,0.4c0.1-0.1,0-0.1,0.1-0.2c-0.4,0.3-0.7,0.4-1,0.5l0.3,0
								c-0.4,0.3-0.8,0.4-1,0.4l-0.5,0.4c0,0-0.1,0-0.1,0l-0.1,0.1l-0.3,0c-0.1,0.1-0.8,0.5-0.9,0.8c0,0-0.2,0-0.3,0.1
								c0,0-0.1,0,0-0.1l-1.2,0.7l0.2-0.1c0.1,0.1-0.2,0.4-0.4,0.4c0.2-0.2-0.1-0.2-0.2-0.2c-0.1,0.2,0.2,0,0.2,0.1
								c-0.1,0.2-0.5,0.5-0.6,0.5l0.1-0.1c-0.2,0.2-0.5,0.1-0.7,0.3c-0.2,0.2-0.4,0.3-0.2,0.4c-0.3,0.3-0.2,0-0.3,0
								c-0.1,0.2-0.6,0.5-0.7,0.4c0,0.4-0.9,0.5-0.8,0.8L93,57.5c0,0.1,0.1,0.2-0.1,0.4c-0.2,0.1-0.3,0-0.4-0.1l0,0.3
								c-1.3,0.7-2.6,2-3.8,2.9c-0.5,0.5-1,1.2-1.6,1.8l0-0.1l-0.6,0.5l0.5-0.3c-0.1,0.2-0.1,0.3-0.3,0.4c-0.7,0.6-1.6,1.4-2.1,2.3
								c-0.2,0.7-0.5,0.2-0.7,0.9c0-0.1,0-0.1,0-0.2c-0.4,0.6-0.5,1-0.8,1.7c-0.2-0.2-0.3,0.4-0.4,0.2l0.1,0.1
								c-0.2,0.1-0.4,0.4-0.4,0.3l-0.1,0.4l-0.1,0c-0.3,0.3-0.7,1.2-1,1.2c-0.4,1-1.3,2.4-1.9,3.5c0,0.2-0.2,0.6-0.3,0.8l-0.3,0.2
								c-0.1,0.3-0.1,0.7-0.3,0.9c0,0,0,0,0,0c-0.1,0.3-0.3,0.5-0.3,0.8c-0.2,0.3-0.4,0.6-0.4,0.4c0.2,0.1-0.3,0.6-0.3,0.6
								s-0.5,1-1.2,2.5c-0.7,1.5-1.5,3.6-2.4,5.8c-1.7,4.4-3.4,9.4-3.5,11.6c0.1,0.2,0,0.6,0.2,0.5c-0.1,0.3-0.3,0.3-0.2,0.4
								c0.2-0.3,0.3,0.2,0.5-0.1l-0.1,0.2c0.1,0.1,0-0.4,0.2-0.2l-0.2-0.1c0.1-0.2,0.2-0.3,0.3-0.3c0-0.2-0.3-0.4,0-0.8l0,0.1
								c0.1-0.4,0.2-0.2,0.3-0.2l0,0.1l0.2-0.3c-0.2,0.2-0.1,0.6-0.1,0.4c0.2-0.4-0.1,0.1,0-0.2c0.1-0.2,0.2-0.1,0.2-0.1l0.1-0.4
								c0.1,0.1-0.1,0.2,0.1,0.1l0.1-0.5c0.3,0,0.1-0.5,0.4-0.6c-0.1,0.3,0.1,0,0.2,0.1l0.3-0.8c0.1-0.1,0,0.2,0,0.1
								c0.1-0.1,0-0.3,0.1-0.3c0.1,0,0.2-0.6,0.4-0.5c0.3-0.5-0.1-0.3,0.2-0.8c0.1,0-0.1,0.4,0.1,0.2l0.2-0.5c0,0.1,0.1,0.2,0,0.3
								c0.7-1.3,1.5-1.8,1.8-3.1c0.2-0.1,0,0.2,0.1,0.3c0.2-1,0.8-1.2,1-1.9l-0.1-0.1c0.7-1,1-2.3,1.6-3.5L78,85.3
								c0-0.2,0.1-0.5,0.1-0.7c0.1,0,0.2,0.2,0.3-0.1c-0.1,0.1-0.2,0.2-0.2,0.1c0.7-0.9,1.5-3.1,2.3-4.7c0.9-2.3,2.2-4.5,3.4-6.6
								c-0.2,0.3-0.3,0-0.1-0.2c0.8-0.4,0.6-1.1,1.3-1.6c0.6-1.2,1.7-2,2.2-3.2l0.1,0.1c0.2-0.1,0.1-0.2,0.2-0.4l0,0
								c0.3-0.3,0.6-0.8,0.8-1L88.2,67c0.2-0.2,0.2,0,0.3-0.3l0,0.1l0.1-0.3c0.2,0.2,0.5-0.6,0.8-0.7c0.2-0.3,0.6-0.9,1-1.2
								c0.2,0,0.6-0.5,1-0.7c0.6-0.6,1.4-1.4,2.3-2.1l-0.1-0.1l0.2-0.2c0,0,0.1,0,0,0.1c0.3,0,0.5-0.5,0.7-0.5
								c-0.2,0-0.2,0.1-0.3,0.2c-0.2,0.1-0.2-0.2,0.1-0.3l0,0l0.1-0.2c0.1,0.1,0.3,0,0.4,0.1c0.7-0.6,1.1-1.1,1.9-1.6
								c0,0.2,0.5-0.4,0.5-0.1c0.4-0.4-0.2-0.1-0.1-0.4c0.1-0.1,0.2-0.2,0.3-0.2c0,0.1,0.2,0.1,0.1,0.1l0.3-0.2c0,0,0,0.1,0,0.1
								c0.6-0.6,1.2-0.6,1.7-1.1c0-0.1-0.2,0.1-0.2,0c0.1-0.1,0.2-0.2,0.3-0.3c0,0,0.1,0,0.1,0c0.1,0,0.1,0.1,0.2-0.1l0,0.1
								c0-0.1,0-0.2,0.1-0.2c0,0.2-0.1,0.2-0.1,0.3c0,0,0.1-0.1,0.1-0.3c0-0.1,0,0.1,0,0.1c0,0,0-0.1,0-0.2c0,0.1,0.1,0,0.1,0.1
								c0,0.1-0.1,0.1-0.1,0.2C100.4,57,100.2,57.4,100.2,57.4z"/>
							<path class="st11" d="M95.6,79.8l0.1-0.2c0,0-0.1,0,0-0.1L95.6,79.8z"/>
							<path class="st11" d="M99.1,71.4C99.1,71.3,99.1,71.3,99.1,71.4C99.1,71.3,99.1,71.4,99.1,71.4z"/>
							<path class="st11" d="M99.5,69.2c0,0.2,0.1,0,0.1,0C99.6,69.1,99.5,69.1,99.5,69.2z"/>
							<path class="st11" d="M93.2,84.4C93.2,84.3,93.2,84.3,93.2,84.4C93.2,84.4,93.2,84.4,93.2,84.4z"/>
							<path class="st11" d="M81.9,92.8C81.9,92.8,81.9,92.8,81.9,92.8C81.9,92.8,81.9,92.8,81.9,92.8z"/>
							<path class="st11" d="M82.7,92.6c0,0,0.1,0,0.1-0.1C82.7,92.5,82.7,92.6,82.7,92.6z"/>
							<path class="st11" d="M95.1,81.5c0,0,0-0.1,0-0.2C95.1,81.4,95.1,81.5,95.1,81.5z"/>
							<path class="st11" d="M82.9,92.4l0.2-0.1c0,0,0,0,0,0L82.9,92.4z"/>
							<path class="st11" d="M81.6,92.9c0.1,0,0.2-0.1,0.2-0.1C81.7,92.8,81.7,92.8,81.6,92.9z"/>
							<path class="st11" d="M89.7,88.2L89.7,88.2C89.8,88.1,89.8,88.2,89.7,88.2z"/>
							<polygon class="st11" points="83.6,91.8 83.6,91.8 83.7,91.7 							"/>
							<path class="st11" d="M80.8,93.2C80.8,93.2,80.9,93.2,80.8,93.2C80.8,93.1,80.8,93.2,80.8,93.2
								C80.8,93.2,80.8,93.2,80.8,93.2z"/>
							<path class="st11" d="M87.2,89.8c0,0.1,0,0.1,0,0.1C87.2,89.9,87.3,89.9,87.2,89.8z"/>
						</g>
					</g>
				</g>
			</g>
		</g>
		<g>
			<g>
				<g>
					<g>
						<g>
							<path class="st11" d="M58.6,95C58.6,95,58.6,95,58.6,95C58.6,95,58.6,95,58.6,95z"/>
							<path class="st11" d="M52.9,90.6L52.9,90.6C52.9,90.6,52.9,90.6,52.9,90.6z"/>
							<path class="st11" d="M62.8,96.4C62.8,96.4,62.8,96.4,62.8,96.4c0.1,0,0.1,0,0.3,0.1L62.8,96.4z"/>
							<path class="st11" d="M45.5,76.9L45.5,76.9C45.5,77,45.5,77,45.5,76.9z"/>
							<path class="st11" d="M49.2,85.5c0,0-0.1,0-0.1-0.1C49.1,85.5,49.1,85.5,49.2,85.5z"/>
							<path class="st11" d="M65,98.1L64.9,98C64.9,98,64.9,98.1,65,98.1z"/>
							<path class="st11" d="M69.7,98C69.7,98,69.7,97.9,69.7,98C69.7,97.9,69.7,98,69.7,98z"/>
							<path class="st11" d="M67.9,97.5c0,0-0.1,0-0.1,0C67.8,97.6,67.9,97.6,67.9,97.5z"/>
							<path class="st11" d="M67.7,97.6L67.7,97.6C67.7,97.6,67.7,97.6,67.7,97.6z"/>
							<path class="st11" d="M64.3,76.1c0.1,0.1,0.2,0.2,0.3,0.2L64.3,76.1z"/>
							<path class="st11" d="M40.3,63.2L40.3,63.2C40.4,63.2,40.4,63.2,40.3,63.2z"/>
							<path class="st11" d="M65.1,75.7L65.1,75.7C65.1,75.8,65.1,75.8,65.1,75.7z"/>
							<path class="st11" d="M62.5,98c-0.2,0.1-0.4-0.1-0.4,0C62.2,98,62.4,98.1,62.5,98z"/>
							<path class="st11" d="M36,61.4L36,61.4C36,61.3,36,61.4,36,61.4z"/>
							<path class="st11" d="M65.1,75.7l0-0.1C65,75.7,65,75.7,65.1,75.7C65,75.7,65,75.7,65.1,75.7z"/>
							<path class="st11" d="M42.3,59L42.3,59C42.3,59,42.3,59,42.3,59L42.3,59z"/>
							<path class="st11" d="M43,59.5c-0.1,0-0.1,0-0.2,0C42.9,59.5,42.9,59.5,43,59.5z"/>
							<path class="st11" d="M64.6,76.3l0.2,0.1C64.7,76.4,64.7,76.3,64.6,76.3z"/>
							<path class="st11" d="M50.5,63.4L50.5,63.4C50.4,63.4,50.4,63.4,50.5,63.4z"/>
							<path class="st11" d="M49.5,86.1C49.5,86.1,49.5,86.1,49.5,86.1C49.5,86.1,49.5,86.1,49.5,86.1z"/>
							<polygon class="st11" points="44.5,81.9 44.5,81.9 44.5,81.9 							"/>
							<path class="st11" d="M44.7,82.1c0-0.1-0.1-0.2-0.2-0.3C44.5,82,44.6,82.1,44.7,82.1z"/>
							<path class="st11" d="M44.2,81.2C44.2,81.2,44.2,81.3,44.2,81.2C44.2,81.3,44.2,81.2,44.2,81.2z"/>
							<polygon class="st11" points="47.1,87.3 47.1,87.2 47.1,87.3 							"/>
							<path class="st11" d="M46.4,86.1c0,0,0-0.1,0-0.1C46.4,86,46.4,86.1,46.4,86.1z"/>
							<polygon class="st11" points="42.7,78.3 42.7,78.3 42.7,78.3 							"/>
							<path class="st11" d="M37.8,67.2c0.5,1.1,1.2,2.5,1.6,3.7c0.3,0.2,0.4,0.5,0.6,0.9l-0.2,0.1l0.2,0.3c0,0.1-0.1-0.2-0.1,0
								l0.2,0.1c-0.1,0.1,0.2,0.8-0.1,0.4l0.4,1.2c0.1,0.3,0.3,0.1,0.3,0.4c0,0.1-0.1-0.1-0.2,0c0.1,0.9,0.8,0.8,1,1.7l-0.1-0.1
								c0.1,0.1,0.2,0.4,0.2,0.4c0.2-0.2-0.2-0.1-0.1-0.4c0.2-0.1,0.2,0.3,0.4,0.2c0,0.2,0.2,0.3,0.2,0.4c0,0.3,0.2,0.7,0.1,1
								c0.1,0.1,0.4,0.2,0.5,0.5c-0.1,0.3-0.2,0-0.1,0.3l0.1,0c0.1,0.2,0,0.2,0,0.2c0.1,0.3,0.2,0.1,0.3,0.5l-0.2-0.1
								c0.1,0.2,0.2,0.3,0.3,0.6c-0.1,0-0.1-0.1-0.1-0.2c-0.1,0.2,0.2,0.3,0.2,0.4c0,0,0-0.3,0.1-0.2c0,0.2,0.3,0.3,0.2,0.4
								l-0.2-0.1c0.2,0.3,0.2,0.1,0.3,0.5c0,0,0,0-0.1,0c0.2,0.2,0.2,0.6,0.4,0.9L44,81c0.1,0.1,0.2,0.2,0.3,0.2
								c0-0.2,0-0.2,0.1-0.3c-0.1,0.4,0.4,0.3,0.5,0.8c-0.1,0-0.2,0-0.2-0.2c-0.3-0.1-0.4,0-0.6-0.2c0.1,0.1,0.2,0.3,0.1,0.3l0.2,0
								c0,0.1,0.1,0.2,0.1,0.3c0.1,0,0.1-0.3,0.3-0.1c0.2,0.2-0.1,0.2,0,0.2c0.2,0.3,0.3,0.1,0.4,0.4c0,0-0.1-0.1-0.1-0.1
								c0,0.3,0.3,0.6,0.1,0.8c-0.1,0-0.1,0-0.2-0.1l0,0c-0.3-0.2,0.2,0.2-0.1,0.2c0.1-0.1,0.2,0.3,0.3,0.5l0.1-0.1
								c0.7,0.3-0.3,0.1,0,0.6c0.3,0.3,0-0.1,0.2,0c0.1,0.2,0,0.4,0.2,0.7c0,0.1,0,0.3-0.1,0.4c0.2,0.2,0.3,0.6,0.5,0.7
								c-0.1-0.4-0.3-0.3-0.4-0.7l0.2,0c0.1,0.3,0.4,0.6,0.5,0.8c0-0.1,0-0.1,0.1-0.1c0.3,0.3,0.5,0.4,0.6,0.8
								c-0.1,0.1-0.2-0.1-0.3-0.3c0,0.3,0.1,0.2,0.3,0.6c-0.1,0.1-0.1-0.2-0.3-0.2l0.3,0.4c0,0,0,0,0,0c0.2-0.1,0.2,0.3,0.4,0.5
								c0.4,0.6,0.7,0.5,1,0.7c0,0.1,0,0.2-0.1,0.2c0-0.2-0.1-0.1-0.1-0.1c0.1,0.2,0.1,0.5,0,0.5c0.3,0.3,0-0.2,0.2,0l0.3,0.4
								c0.1-0.1,0-0.3,0.2-0.1c0.2,0.2,0.2,0.3,0.4,0.5c-0.1,0-0.1,0.2-0.2,0c0.1,0.1,0.2,0.3,0.3,0.3c-0.1-0.3,0.4,0.3,0.4,0.1
								l0.1,0.3c0-0.1-0.1,0-0.2-0.1c-0.1,0.2,0.2,0.2,0.3,0.2c0,0.1,0.2,0.3,0.2,0.4c0.1,0,0.2,0.3,0.2,0.3
								c0.1,0.1,0.1-0.1,0.2-0.1l0.3,0.4c0,0.1-0.2,0.3-0.3,0.3c0.2,0.1,0.2-0.1,0.4,0.1c-0.2,0,0.2,0.4-0.1,0.3
								c0,0.2,0.4,0.6,0.6,0.7c0.2,0-0.2-0.3,0-0.3c0.6,0.5,0.9,0.2,1.2,0.6l-0.1-0.1c0.3,0.2,0.3,0.1,0.5,0.2
								c-0.2,0.1,0,0.6,0.4,0.9c0.1,0-0.1-0.3,0-0.4l0.3,0.2c0,0,0,0-0.1,0c0.3,0.1,0.4,0.5,0.5,0.4l0.1,0.4l0-0.2
								c0.1,0,0.4,0.1,0.5,0.1c0.4,0.1,0.4,0.3,0.6,0.5c0-0.1-0.1-0.3,0.2-0.2c-0.2,0.3,0.5,0.4,0.4,0.5c0.1,0.1,0.3,0.2,0.3,0.1
								l-0.1,0.2c0.1-0.2,0.5,0,0.8,0.1c-0.2,0.3,0.3,0.1,0.3,0.5c0.2-0.2,0.6,0.1,0.7,0c0.2,0.1,0.1,0.3,0.2,0.4l0.1,0
								c0.1,0.1,0.5,0.3,0.8,0.5l0.3-0.1l0.1,0.1c0.1,0,0.3,0,0.2-0.1l0.1,0.1c0.1-0.2,0.2,0,0.5,0c0.1,0.1,0,0.1,0,0.1
								c0.1,0,0,0.1,0.1,0.2c-0.1-0.1,0.6-0.3,0.2-0.5c0-0.1,0.2-0.1,0.4,0l0,0.2l0.2-0.2c0.2,0,0.3,0.2,0.4,0.2
								c-0.2,0-0.5,0.3,0,0.4c-0.2,0-0.4,0.1-0.5,0.1c0.1,0,0.1,0.1,0,0.1c0.4,0,0.1-0.1,0.5,0c-0.1,0.2,0,0.2,0.3,0.4l-0.2-0.2
								c0,0,0,0,0.1,0c-0.1,0-0.1-0.1-0.1-0.1c0.1,0,0.5-0.1,0.5,0c-0.3-0.3,0.7-0.1,0.5-0.3c0,0,0.3,0,0.3,0.1
								c-0.3,0.1,0.2,0.2,0.1,0.4c0.1,0-0.2-0.2-0.1-0.2c0.2,0,0.3,0.1,0.4,0.2l-0.1,0l0.3,0.1c0.1-0.1-0.2-0.2,0-0.2
								c0.1,0,0.3,0,0.3,0.1c-0.1,0.1-0.1,0.3-0.3,0.3c0.2,0,0.8,0.1,0.5-0.1l0.2,0c-0.1-0.1-0.5-0.3-0.1-0.2l0,0l0.3-0.1l0.1,0.1
								c0,0,0.1-0.1,0.2-0.1c0,0.1,0.1,0.1,0.1,0.2c0.3,0,0.3-0.1,0.3-0.1c0.2,0,0.2,0,0.1,0.1c0.2,0,0.7,0.1,0.8,0.2
								c0.3-0.1-0.1,0,0.1-0.2c0.3,0.3,1.1,0.2,1.6,0.2c-0.1-0.3,0.1,0,0.3-0.3c-0.1,0.1,0.5,0.2,0,0.3l0.3,0
								c0.2,0.2-0.5,0.1-0.2,0.3c0.3,0,0.5-0.3,0.9-0.2c-0.1,0.2,0.3-0.1,0.2,0.2c-0.1,0.1-0.2,0-0.3,0.1l0.1,0
								c0.7,0.1,0.2-0.2,0.6-0.4c0.4,0,0.3,0.2,0.4,0.3c0.1,0,0.3,0,0.4,0c-0.3,0.1-0.5-0.1-0.4-0.3c0.2,0.2,0.6,0,0.7-0.1
								c-0.6-0.2-0.4,0-1-0.3c-0.1,0.1-0.1,0.3-0.4,0.2c0.2-0.1,0-0.1-0.1-0.1c0.1,0.1-0.2,0-0.3,0.1c-0.1-0.1,0.2-0.3-0.1-0.3
								L69.1,98c-0.1,0,0.1-0.2-0.2-0.1c0.2-0.1,0-0.2,0.3-0.3c-0.5-0.2-0.7,0.1-1.1,0.2c0,0,0-0.1,0.1-0.1
								c-0.1,0.1-0.2,0.1-0.3,0.1c-0.2-0.1,0.2-0.1,0.1-0.2l-0.4,0c0,0,0,0,0,0c-0.1,0-0.2,0.1-0.2,0c0.1-0.1,0.2-0.2,0.2-0.2
								l-0.4,0.2c0-0.1-0.3-0.2,0-0.2l-0.6,0l0-0.2c-0.1,0-0.1,0.1,0,0.1c-0.2-0.1-0.9,0.3-0.8-0.1c-0.5,0.1-0.6,0-1.2,0.1
								c0.4-0.1-0.5-0.3,0-0.3c-0.3-0.1-0.3,0.1-0.5,0.1c-0.2-0.1-0.1-0.3,0.1-0.3l-0.3,0l0,0l-0.2,0.1c-0.2-0.1,0-0.2-0.3-0.2
								l-0.1,0.2l-0.1-0.1c0,0.1-0.1,0.1-0.3,0.1l0,0l-0.2,0c0.2-0.1-0.2-0.1-0.1-0.2c-0.2,0-0.2,0-0.5-0.1l0,0.1
								c-0.4,0,0-0.2-0.3-0.2l0,0.1c-0.4-0.3-0.8-0.1-1.1-0.3c0.2,0,0.2-0.1,0.2-0.1c-0.3,0-0.8-0.2-1.1-0.2
								c-0.1-0.2-0.1-0.3-0.3-0.4c-0.2-0.1-0.3-0.1-0.4,0c-0.2-0.1-0.6-0.2-0.6-0.3c-0.1,0.1-0.2-0.1-0.3-0.1l0-0.1l0,0.1
								c-0.3-0.4-0.7-0.1-0.9-0.5l0.1,0l-0.2,0c0-0.1,0.1-0.1,0.1-0.1l-0.7-0.4l0.1,0.2c-0.2-0.1-0.3,0-0.4-0.2
								c0.4,0-0.2-0.1-0.2-0.3l0.2,0c-0.2-0.1-0.2-0.1-0.3,0c-0.3-0.1,0-0.3-0.3-0.4l0.2,0.1c0,0.1-0.2,0.1-0.3,0c0,0-0.1-0.1,0-0.1
								C55.4,93.3,55.1,93,55,93c-0.1-0.1,0-0.2,0.1-0.1c-0.5-0.2-0.2-0.2-0.6-0.4l0.1-0.1l-0.2,0l-0.1-0.3l0,0.1
								c-0.1-0.1-0.2-0.1-0.4-0.3l0.1,0c-0.4-0.3-0.3-0.5-0.7-0.7c0,0,0.1,0,0.1,0c-0.4-0.2-0.1-0.3-0.5-0.5c0,0,0-0.1,0.1-0.1
								l-0.2-0.1l0.1-0.1l-0.3,0l0-0.2l-0.1,0c0.1-0.3-0.3-0.4-0.3-0.7l-0.1,0.2c-0.8-0.3-0.9-1.4-1.5-1.9l0.1-0.1l-0.3-0.2
								c0-0.2,0.2,0,0.2-0.1c-0.3-0.3-0.3,0-0.5-0.3c0-0.2,0.1,0,0.2,0.1c-0.3-0.3-0.7-0.8-0.8-1c0,0-0.1,0-0.1,0
								c-0.2-0.2-0.3-0.5-0.5-0.8c0.1,0,0.1,0,0.2,0.1c0-0.1-0.1-0.2-0.2-0.3l0.2,0c-0.1-0.2-0.4-0.5-0.3-0.7c0,0.1-0.1,0.1-0.2-0.1
								c0.1-0.2-0.3-0.4-0.4-0.8c0.1,0,0.2,0.2,0.2,0.2c0-0.2-0.2-0.3-0.3-0.3l0.1,0l-0.5-0.6c0.1-0.2-0.3-0.6-0.2-0.6
								c-0.1-0.2,0,0.2-0.2-0.1c0-0.1-0.2-0.3,0-0.3l0,0l-0.1-0.2l0.2,0.1c-0.1-0.2-0.3-0.3-0.4-0.2c0-0.2-0.2-0.4-0.1-0.6l0.1,0.1
								c-0.3-0.5,0-1-0.4-1.3c0,0,0,0,0.1,0l-0.1-0.3l0.1,0L46.2,79l0.1,0c-0.1-0.4-0.4-0.9-0.6-1.3l0.1,0.1
								c-0.3-0.4-0.1-0.5-0.3-0.8c0,0,0,0,0,0l-0.1-0.3l0.1,0c-0.2-0.2-0.1-0.8-0.1-0.6c-0.1-0.1-0.3-0.3-0.4-0.3
								c-0.1-0.4,0.1-0.1,0-0.4c-0.1-0.3-0.2-0.3-0.3-0.6l0.1,0c-0.1-0.2-0.2-0.2-0.3-0.5l0.1,0.1c-0.3-0.3,0-0.5-0.4-0.7
								c0-0.2-0.2-0.5,0-0.5c-0.3-0.4-0.4-0.8-0.7-1.2c0.2-0.2-0.1-0.1,0-0.4l-0.1,0.1c-0.3-0.6-0.2-1.5-0.6-2.2l0.1-0.1l-0.2-0.1
								c-0.2-0.8-0.6-1.8-0.8-2.4c-0.1-0.2-0.4-0.4-0.5-0.8l0,0c-0.3-0.5-0.6-1.1-0.7-1.7c0.1,0,0.1-0.1,0.1,0
								c-0.2-0.1-0.1-0.4-0.2-0.5l0,0.2c-0.2-0.1-0.2-0.4-0.1-0.5l-0.2-0.2c0,0,0-0.1,0-0.1l-0.1,0l0.1-0.2
								c-0.1-0.1-0.2-0.4-0.4-0.5c0,0,0-0.3,0.1-0.1l-0.3-1l0,0.2c-0.1,0.1-0.3-0.2-0.3-0.4c0.2,0.2,0.2,0,0.2-0.2
								c-0.1-0.1-0.1,0.2-0.2,0.1c-0.1-0.1-0.3-0.5-0.3-0.6l0.1,0.1c-0.1-0.2,0.1-0.4,0-0.6c-0.2-0.2-0.1-0.3-0.3-0.2
								c-0.1-0.3,0.1-0.1,0.1-0.2C39,59.4,39,59,39.1,58.9c-0.2,0-0.2-0.2-0.2-0.4c0-0.2,0-0.2-0.1-0.2c0,0,0.1-0.1,0.1-0.1
								c-0.1,0-0.2,0-0.3-0.1c0.1,0,0.2,0,0.3,0c-0.1,0-0.2-0.1-0.3-0.1c0.1-0.1,0.2-0.2,0.2-0.3c0,0,0-0.1,0,0l0.1,0.1
								c0.1,0,0.1,0.1,0.2,0.2c0,0,0-0.1,0.1-0.1c0.1,0,0-0.1,0.4,0.1l-0.1,0l0.6,0.3L39.7,58c0.1,0,0.3,0,0.4,0
								c0.6,0.3,1.4,0.8,2.3,1c0.6-0.1,0.2,0.4,0.8,0.4c-0.1,0-0.1,0-0.1,0.1c0.6,0.1,0.9,0.2,1.5,0.3c-0.2,0.2,0.3,0.1,0.2,0.3
								l0.1-0.1c0.1,0.1,0.3,0.3,0.3,0.3l0.3,0l0,0.1c0.3,0.2,1,0.4,1,0.7c0.8,0.2,1.9,0.9,2.8,1.5c0.2,0,0.4,0.1,0.6,0.3l0.1,0.3
								c0.2,0.1,0.6,0.1,0.7,0.3c0,0,0,0,0,0c0.2,0.1,0.4,0.3,0.6,0.3c0.2,0.2,0.4,0.4,0.2,0.4c0.2-0.2,0.4,0.3,0.4,0.3
								s0.2,0.1,0.5,0.4c0.3,0.2,0.7,0.6,1.2,1c0.5,0.4,1.1,0.9,1.8,1.5c0.6,0.6,1.3,1.2,2,1.9c2.8,2.6,5.5,5.8,7,6.8
								c0.2,0,0.4,0.2,0.5,0.1c0.2,0.2,0.1,0.4,0.2,0.4c-0.1-0.3,0.3-0.1,0.3-0.4l0.1,0.2c0.1,0-0.2-0.2-0.1-0.2L65,76
								C65,75.9,65,75.8,65,75.7c-0.2-0.1-0.5,0-0.6-0.4l0.1,0.1c-0.2-0.2,0-0.2,0-0.3l0,0.1l-0.1-0.3c0.1,0.2,0.4,0.4,0.3,0.2
								c-0.2-0.3,0,0.1-0.2-0.1c-0.1-0.1,0-0.2,0.1-0.2l-0.2-0.2c0.1-0.1,0.1,0.2,0.1,0l-0.3-0.3c0.2-0.2-0.4-0.3-0.3-0.6
								c0.2,0.2,0.1-0.1,0.2-0.1l-0.4-0.5c0-0.1,0.2,0.1,0.1,0c0-0.2-0.2-0.1-0.2-0.2c0-0.1-0.3-0.4-0.2-0.5c-0.2-0.5-0.3,0-0.5-0.4
								c0-0.1,0.2,0.2,0.2,0l-0.3-0.3c0.1,0,0.2,0,0.3,0.1c-0.7-1-0.7-1.9-1.6-2.7c0-0.2,0.1,0,0.3,0.1c-0.7-0.5-0.6-1.1-1.1-1.6
								l-0.1,0.1c-0.5-0.9-1.5-1.6-2.2-2.5l0,0.1c-0.2,0-0.4-0.2-0.5-0.3c0-0.1,0.3-0.1,0-0.3c0,0.1,0.1,0.2,0,0.2
								c-0.5-0.9-2.2-2.1-3.4-3.1c-1.8-1.2-3.6-2.7-5.5-3.6c0.3,0.2,0,0.3-0.1,0.1c-0.4-0.7-1-0.5-1.5-1.1c-1.2-0.4-2-1.2-3.2-1.4
								l0-0.1c-0.1-0.1-0.2-0.1-0.4-0.1l0,0c-0.4-0.2-0.9-0.3-1.1-0.4l-0.1,0.1c-0.2-0.1-0.1-0.2-0.4-0.2l0-0.1l-0.3,0
								c0.1-0.2-0.7-0.3-0.8-0.4c-0.2,0-0.4-0.1-0.7-0.1c-0.4-0.1-0.9-0.3-1.3-0.4c-0.2-0.2-1.2-0.4-1.8-0.7
								c-0.6-0.1-1.4-0.3-2.2-0.5c-0.3-0.2-0.2,0.2-0.2,0.4l0,0.6c0,0.4,0,0.8,0,1.2l0.2,0.1l0,0.4c0,0-0.1,0-0.1-0.1
								c-0.2,0.2,0.1,1,0,1.3c0.1-0.2,0-0.3,0-0.5c0.1-0.3,0.2,0.1,0.2,0.5l0,0c0,0.1,0.1,0.2,0.1,0.3c-0.1,0-0.2,0.3-0.3,0.3
								c0,0.4,0.1,0.7,0.2,1c0,0.1,0.1,0.3,0.1,0.4c0,0.1,0.1,0.2,0.1,0.3c0.1,0.4,0.3,0.7,0.3,1.1c-0.2,0,0.2,0.6-0.1,0.5
								c0.2,0.5,0.2-0.1,0.4,0c0,0.1,0.1,0.3,0.1,0.3c-0.1,0-0.1,0.2-0.2,0.1l0.1,0.3c0,0-0.1,0-0.1-0.1c0.4,0.6,0.2,1.2,0.6,1.8
								c0.1,0-0.1-0.2,0-0.2c0.4,0.5,0,0.6,0.4,1.1l-0.2-0.1c0.1,0.1,0.3,0.2,0.3,0.5c-0.1,0.1-0.2-0.2-0.3-0.3
								c0.1,0.2,0.3,0.7,0.4,0.5c0.1,0.2,0,0.3,0.1,0.5c0,0,0-0.3,0.1-0.1c0,0.3,0.2,0.8,0.4,1.2c0,0-0.1,0.1-0.1,0
								C37.9,66.7,37.6,66.8,37.8,67.2z"/>
							<path class="st11" d="M47.2,87.4l-0.1-0.2c0,0-0.1,0-0.1,0L47.2,87.4z"/>
							<path class="st11" d="M43.6,80.1C43.6,80.1,43.6,80.1,43.6,80.1C43.6,80.1,43.6,80.1,43.6,80.1z"/>
							<path class="st11" d="M42.7,78.4C42.7,78.5,42.7,78.4,42.7,78.4C42.7,78.3,42.7,78.3,42.7,78.4z"/>
							<path class="st11" d="M50.2,90.9C50.2,90.9,50.2,90.9,50.2,90.9C50.2,91,50.2,90.9,50.2,90.9z"/>
							<path class="st11" d="M61.1,97.7C61.1,97.7,61,97.7,61.1,97.7C61,97.7,61,97.7,61.1,97.7z"/>
							<path class="st11" d="M60.4,97.3c0,0-0.1,0-0.1,0C60.3,97.3,60.4,97.3,60.4,97.3z"/>
							<path class="st11" d="M48.3,88.5c0,0-0.1-0.1-0.1-0.1C48.2,88.5,48.3,88.5,48.3,88.5z"/>
							<path class="st11" d="M60.1,97.3L60,97.2c0,0,0,0,0,0L60.1,97.3z"/>
							<path class="st11" d="M61.3,97.8c-0.1,0-0.2,0-0.2-0.1C61.1,97.8,61.2,97.8,61.3,97.8z"/>
							<path class="st11" d="M53.8,94L53.8,94C53.6,94,53.7,94,53.8,94z"/>
							<polygon class="st11" points="59.3,97.3 59.3,97.3 59.2,97.3 							"/>
							<path class="st11" d="M62,98C62,98,62,98,62,98C62,98,62,98,62,98C62,98,62,98,62,98z"/>
							<path class="st11" d="M55.9,95.7c0.1,0,0.1,0,0.1-0.1C56,95.6,56,95.6,55.9,95.7z"/>
						</g>
					</g>
				</g>
			</g>
		</g>
		<g>
			<g>
				<g>
					<g>
						<g>
							<path class="st11" d="M58.5,98.2C58.5,98.2,58.5,98.1,58.5,98.2C58.5,98.1,58.5,98.2,58.5,98.2z"/>
							<path class="st11" d="M52.5,99L52.5,99C52.5,99,52.5,99,52.5,99z"/>
							<path class="st11" d="M62.1,97.4C62.1,97.4,62.1,97.4,62.1,97.4c0.1,0,0.1,0,0.2,0L62.1,97.4z"/>
							<path class="st11" d="M40.7,98L40.7,98C40.8,98,40.8,98,40.7,98z"/>
							<path class="st11" d="M47.4,99.5C47.4,99.5,47.3,99.5,47.4,99.5C47.3,99.6,47.4,99.5,47.4,99.5z"/>
							<path class="st11" d="M64.3,98.3l-0.1-0.1C64.2,98.2,64.3,98.3,64.3,98.3z"/>
							<path class="st11" d="M67.8,96.7C67.8,96.7,67.8,96.7,67.8,96.7C67.8,96.7,67.8,96.7,67.8,96.7z"/>
							<path class="st11" d="M66.3,96.8C66.2,96.9,66.2,96.9,66.3,96.8C66.2,96.9,66.3,96.9,66.3,96.8z"/>
							<path class="st11" d="M66.1,96.9L66.1,96.9C66.2,96.9,66.1,96.9,66.1,96.9z"/>
							<path class="st11" d="M45.4,84.3c0.1,0,0.2,0,0.3,0L45.4,84.3z"/>
							<path class="st11" d="M31.6,91.1L31.6,91.1C31.7,91.1,31.6,91.1,31.6,91.1z"/>
							<path class="st11" d="M45.9,83.6L45.9,83.6C45.9,83.6,45.9,83.6,45.9,83.6z"/>
							<path class="st11" d="M62.5,99.1c-0.1,0.1-0.3,0.1-0.3,0.2C62.3,99.2,62.5,99.2,62.5,99.1z"/>
							<path class="st11" d="M27.5,92.2L27.5,92.2C27.4,92.1,27.4,92.2,27.5,92.2z"/>
							<path class="st11" d="M45.9,83.6L45.9,83.6C45.8,83.5,45.8,83.5,45.9,83.6C45.8,83.6,45.9,83.6,45.9,83.6z"/>
							<polygon class="st11" points="25.5,85.4 25.5,85.4 25.5,85.4 							"/>
							<path class="st11" d="M25.8,85.4L25.8,85.4C25.8,85.4,25.8,85.4,25.8,85.4z"/>
							<path class="st11" d="M45.7,84.3l0.2,0C45.8,84.2,45.8,84.3,45.7,84.3z"/>
							<path class="st11" d="M31.1,83.4L31.1,83.4C31,83.4,31.1,83.4,31.1,83.4z"/>
							<path class="st11" d="M47.9,99.5C47.9,99.5,47.9,99.5,47.9,99.5C47.9,99.5,47.9,99.5,47.9,99.5z"/>
							<polygon class="st11" points="42.9,101.7 42.9,101.7 42.9,101.7 							"/>
							<path class="st11" d="M43.2,101.7c-0.1,0-0.2,0-0.3,0.1C43,101.8,43.1,101.8,43.2,101.7z"/>
							<path class="st11" d="M42.3,101.6L42.3,101.6C42.3,101.6,42.3,101.6,42.3,101.6z"/>
							<polygon class="st11" points="47.8,102.2 47.8,102.1 47.8,102.2 							"/>
							<path class="st11" d="M46.8,102.2C46.7,102.2,46.7,102.2,46.8,102.2C46.7,102.2,46.7,102.2,46.8,102.2z"/>
							<polygon class="st11" points="39.6,100.8 39.6,100.8 39.6,100.8 							"/>
							<path class="st11" d="M31,95.5c0.8,0.6,1.9,1.2,2.7,1.9c0.3,0,0.5,0.2,0.8,0.3l-0.1,0.2l0.3,0.1c0,0.1-0.2-0.1-0.1,0.1
								l0.2-0.1c0,0.1,0.5,0.5,0,0.3l0.8,0.6c0.2,0.1,0.2-0.1,0.4,0.1c0,0.1-0.1,0-0.1,0.1c0.5,0.6,1,0.1,1.5,0.6l-0.1,0
								c0.1,0,0.3,0.1,0.4,0.1c0.1-0.3-0.2,0-0.3-0.2c0.1-0.2,0.3,0.1,0.4-0.1c0.1,0.2,0.2,0.1,0.4,0.2c0.1,0.3,0.5,0.4,0.6,0.6
								c0.1,0,0.4-0.1,0.6,0c0.1,0.2-0.1,0.1,0.1,0.3l0.1-0.1c0.2,0.1,0.1,0.1,0.1,0.2c0.2,0.1,0.2-0.1,0.5,0.1l-0.2,0
								c0.2,0,0.3,0.1,0.6,0.2c0,0.1-0.1,0-0.2,0c0.1,0.2,0.3,0,0.4,0.1c0-0.1-0.2-0.2,0-0.2c0.1,0.1,0.4,0,0.4,0.1l-0.2,0.1
								c0.3,0,0.2-0.1,0.5,0.1c0,0,0,0,0,0.1c0.3-0.1,0.5,0.2,0.8,0.3l-0.1,0c0.1,0,0.2-0.1,0.3-0.1c-0.2-0.1-0.1-0.1-0.1-0.3
								c0.2,0.3,0.4-0.1,0.8,0.1c0,0.1-0.1,0.1-0.2,0c-0.2,0.2-0.2,0.4-0.5,0.4c0.2,0,0.4,0,0.3,0.1l0.1-0.2c0.1,0,0.2,0,0.2,0.1
								c0.1-0.1-0.1-0.2,0.1-0.3c0.3,0,0.1,0.2,0.1,0.1c0.3,0,0.2-0.2,0.5-0.1c0,0-0.1,0-0.1,0c0.2,0.1,0.6,0.1,0.6,0.3
								c0,0-0.1,0.1-0.1,0.1l0,0c-0.3,0.1,0.2,0,0.1,0.2c0-0.1,0.3-0.1,0.5,0l0-0.2c0.5-0.4-0.1,0.3,0.4,0.3c0.3-0.1-0.1,0,0.1-0.1
								c0.2,0,0.3,0.2,0.6,0.1c0.1,0.1,0.3,0.1,0.3,0.3c0.2-0.1,0.6,0.1,0.7-0.1c-0.3-0.1-0.3,0.2-0.7,0l0.1-0.2
								c0.3,0,0.6-0.1,0.8,0c0,0-0.1-0.1,0-0.1c0.4-0.1,0.5-0.2,0.8-0.2c0.1,0.1-0.1,0.1-0.3,0.1c0.2,0.1,0.2,0,0.6,0
								c0,0.1-0.2,0-0.3,0.1l0.4-0.1l0,0c0-0.2,0.3,0,0.5-0.1c0.5,0,0.6-0.3,0.9-0.5c0.1,0,0.1,0.1,0.1,0.2c-0.1-0.1-0.1,0-0.2,0.1
								c0.2,0,0.4,0.2,0.3,0.3c0.3-0.1-0.1-0.1,0.1-0.2l0.4,0c-0.1-0.1-0.2-0.1,0-0.2c0.2-0.1,0.3,0,0.5-0.1c0,0.1,0.1,0.2-0.1,0.2
								c0.1,0,0.3,0,0.3-0.1c-0.3-0.1,0.4-0.2,0.2-0.3l0.3,0.1c-0.1,0-0.1,0.1-0.1,0.1c0.1,0.2,0.2-0.1,0.3-0.1c0.1,0,0.3,0,0.3,0.1
								c0.1-0.1,0.3-0.1,0.3,0c0.1-0.1,0-0.1,0-0.2l0.4,0c0,0.1,0.1,0.3,0.1,0.4c0.1-0.1,0-0.3,0.2-0.3c-0.1,0.2,0.3,0.1,0.2,0.3
								c0.1,0.1,0.5,0,0.7,0c0.1-0.2-0.2,0-0.2-0.2c0.5-0.2,0.5-0.5,0.9-0.6l-0.1,0c0.2-0.1,0.2-0.1,0.3-0.3c0,0.2,0.4,0.4,0.8,0.3
								c0-0.1-0.3-0.1-0.2-0.3l0.3-0.1c0,0,0,0,0,0.1c0.2-0.1,0.5,0.1,0.5-0.1l0.3,0.2l-0.1-0.1c0-0.1,0.3-0.2,0.3-0.2
								c0.3-0.2,0.4-0.1,0.6,0c-0.1-0.1-0.2-0.2,0-0.3c0.1,0.3,0.5,0,0.5,0.2c0.1,0,0.3,0,0.3-0.1l0,0.2c0-0.3,0.3-0.3,0.5-0.4
								c0,0.3,0.3-0.1,0.5,0.2c0-0.2,0.4-0.2,0.4-0.4c0.2-0.1,0.2,0.2,0.3,0.2l0.1-0.1c0.1,0.1,0.5,0,0.7,0l0.1-0.2l0.1,0.1
								c0-0.1,0.2-0.1,0.1-0.2l0.1,0c0-0.2,0.1-0.1,0.3-0.2c0.1,0,0.1,0.1,0,0.1c0.1,0,0.1,0.1,0.2,0.2c-0.1,0,0.3-0.5,0-0.5
								c0-0.1,0.1-0.2,0.2-0.2l0.1,0.2l0.1-0.2c0.2-0.1,0.3,0,0.4,0c-0.1,0-0.2,0.5,0.2,0.4c-0.2,0.1-0.2,0.2-0.3,0.3
								c0.1,0,0.1,0,0,0.1c0.3-0.1,0.1-0.1,0.3-0.2c0,0.2,0.1,0.2,0.4,0.2l-0.2-0.1c0,0,0,0,0-0.1c-0.1,0-0.1,0-0.1-0.1
								c0.1,0,0.3-0.3,0.3-0.2c-0.3-0.2,0.4-0.3,0.2-0.5c0-0.1,0.2-0.1,0.2,0c-0.2,0.2,0.2,0.1,0.2,0.3c0.1-0.1-0.2-0.1-0.1-0.2
								c0.1-0.1,0.3,0,0.4,0.1l0,0l0.2,0c0-0.1-0.2-0.1-0.1-0.2c0.1,0,0.2-0.1,0.3,0c-0.1,0.1,0.1,0.3-0.1,0.4
								c0.1-0.1,0.6-0.2,0.3-0.3l0.2,0c-0.1,0-0.4-0.1-0.1-0.2l0,0l0.2-0.2l0.1,0.1c0,0,0-0.1,0.1-0.1c0,0,0.1,0,0.1,0.1
								c0.2-0.1,0.2-0.2,0.2-0.2c0.1-0.1,0.2,0,0.2,0.1c0.2,0,0.5-0.2,0.7-0.1c0.2-0.2-0.1,0,0-0.2c0.3,0.2,0.9-0.1,1.2-0.3
								c-0.2-0.2,0.1-0.1,0.1-0.3c-0.1,0.1,0.4,0.1,0.1,0.3l0.2-0.1c0.2,0.1-0.3,0.2,0,0.3c0.2-0.1,0.3-0.4,0.6-0.4
								c0,0.2,0.2-0.1,0.2,0.1c0,0.1-0.1,0.1-0.2,0.1l0.1,0c0.5-0.1,0.1-0.3,0.3-0.5c0.3-0.1,0.3,0.1,0.4,0.1c0.1,0,0.2-0.1,0.3-0.1
								c-0.2,0.2-0.4,0-0.4-0.1c0.2,0.2,0.5-0.1,0.5-0.3c-0.5-0.1-0.3,0.1-0.8,0c0,0.1,0,0.3-0.2,0.3c0.1-0.2,0-0.1-0.1-0.1
								c0.1,0.1-0.2,0.1-0.2,0.2c-0.1-0.1,0.1-0.3-0.2-0.3l0,0.3c-0.1,0,0-0.2-0.2-0.1c0.1-0.2-0.1-0.2,0.2-0.3
								c-0.4-0.1-0.5,0.3-0.7,0.5c0,0,0-0.1,0-0.1c0,0.1-0.1,0.1-0.2,0.2c-0.2,0,0.1-0.2,0-0.2L66.2,97c0,0,0,0,0,0
								C66.1,97,66,97.1,66,97c0.1-0.1,0.1-0.2,0.1-0.3L65.8,97c0-0.1-0.3-0.1-0.1-0.2L65.3,97l-0.1-0.2c-0.1,0.1-0.1,0.1,0,0.1
								c-0.2,0-0.6,0.5-0.6,0.2c-0.3,0.3-0.5,0.2-0.9,0.5c0.3-0.3-0.4-0.1-0.1-0.3c-0.2,0-0.2,0.2-0.4,0.3c-0.2,0-0.2-0.2,0-0.3
								l-0.2,0.1l0,0l-0.1,0.1c-0.2,0-0.1-0.2-0.3-0.1l0,0.2l-0.2-0.1c0.1,0.1,0,0.1-0.2,0.2l0,0l-0.2,0.1c0.1-0.1-0.2,0-0.1-0.1
								c-0.1,0-0.1,0-0.4,0.1l0.1,0.1c-0.3,0.2-0.1-0.2-0.3-0.1l0.1,0.1c-0.4-0.1-0.6,0.3-0.9,0.2c0.2-0.1,0.1-0.2,0.1-0.2
								c-0.2,0.1-0.6,0.2-0.9,0.4c-0.1-0.2-0.2-0.2-0.5-0.2c-0.2,0.1-0.2,0.1-0.2,0.2c-0.2,0-0.5,0.2-0.6,0c0,0.1-0.2,0-0.3,0.1l0,0
								l0,0.1c-0.4-0.2-0.5,0.3-0.9,0.1l0,0l-0.1,0.1c0,0,0-0.1,0-0.2l-0.6,0.1l0.1,0.1c-0.1,0-0.2,0.2-0.4,0.1
								c0.2-0.2-0.2,0-0.3-0.1l0.1-0.1c-0.2,0.1-0.2,0.1-0.1,0.2c-0.2,0.1-0.2-0.2-0.4,0l0.2,0c0.1,0.1,0,0.2-0.1,0.2
								c0,0-0.1-0.1,0-0.1c-0.2,0.1-0.5,0.1-0.6,0.1c-0.1,0-0.1-0.1,0-0.2c-0.4,0.2-0.2,0-0.6,0.2l0-0.1L54.4,99l-0.2-0.1l0.1,0.1
								c-0.1,0-0.2,0.1-0.4,0.1l0-0.1c-0.4,0.1-0.5-0.1-0.8,0.1c0,0,0-0.1,0-0.1c-0.3,0.2-0.3-0.1-0.6,0.1c0,0,0-0.1,0-0.1l-0.1,0.1
								l0-0.1l-0.1,0.2l-0.1-0.1l0,0.1c-0.2-0.2-0.4,0-0.7-0.2l0.1,0.2c-0.5,0.5-1.3,0-2,0.3l0-0.1l-0.3,0.2c-0.2-0.1,0.1-0.1,0-0.2
								c-0.3,0.1-0.1,0.2-0.4,0.3c-0.2-0.1,0.1-0.1,0.1-0.2c-0.3,0.1-0.8,0.2-1,0.2c0,0,0,0,0,0.1c-0.2,0.1-0.5,0-0.7,0.1
								c0-0.1,0.1-0.1,0.1-0.1c-0.1,0-0.2,0-0.3,0l0.1-0.1c-0.2,0-0.5,0.1-0.6,0c0,0.1,0,0.2-0.1,0.2c-0.1-0.2-0.4,0.1-0.7,0
								c0-0.1,0.2-0.1,0.2-0.1c-0.1-0.1-0.2,0-0.3,0.1l0-0.1c-0.2,0-0.4,0.1-0.6,0.1c-0.1-0.2-0.5,0-0.5-0.2c-0.2,0,0.2,0.1-0.1,0.1
								c-0.1-0.1-0.2,0-0.2-0.1l0,0l-0.2,0l0.1-0.1c-0.2,0-0.3,0.1-0.3,0.2c-0.1-0.1-0.3-0.1-0.4-0.2l0.1,0c-0.4,0-0.5-0.5-0.9-0.4
								c0,0,0-0.1,0,0l-0.2-0.1l0.1-0.1l-0.4,0l0-0.1c-0.2-0.1-0.6-0.2-0.9-0.4l0.1,0C40.9,98.2,41,98,40.7,98c0,0,0,0,0,0l-0.2-0.1
								l0.1,0c-0.2,0-0.4-0.4-0.3-0.3c-0.1,0-0.3,0-0.4,0c-0.2-0.1,0-0.1-0.1-0.3c-0.2-0.1-0.3,0-0.5-0.2l0-0.1
								C39.2,97,39.1,97,39,96.9l0.1,0c-0.3,0-0.2-0.4-0.6-0.3c-0.1-0.1-0.3-0.2-0.2-0.3c-0.4-0.1-0.6-0.3-1-0.5
								c0.1-0.2-0.1,0-0.2-0.3l-0.1,0.1c-0.4-0.3-0.8-1-1.3-1.3l0.1-0.1l-0.2,0c-0.5-0.5-1.1-1-1.5-1.3c-0.2-0.1-0.5-0.1-0.7-0.3
								l0,0c-0.4-0.2-0.8-0.5-1.2-0.9c0.1,0,0-0.1,0.1-0.1c-0.2,0-0.2-0.2-0.3-0.3l0,0.2c-0.2,0-0.3-0.2-0.3-0.3l-0.3,0
								c0,0,0-0.1,0-0.1l-0.1,0l0-0.2c-0.1,0-0.3-0.2-0.5-0.1c0-0.1-0.1-0.2,0-0.1l-0.6-0.6l0.1,0.1c-0.1,0.1-0.3,0-0.4-0.1
								c0.2,0,0.1-0.1,0.1-0.2c-0.1,0,0,0.2-0.1,0.2c-0.2,0-0.4-0.2-0.4-0.3l0.1,0c-0.2-0.1-0.1-0.3-0.3-0.4c-0.2,0-0.2-0.2-0.4,0
								c-0.2-0.1,0-0.2,0-0.2c-0.2,0-0.4-0.3-0.3-0.4c-0.3,0.2-0.4-0.5-0.6-0.4L28.2,88c-0.1,0-0.2,0.1-0.3,0.1
								c-0.1-0.2,0-0.2,0.1-0.3l-0.3,0.1c-0.2-0.4-0.6-0.8-1-1.2l-0.6-0.6c-0.1-0.1-0.2-0.2-0.3-0.3c0,0-0.1-0.1-0.1-0.1
								c0,0,0,0,0,0c-0.1,0-0.3,0-0.3-0.1l0.1,0c0,0,0,0,0.1-0.1c0,0-0.1,0-0.1,0c-0.1,0-0.1,0-0.2,0c0,0,0.1-0.1,0.1-0.1
								c0.2,0,0.2,0,0.2-0.1c-0.2-0.2,0.3,0.1,0.2-0.1c0,0,0,0.1,0.1,0.1c0-0.1,0-0.1,0-0.2c0-0.1,0-0.1,0.1-0.3
								c0.1,0.3,0.3-0.1,0.3,0l0-0.1c0.1,0,0.3,0,0.3,0.1l0.1-0.2l0.1,0.1c0.2-0.1,0.7-0.4,0.9-0.2c0.3-0.2,0.6-0.4,1-0.5
								c0.4-0.1,0.8-0.2,1.2-0.3c0.1-0.1,0.3-0.2,0.5-0.2l0.2,0.1c0.2-0.1,0.3-0.3,0.5-0.3c0,0,0,0,0,0c0.2-0.1,0.4,0,0.5-0.2
								c0.2,0,0.4,0,0.4,0.2c0-0.3,0.4,0,0.4,0s0.2,0,0.5-0.1c0.3,0,0.7,0,1.2-0.1c1,0,2.4-0.1,3.9,0.1c2.9,0.2,6,1.1,7.5,1
								c0.1-0.1,0.4,0,0.4-0.2c0.2,0,0.2,0.3,0.3,0.2c-0.2-0.2,0.2-0.3,0-0.5l0.2,0c0.1-0.1-0.3,0-0.1-0.1L46,83.8
								c-0.1-0.1-0.2-0.2-0.2-0.3c-0.2,0-0.4,0.3-0.6,0l0.1,0c-0.2-0.1-0.1-0.2-0.1-0.3l0,0l-0.1-0.2c0.1,0.1,0.4,0.1,0.3,0
								c-0.2-0.2,0,0.1-0.2,0c-0.1,0,0-0.1,0-0.2L45,82.9c0-0.1,0.1,0.1,0.1-0.1c-0.1,0-0.2,0-0.3,0c0-0.3-0.4,0-0.4-0.3
								c0.2,0,0-0.1,0.1-0.2l-0.5-0.2c0-0.1,0.2,0,0.1,0c-0.1-0.1-0.2,0-0.2,0c0-0.1-0.4-0.1-0.3-0.3c-0.3-0.2-0.2,0.2-0.5,0
								c0-0.1,0.3,0.1,0.2-0.1l-0.4-0.1c0,0,0.1-0.2,0.2-0.1c-0.9-0.4-1.3-1.1-2.3-1.2c-0.1-0.2,0.1-0.1,0.2-0.1
								c-0.7,0-0.9-0.4-1.5-0.5l0,0.1c-0.8-0.4-1.8-0.3-2.7-0.5l0.1,0.1c-0.1,0.1-0.3,0.1-0.5,0.2c0-0.1,0.1-0.2-0.2-0.2
								c0.1,0,0.2,0.1,0.1,0.1c-0.8-0.3-2.5-0.1-3.8-0.1c-1.8,0.3-3.7,0.6-5.4,1.3c0.2-0.1,0.2,0.2,0,0.2c-0.7-0.2-0.9,0.4-1.5,0.3
								c-0.2,0.1-0.4,0.2-0.7,0.3l-0.3,0.1c-0.1,0.1-0.2,0.1-0.4,0.2c-0.7,0.4-1.4,0.8-1.9,1.2l-0.1-0.1c-0.3,0.1-0.2,0.2-0.4,0.3
								l0,0c-0.6,0.3-1.1,0.8-1.4,0.9l0.2,0.1c-0.3,0.2-0.3,0.1-0.5,0.3l-0.1,0c0,0.1-0.1,0.2-0.1,0.2l0,0c-0.4-0.1,0.7,0.7,0.8,0.9
								c0.4,0.3,1.2,0.9,1.6,1.4c0,0.1,0.6,0.8,1,1.2c0.2,0.2,0.5,0.5,0.8,0.7c0.3,0.2,0.6,0.5,0.8,0.8l0.1-0.1l0.2,0.1
								c0,0,0,0.1-0.1,0c0,0.2,0.4,0.3,0.4,0.5c0-0.2-0.1-0.1-0.2-0.2c-0.1-0.2,0.2-0.2,0.3,0l0,0l0.2,0c-0.1,0.1,0,0.2-0.1,0.3
								c0.5,0.4,1,0.5,1.4,1c-0.1,0.1,0.4,0.3,0.1,0.4c0.4,0.2,0.1-0.2,0.3-0.2c0.1,0.1,0.2,0.1,0.2,0.2c-0.1,0,0,0.2-0.1,0.1
								l0.2,0.2c0,0-0.1,0-0.1,0c0.5,0.2,0.6,0.8,1.1,1c0.1,0-0.1-0.1,0-0.2c0.5,0.2,0.2,0.4,0.7,0.6l-0.2,0c0.2,0,0.3,0,0.4,0.2
								c-0.1,0.1-0.2,0-0.4-0.1c0.1,0.1,0.5,0.4,0.5,0.2c0.2,0.1,0.2,0.2,0.2,0.3c0,0-0.1-0.2,0.1-0.2c0.2,0.2,0.5,0.5,0.7,0.7
								c0,0,0,0.1-0.1,0.1C30.9,95.1,30.7,95.3,31,95.5z"/>
							<path class="st11" d="M48,102.2l-0.1,0c0,0,0,0.1-0.1,0.1L48,102.2z"/>
							<path class="st11" d="M41.2,101.4C41.2,101.4,41.2,101.4,41.2,101.4C41.2,101.4,41.2,101.4,41.2,101.4z"/>
							<path class="st11" d="M39.6,100.9c0.1,0,0-0.1,0-0.1C39.5,100.8,39.5,100.9,39.6,100.9z"/>
							<path class="st11" d="M51.6,101.3C51.6,101.4,51.6,101.4,51.6,101.3C51.6,101.4,51.6,101.4,51.6,101.3z"/>
							<path class="st11" d="M61.4,99.3C61.4,99.3,61.4,99.3,61.4,99.3C61.4,99.3,61.4,99.3,61.4,99.3z"/>
							<path class="st11" d="M60.8,99.3c0,0-0.1,0-0.1,0C60.8,99.3,60.8,99.3,60.8,99.3z"/>
							<path class="st11" d="M49.2,101.7c0,0-0.1,0-0.1,0.1C49.1,101.8,49.2,101.8,49.2,101.7z"/>
							<path class="st11" d="M60.6,99.4l-0.1,0c0,0,0,0,0,0L60.6,99.4z"/>
							<path class="st11" d="M61.6,99.3c-0.1,0-0.1,0-0.2,0C61.5,99.4,61.6,99.4,61.6,99.3z"/>
							<path class="st11" d="M55.2,100.5L55.2,100.5C55.1,100.6,55.1,100.6,55.2,100.5z"/>
							<polygon class="st11" points="60.1,99.8 60.1,99.8 60,99.8 							"/>
							<path class="st11" d="M62.2,99.2C62.2,99.2,62.2,99.2,62.2,99.2C62.2,99.3,62.2,99.3,62.2,99.2
								C62.2,99.2,62.2,99.2,62.2,99.2z"/>
							<path class="st11" d="M57.3,100.3c0-0.1,0-0.1,0-0.1C57.3,100.2,57.2,100.2,57.3,100.3z"/>
						</g>
					</g>
				</g>
			</g>
		</g>
		<g>
			<g>
				<g>
					<g>
						<g>
							<path class="st11" d="M81.7,101.7C81.7,101.7,81.7,101.7,81.7,101.7C81.7,101.7,81.7,101.7,81.7,101.7z"/>
							<path class="st11" d="M88.5,103.3L88.5,103.3C88.5,103.3,88.5,103.3,88.5,103.3z"/>
							<path class="st11" d="M77.9,100.3C77.9,100.3,77.9,100.3,77.9,100.3c0,0-0.1-0.1-0.3-0.1L77.9,100.3z"/>
							<path class="st11" d="M103.2,100.8L103.2,100.8C103.2,100.8,103.2,100.8,103.2,100.8z"/>
							<path class="st11" d="M94.7,103c0,0,0.1-0.1,0.1-0.1C94.7,102.9,94.7,102.9,94.7,103z"/>
							<path class="st11" d="M76.3,98.2l0.1,0.1C76.4,98.3,76.4,98.3,76.3,98.2z"/>
							<path class="st11" d="M72.4,97.1C72.4,97.1,72.4,97.1,72.4,97.1C72.4,97.1,72.4,97.1,72.4,97.1z"/>
							<path class="st11" d="M73.7,98.1c0,0,0.1,0,0.1,0C73.8,98.1,73.7,98,73.7,98.1z"/>
							<path class="st11" d="M73.9,98.1L73.9,98.1C73.9,98.1,73.9,98.1,73.9,98.1z"/>
							<path class="st11" d="M98.3,81.7c-0.1,0.1-0.2,0.2-0.2,0.3L98.3,81.7z"/>
							<path class="st11" d="M115.1,94.4L115.1,94.4C115.1,94.4,115.1,94.4,115.1,94.4z"/>
							<path class="st11" d="M98.6,82.5L98.6,82.5C98.5,82.5,98.6,82.5,98.6,82.5z"/>
							<path class="st11" d="M78.4,98.7c0.1,0,0.3,0.1,0.4,0C78.7,98.7,78.5,98.6,78.4,98.7z"/>
							<path class="st11" d="M115.1,89.9L115.1,89.9C115.1,89.9,115.1,89.9,115.1,89.9z"/>
							<path class="st11" d="M98.6,82.5L98.6,82.5C98.7,82.5,98.7,82.4,98.6,82.5C98.6,82.5,98.6,82.5,98.6,82.5z"/>
							<path class="st11" d="M125.8,83.1L125.8,83.1C125.8,83.1,125.8,83.1,125.8,83.1L125.8,83.1z"/>
							<path class="st11" d="M124.9,82.3c0.1,0,0.2,0.1,0.3,0.1C125,82.4,124.9,82.4,124.9,82.3z"/>
							<path class="st11" d="M98.1,82L98,82.1C98,82.1,98,82,98.1,82z"/>
							<path class="st11" d="M116,78.7L116,78.7C116,78.7,116,78.7,116,78.7z"/>
							<path class="st11" d="M94.1,103C94.1,103,94.1,103,94.1,103C94,103,94,103.1,94.1,103z"/>
							<polygon class="st11" points="98.8,99.4 98.8,99.4 98.8,99.4 							"/>
							<path class="st11" d="M98.5,99.5c0.1,0,0.2-0.1,0.2-0.2C98.7,99.4,98.6,99.4,98.5,99.5z"/>
							<path class="st11" d="M99.4,99.2C99.4,99.2,99.3,99.2,99.4,99.2C99.3,99.2,99.4,99.2,99.4,99.2z"/>
							<polygon class="st11" points="93.9,100.4 93.9,100.4 93.9,100.4 							"/>
							<path class="st11" d="M95,100.2C95,100.2,95,100.2,95,100.2C95,100.2,95,100.2,95,100.2z"/>
							<polygon class="st11" points="101.9,98.1 101.9,98.1 101.9,98.1 							"/>
							<path class="st11" d="M110.8,92.7c-0.4,0.3-0.9,0.7-1.4,1c-0.5,0.3-1,0.7-1.4,0.9c-0.1,0.3-0.4,0.4-0.7,0.6l-0.2-0.2
								l-0.2,0.2c-0.1,0,0.2-0.1-0.1-0.1l0,0.2c-0.1-0.1-0.7,0.3-0.3-0.1c-0.3,0.2-0.6,0.3-0.9,0.5c-0.2,0.1,0,0.3-0.3,0.3
								c-0.1,0,0.1-0.1,0-0.2c-0.8,0.2-0.6,0.9-1.3,1l0-0.1c-0.1,0.1-0.3,0.2-0.3,0.2c0.2,0.2,0.1-0.2,0.3-0.1
								c0.1,0.2-0.2,0.2-0.1,0.4c-0.2,0-0.2,0.2-0.4,0.2c-0.3,0-0.6,0.2-0.8,0.1c-0.1,0.1-0.1,0.4-0.4,0.5c-0.2-0.1,0-0.2-0.3-0.1
								l0,0.1c-0.2,0.1-0.2,0-0.2,0c-0.2,0.1-0.1,0.2-0.4,0.3l0.1-0.2c-0.2,0.1-0.3,0.1-0.6,0.2c0-0.1,0.1-0.1,0.2-0.1
								c-0.2-0.1-0.2,0.2-0.3,0.2c0,0,0.2,0,0.2,0.1c-0.1,0-0.2,0.3-0.4,0.2l0.1-0.2c-0.3,0.2-0.1,0.2-0.5,0.3c0,0,0,0,0-0.1
								c-0.2,0.2-0.5,0.2-0.8,0.3l0-0.1c-0.1,0.1-0.1,0.2-0.2,0.2c0.2,0,0.2,0.1,0.2,0.2c-0.3-0.1-0.3,0.3-0.7,0.3
								c0-0.1,0.1-0.2,0.2-0.1c0.1-0.2,0-0.4,0.2-0.6c-0.1,0.1-0.3,0.2-0.3,0.1l0,0.2c-0.1,0-0.2,0-0.2,0.1c0,0.1,0.2,0.1,0.1,0.3
								c-0.2,0.1-0.2-0.2-0.2-0.1c-0.3,0.2-0.1,0.2-0.4,0.3c0,0,0.1-0.1,0.1-0.1c-0.2,0-0.5,0.2-0.7,0c0-0.1,0-0.1,0.1-0.1l0,0
								c0.2-0.2-0.2,0.1-0.2-0.1c0.1,0.1-0.3,0.2-0.4,0.2l0.1,0.1c-0.4,0.5,0-0.3-0.5-0.1c-0.3,0.2,0.1,0,0,0.2
								c-0.2,0-0.3-0.1-0.6,0.1c-0.1,0-0.3-0.1-0.3-0.2c-0.2,0.1-0.6,0-0.6,0.2c0.3,0.1,0.3-0.2,0.7-0.1l-0.1,0.2
								c-0.2,0-0.5,0.2-0.7,0.2c0,0,0.1,0.1,0,0.1c-0.3,0.1-0.4,0.3-0.8,0.3c-0.1-0.1,0.1-0.1,0.3-0.2c-0.2-0.1-0.2,0-0.6,0.1
								c0-0.1,0.2,0,0.3-0.2l-0.4,0.1l0,0c0,0.2-0.3,0-0.5,0.1c-0.6,0.1-0.6,0.4-0.9,0.6c-0.1,0-0.1-0.1-0.1-0.2
								c0.1,0.1,0.1,0,0.2-0.1c-0.2,0-0.4-0.2-0.3-0.3c-0.3,0.1,0.1,0.1-0.1,0.2l-0.4,0c0.1,0.1,0.2,0.1,0,0.2c-0.2,0-0.3,0-0.5,0
								c0-0.1-0.1-0.2,0.1-0.2c-0.1,0-0.3,0-0.4,0.1c0.3,0.1-0.4,0.1-0.2,0.3l-0.3-0.1c0.1,0,0.1-0.1,0.2-0.1
								c-0.1-0.2-0.2,0.1-0.3,0.1c-0.1,0-0.3,0-0.3-0.1c-0.1,0-0.3,0-0.3-0.1c-0.1,0,0,0.1,0,0.2l-0.4,0c0-0.1,0-0.3,0-0.4
								c-0.2,0.1-0.1,0.3-0.3,0.3c0.1-0.2-0.3-0.1-0.1-0.4c-0.1-0.1-0.5-0.2-0.7-0.1c-0.1,0.1,0.2,0.1,0.2,0.2
								c-0.6,0-0.7,0.4-1.1,0.3l0.1,0.1c-0.3,0.1-0.3,0-0.4,0.1c0.1-0.2-0.3-0.5-0.7-0.5c-0.1,0.1,0.2,0.2,0.1,0.3l-0.3,0
								c0,0,0,0,0.1-0.1c-0.3,0-0.5-0.3-0.6-0.1l-0.2-0.3l0.1,0.1c-0.1,0.1-0.4,0.1-0.4,0.1c-0.3,0-0.4-0.1-0.6-0.2
								c0,0.1,0.1,0.3-0.1,0.3c0.1-0.3-0.5-0.2-0.4-0.4c-0.1,0-0.2-0.1-0.3,0l0.1-0.2c-0.1,0.2-0.4,0.2-0.7,0.1
								c0.1-0.3-0.3-0.1-0.3-0.4c-0.1,0.2-0.5,0-0.6,0.1c-0.2,0-0.1-0.3-0.2-0.3l-0.1,0.1c-0.1-0.1-0.5-0.3-0.7-0.4l-0.3,0.1
								l-0.1-0.1c0,0-0.2,0-0.1,0.1l-0.1,0c-0.1,0.2-0.2,0-0.4,0c0-0.1,0-0.1,0-0.1c-0.1,0,0-0.1-0.1-0.2c0.1,0.1-0.5,0.3-0.3,0.4
								c0,0.1-0.2,0.1-0.3,0l0-0.2l-0.2,0.2c-0.2,0-0.2-0.2-0.4-0.2c0.2,0,0.4-0.3,0.1-0.4c0.2,0,0.3,0,0.5,0c-0.1,0-0.1-0.1,0-0.1
								c-0.3,0-0.1,0.1-0.4,0c0.1-0.2,0-0.2-0.2-0.4l0.1,0.2c0,0,0,0-0.1,0c0.1,0,0.1,0.1,0.1,0.1c-0.1,0-0.4,0.1-0.4,0
								c0.2,0.4-0.6,0-0.4,0.3c-0.1,0-0.3,0-0.2-0.1c0.3,0-0.1-0.3,0-0.4c-0.1,0,0.1,0.2,0,0.2c-0.1,0-0.2-0.2-0.3-0.3l0.1,0
								l-0.2-0.2c-0.1,0.1,0.2,0.2-0.1,0.2c0-0.1-0.3-0.1-0.2-0.2c0.1-0.1,0.1-0.3,0.3-0.2c-0.1,0-0.6-0.2-0.5,0l-0.2-0.1
								c0.1,0.1,0.3,0.4,0,0.2l0,0l-0.3,0l-0.1-0.1c0,0-0.1,0.1-0.2,0c0-0.1-0.1-0.1-0.1-0.2c-0.3-0.1-0.3,0-0.3,0
								c-0.1,0-0.2-0.1-0.1-0.2c-0.2-0.1-0.5-0.2-0.6-0.3c-0.3,0,0,0.1-0.2,0.1c-0.1-0.4-0.8-0.4-1.3-0.6c0,0.3-0.1,0-0.3,0.2
								c0.1,0-0.3-0.4,0.1-0.3l-0.2-0.1c-0.1-0.2,0.4,0,0.3-0.2c-0.2-0.1-0.5,0.1-0.7-0.1c0.2-0.1-0.2,0-0.1-0.2c0.1,0,0.1,0,0.2,0
								l0-0.1c-0.4-0.3-0.2,0.1-0.6,0.1c-0.3-0.2-0.1-0.3-0.1-0.4c0-0.1-0.2-0.1-0.3-0.1c0.2,0,0.2,0.3,0.1,0.4
								c0-0.3-0.4-0.3-0.5-0.3c0.2,0.5,0.2,0.2,0.5,0.7c0.1,0,0.2-0.2,0.4,0c-0.2,0,0,0.1,0,0.2c0-0.1,0.2,0,0.3,0
								c0,0.1-0.3,0.2,0,0.3l0.2-0.2c0.1,0.1-0.1,0.2,0.1,0.2c-0.2,0.1-0.1,0.2-0.4,0.1c0.3,0.4,0.6,0.1,0.9,0.2c0,0-0.1,0-0.1,0
								c0.1,0,0.2,0,0.3,0c0.2,0.1-0.2,0.1-0.2,0.1l0.3,0.1c0,0,0,0,0,0c0.1,0,0.2,0,0.2,0.1c-0.1,0-0.2,0.1-0.3,0.2l0.4,0
								c-0.1,0.1,0.2,0.2,0,0.2l0.5,0.1l0,0.2c0.1,0,0.1,0,0-0.1c0.2,0.1,0.9,0,0.6,0.3c0.4,0,0.6,0.1,1.1,0.2
								c-0.4,0,0.3,0.4-0.1,0.3c0.2,0.2,0.3,0,0.5,0c0.1,0.1,0,0.3-0.2,0.3l0.2,0l0,0l0.2,0c0.2,0.2,0,0.2,0.2,0.3l0.1-0.1l0.1,0.1
								c0-0.1,0.1-0.1,0.3,0l0,0l0.2,0c-0.2,0,0.2,0.1,0,0.2c0.1,0.1,0.2,0.1,0.4,0.1l0-0.1c0.4,0,0,0.2,0.3,0.3l0-0.1
								c0.4,0.3,0.8,0.1,1,0.4c-0.2,0-0.2,0.1-0.2,0.1c0.3,0,0.7,0.2,1,0.2c0,0.2,0.1,0.3,0.3,0.4c0.2,0.1,0.3,0,0.4,0
								c0.2,0.1,0.6,0.1,0.6,0.3c0.1-0.1,0.2,0.1,0.3,0l0,0.1l0-0.1c0.3,0.4,0.7,0,1,0.3l-0.1,0l0.2,0c0,0.1-0.1,0.1-0.1,0.1
								l0.7,0.2l-0.1-0.1c0.2,0,0.3-0.1,0.4,0c-0.3,0.1,0.2,0.1,0.3,0.2l-0.2,0c0.2,0,0.2,0,0.2-0.1c0.3,0,0.1,0.3,0.4,0.2l-0.2,0
								c0-0.1,0.1-0.2,0.2-0.1c0,0,0.1,0.1,0,0.1c0.2,0,0.6,0.1,0.7,0.1c0.1,0.1,0.1,0.1,0,0.2c0.5,0,0.2,0.1,0.7,0l0,0.1l0.2-0.1
								l0.2,0.2l-0.1-0.1c0.2,0,0.3,0,0.4,0l-0.1,0.1c0.5,0,0.5,0.2,1,0.1c0,0,0,0.1-0.1,0.1c0.4-0.1,0.3,0.2,0.7,0c0,0,0,0.1,0,0.1
								l0.2-0.1l0,0.1l0.2-0.2l0.1,0.2l0.1-0.1c0.2,0.3,0.5,0.1,0.7,0.3l0-0.2c0.7-0.4,1.6,0.2,2.4-0.1l0,0.1l0.3-0.2
								c0.2,0.1-0.1,0.1,0,0.2c0.4-0.1,0.1-0.2,0.5-0.3c0.2,0.1-0.1,0.1-0.2,0.2c0.4-0.1,0.9-0.3,1.2-0.2c0,0,0,0,0-0.1
								c0.2-0.1,0.6-0.1,0.9-0.2c0,0.1-0.1,0.1-0.1,0.1c0.1,0,0.3,0,0.3-0.1L95,103c0.2,0,0.6-0.2,0.7-0.1c0,0,0-0.2,0.1-0.2
								c0.2,0.2,0.5-0.2,0.8-0.2c0,0.1-0.2,0.1-0.2,0.1c0.2,0,0.3-0.1,0.4-0.2l0,0.1l0.7-0.3c0.2,0.2,0.6-0.2,0.6,0
								c0.2-0.1-0.2,0,0.1-0.1c0.1,0.1,0.3-0.1,0.3,0l0,0l0.2-0.1l-0.1,0.2c0.2-0.1,0.3-0.3,0.3-0.4c0.2,0,0.4-0.1,0.5,0l-0.1,0.1
								c0.5-0.2,0.9,0.1,1.2-0.2c0,0,0,0,0,0.1l0.3-0.1l0,0.1l0.4-0.3l0,0.1c0.3-0.1,0.8-0.3,1.3-0.5l-0.1,0.1
								c0.4-0.3,0.5-0.1,0.8-0.3c0,0,0,0,0,0l0.3-0.1l0,0.1c0.2-0.2,0.7-0.1,0.5-0.1c0.1-0.1,0.3-0.3,0.3-0.4c0.3-0.1,0.1,0.1,0.3,0
								c0.2-0.1,0.2-0.2,0.6-0.3l0,0.1c0.1-0.1,0.2-0.2,0.4-0.3l0,0.1c0.3-0.3,0.5,0,0.6-0.4c0.2,0,0.4-0.2,0.5,0
								c0.4-0.3,0.7-0.5,1-0.7c0.2,0.2,0.1-0.1,0.4-0.1l-0.1-0.1c0.5-0.3,1.4-0.4,1.9-0.8l0.1,0.1l0.1-0.2c0.7-0.3,1.6-0.8,2.1-1.1
								c0.1-0.2,0.3-0.5,0.6-0.6l0,0c0.4-0.3,0.9-0.7,1.4-1c0,0.1,0.1,0.1,0,0.1c0-0.2,0.3-0.2,0.4-0.3l-0.2,0
								c0.1-0.2,0.3-0.2,0.5-0.2l0.1-0.3c0,0,0.1,0,0.1,0l0-0.1l0.2,0.1c0-0.1,0.3-0.3,0.3-0.5c0.1,0,0.3-0.1,0.1,0.1
								c0.3-0.2,0.5-0.4,0.8-0.6l-0.2,0c-0.1-0.1,0.1-0.3,0.2-0.4c-0.1,0.2,0.1,0.2,0.2,0.2c0.1-0.1-0.2,0-0.1-0.1
								c0.1-0.2,0.3-0.4,0.4-0.4l0,0.1c0.1-0.2,0.4-0.1,0.5-0.2c0.1-0.2,0.3-0.2,0.1-0.4c0.2-0.2,0.2,0,0.3,0c0-0.2,0.4-0.4,0.5-0.3
								c-0.1-0.3,0.7-0.4,0.5-0.7l0.3,0c0-0.1-0.1-0.2,0-0.4c0.2-0.1,0.2,0.1,0.3,0.1l-0.1-0.3c0.5-0.3,0.9-0.7,1.4-1.1
								c0.4-0.4,0.9-0.9,1.4-1.2c0.2-0.2,0.3-0.5,0.5-0.7c0.1-0.1,0.2-0.2,0.3-0.4c0.1-0.1,0.2-0.2,0.4-0.4l-0.1,0.1
								c0.3-0.2,0.5-0.5,0.8-0.8c-0.2,0.2-0.4,0.4-0.6,0.5c0.1-0.2,0.2-0.4,0.3-0.5c0.4-0.4,0.9-0.9,1.4-1.5
								c0.2-0.3,0.5-0.6,0.7-0.8c0.1-0.1,0.2-0.3,0.3-0.4c-0.2-0.1-0.3-0.2-0.5-0.3c-1.2-0.4-0.2-0.4-1.2-0.8c0.1,0,0.2,0,0.3,0
								c-0.9-0.5-1.4-0.7-2.3-1c0.1-0.1,0-0.2-0.2-0.2c-0.2-0.1-0.2-0.1-0.2-0.1l-0.1,0.1c-0.1-0.1-0.3-0.3-0.2-0.3l-0.3,0l0-0.1
								c-0.3-0.1-1-0.3-1-0.6c-0.4-0.1-0.9-0.2-1.4-0.4c-0.5-0.2-1.1-0.4-1.5-0.5c-0.2,0.1-0.5,0-0.7-0.1l-0.2-0.2
								c-0.2,0-0.5,0.1-0.7,0c0,0,0,0,0,0c-0.2,0-0.5-0.1-0.7,0c-0.3-0.1-0.5-0.2-0.4-0.3c-0.1,0.2-0.5-0.1-0.5-0.1s-0.2,0-0.6-0.1
								c-0.4-0.1-0.9-0.2-1.6-0.2c-1.3-0.2-3.1-0.2-5,0.1c-1.9,0.2-3.9,0.8-5.5,1.5c-1.6,0.7-2.8,1.6-3.4,2.3c0,0.2-0.3,0.4-0.1,0.4
								c-0.2,0.2-0.4,0-0.4,0.1c0.3-0.1,0.1,0.3,0.4,0.3l-0.2,0.1c0,0.1,0.2-0.2,0.2-0.1l-0.1-0.2c0.2,0,0.3,0,0.3,0
								c0.1-0.1,0-0.5,0.4-0.5L99,82c0.2-0.1,0.2,0,0.3,0.1l-0.1,0l0.3,0c-0.2,0-0.4,0.3-0.2,0.2c0.3-0.1-0.1,0,0.1-0.2
								c0.1-0.1,0.2,0,0.2,0.1l0.2-0.1c0,0.1-0.2,0.1,0,0.1c0.1-0.1,0.2-0.2,0.3-0.3c0.2,0.2,0.3-0.3,0.5-0.1
								c-0.2,0.2,0.1,0.1,0.1,0.2l0.6-0.3c0.1,0-0.1,0.1,0,0.1c0.1,0,0.1-0.1,0.2-0.2c0.1,0,0.4-0.2,0.5,0c0.4,0,0.1-0.3,0.5-0.3
								c0.1,0.1-0.3,0.1-0.1,0.2l0.4-0.2c0,0.1,0,0.2-0.2,0.2c0.5-0.1,1-0.1,1.4,0c0.4,0,0.8,0,1.3-0.2c0.2,0.1-0.1,0.1-0.1,0.2
								c0.6-0.3,1,0.1,1.6,0l0-0.1c0.4,0.1,0.9,0.1,1.3,0c0.5,0,0.9-0.1,1.4,0l-0.1-0.1c0.1-0.1,0.3-0.1,0.5-0.2
								c0,0.1-0.1,0.2,0.2,0.2c-0.1,0-0.2-0.1-0.1-0.1c0.4,0.1,1,0.2,1.7,0.2c0.7,0.1,1.4,0.1,2,0.3c1.7,0.1,3.5,0.8,5.1,1.3
								c-0.2-0.1,0-0.3,0.1-0.2c0.3,0.6,0.9,0.3,1.2,0.8c0.2,0.1,0.5,0.2,0.7,0.3c0.1,0.1,0.2,0.1,0.3,0.2l0,0c0,0.1,0,0,0.3,0
								l-0.2,0.1c-0.1,0,0.1,0,0.1,0l-0.1,0c0,0,0.1,0,0,0.1l0.2,0c0,0-0.2,0-0.1,0l-0.1,0c0,0,0.1,0,0.1,0.1
								c-0.3-0.1-0.1,0.1-0.2,0c0,0,0,0,0,0.1c0,0,0,0-0.1,0.1c-0.1,0.2-0.3,0.4-0.4,0.5c-0.1,0-0.5,0.3-0.8,0.5
								c-0.4,0.5-1,1.1-1.6,1.7l0.1,0.1l-0.1,0.2c0,0-0.1,0,0-0.1c-0.2,0-0.3,0.4-0.5,0.4c0.2,0,0.1-0.1,0.2-0.2
								c0.2-0.1,0.2,0.2-0.1,0.3l0,0l-0.1,0.2c-0.1-0.1-0.2,0-0.3-0.1c-0.5,0.5-0.7,0.9-1.3,1.4c0-0.2-0.4,0.3-0.4,0.1
								c-0.3,0.3,0.2,0.1,0.1,0.4c-0.1,0.1-0.1,0.2-0.2,0.1c0-0.1-0.2-0.1-0.1-0.1l-0.2,0.2c0,0,0-0.1,0-0.1
								c-0.4,0.5-0.9,0.5-1.2,0.9c0,0.1,0.2-0.1,0.2,0c-0.3,0.5-0.5,0.1-0.8,0.5l0-0.2c-0.1,0.2-0.1,0.3-0.3,0.4
								c-0.1-0.1,0.1-0.2,0.2-0.4c-0.1,0.1-0.5,0.4-0.3,0.4c-0.1,0.2-0.3,0.1-0.4,0.1c0,0,0.2,0,0.2,0.1c-0.3,0.1-0.7,0.4-0.9,0.5
								c0,0-0.1-0.1-0.1-0.1C111.3,92.7,111.1,92.5,110.8,92.7z"/>
							<path class="st11" d="M93.7,100.4l0.1,0c0,0,0-0.1,0.1-0.1L93.7,100.4z"/>
							<path class="st11" d="M100.3,98.8C100.4,98.8,100.4,98.7,100.3,98.8C100.3,98.7,100.3,98.8,100.3,98.8z"/>
							<path class="st11" d="M101.8,98C101.7,98,101.8,98,101.8,98C101.9,98,101.9,98,101.8,98z"/>
							<path class="st11" d="M90,101.1C90,101.1,90,101.1,90,101.1C90,101.1,90,101.1,90,101.1z"/>
							<path class="st11" d="M79.6,99.1C79.6,99.1,79.6,99.1,79.6,99.1C79.6,99.1,79.6,99.1,79.6,99.1z"/>
							<path class="st11" d="M80.1,99.5c0,0,0.1,0,0.1,0C80.2,99.5,80.1,99.5,80.1,99.5z"/>
							<path class="st11" d="M92.5,100.9c0,0,0.1,0,0.1-0.1C92.6,100.9,92.6,100.9,92.5,100.9z"/>
							<path class="st11" d="M80.3,99.5l0.1,0.1c0,0,0,0,0,0L80.3,99.5z"/>
							<path class="st11" d="M79.4,99c0.1,0,0.1,0,0.2,0.1C79.5,99,79.5,99,79.4,99z"/>
							<path class="st11" d="M86.1,101L86.1,101C86.2,101,86.2,101,86.1,101z"/>
							<polygon class="st11" points="81,99.5 81.1,99.5 81.1,99.5 							"/>
							<path class="st11" d="M78.8,98.8C78.8,98.8,78.9,98.8,78.8,98.8C78.9,98.8,78.8,98.7,78.8,98.8
								C78.8,98.7,78.8,98.8,78.8,98.8z"/>
							<path class="st11" d="M84,100.4c-0.1,0-0.1,0.1-0.1,0.1C83.9,100.5,84,100.5,84,100.4z"/>
						</g>
					</g>
				</g>
			</g>
		</g>
		<g>
			<g>
				<path class="st11" d="M67.8,10c-0.4,2.3-0.4,4.6,0.3,6.8c0.2,0.6,0.9,1.1,1.5,0.9c0.6-0.2,1.1-0.9,0.9-1.5
					c-0.1-0.5-0.3-0.9-0.3-1.4c0-0.1,0-0.3-0.1-0.4c0,0.2,0,0,0-0.1c0-0.2,0-0.5-0.1-0.7c0-0.5,0-1,0-1.5c0-0.2,0-0.5,0.1-0.7
					c0,0.3,0-0.1,0-0.1c0-0.1,0.1-0.3,0.1-0.4c0.1-0.6-0.2-1.4-0.9-1.5C68.7,9,68,9.3,67.8,10L67.8,10z"/>
			</g>
		</g>
		<g>
			<g>
				<path class="st11" d="M112.2,44.2c1-1.2,2-2.5,3-3.7c0.2-0.3,0.4-0.5,0.4-0.9c0-0.3-0.1-0.7-0.4-0.9c-0.2-0.2-0.6-0.4-0.9-0.4
					c-0.3,0-0.7,0.1-0.9,0.4c-1,1.2-2,2.5-3,3.7c-0.2,0.3-0.4,0.5-0.4,0.9c0,0.3,0.1,0.7,0.4,0.9c0.2,0.2,0.6,0.4,0.9,0.4
					C111.6,44.5,112,44.4,112.2,44.2L112.2,44.2z"/>
			</g>
		</g>
		<g>
			<g>
				<path class="st11" d="M23.8,39.8c0.1,0.2,0.3,0.3,0.4,0.5c0.1,0.1,0.1,0.2,0.2,0.2c0.1,0.1-0.2-0.2-0.1-0.1c0,0,0.1,0.1,0.1,0.1
					c0.3,0.3,0.5,0.7,0.7,1c0.4,0.7,0.8,1.4,1.1,2.2c0.1,0.3,0.5,0.5,0.7,0.6c0.3,0.1,0.7,0,1-0.1c0.3-0.2,0.5-0.4,0.6-0.7
					c0.1-0.4,0-0.6-0.1-1c-0.7-1.7-1.7-3.2-2.9-4.5c-0.4-0.5-1.3-0.5-1.8,0C23.3,38.6,23.3,39.3,23.8,39.8L23.8,39.8z"/>
			</g>
		</g>
		<g>
			<g>
				<path class="st11" d="M6.1,82.5c1.1,0.3,2.1,0.6,3.2,1c0.6,0.2,1.4-0.2,1.5-0.9c0.2-0.7-0.2-1.3-0.9-1.5c-1.1-0.3-2.1-0.6-3.2-1
					c-0.6-0.2-1.4,0.2-1.5,0.9C5.1,81.6,5.5,82.3,6.1,82.5L6.1,82.5z"/>
			</g>
		</g>
		<g>
			<g>
				<path class="st11" d="M133,84c1.9-0.7,3.8-1.5,5.7-2.2c0.6-0.2,1.1-0.9,0.9-1.5c-0.2-0.6-0.9-1.1-1.5-0.9
					c-1.9,0.7-3.8,1.5-5.7,2.2c-0.6,0.2-1.1,0.9-0.9,1.5C131.7,83.8,132.4,84.3,133,84L133,84z"/>
			</g>
		</g>
	</g>
</g>
<g id="Layer_2">
</g>
</svg>
